<?xml version="1.0" encoding="utf-8" standalone="no"?>
<!DOCTYPE svg PUBLIC "-//W3C//DTD SVG 1.1//EN"
  "http://www.w3.org/Graphics/SVG/1.1/DTD/svg11.dtd">
<svg xmlns:xlink="http://www.w3.org/1999/xlink" width="639.682175pt" height="249.652595pt" viewBox="0 0 639.682175 249.652595" xmlns="http://www.w3.org/2000/svg" version="1.1">
 <metadata>
  <rdf:RDF xmlns:dc="http://purl.org/dc/elements/1.1/" xmlns:cc="http://creativecommons.org/ns#" xmlns:rdf="http://www.w3.org/1999/02/22-rdf-syntax-ns#">
   <cc:Work>
    <dc:type rdf:resource="http://purl.org/dc/dcmitype/StillImage"/>
    <dc:date>2026-05-02T23:32:14.235678</dc:date>
    <dc:format>image/svg+xml</dc:format>
    <dc:creator>
     <cc:Agent>
      <dc:title>Matplotlib v3.10.8, https://matplotlib.org/</dc:title>
     </cc:Agent>
    </dc:creator>
   </cc:Work>
  </rdf:RDF>
 </metadata>
 <defs>
  <style type="text/css">*{stroke-linejoin: round; stroke-linecap: butt}</style>
 </defs>
 <g id="figure_1">
  <g id="patch_1">
   <path d="M 0 249.652595 
L 639.682175 249.652595 
L 639.682175 0 
L 0 0 
z
" style="fill: #fafaf7"/>
  </g>
  <g id="axes_1">
   <g id="patch_2">
    <path d="M 97.790312 210.152595 
L 602.87226 210.152595 
L 602.87226 21.029182 
L 97.790312 21.029182 
z
" style="fill: #fafaf7"/>
   </g>
   <g id="patch_3">
    <path d="M 97.790312 201.556077 
L 160.533412 201.556077 
L 160.533412 179.130375 
L 97.790312 179.130375 
z
" clip-path="url(#pd3196d8e83)" style="fill: #6fa8dc; stroke: #ffffff; stroke-width: 0.5; stroke-linejoin: miter"/>
   </g>
   <g id="patch_4">
    <path d="M 97.790312 164.179908 
L 147.984792 164.179908 
L 147.984792 141.754207 
L 97.790312 141.754207 
z
" clip-path="url(#pd3196d8e83)" style="fill: #6fa8dc; stroke: #ffffff; stroke-width: 0.5; stroke-linejoin: miter"/>
   </g>
   <g id="patch_5">
    <path d="M 160.533412 126.803739 
L 244.190877 126.803739 
L 244.190877 104.378038 
L 160.533412 104.378038 
z
" clip-path="url(#pd3196d8e83)" style="fill: #f4a261; stroke: #ffffff; stroke-width: 0.5; stroke-linejoin: miter"/>
   </g>
   <g id="patch_6">
    <path d="M 160.533412 89.427571 
L 369.677075 89.427571 
L 369.677075 67.00187 
L 160.533412 67.00187 
z
" clip-path="url(#pd3196d8e83)" style="fill: #f4a261; stroke: #ffffff; stroke-width: 0.5; stroke-linejoin: miter"/>
   </g>
   <g id="patch_7">
    <path d="M 369.677075 52.051402 
L 578.820739 52.051402 
L 578.820739 29.625701 
L 369.677075 29.625701 
z
" clip-path="url(#pd3196d8e83)" style="fill: #8fd3b5; stroke: #ffffff; stroke-width: 0.5; stroke-linejoin: miter"/>
   </g>
   <g id="matplotlib.axis_1">
    <g id="xtick_1">
     <g id="line2d_1">
      <defs>
       <path id="mc2f2be052b" d="M 0 0 
L 0 3.5 
" style="stroke: #2f3437; stroke-width: 0.8"/>
      </defs>
      <g>
       <use xlink:href="#mc2f2be052b" x="97.790312" y="210.152595" style="fill: #2f3437; stroke: #2f3437; stroke-width: 0.8"/>
      </g>
     </g>
     <g id="text_1">
      <!-- 0 -->
      <g style="fill: #2f3437" transform="translate(95.005156 225.202595) scale(0.1 -0.1)">
       <defs>
        <path id="NotoSerifCJKjp-Regular-30" d="M 1779 -96 
C 2547 -96 3258 602 3258 2342 
C 3258 4058 2547 4755 1779 4755 
C 1011 4755 301 4058 301 2342 
C 301 602 1011 -96 1779 -96 
z
M 1779 102 
C 1299 102 832 640 832 2342 
C 832 4019 1299 4550 1779 4550 
C 2253 4550 2726 4019 2726 2342 
C 2726 640 2253 102 1779 102 
z
" transform="scale(0.015625)"/>
       </defs>
       <use xlink:href="#NotoSerifCJKjp-Regular-30"/>
      </g>
     </g>
    </g>
    <g id="xtick_2">
     <g id="line2d_2">
      <g>
       <use xlink:href="#mc2f2be052b" x="181.447778" y="210.152595" style="fill: #2f3437; stroke: #2f3437; stroke-width: 0.8"/>
      </g>
     </g>
     <g id="text_2">
      <!-- 2 -->
      <g style="fill: #2f3437" transform="translate(178.657934 225.202595) scale(0.1 -0.1)">
       <defs>
        <path id="NotoSerifCJKjp-Regular-32" d="M 410 0 
L 3270 0 
L 3270 448 
L 762 448 
C 1152 877 1530 1293 1715 1485 
C 2688 2483 3078 2950 3078 3539 
C 3078 4294 2637 4755 1779 4755 
C 1126 4755 512 4422 410 3770 
C 448 3642 550 3571 672 3571 
C 819 3571 922 3654 986 3904 
L 1139 4461 
C 1306 4531 1466 4557 1626 4557 
C 2195 4557 2534 4192 2534 3552 
C 2534 2989 2253 2541 1574 1722 
C 1261 1350 832 845 410 346 
L 410 0 
z
" transform="scale(0.015625)"/>
       </defs>
       <use xlink:href="#NotoSerifCJKjp-Regular-32"/>
      </g>
     </g>
    </g>
    <g id="xtick_3">
     <g id="line2d_3">
      <g>
       <use xlink:href="#mc2f2be052b" x="265.105243" y="210.152595" style="fill: #2f3437; stroke: #2f3437; stroke-width: 0.8"/>
      </g>
     </g>
     <g id="text_3">
      <!-- 4 -->
      <g style="fill: #2f3437" transform="translate(262.330243 225.202595) scale(0.1 -0.1)">
       <defs>
        <path id="NotoSerifCJKjp-Regular-34" d="M 2170 -115 
L 2650 -115 
L 2650 1229 
L 3418 1229 
L 3418 1600 
L 2650 1600 
L 2650 4730 
L 2291 4730 
L 218 1530 
L 218 1229 
L 2170 1229 
L 2170 -115 
z
M 493 1600 
L 1389 2989 
L 2170 4211 
L 2170 1600 
L 493 1600 
z
" transform="scale(0.015625)"/>
       </defs>
       <use xlink:href="#NotoSerifCJKjp-Regular-34"/>
      </g>
     </g>
    </g>
    <g id="xtick_4">
     <g id="line2d_4">
      <g>
       <use xlink:href="#mc2f2be052b" x="348.762709" y="210.152595" style="fill: #2f3437; stroke: #2f3437; stroke-width: 0.8"/>
      </g>
     </g>
     <g id="text_4">
      <!-- 6 -->
      <g style="fill: #2f3437" transform="translate(345.972865 225.202595) scale(0.1 -0.1)">
       <defs>
        <path id="NotoSerifCJKjp-Regular-36" d="M 1850 -96 
C 2656 -96 3258 538 3258 1414 
C 3258 2253 2803 2816 2029 2816 
C 1606 2816 1248 2650 941 2323 
C 1107 3450 1850 4339 3136 4614 
L 3104 4755 
C 1414 4557 358 3258 358 1773 
C 358 634 922 -96 1850 -96 
z
M 922 2118 
C 1222 2432 1523 2554 1856 2554 
C 2394 2554 2726 2144 2726 1376 
C 2726 557 2342 102 1856 102 
C 1261 102 909 736 909 1830 
L 922 2118 
z
" transform="scale(0.015625)"/>
       </defs>
       <use xlink:href="#NotoSerifCJKjp-Regular-36"/>
      </g>
     </g>
    </g>
    <g id="xtick_5">
     <g id="line2d_5">
      <g>
       <use xlink:href="#mc2f2be052b" x="432.420174" y="210.152595" style="fill: #2f3437; stroke: #2f3437; stroke-width: 0.8"/>
      </g>
     </g>
     <g id="text_5">
      <!-- 8 -->
      <g style="fill: #2f3437" transform="translate(429.630331 225.202595) scale(0.1 -0.1)">
       <defs>
        <path id="NotoSerifCJKjp-Regular-38" d="M 1754 -96 
C 2637 -96 3219 384 3219 1126 
C 3219 1722 2893 2131 2093 2502 
C 2784 2829 3027 3251 3027 3686 
C 3027 4301 2579 4755 1798 4755 
C 1075 4755 499 4307 499 3603 
C 499 3059 774 2605 1434 2285 
C 730 1978 365 1587 365 1024 
C 365 352 858 -96 1754 -96 
z
M 1946 2573 
C 1178 2912 973 3302 973 3731 
C 973 4243 1357 4550 1792 4550 
C 2304 4550 2579 4160 2579 3699 
C 2579 3213 2394 2880 1946 2573 
z
M 1587 2214 
C 2458 1830 2720 1453 2720 986 
C 2720 454 2374 102 1779 102 
C 1184 102 832 474 832 1082 
C 832 1568 1050 1888 1587 2214 
z
" transform="scale(0.015625)"/>
       </defs>
       <use xlink:href="#NotoSerifCJKjp-Regular-38"/>
      </g>
     </g>
    </g>
    <g id="xtick_6">
     <g id="line2d_6">
      <g>
       <use xlink:href="#mc2f2be052b" x="516.07764" y="210.152595" style="fill: #2f3437; stroke: #2f3437; stroke-width: 0.8"/>
      </g>
     </g>
     <g id="text_6">
      <!-- 10 -->
      <g style="fill: #2f3437" transform="translate(510.937796 225.202595) scale(0.1 -0.1)">
       <defs>
        <path id="NotoSerifCJKjp-Regular-31" d="M 480 0 
L 2733 -6 
L 2733 173 
L 1907 269 
L 1894 1472 
L 1894 3642 
L 1920 4653 
L 1824 4723 
L 448 4371 
L 448 4179 
L 1370 4333 
L 1370 1472 
L 1357 269 
L 480 179 
L 480 0 
z
" transform="scale(0.015625)"/>
       </defs>
       <use xlink:href="#NotoSerifCJKjp-Regular-31"/>
       <use xlink:href="#NotoSerifCJKjp-Regular-30" transform="translate(47.099991 0)"/>
      </g>
     </g>
    </g>
    <g id="xtick_7">
     <g id="line2d_7">
      <g>
       <use xlink:href="#mc2f2be052b" x="599.735105" y="210.152595" style="fill: #2f3437; stroke: #2f3437; stroke-width: 0.8"/>
      </g>
     </g>
     <g id="text_7">
      <!-- 12 -->
      <g style="fill: #2f3437" transform="translate(594.590574 225.202595) scale(0.1 -0.1)">
       <use xlink:href="#NotoSerifCJKjp-Regular-31"/>
       <use xlink:href="#NotoSerifCJKjp-Regular-32" transform="translate(47.099991 0)"/>
      </g>
     </g>
    </g>
    <g id="text_8">
     <!-- 时间（小时） -->
     <g style="fill: #2f3437" transform="translate(320.331286 239.852595) scale(0.1 -0.1)">
      <defs>
       <path id="NotoSerifCJKjp-Regular-65f6" d="M 2880 2861 
L 2803 2816 
C 3149 2426 3526 1805 3546 1286 
C 4006 870 4442 2035 2880 2861 
z
M 1907 1069 
L 922 1069 
L 922 2733 
L 1907 2733 
L 1907 1069 
z
M 525 4992 
L 525 13 
L 582 13 
C 794 13 922 128 922 160 
L 922 877 
L 1907 877 
L 1907 326 
L 1971 326 
C 2112 326 2304 429 2310 474 
L 2310 4518 
C 2438 4544 2547 4589 2592 4640 
L 2080 5043 
L 1843 4781 
L 998 4781 
L 525 4992 
z
M 1907 2925 
L 922 2925 
L 922 4589 
L 1907 4589 
L 1907 2925 
z
M 5664 4211 
L 5363 3802 
L 5069 3802 
L 5069 5043 
C 5229 5062 5293 5120 5306 5216 
L 4646 5286 
L 4646 3802 
L 2464 3802 
L 2515 3610 
L 4646 3610 
L 4646 179 
C 4646 64 4602 26 4461 26 
C 4301 26 3456 83 3456 83 
L 3456 -13 
C 3821 -58 4013 -115 4134 -192 
C 4243 -256 4288 -365 4314 -499 
C 4992 -435 5069 -198 5069 147 
L 5069 3610 
L 6048 3610 
C 6138 3610 6195 3642 6214 3712 
C 6016 3923 5664 4211 5664 4211 
z
" transform="scale(0.015625)"/>
       <path id="NotoSerifCJKjp-Regular-95f4" d="M 1133 5402 
L 1062 5350 
C 1344 5069 1702 4595 1818 4237 
C 2278 3936 2586 4870 1133 5402 
z
M 1382 4461 
L 736 4531 
L 736 -499 
L 813 -499 
C 973 -499 1146 -410 1146 -346 
L 1146 4282 
C 1312 4307 1363 4365 1382 4461 
z
M 3987 1139 
L 2381 1139 
L 2381 2240 
L 3987 2240 
L 3987 1139 
z
M 1984 3827 
L 1984 326 
L 2048 326 
C 2253 326 2381 442 2381 474 
L 2381 947 
L 3987 947 
L 3987 442 
L 4051 442 
C 4198 442 4384 550 4390 595 
L 4390 3392 
C 4499 3411 4589 3456 4621 3494 
L 4154 3866 
L 3930 3629 
L 2445 3629 
L 1984 3827 
z
M 3987 3437 
L 3987 2432 
L 2381 2432 
L 2381 3437 
L 3987 3437 
z
M 5210 4826 
L 2483 4826 
L 2541 4634 
L 5274 4634 
L 5274 198 
C 5274 90 5235 45 5101 45 
C 4960 45 4211 109 4211 109 
L 4211 0 
C 4531 -38 4710 -90 4819 -166 
C 4915 -230 4960 -346 4979 -474 
C 5606 -410 5683 -186 5683 147 
L 5683 4557 
C 5811 4582 5920 4634 5965 4685 
L 5421 5094 
L 5210 4826 
z
" transform="scale(0.015625)"/>
       <path id="NotoSerifCJKjp-Regular-ff08" d="M 5997 5299 
L 5888 5427 
C 5024 4877 4166 3974 4166 2432 
C 4166 890 5024 -13 5888 -563 
L 5997 -435 
C 5254 166 4589 1088 4589 2432 
C 4589 3776 5254 4698 5997 5299 
z
" transform="scale(0.015625)"/>
       <path id="NotoSerifCJKjp-Regular-5c0f" d="M 4269 3674 
L 4179 3629 
C 4787 2995 5504 1978 5613 1178 
C 6182 704 6522 2253 4269 3674 
z
M 1606 3712 
C 1402 2880 909 1760 224 1050 
L 294 973 
C 1152 1600 1741 2605 2048 3366 
C 2208 3354 2266 3392 2291 3469 
L 1606 3712 
z
M 3002 5280 
L 3002 230 
C 3002 115 2957 70 2816 70 
C 2643 70 1760 141 1760 141 
L 1760 38 
C 2138 -13 2336 -70 2464 -147 
C 2579 -224 2630 -339 2650 -493 
C 3366 -416 3450 -179 3450 192 
L 3450 5030 
C 3610 5050 3667 5114 3686 5203 
L 3002 5280 
z
" transform="scale(0.015625)"/>
       <path id="NotoSerifCJKjp-Regular-ff09" d="M 512 5427 
L 403 5299 
C 1146 4698 1811 3776 1811 2432 
C 1811 1088 1146 166 403 -435 
L 512 -563 
C 1376 -13 2234 890 2234 2432 
C 2234 3974 1376 4877 512 5427 
z
" transform="scale(0.015625)"/>
      </defs>
      <use xlink:href="#NotoSerifCJKjp-Regular-65f6"/>
      <use xlink:href="#NotoSerifCJKjp-Regular-95f4" transform="translate(99.999985 0)"/>
      <use xlink:href="#NotoSerifCJKjp-Regular-ff08" transform="translate(199.999969 0)"/>
      <use xlink:href="#NotoSerifCJKjp-Regular-5c0f" transform="translate(299.999954 0)"/>
      <use xlink:href="#NotoSerifCJKjp-Regular-65f6" transform="translate(399.999939 0)"/>
      <use xlink:href="#NotoSerifCJKjp-Regular-ff09" transform="translate(499.999924 0)"/>
     </g>
    </g>
   </g>
   <g id="matplotlib.axis_2">
    <g id="ytick_1">
     <g id="line2d_8">
      <defs>
       <path id="m44f8365819" d="M 0 0 
L -3.5 0 
" style="stroke: #2f3437; stroke-width: 0.8"/>
      </defs>
      <g>
       <use xlink:href="#m44f8365819" x="97.790312" y="190.343226" style="fill: #2f3437; stroke: #2f3437; stroke-width: 0.8"/>
      </g>
     </g>
     <g id="text_9">
      <!-- 精密灌装机1-1 -->
      <g style="fill: #2f3437" transform="translate(34.2 193.965726) scale(0.09 -0.09)">
       <defs>
        <path id="NotoSerifCJKjp-Regular-7cbe" d="M 448 4864 
L 352 4838 
C 474 4480 614 3949 602 3546 
C 934 3187 1325 3968 448 4864 
z
M 2182 4941 
C 2086 4442 1946 3853 1830 3475 
L 1933 3430 
C 2163 3744 2400 4211 2573 4621 
C 2707 4621 2784 4672 2810 4749 
L 2182 4941 
z
M 262 3098 
L 314 2912 
L 1133 2912 
C 941 2061 608 1165 166 499 
L 256 416 
C 666 858 1005 1376 1261 1946 
L 1261 -512 
L 1344 -512 
C 1498 -512 1664 -416 1664 -358 
L 1664 2368 
C 1888 2099 2125 1741 2195 1459 
C 2598 1152 2918 1971 1664 2541 
L 1664 2912 
L 2547 2912 
C 2637 2912 2701 2944 2714 3014 
L 2643 3078 
L 6035 3078 
C 6125 3078 6182 3110 6195 3181 
C 5997 3366 5677 3622 5677 3622 
L 5389 3264 
L 4422 3264 
L 4422 3808 
L 5766 3808 
C 5843 3808 5907 3840 5926 3910 
C 5734 4083 5421 4333 5421 4333 
L 5152 3994 
L 4422 3994 
L 4422 4486 
L 5862 4486 
C 5952 4486 6016 4518 6035 4589 
C 5830 4781 5510 5030 5510 5030 
L 5229 4672 
L 4422 4672 
L 4422 5094 
C 4576 5114 4646 5178 4659 5267 
L 4019 5331 
L 4019 4672 
L 2746 4672 
L 2790 4486 
L 4019 4486 
L 4019 3994 
L 2810 3994 
L 2861 3808 
L 4019 3808 
L 4019 3264 
L 2566 3264 
L 2611 3110 
L 2208 3450 
L 1933 3098 
L 1664 3098 
L 1664 5126 
C 1811 5146 1856 5210 1869 5293 
L 1261 5357 
L 1261 3098 
L 262 3098 
z
M 3014 2566 
L 3014 -493 
L 3085 -493 
C 3245 -493 3411 -390 3411 -346 
L 3411 826 
L 5184 826 
L 5184 128 
C 5184 38 5152 0 5037 0 
C 4890 0 4269 51 4269 51 
L 4269 -58 
C 4544 -83 4710 -141 4800 -205 
C 4883 -269 4915 -378 4934 -506 
C 5523 -442 5594 -237 5594 90 
L 5594 2304 
C 5722 2323 5824 2374 5862 2419 
L 5331 2822 
L 5120 2566 
L 3443 2566 
L 3014 2771 
L 3014 2566 
z
M 3411 1018 
L 3411 1626 
L 5184 1626 
L 5184 1018 
L 3411 1018 
z
M 3411 1811 
L 3411 2374 
L 5184 2374 
L 5184 1811 
L 3411 1811 
z
" transform="scale(0.015625)"/>
        <path id="NotoSerifCJKjp-Regular-5bc6" d="M 2515 4294 
L 2464 4230 
C 2765 4077 3123 3776 3232 3514 
C 3712 3290 3898 4237 2515 4294 
z
M 4768 3533 
L 4704 3475 
C 5075 3206 5504 2733 5606 2336 
C 6074 2010 6355 3059 4768 3533 
z
M 1389 3603 
C 1344 3187 992 2893 698 2790 
C 563 2726 467 2611 518 2483 
C 576 2336 794 2336 973 2426 
C 1254 2554 1613 2931 1498 3603 
L 1389 3603 
z
M 4934 1376 
L 4934 115 
L 3411 115 
L 3411 1491 
C 3558 1510 3610 1568 3622 1651 
L 2995 1715 
L 2995 115 
L 1491 115 
L 1491 1133 
C 1651 1158 1709 1216 1728 1312 
L 1075 1376 
L 1075 -506 
L 1152 -506 
C 1312 -506 1491 -416 1491 -371 
L 1491 -77 
L 4934 -77 
L 4934 -435 
L 5018 -435 
C 5178 -435 5357 -352 5357 -307 
L 5357 1133 
C 5517 1158 5581 1216 5594 1312 
L 4934 1376 
z
M 4365 4192 
C 3930 3584 3232 3002 2387 2528 
L 2387 3642 
C 2502 3661 2560 3718 2573 3795 
L 1997 3859 
L 1997 2336 
L 1997 2323 
C 1446 2048 851 1818 230 1651 
L 269 1549 
C 902 1670 1498 1856 2048 2080 
C 2125 1965 2298 1926 2669 1926 
L 3533 1926 
C 4730 1926 4934 1990 4934 2182 
C 4934 2259 4896 2304 4749 2349 
L 4736 3014 
L 4646 3014 
C 4589 2720 4518 2451 4467 2368 
C 4442 2317 4410 2298 4326 2291 
C 4218 2285 3923 2285 3546 2285 
L 2714 2285 
L 2528 2291 
C 3411 2720 4141 3258 4602 3827 
C 4749 3776 4813 3789 4864 3853 
L 4365 4192 
z
M 1030 4992 
C 1050 4570 806 4205 538 4077 
C 410 4006 320 3872 378 3738 
C 448 3590 672 3590 838 3699 
C 1024 3821 1203 4077 1210 4474 
L 5370 4474 
C 5274 4256 5146 3981 5043 3808 
L 5126 3750 
C 5370 3917 5702 4192 5875 4397 
C 6003 4403 6074 4416 6125 4454 
L 5638 4934 
L 5370 4653 
L 3405 4653 
L 3405 5114 
C 3558 5139 3622 5203 3635 5293 
L 2976 5357 
L 2976 4653 
L 1203 4653 
C 1190 4755 1171 4870 1133 4992 
L 1030 4992 
z
" transform="scale(0.015625)"/>
        <path id="NotoSerifCJKjp-Regular-704c" d="M 582 5312 
L 518 5254 
C 781 5062 1107 4736 1222 4454 
C 1677 4205 1939 5107 582 5312 
z
M 307 3763 
L 250 3706 
C 499 3546 774 3238 858 2976 
C 1299 2707 1587 3610 307 3763 
z
M 602 1318 
C 531 1318 314 1318 314 1318 
L 314 1178 
C 454 1165 544 1146 627 1088 
C 762 998 800 493 717 -154 
C 723 -358 794 -474 909 -474 
C 1120 -474 1229 -307 1242 -38 
C 1267 480 1094 781 1094 1062 
C 1088 1216 1133 1414 1178 1613 
C 1261 1907 1766 3366 2016 4141 
L 1901 4173 
C 858 1670 858 1670 749 1453 
C 691 1325 666 1318 602 1318 
z
M 1773 4723 
L 1818 4538 
L 3008 4538 
L 3008 4122 
L 3078 4122 
C 3258 4122 3398 4186 3398 4224 
L 3398 4538 
L 4416 4538 
L 4416 4134 
L 4480 4134 
C 4698 4141 4800 4218 4800 4250 
L 4800 4538 
L 6054 4538 
C 6144 4538 6202 4570 6221 4640 
C 6022 4819 5702 5062 5702 5062 
L 5427 4723 
L 4800 4723 
L 4800 5120 
C 4960 5146 5011 5210 5024 5293 
L 4416 5357 
L 4416 4723 
L 3398 4723 
L 3398 5120 
C 3558 5146 3616 5210 3629 5293 
L 3008 5357 
L 3008 4723 
L 1773 4723 
z
M 2253 4013 
L 2253 2720 
L 2304 2720 
C 2483 2720 2605 2797 2605 2829 
L 2605 3002 
L 3366 3002 
L 3366 2771 
L 3430 2771 
C 3590 2771 3731 2854 3731 2880 
L 3731 3802 
C 3853 3821 3917 3859 3955 3904 
L 3533 4224 
L 3354 4013 
L 2682 4013 
L 2253 4198 
L 2253 4013 
z
M 2605 3194 
L 2605 3821 
L 3366 3821 
L 3366 3194 
L 2605 3194 
z
M 2669 2925 
C 2451 2368 1984 1568 1485 1069 
L 1549 979 
C 1843 1184 2118 1434 2362 1696 
L 2362 -518 
L 2426 -518 
C 2630 -518 2765 -422 2765 -390 
L 2765 -179 
L 5997 -179 
C 6086 -179 6150 -147 6170 -77 
C 5952 122 5619 378 5619 378 
L 5318 13 
L 4230 13 
L 4230 576 
L 5664 576 
C 5754 576 5811 608 5830 672 
C 5632 864 5306 1114 5306 1114 
L 5018 762 
L 4230 762 
L 4230 1299 
L 5670 1299 
C 5766 1299 5824 1331 5837 1402 
C 5645 1581 5318 1843 5318 1843 
L 5030 1485 
L 4230 1485 
L 4230 2029 
L 5805 2029 
C 5894 2029 5958 2061 5978 2131 
C 5766 2323 5434 2586 5434 2586 
L 5146 2214 
L 4064 2214 
C 4179 2323 4301 2432 4390 2528 
C 4531 2515 4602 2573 4627 2643 
L 4326 2733 
C 4461 2752 4538 2810 4538 2835 
L 4538 3002 
L 5293 3002 
L 5293 2778 
L 5357 2778 
C 5523 2778 5670 2861 5670 2886 
L 5670 3802 
C 5786 3821 5843 3859 5882 3904 
L 5466 4224 
L 5280 4013 
L 4608 4013 
L 4179 4198 
L 4179 2778 
L 4006 2829 
C 3968 2656 3898 2406 3840 2214 
L 2842 2214 
L 2803 2234 
C 2886 2349 2963 2464 3027 2573 
C 3181 2547 3232 2579 3270 2643 
L 2669 2925 
z
M 4538 3194 
L 4538 3821 
L 5293 3821 
L 5293 3194 
L 4538 3194 
z
M 3834 2029 
L 3834 1485 
L 2765 1485 
L 2765 2029 
L 3834 2029 
z
M 3834 1299 
L 3834 762 
L 2765 762 
L 2765 1299 
L 3834 1299 
z
M 3834 576 
L 3834 13 
L 2765 13 
L 2765 576 
L 3834 576 
z
" transform="scale(0.015625)"/>
        <path id="NotoSerifCJKjp-Regular-88c5" d="M 646 4992 
L 576 4941 
C 800 4723 1037 4358 1062 4051 
C 1466 3725 1850 4570 646 4992 
z
M 2477 2938 
L 2528 2752 
L 5862 2752 
C 5958 2752 6016 2784 6035 2848 
C 5824 3046 5498 3302 5498 3302 
L 5210 2938 
L 4314 2938 
L 4314 4102 
L 5952 4102 
C 6042 4102 6099 4134 6118 4205 
C 5914 4403 5574 4659 5574 4659 
L 5280 4294 
L 4314 4294 
L 4314 5120 
C 4467 5146 4531 5210 4544 5293 
L 3891 5357 
L 3891 4294 
L 2438 4294 
L 2490 4102 
L 3891 4102 
L 3891 2938 
L 2477 2938 
z
M 1786 5344 
L 1786 3622 
C 1165 3405 557 3200 282 3123 
L 595 2650 
C 653 2682 698 2733 704 2810 
C 1158 3078 1517 3302 1786 3482 
L 1786 2291 
L 1862 2291 
C 2016 2291 2189 2387 2189 2426 
L 2189 5107 
C 2355 5126 2413 5190 2426 5280 
L 1786 5344 
z
M 5133 1664 
C 4909 1440 4480 1114 4109 890 
C 3840 1120 3610 1389 3437 1696 
L 5978 1696 
C 6067 1696 6125 1728 6144 1798 
C 5933 1997 5600 2259 5600 2259 
L 5306 1888 
L 3398 1888 
L 3398 2291 
C 3546 2317 3597 2374 3610 2451 
L 2982 2515 
L 2982 1888 
L 256 1888 
L 314 1696 
L 2618 1696 
C 2029 1216 1165 787 256 506 
L 307 403 
C 909 531 1491 710 2010 934 
L 2010 134 
C 1606 83 1274 38 1056 19 
L 1370 -499 
C 1434 -480 1485 -435 1517 -352 
C 2669 -70 3475 154 4045 326 
L 4032 435 
L 2426 198 
L 2426 1126 
C 2746 1293 3034 1485 3277 1696 
L 3290 1696 
C 3738 589 4634 -102 5798 -499 
C 5862 -288 5997 -160 6176 -128 
L 6189 -58 
C 5453 102 4762 384 4224 800 
C 4653 922 5133 1114 5414 1274 
C 5549 1235 5606 1248 5658 1312 
L 5133 1664 
z
" transform="scale(0.015625)"/>
        <path id="NotoSerifCJKjp-Regular-673a" d="M 3123 4909 
L 3123 2669 
C 3123 1427 2970 365 2029 -435 
L 2125 -506 
C 3379 269 3526 1472 3526 2675 
L 3526 4723 
L 4749 4723 
L 4749 102 
C 4749 -186 4819 -307 5184 -307 
L 5478 -307 
C 6042 -307 6214 -237 6214 -70 
C 6214 13 6176 58 6048 109 
L 6022 960 
L 5939 960 
C 5888 646 5818 218 5779 134 
C 5754 90 5728 83 5696 77 
C 5658 70 5581 70 5485 70 
L 5286 70 
C 5178 70 5158 109 5158 211 
L 5158 4634 
C 5312 4659 5389 4691 5434 4742 
L 4922 5184 
L 4685 4909 
L 3610 4909 
L 3123 5126 
L 3123 4909 
z
M 1331 5350 
L 1331 3949 
L 262 3949 
L 314 3757 
L 1210 3757 
C 1024 2797 698 1824 224 1075 
L 320 1005 
C 742 1478 1082 2035 1331 2650 
L 1331 -499 
L 1421 -499 
C 1562 -499 1734 -403 1734 -346 
L 1734 3053 
C 1984 2784 2266 2394 2336 2093 
C 2765 1779 3104 2650 1734 3174 
L 1734 3757 
L 2669 3757 
C 2758 3757 2822 3789 2829 3859 
C 2643 4051 2310 4320 2310 4320 
L 2029 3949 
L 1734 3949 
L 1734 5107 
C 1901 5133 1952 5190 1971 5286 
L 1331 5350 
z
" transform="scale(0.015625)"/>
        <path id="NotoSerifCJKjp-Regular-2d" d="M 275 1549 
L 1933 1549 
L 1933 1875 
L 275 1875 
L 275 1549 
z
" transform="scale(0.015625)"/>
       </defs>
       <use xlink:href="#NotoSerifCJKjp-Regular-7cbe"/>
       <use xlink:href="#NotoSerifCJKjp-Regular-5bc6" transform="translate(99.999985 0)"/>
       <use xlink:href="#NotoSerifCJKjp-Regular-704c" transform="translate(199.999969 0)"/>
       <use xlink:href="#NotoSerifCJKjp-Regular-88c5" transform="translate(299.999954 0)"/>
       <use xlink:href="#NotoSerifCJKjp-Regular-673a" transform="translate(399.999939 0)"/>
       <use xlink:href="#NotoSerifCJKjp-Regular-31" transform="translate(499.999924 0)"/>
       <use xlink:href="#NotoSerifCJKjp-Regular-2d" transform="translate(547.099915 0)"/>
       <use xlink:href="#NotoSerifCJKjp-Regular-31" transform="translate(581.699905 0)"/>
      </g>
     </g>
    </g>
    <g id="ytick_2">
     <g id="line2d_9">
      <g>
       <use xlink:href="#m44f8365819" x="97.790312" y="152.967057" style="fill: #2f3437; stroke: #2f3437; stroke-width: 0.8"/>
      </g>
     </g>
     <g id="text_10">
      <!-- 自动化输送臂1-1 -->
      <g style="fill: #2f3437" transform="translate(25.2 156.589557) scale(0.09 -0.09)">
       <defs>
        <path id="NotoSerifCJKjp-Regular-81ea" d="M 4755 4102 
L 4755 2938 
L 1709 2938 
L 1709 4102 
L 4755 4102 
z
M 2938 5363 
C 2886 5043 2790 4621 2688 4294 
L 1754 4294 
L 1293 4506 
L 1293 -486 
L 1370 -486 
C 1549 -486 1709 -378 1709 -326 
L 1709 -45 
L 4755 -45 
L 4755 -480 
L 4813 -480 
C 4966 -480 5171 -365 5184 -314 
L 5184 4013 
C 5312 4045 5414 4096 5459 4147 
L 4928 4570 
L 4685 4294 
L 2886 4294 
C 3104 4550 3309 4851 3437 5088 
C 3578 5094 3654 5158 3674 5235 
L 2938 5363 
z
M 1709 2752 
L 4755 2752 
L 4755 1549 
L 1709 1549 
L 1709 2752 
z
M 1709 1370 
L 4755 1370 
L 4755 141 
L 1709 141 
L 1709 1370 
z
" transform="scale(0.015625)"/>
        <path id="NotoSerifCJKjp-Regular-52a8" d="M 2746 3558 
L 2451 3187 
L 230 3187 
L 282 2995 
L 3123 2995 
C 3213 2995 3270 3027 3290 3098 
C 3078 3296 2746 3558 2746 3558 
z
M 2413 4973 
L 2118 4602 
L 538 4602 
L 589 4410 
L 2790 4410 
C 2880 4410 2944 4442 2957 4512 
C 2746 4710 2413 4973 2413 4973 
z
M 2138 2208 
L 2048 2170 
C 2221 1875 2394 1472 2490 1082 
C 1786 979 1120 890 678 845 
C 1094 1350 1562 2106 1818 2643 
C 1952 2630 2029 2694 2048 2758 
L 1389 2989 
C 1248 2426 826 1389 486 947 
C 442 909 307 883 307 883 
L 563 250 
C 621 275 672 320 717 397 
C 1421 576 2061 781 2522 928 
C 2547 787 2566 646 2560 512 
C 2976 77 3418 1171 2138 2208 
z
M 4653 5286 
L 4000 5357 
C 4000 4838 4006 4339 3994 3866 
L 2867 3866 
L 2925 3680 
L 3987 3680 
C 3942 1984 3667 595 2240 -442 
L 2330 -544 
C 4038 480 4339 1933 4403 3680 
L 5485 3680 
C 5440 1568 5344 352 5133 134 
C 5069 70 5018 58 4896 58 
C 4768 58 4390 90 4147 115 
L 4141 -6 
C 4365 -38 4589 -102 4672 -166 
C 4755 -237 4774 -352 4774 -480 
C 5037 -480 5280 -397 5446 -192 
C 5734 134 5843 1331 5888 3629 
C 6029 3642 6106 3674 6157 3731 
L 5664 4134 
L 5421 3866 
L 4403 3866 
L 4422 5107 
C 4582 5133 4634 5190 4653 5286 
z
" transform="scale(0.015625)"/>
        <path id="NotoSerifCJKjp-Regular-5316" d="M 5318 4250 
C 4922 3738 4186 3059 3475 2566 
L 3475 5011 
C 3642 5037 3699 5101 3712 5190 
L 3053 5267 
L 3053 250 
C 3053 -186 3238 -314 3840 -314 
L 4653 -314 
C 5862 -314 6131 -243 6131 -19 
C 6131 70 6086 122 5920 179 
L 5901 1376 
L 5818 1376 
C 5722 838 5632 352 5574 230 
C 5536 154 5504 128 5414 122 
C 5293 102 5037 96 4666 96 
L 3885 96 
C 3546 96 3475 166 3475 352 
L 3475 2400 
C 4320 2797 5165 3360 5651 3814 
C 5792 3776 5850 3795 5901 3853 
L 5318 4250 
z
M 1888 5363 
C 1498 4102 851 2861 224 2099 
L 314 2029 
C 621 2298 915 2624 1190 2989 
L 1190 -493 
L 1274 -493 
C 1427 -493 1606 -397 1613 -365 
L 1613 3418 
C 1728 3437 1786 3475 1811 3539 
L 1613 3610 
C 1882 4038 2118 4512 2323 5005 
C 2458 4998 2541 5056 2566 5126 
L 1888 5363 
z
" transform="scale(0.015625)"/>
        <path id="NotoSerifCJKjp-Regular-8f93" d="M 5971 2989 
L 5376 3059 
L 5376 77 
C 5376 -13 5344 -45 5242 -45 
C 5133 -45 4576 0 4576 0 
L 4576 -109 
C 4819 -128 4960 -179 5043 -243 
C 5126 -307 5152 -410 5171 -525 
C 5683 -467 5741 -269 5741 51 
L 5741 2829 
C 5894 2848 5952 2899 5971 2989 
z
M 4563 3949 
L 4294 3622 
L 3149 3622 
L 3200 3437 
L 4883 3437 
C 4973 3437 5030 3469 5050 3539 
C 4858 3718 4563 3949 4563 3949 
z
M 5075 2758 
L 4518 2822 
L 4518 474 
L 4582 474 
C 4710 474 4858 557 4858 608 
L 4858 2598 
C 5005 2618 5062 2675 5075 2758 
z
M 1696 5165 
L 1114 5338 
C 1069 5056 979 4653 877 4224 
L 269 4224 
L 320 4032 
L 826 4032 
C 698 3514 550 2989 435 2618 
C 339 2586 224 2534 154 2496 
L 595 2138 
L 806 2349 
L 1248 2349 
L 1248 1229 
C 819 1114 467 1018 256 973 
L 570 448 
C 634 474 678 531 704 608 
L 1248 870 
L 1248 -512 
L 1306 -512 
C 1504 -512 1632 -416 1632 -384 
L 1632 1062 
C 1946 1216 2202 1350 2406 1466 
L 2381 1555 
L 1632 1338 
L 1632 2349 
L 2298 2349 
C 2387 2349 2445 2381 2464 2451 
C 2285 2624 2003 2842 2003 2842 
L 1760 2541 
L 1632 2541 
L 1632 3392 
C 1786 3418 1837 3475 1856 3565 
L 1280 3635 
L 1280 2541 
L 806 2541 
C 934 2963 1082 3520 1216 4032 
L 2451 4032 
C 2534 4032 2598 4064 2611 4134 
C 2419 4320 2106 4557 2106 4557 
L 1830 4224 
L 1261 4224 
C 1338 4531 1408 4819 1453 5043 
C 1600 5024 1664 5088 1696 5165 
z
M 4480 5114 
L 3898 5427 
C 3450 4493 2739 3661 2099 3200 
L 2182 3110 
C 2886 3482 3603 4102 4141 4909 
C 4538 4224 5184 3597 5862 3232 
C 5901 3386 6016 3488 6176 3539 
L 6189 3616 
C 5510 3885 4659 4429 4250 5030 
C 4371 5011 4448 5056 4480 5114 
z
M 2906 1101 
L 2906 1830 
L 3725 1830 
L 3725 1101 
L 2906 1101 
z
M 2906 -358 
L 2906 915 
L 3725 915 
L 3725 115 
C 3725 38 3712 6 3629 6 
C 3546 6 3213 45 3213 45 
L 3213 -64 
C 3379 -90 3475 -134 3533 -192 
C 3578 -250 3603 -352 3610 -454 
C 4032 -410 4083 -237 4083 77 
L 4083 2630 
C 4198 2650 4307 2694 4346 2739 
L 3853 3104 
L 3667 2874 
L 2938 2874 
L 2541 3066 
L 2541 -493 
L 2605 -493 
C 2765 -493 2906 -403 2906 -358 
z
M 2906 2022 
L 2906 2682 
L 3725 2682 
L 3725 2022 
L 2906 2022 
z
" transform="scale(0.015625)"/>
        <path id="NotoSerifCJKjp-Regular-9001" d="M 2739 5331 
L 2675 5293 
C 2906 5018 3155 4570 3187 4218 
C 3616 3872 4026 4787 2739 5331 
z
M 506 5165 
L 442 5114 
C 768 4832 1171 4339 1280 3955 
C 1766 3629 2086 4659 506 5165 
z
M 4858 5376 
C 4691 4883 4454 4339 4262 3974 
L 2093 3974 
L 2144 3782 
L 3744 3782 
C 3738 3411 3731 3066 3693 2746 
L 2016 2746 
L 2067 2554 
L 3667 2554 
C 3539 1709 3155 1037 1997 506 
L 2074 397 
C 3142 781 3667 1280 3930 1907 
C 4499 1549 5197 960 5440 461 
C 6010 192 6131 1382 3974 2016 
C 4038 2189 4083 2368 4115 2554 
L 5965 2554 
C 6061 2554 6125 2586 6138 2656 
C 5920 2848 5581 3123 5581 3123 
L 5274 2746 
L 4147 2746 
C 4186 3066 4198 3411 4211 3782 
L 5869 3782 
C 5958 3782 6022 3814 6035 3885 
C 5824 4077 5491 4339 5491 4339 
L 5197 3974 
L 4454 3974 
C 4736 4262 5030 4646 5274 5011 
C 5402 5005 5485 5056 5517 5120 
L 4858 5376 
z
M 1632 2381 
C 1805 2406 1901 2458 1946 2502 
L 1389 2957 
L 1146 2637 
L 256 2637 
L 294 2445 
L 1235 2445 
L 1235 557 
C 870 352 486 154 237 45 
L 538 -493 
C 595 -461 627 -422 608 -339 
C 864 -128 1280 256 1542 544 
C 1990 -192 2502 -339 3661 -339 
C 4371 -339 5235 -339 5856 -339 
C 5882 -141 5990 -26 6176 13 
L 6176 102 
C 5408 77 4403 77 3661 77 
C 2560 77 2074 154 1632 666 
L 1632 2381 
z
" transform="scale(0.015625)"/>
        <path id="NotoSerifCJKjp-Regular-81c2" d="M 4275 5350 
L 4275 4794 
L 3110 4794 
L 3162 4602 
L 3680 4602 
L 3654 4589 
C 3770 4429 3872 4166 3866 3949 
C 3898 3917 3930 3898 3962 3885 
L 3008 3885 
L 3059 3693 
L 4275 3693 
L 4275 3226 
L 3181 3226 
L 3226 3040 
L 4275 3040 
L 4275 2336 
L 4339 2336 
C 4544 2336 4678 2426 4678 2451 
L 4678 3040 
L 5798 3040 
C 5888 3040 5952 3072 5965 3142 
C 5773 3315 5485 3552 5485 3552 
L 5222 3226 
L 4678 3226 
L 4678 3693 
L 5971 3693 
C 6061 3693 6118 3725 6138 3795 
C 5952 3981 5645 4211 5645 4211 
L 5376 3885 
L 4909 3885 
C 5050 4045 5203 4224 5306 4371 
C 5440 4378 5510 4442 5536 4512 
L 5056 4602 
L 5837 4602 
C 5926 4602 5984 4634 6003 4704 
C 5811 4890 5510 5126 5510 5126 
L 5242 4794 
L 4678 4794 
L 4678 5120 
C 4826 5146 4896 5203 4909 5293 
L 4275 5350 
z
M 3789 4602 
L 4915 4602 
C 4870 4390 4800 4102 4730 3885 
L 4102 3885 
C 4288 3955 4352 4326 3789 4602 
z
M 2464 3424 
L 2464 2829 
L 1389 2829 
L 1389 3424 
L 2464 3424 
z
M 730 5005 
L 730 4474 
C 730 3846 698 3123 262 2496 
L 339 2413 
C 710 2726 909 3117 1011 3501 
L 1011 2259 
L 1062 2259 
C 1261 2259 1389 2355 1389 2387 
L 1389 2643 
L 2464 2643 
L 2464 2394 
L 2528 2394 
C 2656 2394 2848 2490 2854 2528 
L 2854 3386 
C 2950 3398 3040 3443 3072 3488 
L 2624 3827 
L 2413 3616 
L 1472 3616 
L 1069 3782 
C 1088 3891 1101 4000 1107 4102 
L 2413 4102 
L 2413 3904 
L 2477 3904 
C 2598 3904 2803 3994 2810 4032 
L 2810 4749 
C 2925 4774 3034 4826 3072 4870 
L 2573 5248 
L 2349 5005 
L 1190 5005 
L 730 5210 
L 730 5005 
z
M 2413 4819 
L 2413 4288 
L 1120 4288 
L 1120 4474 
L 1120 4819 
L 2413 4819 
z
M 1926 1325 
L 4538 1325 
L 4538 787 
L 1926 787 
L 1926 1325 
z
M 1926 1510 
L 1926 2010 
L 4538 2010 
L 4538 1510 
L 1926 1510 
z
M 1510 2202 
L 1510 -486 
L 1581 -486 
C 1754 -486 1926 -390 1926 -346 
L 1926 608 
L 4538 608 
L 4538 141 
C 4538 51 4506 13 4390 13 
C 4237 13 3571 64 3571 64 
L 3571 -38 
C 3866 -77 4032 -128 4128 -192 
C 4218 -262 4256 -365 4275 -499 
C 4883 -435 4954 -224 4954 96 
L 4954 1926 
C 5082 1952 5190 2010 5229 2054 
L 4685 2458 
L 4474 2202 
L 1965 2202 
L 1510 2406 
L 1510 2202 
z
" transform="scale(0.015625)"/>
       </defs>
       <use xlink:href="#NotoSerifCJKjp-Regular-81ea"/>
       <use xlink:href="#NotoSerifCJKjp-Regular-52a8" transform="translate(99.999985 0)"/>
       <use xlink:href="#NotoSerifCJKjp-Regular-5316" transform="translate(199.999969 0)"/>
       <use xlink:href="#NotoSerifCJKjp-Regular-8f93" transform="translate(299.999954 0)"/>
       <use xlink:href="#NotoSerifCJKjp-Regular-9001" transform="translate(399.999939 0)"/>
       <use xlink:href="#NotoSerifCJKjp-Regular-81c2" transform="translate(499.999924 0)"/>
       <use xlink:href="#NotoSerifCJKjp-Regular-31" transform="translate(599.999908 0)"/>
       <use xlink:href="#NotoSerifCJKjp-Regular-2d" transform="translate(647.099899 0)"/>
       <use xlink:href="#NotoSerifCJKjp-Regular-31" transform="translate(681.69989 0)"/>
      </g>
     </g>
    </g>
    <g id="ytick_3">
     <g id="line2d_10">
      <g>
       <use xlink:href="#m44f8365819" x="97.790312" y="115.590889" style="fill: #2f3437; stroke: #2f3437; stroke-width: 0.8"/>
      </g>
     </g>
     <g id="text_11">
      <!-- 工业清洗机1-1 -->
      <g style="fill: #2f3437" transform="translate(34.2 119.213389) scale(0.09 -0.09)">
       <defs>
        <path id="NotoSerifCJKjp-Regular-5de5" d="M 269 218 
L 326 32 
L 5984 32 
C 6074 32 6138 64 6157 134 
C 5920 346 5542 640 5542 640 
L 5210 218 
L 3405 218 
L 3405 4224 
L 5549 4224 
C 5645 4224 5709 4256 5728 4326 
C 5491 4538 5114 4832 5114 4832 
L 4774 4416 
L 704 4416 
L 762 4224 
L 2970 4224 
L 2970 218 
L 269 218 
z
" transform="scale(0.015625)"/>
        <path id="NotoSerifCJKjp-Regular-4e1a" d="M 781 3930 
L 672 3891 
C 1082 3149 1574 2016 1600 1178 
C 2086 704 2406 2150 781 3930 
z
M 5619 486 
L 5306 64 
L 4198 64 
L 4198 1082 
C 4774 1862 5376 2893 5696 3571 
C 5824 3533 5920 3565 5965 3635 
L 5331 3987 
C 5062 3219 4614 2195 4198 1376 
L 4198 5030 
C 4346 5043 4390 5101 4403 5190 
L 3789 5254 
L 3789 64 
L 2694 64 
L 2694 5030 
C 2835 5043 2886 5101 2899 5190 
L 2278 5261 
L 2278 64 
L 294 64 
L 352 -122 
L 6054 -122 
C 6138 -122 6202 -90 6221 -19 
C 5997 192 5619 486 5619 486 
z
" transform="scale(0.015625)"/>
        <path id="NotoSerifCJKjp-Regular-6e05" d="M 710 5286 
L 659 5229 
C 941 5037 1286 4685 1389 4390 
C 1862 4128 2106 5082 710 5286 
z
M 262 3834 
L 205 3770 
C 480 3603 806 3283 909 3002 
C 1370 2746 1619 3661 262 3834 
z
M 653 1293 
C 589 1293 371 1293 371 1293 
L 371 1152 
C 512 1146 602 1126 685 1069 
C 819 973 864 474 774 -179 
C 787 -378 864 -493 979 -493 
C 1190 -493 1325 -326 1338 -58 
C 1357 467 1171 755 1171 1043 
C 1165 1197 1210 1402 1261 1594 
C 1344 1894 1843 3341 2099 4115 
L 1978 4147 
C 928 1651 928 1651 813 1427 
C 749 1299 723 1293 653 1293 
z
M 3731 5318 
L 3731 4678 
L 2202 4678 
L 2253 4486 
L 3731 4486 
L 3731 3974 
L 2349 3974 
L 2394 3782 
L 3731 3782 
L 3731 3213 
L 2003 3213 
L 2054 3027 
L 5926 3027 
C 6016 3027 6080 3059 6093 3130 
C 5888 3315 5568 3571 5568 3571 
L 5274 3213 
L 4147 3213 
L 4147 3782 
L 5645 3782 
C 5734 3782 5792 3814 5805 3885 
C 5613 4064 5299 4320 5299 4320 
L 5018 3974 
L 4147 3974 
L 4147 4486 
L 5779 4486 
C 5869 4486 5926 4518 5946 4589 
C 5747 4774 5427 5024 5427 5024 
L 5146 4678 
L 4147 4678 
L 4147 5069 
C 4307 5094 4371 5158 4384 5248 
L 3731 5318 
z
M 5030 1581 
L 5030 966 
L 2970 966 
L 2970 1581 
L 5030 1581 
z
M 5030 1766 
L 2970 1766 
L 2970 2342 
L 5030 2342 
L 5030 1766 
z
M 2573 2522 
L 2573 -499 
L 2637 -499 
C 2816 -499 2970 -397 2970 -352 
L 2970 781 
L 5030 781 
L 5030 134 
C 5030 38 4998 0 4870 0 
C 4730 0 4000 51 4000 51 
L 4000 -51 
C 4320 -90 4493 -141 4595 -205 
C 4691 -275 4730 -378 4749 -506 
C 5363 -442 5440 -230 5440 83 
L 5440 2253 
C 5568 2272 5677 2330 5715 2381 
L 5178 2784 
L 4966 2522 
L 3008 2522 
L 2573 2720 
L 2573 2522 
z
" transform="scale(0.015625)"/>
        <path id="NotoSerifCJKjp-Regular-6d17" d="M 742 5299 
L 678 5242 
C 966 5050 1312 4704 1414 4403 
C 1888 4147 2138 5101 742 5299 
z
M 262 3942 
L 205 3878 
C 486 3706 806 3386 896 3104 
C 1350 2835 1619 3750 262 3942 
z
M 602 1299 
C 531 1299 314 1299 314 1299 
L 314 1158 
C 454 1146 550 1133 634 1069 
C 774 979 806 480 717 -173 
C 736 -371 806 -493 922 -493 
C 1146 -493 1261 -326 1274 -51 
C 1299 474 1126 762 1120 1050 
C 1114 1203 1158 1402 1210 1606 
C 1306 1914 1856 3424 2138 4230 
L 2016 4262 
C 877 1658 877 1658 762 1434 
C 698 1306 678 1299 602 1299 
z
M 2701 5229 
C 2598 4358 2349 3507 2016 2925 
L 2118 2867 
C 2381 3136 2598 3482 2784 3885 
L 3738 3885 
L 3738 2618 
L 1792 2618 
L 1843 2432 
L 3002 2432 
C 2931 1139 2630 282 1453 -397 
L 1498 -486 
C 2918 90 3354 973 3462 2432 
L 4192 2432 
L 4192 38 
C 4192 -262 4282 -365 4717 -365 
L 5229 -365 
C 6022 -365 6195 -288 6195 -109 
C 6195 -26 6176 26 6042 77 
L 6022 1056 
L 5939 1056 
C 5862 646 5792 218 5741 109 
C 5722 45 5702 32 5645 26 
C 5581 13 5427 13 5229 13 
L 4800 13 
C 4621 13 4602 45 4602 141 
L 4602 2432 
L 5978 2432 
C 6061 2432 6125 2464 6144 2534 
C 5933 2733 5587 3008 5587 3008 
L 5280 2618 
L 4154 2618 
L 4154 3885 
L 5779 3885 
C 5869 3885 5933 3917 5946 3987 
C 5741 4179 5402 4454 5402 4454 
L 5101 4064 
L 4154 4064 
L 4154 5094 
C 4314 5120 4371 5184 4390 5274 
L 3738 5338 
L 3738 4064 
L 2861 4064 
C 2970 4333 3066 4627 3142 4928 
C 3270 4941 3341 4998 3366 5082 
L 2701 5229 
z
" transform="scale(0.015625)"/>
       </defs>
       <use xlink:href="#NotoSerifCJKjp-Regular-5de5"/>
       <use xlink:href="#NotoSerifCJKjp-Regular-4e1a" transform="translate(99.999985 0)"/>
       <use xlink:href="#NotoSerifCJKjp-Regular-6e05" transform="translate(199.999969 0)"/>
       <use xlink:href="#NotoSerifCJKjp-Regular-6d17" transform="translate(299.999954 0)"/>
       <use xlink:href="#NotoSerifCJKjp-Regular-673a" transform="translate(399.999939 0)"/>
       <use xlink:href="#NotoSerifCJKjp-Regular-31" transform="translate(499.999924 0)"/>
       <use xlink:href="#NotoSerifCJKjp-Regular-2d" transform="translate(547.099915 0)"/>
       <use xlink:href="#NotoSerifCJKjp-Regular-31" transform="translate(581.699905 0)"/>
      </g>
     </g>
    </g>
    <g id="ytick_4">
     <g id="line2d_11">
      <g>
       <use xlink:href="#m44f8365819" x="97.790312" y="78.21472" style="fill: #2f3437; stroke: #2f3437; stroke-width: 0.8"/>
      </g>
     </g>
     <g id="text_12">
      <!-- 高速抛光机1-1 -->
      <g style="fill: #2f3437" transform="translate(34.2 81.83722) scale(0.09 -0.09)">
       <defs>
        <path id="NotoSerifCJKjp-Regular-9ad8" d="M 2970 5350 
L 2970 4640 
L 358 4640 
L 416 4454 
L 5907 4454 
C 6003 4454 6061 4486 6080 4557 
C 5843 4768 5472 5043 5472 5043 
L 5146 4640 
L 3392 4640 
L 3392 5114 
C 3546 5133 3610 5197 3622 5286 
L 2970 5350 
z
M 704 2266 
L 704 -493 
L 774 -493 
C 947 -493 1120 -390 1120 -346 
L 1120 2074 
L 5280 2074 
L 5280 122 
C 5280 32 5248 -6 5139 -6 
C 4998 -6 4390 38 4390 38 
L 4390 -64 
C 4666 -96 4819 -141 4909 -211 
C 4992 -275 5024 -378 5043 -499 
C 5632 -448 5702 -237 5702 77 
L 5702 1990 
C 5824 2016 5933 2074 5971 2118 
L 5434 2522 
L 5222 2266 
L 1165 2266 
L 704 2470 
L 704 2266 
z
M 4333 3770 
L 4333 3021 
L 2054 3021 
L 2054 3770 
L 4333 3770 
z
M 1645 3962 
L 1645 2515 
L 1709 2515 
C 1882 2515 2054 2611 2054 2650 
L 2054 2835 
L 4333 2835 
L 4333 2554 
L 4390 2554 
C 4525 2554 4742 2643 4749 2682 
L 4749 3686 
C 4870 3712 4973 3770 5018 3821 
L 4493 4211 
L 4269 3962 
L 2086 3962 
L 1645 4154 
L 1645 3962 
z
M 4000 1382 
L 4000 582 
L 2374 582 
L 2374 1382 
L 4000 1382 
z
M 1978 1568 
L 1978 19 
L 2035 19 
C 2202 19 2374 109 2374 147 
L 2374 397 
L 4000 397 
L 4000 122 
L 4064 122 
C 4198 122 4397 218 4403 256 
L 4403 1325 
C 4506 1344 4608 1395 4640 1440 
L 4160 1805 
L 3942 1568 
L 2406 1568 
L 1978 1760 
L 1978 1568 
z
" transform="scale(0.015625)"/>
        <path id="NotoSerifCJKjp-Regular-901f" d="M 563 5165 
L 499 5114 
C 826 4832 1229 4339 1338 3955 
C 1824 3629 2144 4659 563 5165 
z
M 3770 5389 
L 3770 4531 
L 2022 4531 
L 2074 4352 
L 3770 4352 
L 3770 3718 
L 2803 3718 
L 2362 3917 
L 2362 2086 
L 2419 2086 
C 2592 2086 2771 2176 2771 2214 
L 2771 2426 
L 3494 2426 
C 3123 1792 2541 1197 1843 781 
L 1914 678 
C 2669 1024 3315 1485 3770 2061 
L 3770 262 
L 3853 262 
C 4006 262 4179 358 4179 416 
L 4179 1965 
C 4672 1677 5344 1184 5606 800 
C 6125 595 6202 1600 4179 2086 
L 4179 2426 
L 5210 2426 
L 5210 2150 
L 5267 2150 
C 5408 2150 5613 2246 5619 2285 
L 5619 3450 
C 5741 3475 5843 3533 5888 3584 
L 5376 3974 
L 5146 3718 
L 4179 3718 
L 4179 4352 
L 5907 4352 
C 5997 4352 6067 4384 6080 4454 
C 5862 4646 5517 4915 5517 4915 
L 5203 4531 
L 4179 4531 
L 4179 5139 
C 4339 5165 4397 5222 4416 5312 
L 3770 5389 
z
M 5210 2618 
L 4179 2618 
L 4179 3533 
L 5210 3533 
L 5210 2618 
z
M 2771 2618 
L 2771 3533 
L 3770 3533 
L 3770 2618 
L 2771 2618 
z
M 1632 2381 
C 1805 2406 1901 2458 1946 2502 
L 1389 2957 
L 1146 2637 
L 256 2637 
L 294 2445 
L 1235 2445 
L 1235 557 
C 870 352 486 154 237 45 
L 538 -493 
C 595 -461 627 -422 608 -339 
C 864 -128 1280 256 1542 544 
C 1990 -192 2509 -339 3667 -339 
C 4378 -339 5248 -339 5875 -339 
C 5901 -141 6010 -26 6189 13 
L 6189 102 
C 5427 77 4416 77 3667 77 
C 2560 77 2074 154 1632 666 
L 1632 2381 
z
" transform="scale(0.015625)"/>
        <path id="NotoSerifCJKjp-Regular-629b" d="M 173 2112 
L 416 1606 
C 480 1638 525 1696 538 1773 
L 1050 2061 
L 1050 141 
C 1050 51 1024 19 915 19 
C 800 19 256 58 256 58 
L 256 -45 
C 499 -77 634 -122 723 -192 
C 800 -256 826 -371 845 -499 
C 1389 -435 1453 -230 1453 109 
L 1453 2304 
L 2234 2778 
L 2189 2861 
L 1453 2573 
L 1453 3891 
L 2067 3891 
C 2150 3891 2214 3923 2227 3994 
C 2074 4173 1805 4435 1805 4435 
L 1574 4077 
L 1453 4077 
L 1453 5120 
C 1600 5139 1664 5203 1683 5293 
L 1050 5363 
L 1050 4077 
L 243 4077 
L 294 3891 
L 1050 3891 
L 1050 2419 
C 666 2278 352 2163 173 2112 
z
M 2528 5299 
L 2528 3750 
L 1914 3750 
L 1971 3571 
L 2528 3571 
L 2528 2925 
C 2528 1658 2349 448 1491 -416 
L 1581 -499 
C 2675 339 2899 1626 2906 2925 
L 2906 3571 
L 3475 3571 
L 3475 96 
C 3475 -256 3610 -365 4141 -365 
L 4902 -365 
C 6003 -365 6227 -301 6227 -115 
C 6227 -32 6182 13 6035 58 
L 6016 762 
L 5939 762 
C 5869 448 5798 154 5747 70 
C 5715 26 5683 13 5606 6 
C 5504 -6 5248 -13 4915 -13 
L 4186 -13 
C 3891 -13 3846 38 3846 179 
L 3846 3488 
C 3987 3507 4070 3539 4115 3590 
L 3635 4000 
L 3411 3750 
L 2906 3750 
L 2906 5050 
C 3066 5075 3117 5139 3130 5229 
L 2528 5299 
z
M 4602 5306 
L 4602 4051 
L 4000 4051 
L 4051 3872 
L 4602 3872 
L 4602 3738 
C 4602 2675 4525 1402 3936 506 
L 4038 429 
C 4845 1293 4960 2643 4966 3725 
L 4966 3872 
L 5517 3872 
C 5504 1958 5466 1158 5325 998 
C 5274 941 5235 928 5139 928 
C 5030 928 4787 954 4614 966 
L 4608 851 
C 4768 826 4915 781 4979 723 
C 5050 659 5062 557 5062 435 
C 5267 435 5472 506 5606 672 
C 5818 928 5875 1715 5888 3821 
C 6022 3840 6099 3872 6144 3923 
L 5670 4307 
L 5446 4051 
L 4966 4051 
L 4966 5069 
C 5126 5094 5171 5152 5190 5242 
L 4602 5306 
z
" transform="scale(0.015625)"/>
        <path id="NotoSerifCJKjp-Regular-5149" d="M 941 4979 
L 858 4928 
C 1197 4518 1613 3859 1696 3347 
C 2176 2957 2541 4064 941 4979 
z
M 5062 5018 
C 4774 4384 4378 3693 4070 3283 
L 4160 3213 
C 4582 3565 5069 4090 5453 4621 
C 5587 4595 5677 4640 5709 4710 
L 5062 5018 
z
M 2970 5363 
L 2970 2899 
L 262 2899 
L 314 2714 
L 2227 2714 
C 2150 1197 1734 275 211 -403 
L 243 -499 
C 2042 70 2573 1030 2714 2714 
L 3597 2714 
L 3597 128 
C 3597 -211 3718 -320 4237 -320 
L 4941 -320 
C 5984 -320 6182 -243 6182 -45 
C 6182 38 6157 96 6016 147 
L 5990 1261 
L 5907 1261 
C 5824 781 5747 320 5690 192 
C 5670 122 5645 96 5562 90 
C 5472 77 5248 70 4947 70 
L 4307 70 
C 4058 70 4026 109 4026 230 
L 4026 2714 
L 5958 2714 
C 6048 2714 6112 2746 6125 2816 
C 5901 3027 5536 3302 5536 3302 
L 5210 2899 
L 3392 2899 
L 3392 5114 
C 3552 5139 3616 5203 3629 5293 
L 2970 5363 
z
" transform="scale(0.015625)"/>
       </defs>
       <use xlink:href="#NotoSerifCJKjp-Regular-9ad8"/>
       <use xlink:href="#NotoSerifCJKjp-Regular-901f" transform="translate(99.999985 0)"/>
       <use xlink:href="#NotoSerifCJKjp-Regular-629b" transform="translate(199.999969 0)"/>
       <use xlink:href="#NotoSerifCJKjp-Regular-5149" transform="translate(299.999954 0)"/>
       <use xlink:href="#NotoSerifCJKjp-Regular-673a" transform="translate(399.999939 0)"/>
       <use xlink:href="#NotoSerifCJKjp-Regular-31" transform="translate(499.999924 0)"/>
       <use xlink:href="#NotoSerifCJKjp-Regular-2d" transform="translate(547.099915 0)"/>
       <use xlink:href="#NotoSerifCJKjp-Regular-31" transform="translate(581.699905 0)"/>
      </g>
     </g>
    </g>
    <g id="ytick_5">
     <g id="line2d_12">
      <g>
       <use xlink:href="#m44f8365819" x="97.790312" y="40.838552" style="fill: #2f3437; stroke: #2f3437; stroke-width: 0.8"/>
      </g>
     </g>
     <g id="text_13">
      <!-- 自动传感多功能机1-1 -->
      <g style="fill: #2f3437" transform="translate(7.2 44.461052) scale(0.09 -0.09)">
       <defs>
        <path id="NotoSerifCJKjp-Regular-4f20" d="M 5325 4666 
L 5030 4301 
L 3904 4301 
C 3981 4595 4045 4870 4096 5088 
C 4243 5069 4314 5133 4346 5197 
L 3725 5389 
C 3674 5107 3584 4717 3475 4301 
L 2067 4301 
L 2118 4109 
L 3424 4109 
C 3334 3744 3226 3366 3123 3008 
L 1702 3008 
L 1754 2816 
L 3066 2816 
C 2970 2502 2880 2208 2797 1978 
C 2701 1939 2598 1894 2528 1850 
L 2989 1485 
L 3200 1702 
L 4915 1702 
C 4742 1357 4467 896 4230 557 
C 3859 736 3354 909 2701 1043 
L 2650 954 
C 3405 666 4499 38 4909 -493 
C 5318 -608 5357 -38 4365 486 
C 4742 819 5203 1299 5446 1632 
C 5581 1638 5664 1645 5715 1696 
L 5216 2163 
L 4934 1894 
L 3206 1894 
L 3488 2816 
L 6010 2816 
C 6099 2816 6163 2848 6182 2918 
C 5971 3117 5626 3392 5626 3392 
L 5318 3008 
L 3546 3008 
L 3853 4109 
L 5696 4109 
C 5779 4109 5843 4141 5862 4211 
C 5658 4410 5325 4666 5325 4666 
z
M 1677 3546 
L 1408 3648 
C 1632 4077 1837 4538 2010 5018 
C 2157 5018 2227 5069 2259 5139 
L 1568 5357 
C 1248 4141 698 2886 166 2093 
L 262 2035 
C 538 2317 806 2656 1050 3040 
L 1050 -486 
L 1126 -486 
C 1299 -486 1466 -384 1472 -346 
L 1472 3430 
C 1587 3450 1651 3488 1677 3546 
z
" transform="scale(0.015625)"/>
        <path id="NotoSerifCJKjp-Regular-611f" d="M 4429 5363 
L 4371 5306 
C 4576 5190 4832 4960 4928 4768 
C 5318 4550 5574 5299 4429 5363 
z
M 1453 3846 
L 1504 3661 
L 3533 3661 
C 3622 3661 3674 3693 3693 3763 
C 3507 3942 3200 4186 3200 4186 
L 2931 3846 
L 1453 3846 
z
M 2739 1485 
L 2675 1421 
C 3021 1222 3450 838 3584 518 
C 4051 282 4230 1229 2739 1485 
z
M 4774 1242 
L 4704 1184 
C 5107 864 5594 307 5715 -147 
C 6221 -480 6522 646 4774 1242 
z
M 1958 1325 
L 1958 38 
C 1958 -288 2067 -371 2624 -371 
L 3469 -371 
C 4640 -371 4851 -307 4851 -109 
C 4851 -26 4813 19 4666 64 
L 4653 755 
L 4570 755 
C 4493 435 4429 186 4378 90 
C 4346 26 4326 13 4237 6 
C 4134 0 3853 0 3488 0 
L 2682 0 
C 2400 0 2374 19 2374 109 
L 2374 1107 
C 2490 1126 2547 1184 2560 1261 
L 1958 1325 
z
M 1235 1203 
C 1197 730 870 326 576 179 
C 442 96 352 -38 416 -160 
C 493 -307 717 -288 890 -179 
C 1165 0 1485 461 1344 1203 
L 1235 1203 
z
M 826 4602 
L 826 3610 
C 826 2810 781 1926 262 1216 
L 352 1139 
C 1165 1837 1229 2867 1229 3616 
L 1229 4416 
L 3686 4416 
C 3789 3731 3987 3104 4320 2566 
C 4026 2170 3680 1843 3322 1600 
L 3398 1523 
C 3802 1709 4173 1971 4499 2304 
C 4723 1997 4998 1734 5325 1510 
C 5594 1325 5952 1184 6074 1376 
C 6131 1453 6106 1530 5926 1728 
L 6016 2515 
L 5933 2534 
C 5862 2310 5760 2054 5702 1926 
C 5658 1830 5606 1830 5517 1907 
C 5222 2093 4973 2330 4774 2611 
C 5037 2931 5261 3302 5440 3738 
C 5587 3718 5664 3770 5696 3846 
L 5082 4090 
C 4954 3667 4774 3283 4570 2944 
C 4326 3392 4179 3904 4102 4416 
L 5958 4416 
C 6048 4416 6112 4448 6125 4512 
C 5939 4704 5632 4966 5632 4966 
L 5350 4602 
L 4077 4602 
C 4058 4794 4045 4979 4038 5165 
C 4179 5184 4230 5254 4243 5331 
L 3610 5395 
C 3616 5126 3635 4858 3661 4602 
L 1306 4602 
L 826 4813 
L 826 4602 
z
M 1626 3168 
L 1626 1702 
L 1683 1702 
C 1843 1702 2022 1792 2022 1830 
L 2022 2067 
L 2989 2067 
L 2989 1837 
L 3046 1837 
C 3174 1837 3373 1926 3379 1965 
L 3379 2906 
C 3494 2931 3603 2982 3642 3034 
L 3142 3398 
L 2925 3168 
L 2048 3168 
L 1626 3347 
L 1626 3168 
z
M 2022 2253 
L 2022 2976 
L 2989 2976 
L 2989 2253 
L 2022 2253 
z
" transform="scale(0.015625)"/>
        <path id="NotoSerifCJKjp-Regular-591a" d="M 3366 5094 
C 3552 5088 3635 5126 3661 5197 
L 2976 5389 
C 2502 4768 1498 3968 467 3501 
L 531 3411 
C 986 3558 1427 3757 1830 3981 
C 2157 3821 2534 3539 2701 3309 
C 3110 3162 3206 3891 2010 4083 
C 2221 4211 2426 4339 2611 4474 
L 4371 4474 
C 3469 3322 2138 2630 346 2125 
L 403 2016 
C 2509 2438 3910 3194 4896 4410 
C 5050 4422 5152 4429 5197 4480 
L 4723 4909 
L 4467 4666 
L 2867 4666 
C 3053 4813 3219 4954 3366 5094 
z
M 4365 2938 
C 4544 2931 4634 2970 4666 3040 
L 3949 3219 
C 3366 2496 2195 1638 890 1139 
L 941 1043 
C 1472 1190 1978 1395 2438 1632 
C 2829 1427 3270 1075 3424 762 
C 3891 544 4019 1466 2630 1728 
C 2918 1882 3194 2048 3443 2214 
L 5299 2214 
C 4314 749 2803 83 595 -371 
L 634 -486 
C 3174 -154 4736 576 5811 2138 
C 5965 2144 6067 2157 6125 2208 
L 5632 2650 
L 5363 2394 
L 3699 2394 
C 3949 2573 4173 2758 4365 2938 
z
" transform="scale(0.015625)"/>
        <path id="NotoSerifCJKjp-Regular-529f" d="M 4397 5235 
L 3744 5312 
C 3744 4774 3744 4256 3731 3763 
L 2502 3763 
L 2560 3578 
L 3725 3578 
C 3642 1958 3283 621 1613 -390 
L 1696 -499 
C 3654 486 4045 1901 4134 3578 
L 5459 3578 
C 5395 1702 5248 384 4998 154 
C 4915 83 4864 64 4730 64 
C 4589 64 4102 109 3814 141 
L 3808 26 
C 4064 -19 4352 -90 4448 -160 
C 4538 -230 4570 -339 4570 -474 
C 4877 -480 5126 -384 5312 -186 
C 5632 160 5805 1485 5869 3526 
C 6010 3539 6093 3571 6138 3622 
L 5645 4038 
L 5395 3763 
L 4147 3763 
C 4160 4179 4166 4614 4173 5062 
C 4326 5088 4384 5146 4397 5235 
z
M 2445 4819 
L 2157 4448 
L 346 4448 
L 397 4262 
L 1331 4262 
L 1331 1446 
C 858 1293 474 1178 237 1114 
L 563 602 
C 627 627 672 685 691 768 
C 1766 1248 2541 1645 3091 1933 
L 3059 2029 
L 1741 1581 
L 1741 4262 
L 2810 4262 
C 2899 4262 2963 4294 2982 4365 
C 2778 4557 2445 4819 2445 4819 
z
" transform="scale(0.015625)"/>
        <path id="NotoSerifCJKjp-Regular-80fd" d="M 218 3987 
L 422 3469 
C 486 3482 544 3526 582 3597 
C 1453 3750 2125 3885 2630 3994 
C 2726 3846 2797 3699 2835 3571 
C 3283 3264 3597 4192 2125 4762 
L 2054 4717 
C 2214 4557 2394 4346 2547 4128 
L 1210 4038 
C 1446 4384 1683 4787 1830 5094 
C 1971 5094 2035 5152 2061 5229 
L 1376 5382 
C 1286 4986 1139 4448 1005 4026 
L 218 3987 
z
M 1088 2016 
L 2394 2016 
L 2394 1261 
L 1088 1261 
L 1088 2016 
z
M 1088 2202 
L 1088 2931 
L 2394 2931 
L 2394 2202 
L 1088 2202 
z
M 685 3123 
L 685 -480 
L 749 -480 
C 928 -480 1088 -378 1088 -339 
L 1088 1075 
L 2394 1075 
L 2394 154 
C 2394 70 2374 38 2285 38 
C 2176 38 1722 70 1722 70 
L 1722 -32 
C 1933 -64 2054 -109 2131 -179 
C 2195 -243 2221 -358 2234 -486 
C 2758 -435 2816 -230 2816 109 
L 2816 2848 
C 2938 2874 3046 2931 3085 2976 
L 2547 3386 
L 2330 3123 
L 1120 3123 
L 685 3322 
L 685 3123 
z
M 5421 4941 
C 5120 4666 4512 4282 3968 4051 
L 3968 5075 
C 4096 5094 4160 5158 4166 5235 
L 3558 5306 
L 3558 3053 
C 3558 2726 3654 2630 4154 2630 
L 4819 2630 
C 5786 2630 5990 2694 5990 2886 
C 5990 2970 5958 3014 5811 3059 
L 5792 3750 
L 5722 3750 
C 5651 3450 5581 3168 5536 3078 
C 5510 3034 5478 3021 5408 3014 
C 5325 3008 5107 3008 4838 3008 
L 4230 3008 
C 3994 3008 3968 3034 3968 3136 
L 3968 3917 
C 4582 4070 5242 4346 5632 4563 
C 5773 4518 5875 4525 5926 4589 
L 5421 4941 
z
M 5446 2093 
C 5152 1786 4544 1363 3974 1107 
L 3974 2176 
C 4096 2195 4160 2259 4166 2330 
L 3558 2400 
L 3558 51 
C 3558 -275 3661 -378 4166 -378 
L 4851 -378 
C 5843 -378 6048 -307 6048 -115 
C 6048 -32 6010 13 5869 64 
L 5850 813 
L 5773 813 
C 5702 486 5632 179 5581 83 
C 5555 32 5523 13 5453 13 
C 5370 6 5146 6 4870 6 
L 4243 6 
C 4006 6 3974 32 3974 141 
L 3974 966 
C 4621 1139 5293 1453 5690 1702 
C 5843 1664 5946 1677 5990 1741 
L 5446 2093 
z
" transform="scale(0.015625)"/>
       </defs>
       <use xlink:href="#NotoSerifCJKjp-Regular-81ea"/>
       <use xlink:href="#NotoSerifCJKjp-Regular-52a8" transform="translate(99.999985 0)"/>
       <use xlink:href="#NotoSerifCJKjp-Regular-4f20" transform="translate(199.999969 0)"/>
       <use xlink:href="#NotoSerifCJKjp-Regular-611f" transform="translate(299.999954 0)"/>
       <use xlink:href="#NotoSerifCJKjp-Regular-591a" transform="translate(399.999939 0)"/>
       <use xlink:href="#NotoSerifCJKjp-Regular-529f" transform="translate(499.999924 0)"/>
       <use xlink:href="#NotoSerifCJKjp-Regular-80fd" transform="translate(599.999908 0)"/>
       <use xlink:href="#NotoSerifCJKjp-Regular-673a" transform="translate(699.999893 0)"/>
       <use xlink:href="#NotoSerifCJKjp-Regular-31" transform="translate(799.999878 0)"/>
       <use xlink:href="#NotoSerifCJKjp-Regular-2d" transform="translate(847.099869 0)"/>
       <use xlink:href="#NotoSerifCJKjp-Regular-31" transform="translate(881.69986 0)"/>
      </g>
     </g>
    </g>
   </g>
   <g id="line2d_13">
    <path d="M 578.820739 210.152595 
L 578.820739 21.029182 
" clip-path="url(#pd3196d8e83)" style="fill: none; stroke-dasharray: 4.44,1.92; stroke-dashoffset: 0; stroke: #e76f51; stroke-width: 1.2"/>
   </g>
   <g id="patch_8">
    <path d="M 97.790312 210.152595 
L 97.790312 21.029182 
" style="fill: none; stroke: #b8c2cc; stroke-width: 0.8; stroke-linejoin: miter; stroke-linecap: square"/>
   </g>
   <g id="patch_9">
    <path d="M 602.87226 210.152595 
L 602.87226 21.029182 
" style="fill: none; stroke: #b8c2cc; stroke-width: 0.8; stroke-linejoin: miter; stroke-linecap: square"/>
   </g>
   <g id="patch_10">
    <path d="M 97.790312 210.152595 
L 602.87226 210.152595 
" style="fill: none; stroke: #b8c2cc; stroke-width: 0.8; stroke-linejoin: miter; stroke-linecap: square"/>
   </g>
   <g id="patch_11">
    <path d="M 97.790312 21.029182 
L 602.87226 21.029182 
" style="fill: none; stroke: #b8c2cc; stroke-width: 0.8; stroke-linejoin: miter; stroke-linecap: square"/>
   </g>
   <g id="text_14">
    <g clip-path="url(#pd3196d8e83)">
     <!-- A1 -->
     <g style="fill: #ffffff" transform="translate(124.406237 192.523226) scale(0.08 -0.08)">
      <defs>
       <path id="NotoSerifCJKjp-Regular-41" d="M 2125 4115 
L 2880 1798 
L 1382 1798 
L 2125 4115 
z
M 2675 0 
L 4550 0 
L 4550 192 
L 3962 243 
L 2458 4698 
L 2099 4698 
L 621 256 
L 77 192 
L 77 0 
L 1510 0 
L 1510 192 
L 890 256 
L 1318 1594 
L 2950 1594 
L 3386 250 
L 2675 192 
L 2675 0 
z
" transform="scale(0.015625)"/>
      </defs>
      <use xlink:href="#NotoSerifCJKjp-Regular-41"/>
      <use xlink:href="#NotoSerifCJKjp-Regular-31" transform="translate(71.799988 0)"/>
     </g>
    </g>
   </g>
   <g id="text_15">
    <g clip-path="url(#pd3196d8e83)">
     <!-- A1 -->
     <g style="fill: #ffffff" transform="translate(118.131927 155.147057) scale(0.08 -0.08)">
      <use xlink:href="#NotoSerifCJKjp-Regular-41"/>
      <use xlink:href="#NotoSerifCJKjp-Regular-31" transform="translate(71.799988 0)"/>
     </g>
    </g>
   </g>
   <g id="text_16">
    <g clip-path="url(#pd3196d8e83)">
     <!-- A2 -->
     <g style="fill: #ffffff" transform="translate(197.258394 117.770889) scale(0.08 -0.08)">
      <use xlink:href="#NotoSerifCJKjp-Regular-41"/>
      <use xlink:href="#NotoSerifCJKjp-Regular-32" transform="translate(71.799988 0)"/>
     </g>
    </g>
   </g>
   <g id="text_17">
    <g clip-path="url(#pd3196d8e83)">
     <!-- A2 -->
     <g style="fill: #ffffff" transform="translate(260.001493 80.39472) scale(0.08 -0.08)">
      <use xlink:href="#NotoSerifCJKjp-Regular-41"/>
      <use xlink:href="#NotoSerifCJKjp-Regular-32" transform="translate(71.799988 0)"/>
     </g>
    </g>
   </g>
   <g id="text_18">
    <g clip-path="url(#pd3196d8e83)">
     <!-- A3 -->
     <g style="fill: #ffffff" transform="translate(469.148907 43.018552) scale(0.08 -0.08)">
      <defs>
       <path id="NotoSerifCJKjp-Regular-33" d="M 1638 -96 
C 2534 -96 3155 416 3155 1203 
C 3155 1875 2778 2342 1952 2458 
C 2662 2618 3021 3085 3021 3629 
C 3021 4301 2547 4755 1728 4755 
C 1120 4755 550 4499 442 3866 
C 480 3757 576 3706 685 3706 
C 845 3706 941 3776 998 3994 
L 1146 4486 
C 1306 4538 1453 4557 1606 4557 
C 2163 4557 2477 4205 2477 3610 
C 2477 2925 2035 2554 1414 2554 
L 1158 2554 
L 1158 2330 
L 1446 2330 
C 2214 2330 2611 1926 2611 1222 
C 2611 544 2202 102 1491 102 
C 1312 102 1158 134 1018 186 
L 864 685 
C 806 922 717 1011 563 1011 
C 442 1011 346 941 301 813 
C 429 218 909 -96 1638 -96 
z
" transform="scale(0.015625)"/>
      </defs>
      <use xlink:href="#NotoSerifCJKjp-Regular-41"/>
      <use xlink:href="#NotoSerifCJKjp-Regular-33" transform="translate(71.799988 0)"/>
     </g>
    </g>
   </g>
   <g id="text_19">
    <!-- $C_A$ = 41400 s -->
    <g style="fill: #e76f51" transform="translate(580.912175 14.445) scale(0.09 -0.09)">
     <defs>
      <path id="DejaVuSans-Oblique-43" d="M 4447 4306 
L 4319 3641 
Q 4019 3944 3683 4091 
Q 3347 4238 2956 4238 
Q 2422 4238 2017 3981 
Q 1613 3725 1319 3200 
Q 1131 2863 1032 2486 
Q 934 2109 934 1728 
Q 934 1091 1264 756 
Q 1594 422 2222 422 
Q 2656 422 3056 561 
Q 3456 700 3834 978 
L 3688 231 
Q 3316 72 2936 -9 
Q 2556 -91 2175 -91 
Q 1278 -91 773 396 
Q 269 884 269 1753 
Q 269 2309 461 2846 
Q 653 3384 1013 3828 
Q 1394 4300 1883 4525 
Q 2372 4750 3022 4750 
Q 3422 4750 3780 4639 
Q 4138 4528 4447 4306 
z
" transform="scale(0.015625)"/>
      <path id="DejaVuSans-Oblique-41" d="M 2356 4666 
L 3072 4666 
L 3938 0 
L 3278 0 
L 3084 1197 
L 984 1197 
L 325 0 
L -341 0 
L 2356 4666 
z
M 2584 4044 
L 1275 1722 
L 2988 1722 
L 2584 4044 
z
" transform="scale(0.015625)"/>
      <path id="NotoSerifCJKjp-Regular-20" transform="scale(0.015625)"/>
      <path id="NotoSerifCJKjp-Regular-3d" d="M 3475 1466 
L 3475 1734 
L 243 1734 
L 243 1466 
L 3475 1466 
z
M 3475 2874 
L 3475 3142 
L 243 3142 
L 243 2874 
L 3475 2874 
z
" transform="scale(0.015625)"/>
      <path id="NotoSerifCJKjp-Regular-73" d="M 1414 -96 
C 2285 -96 2733 339 2733 896 
C 2733 1344 2483 1632 1837 1856 
L 1510 1971 
C 1043 2131 858 2304 858 2611 
C 858 2950 1107 3187 1594 3187 
C 1798 3187 1978 3142 2170 3034 
L 2298 2426 
L 2554 2426 
L 2573 3110 
C 2253 3302 1978 3398 1594 3398 
C 826 3398 397 2982 397 2445 
C 397 1965 723 1690 1242 1504 
L 1574 1382 
C 2093 1216 2253 1037 2253 723 
C 2253 358 1965 109 1402 109 
C 1133 109 934 154 755 237 
L 627 922 
L 346 922 
L 346 160 
C 691 -6 1005 -96 1414 -96 
z
" transform="scale(0.015625)"/>
     </defs>
     <use xlink:href="#DejaVuSans-Oblique-43" transform="translate(0 0.703125)"/>
     <use xlink:href="#DejaVuSans-Oblique-41" transform="translate(69.824219 -15.703125) scale(0.7)"/>
     <use xlink:href="#NotoSerifCJKjp-Regular-20" transform="translate(120.444336 0.703125)"/>
     <use xlink:href="#NotoSerifCJKjp-Regular-3d" transform="translate(146.044327 0.703125)"/>
     <use xlink:href="#NotoSerifCJKjp-Regular-20" transform="translate(204.044312 0.703125)"/>
     <use xlink:href="#NotoSerifCJKjp-Regular-34" transform="translate(229.644302 0.703125)"/>
     <use xlink:href="#NotoSerifCJKjp-Regular-31" transform="translate(285.144287 0.703125)"/>
     <use xlink:href="#NotoSerifCJKjp-Regular-34" transform="translate(332.244278 0.703125)"/>
     <use xlink:href="#NotoSerifCJKjp-Regular-30" transform="translate(387.744263 0.703125)"/>
     <use xlink:href="#NotoSerifCJKjp-Regular-30" transform="translate(443.44426 0.703125)"/>
     <use xlink:href="#NotoSerifCJKjp-Regular-20" transform="translate(499.144257 0.703125)"/>
     <use xlink:href="#NotoSerifCJKjp-Regular-73" transform="translate(524.744247 0.703125)"/>
    </g>
   </g>
   <g id="legend_1">
    <g id="patch_12">
     <path d="M 556.288823 205.652595 
L 596.57226 205.652595 
Q 598.37226 205.652595 598.37226 203.852595 
L 598.37226 162.497595 
Q 598.37226 160.697595 596.57226 160.697595 
L 556.288823 160.697595 
Q 554.488823 160.697595 554.488823 162.497595 
L 554.488823 203.852595 
Q 554.488823 205.652595 556.288823 205.652595 
z
" style="fill: #fafaf7; opacity: 0.8; stroke: #b8c2cc; stroke-linejoin: miter"/>
    </g>
    <g id="patch_13">
     <path d="M 558.088823 171.542595 
L 576.088823 171.542595 
L 576.088823 165.242595 
L 558.088823 165.242595 
z
" style="fill: #6fa8dc; stroke: #6fa8dc; stroke-linejoin: miter"/>
    </g>
    <g id="text_20">
     <!-- A1 -->
     <g transform="translate(583.288823 171.542595) scale(0.09 -0.09)">
      <use xlink:href="#NotoSerifCJKjp-Regular-41"/>
      <use xlink:href="#NotoSerifCJKjp-Regular-31" transform="translate(71.799988 0)"/>
     </g>
    </g>
    <g id="patch_14">
     <path d="M 558.088823 185.627595 
L 576.088823 185.627595 
L 576.088823 179.327595 
L 558.088823 179.327595 
z
" style="fill: #f4a261; stroke: #f4a261; stroke-linejoin: miter"/>
    </g>
    <g id="text_21">
     <!-- A2 -->
     <g transform="translate(583.288823 185.627595) scale(0.09 -0.09)">
      <use xlink:href="#NotoSerifCJKjp-Regular-41"/>
      <use xlink:href="#NotoSerifCJKjp-Regular-32" transform="translate(71.799988 0)"/>
     </g>
    </g>
    <g id="patch_15">
     <path d="M 558.088823 199.712595 
L 576.088823 199.712595 
L 576.088823 193.412595 
L 558.088823 193.412595 
z
" style="fill: #8fd3b5; stroke: #8fd3b5; stroke-linejoin: miter"/>
    </g>
    <g id="text_22">
     <!-- A3 -->
     <g transform="translate(583.288823 199.712595) scale(0.09 -0.09)">
      <use xlink:href="#NotoSerifCJKjp-Regular-41"/>
      <use xlink:href="#NotoSerifCJKjp-Regular-33" transform="translate(71.799988 0)"/>
     </g>
    </g>
   </g>
  </g>
 </g>
 <defs>
  <clipPath id="pd3196d8e83">
   <rect x="97.790312" y="21.029182" width="505.081948" height="189.123413"/>
  </clipPath>
 </defs>
</svg>
