<?xml version="1.0" encoding="utf-8" standalone="no"?>
<!DOCTYPE svg PUBLIC "-//W3C//DTD SVG 1.1//EN"
  "http://www.w3.org/Graphics/SVG/1.1/DTD/svg11.dtd">
<svg xmlns:xlink="http://www.w3.org/1999/xlink" width="850.743582pt" height="567.1575pt" viewBox="0 0 850.743582 567.1575" xmlns="http://www.w3.org/2000/svg" version="1.1">
 <metadata>
  <rdf:RDF xmlns:dc="http://purl.org/dc/elements/1.1/" xmlns:cc="http://creativecommons.org/ns#" xmlns:rdf="http://www.w3.org/1999/02/22-rdf-syntax-ns#">
   <cc:Work>
    <dc:type rdf:resource="http://purl.org/dc/dcmitype/StillImage"/>
    <dc:date>2026-05-02T21:56:13.629111</dc:date>
    <dc:format>image/svg+xml</dc:format>
    <dc:creator>
     <cc:Agent>
      <dc:title>Matplotlib v3.10.8, https://matplotlib.org/</dc:title>
     </cc:Agent>
    </dc:creator>
   </cc:Work>
  </rdf:RDF>
 </metadata>
 <defs>
  <style type="text/css">*{stroke-linejoin: round; stroke-linecap: butt}</style>
 </defs>
 <g id="figure_1">
  <g id="patch_1">
   <path d="M 0 567.1575 
L 850.743582 567.1575 
L 850.743582 0 
L 0 0 
z
" style="fill: #ffffff"/>
  </g>
  <g id="axes_1">
   <g id="patch_2">
    <path d="M 44.25375 527.6575 
L 820.715386 527.6575 
L 820.715386 22.86 
L 44.25375 22.86 
z
" style="fill: #ffffff"/>
   </g>
   <g id="patch_3">
    <path d="M 45.229362 504.712159 
L 66.302591 504.712159 
L 66.302591 487.061897 
L 45.229362 487.061897 
z
" clip-path="url(#p2718d3f6f1)" style="fill: #4472c4; stroke: #ffffff; stroke-width: 0.5; stroke-linejoin: miter"/>
   </g>
   <g id="patch_4">
    <path d="M 45.229362 92.872707 
L 115.473457 92.872707 
L 115.473457 75.222445 
L 45.229362 75.222445 
z
" clip-path="url(#p2718d3f6f1)" style="fill: #7030a0; stroke: #ffffff; stroke-width: 0.5; stroke-linejoin: miter"/>
   </g>
   <g id="patch_5">
    <path d="M 45.229362 475.295055 
L 71.570898 475.295055 
L 71.570898 457.644793 
L 45.229362 457.644793 
z
" clip-path="url(#p2718d3f6f1)" style="fill: #4472c4; stroke: #ffffff; stroke-width: 0.5; stroke-linejoin: miter"/>
   </g>
   <g id="patch_6">
    <path d="M 45.375704 269.375329 
L 95.951452 269.375329 
L 95.951452 251.725067 
L 45.375704 251.725067 
z
" clip-path="url(#p2718d3f6f1)" style="fill: #70ad47; stroke: #ffffff; stroke-width: 0.5; stroke-linejoin: miter"/>
   </g>
   <g id="patch_7">
    <path d="M 45.375704 239.958226 
L 95.951452 239.958226 
L 95.951452 222.307963 
L 45.375704 222.307963 
z
" clip-path="url(#p2718d3f6f1)" style="fill: #70ad47; stroke: #ffffff; stroke-width: 0.5; stroke-linejoin: miter"/>
   </g>
   <g id="patch_8">
    <path d="M 45.765949 387.043744 
L 66.839178 387.043744 
L 66.839178 369.393482 
L 45.765949 369.393482 
z
" clip-path="url(#p2718d3f6f1)" style="fill: #ed7d31; stroke: #ffffff; stroke-width: 0.5; stroke-linejoin: miter"/>
   </g>
   <g id="patch_9">
    <path d="M 45.985462 181.124018 
L 88.131919 181.124018 
L 88.131919 163.473756 
L 45.985462 163.473756 
z
" clip-path="url(#p2718d3f6f1)" style="fill: #ff0000; stroke: #ffffff; stroke-width: 0.5; stroke-linejoin: miter"/>
   </g>
   <g id="patch_10">
    <path d="M 66.839178 357.62664 
L 154.644296 357.62664 
L 154.644296 339.976378 
L 66.839178 339.976378 
z
" clip-path="url(#p2718d3f6f1)" style="fill: #ed7d31; stroke: #ffffff; stroke-width: 0.5; stroke-linejoin: miter"/>
   </g>
   <g id="patch_11">
    <path d="M 66.839178 328.209537 
L 198.546855 328.209537 
L 198.546855 310.559274 
L 66.839178 310.559274 
z
" clip-path="url(#p2718d3f6f1)" style="fill: #ed7d31; stroke: #ffffff; stroke-width: 0.5; stroke-linejoin: miter"/>
   </g>
   <g id="patch_12">
    <path d="M 71.570898 445.877952 
L 159.376016 445.877952 
L 159.376016 428.227689 
L 71.570898 428.227689 
z
" clip-path="url(#p2718d3f6f1)" style="fill: #4472c4; stroke: #ffffff; stroke-width: 0.5; stroke-linejoin: miter"/>
   </g>
   <g id="patch_13">
    <path d="M 71.570898 416.460848 
L 106.692945 416.460848 
L 106.692945 398.810586 
L 71.570898 398.810586 
z
" clip-path="url(#p2718d3f6f1)" style="fill: #4472c4; stroke: #ffffff; stroke-width: 0.5; stroke-linejoin: miter"/>
   </g>
   <g id="patch_14">
    <path d="M 88.131919 151.706914 
L 134.961315 151.706914 
L 134.961315 134.056652 
L 88.131919 134.056652 
z
" clip-path="url(#p2718d3f6f1)" style="fill: #ff0000; stroke: #ffffff; stroke-width: 0.5; stroke-linejoin: miter"/>
   </g>
   <g id="patch_15">
    <path d="M 88.131919 122.289811 
L 158.376013 122.289811 
L 158.376013 104.639548 
L 88.131919 104.639548 
z
" clip-path="url(#p2718d3f6f1)" style="fill: #ff0000; stroke: #ffffff; stroke-width: 0.5; stroke-linejoin: miter"/>
   </g>
   <g id="patch_16">
    <path d="M 95.951452 210.541122 
L 132.07838 210.541122 
L 132.07838 192.89086 
L 95.951452 192.89086 
z
" clip-path="url(#p2718d3f6f1)" style="fill: #70ad47; stroke: #ffffff; stroke-width: 0.5; stroke-linejoin: miter"/>
   </g>
   <g id="patch_17">
    <path d="M 115.473457 475.295055 
L 145.580856 475.295055 
L 145.580856 457.644793 
L 115.473457 457.644793 
z
" clip-path="url(#p2718d3f6f1)" style="fill: #7030a0; stroke: #ffffff; stroke-width: 0.5; stroke-linejoin: miter"/>
   </g>
   <g id="patch_18">
    <path d="M 132.07838 210.541122 
L 163.688223 210.541122 
L 163.688223 192.89086 
L 132.07838 192.89086 
z
" clip-path="url(#p2718d3f6f1)" style="fill: #70ad47; stroke: #ffffff; stroke-width: 0.5; stroke-linejoin: miter"/>
   </g>
   <g id="patch_19">
    <path d="M 136.229611 151.706914 
L 161.517485 151.706914 
L 161.517485 134.056652 
L 136.229611 134.056652 
z
" clip-path="url(#p2718d3f6f1)" style="fill: #70ad47; stroke: #ffffff; stroke-width: 0.5; stroke-linejoin: miter"/>
   </g>
   <g id="patch_20">
    <path d="M 145.580856 63.455603 
L 180.702904 63.455603 
L 180.702904 45.805341 
L 145.580856 45.805341 
z
" clip-path="url(#p2718d3f6f1)" style="fill: #7030a0; stroke: #ffffff; stroke-width: 0.5; stroke-linejoin: miter"/>
   </g>
   <g id="patch_21">
    <path d="M 158.376013 122.289811 
L 180.956563 122.289811 
L 180.956563 104.639548 
L 158.376013 104.639548 
z
" clip-path="url(#p2718d3f6f1)" style="fill: #ff0000; stroke: #ffffff; stroke-width: 0.5; stroke-linejoin: miter"/>
   </g>
   <g id="patch_22">
    <path d="M 163.688223 445.877952 
L 222.224968 445.877952 
L 222.224968 428.227689 
L 163.688223 428.227689 
z
" clip-path="url(#p2718d3f6f1)" style="fill: #70ad47; stroke: #ffffff; stroke-width: 0.5; stroke-linejoin: miter"/>
   </g>
   <g id="patch_23">
    <path d="M 163.688223 92.872707 
L 233.932318 92.872707 
L 233.932318 75.222445 
L 163.688223 75.222445 
z
" clip-path="url(#p2718d3f6f1)" style="fill: #70ad47; stroke: #ffffff; stroke-width: 0.5; stroke-linejoin: miter"/>
   </g>
   <g id="patch_24">
    <path d="M 184.117547 63.455603 
L 271.922665 63.455603 
L 271.922665 45.805341 
L 184.117547 45.805341 
z
" clip-path="url(#p2718d3f6f1)" style="fill: #4472c4; stroke: #ffffff; stroke-width: 0.5; stroke-linejoin: miter"/>
   </g>
   <g id="patch_25">
    <path d="M 198.546855 298.792433 
L 216.610319 298.792433 
L 216.610319 281.142171 
L 198.546855 281.142171 
z
" clip-path="url(#p2718d3f6f1)" style="fill: #ed7d31; stroke: #ffffff; stroke-width: 0.5; stroke-linejoin: miter"/>
   </g>
   <g id="patch_26">
    <path d="M 223.493265 445.877952 
L 443.00606 445.877952 
L 443.00606 428.227689 
L 223.493265 428.227689 
z
" clip-path="url(#p2718d3f6f1)" style="fill: #ff0000; stroke: #ffffff; stroke-width: 0.5; stroke-linejoin: miter"/>
   </g>
   <g id="patch_27">
    <path d="M 274.117793 63.455603 
L 361.922912 63.455603 
L 361.922912 45.805341 
L 274.117793 45.805341 
z
" clip-path="url(#p2718d3f6f1)" style="fill: #ff0000; stroke: #ffffff; stroke-width: 0.5; stroke-linejoin: miter"/>
   </g>
   <g id="patch_28">
    <path d="M 305.839831 92.872707 
L 411.205973 92.872707 
L 411.205973 75.222445 
L 305.839831 75.222445 
z
" clip-path="url(#p2718d3f6f1)" style="fill: #7030a0; stroke: #ffffff; stroke-width: 0.5; stroke-linejoin: miter"/>
   </g>
   <g id="patch_29">
    <path d="M 363.191208 63.455603 
L 433.435302 63.455603 
L 433.435302 45.805341 
L 363.191208 45.805341 
z
" clip-path="url(#p2718d3f6f1)" style="fill: #70ad47; stroke: #ffffff; stroke-width: 0.5; stroke-linejoin: miter"/>
   </g>
   <g id="patch_30">
    <path d="M 433.435302 151.706914 
L 458.723176 151.706914 
L 458.723176 134.056652 
L 433.435302 134.056652 
z
" clip-path="url(#p2718d3f6f1)" style="fill: #70ad47; stroke: #ffffff; stroke-width: 0.5; stroke-linejoin: miter"/>
   </g>
   <g id="patch_31">
    <path d="M 433.435302 475.295055 
L 465.045145 475.295055 
L 465.045145 457.644793 
L 433.435302 457.644793 
z
" clip-path="url(#p2718d3f6f1)" style="fill: #70ad47; stroke: #ffffff; stroke-width: 0.5; stroke-linejoin: miter"/>
   </g>
   <g id="patch_32">
    <path d="M 443.00606 63.455603 
L 530.811178 63.455603 
L 530.811178 45.805341 
L 443.00606 45.805341 
z
" clip-path="url(#p2718d3f6f1)" style="fill: #ff0000; stroke: #ffffff; stroke-width: 0.5; stroke-linejoin: miter"/>
   </g>
   <g id="patch_33">
    <path d="M 465.045145 445.877952 
L 523.58189 445.877952 
L 523.58189 428.227689 
L 465.045145 428.227689 
z
" clip-path="url(#p2718d3f6f1)" style="fill: #70ad47; stroke: #ffffff; stroke-width: 0.5; stroke-linejoin: miter"/>
   </g>
   <g id="patch_34">
    <path d="M 465.045145 92.872707 
L 535.289239 92.872707 
L 535.289239 75.222445 
L 465.045145 75.222445 
z
" clip-path="url(#p2718d3f6f1)" style="fill: #70ad47; stroke: #ffffff; stroke-width: 0.5; stroke-linejoin: miter"/>
   </g>
   <g id="patch_35">
    <path d="M 530.811178 445.877952 
L 653.738344 445.877952 
L 653.738344 428.227689 
L 530.811178 428.227689 
z
" clip-path="url(#p2718d3f6f1)" style="fill: #ff0000; stroke: #ffffff; stroke-width: 0.5; stroke-linejoin: miter"/>
   </g>
   <g id="patch_36">
    <path d="M 535.289239 63.455603 
L 605.533334 63.455603 
L 605.533334 45.805341 
L 535.289239 45.805341 
z
" clip-path="url(#p2718d3f6f1)" style="fill: #70ad47; stroke: #ffffff; stroke-width: 0.5; stroke-linejoin: miter"/>
   </g>
   <g id="patch_37">
    <path d="M 605.533334 151.706914 
L 630.821208 151.706914 
L 630.821208 134.056652 
L 605.533334 134.056652 
z
" clip-path="url(#p2718d3f6f1)" style="fill: #70ad47; stroke: #ffffff; stroke-width: 0.5; stroke-linejoin: miter"/>
   </g>
   <g id="patch_38">
    <path d="M 605.533334 122.289811 
L 637.143177 122.289811 
L 637.143177 104.639548 
L 605.533334 104.639548 
z
" clip-path="url(#p2718d3f6f1)" style="fill: #70ad47; stroke: #ffffff; stroke-width: 0.5; stroke-linejoin: miter"/>
   </g>
   <g id="patch_39">
    <path d="M 608.216268 63.455603 
L 671.435953 63.455603 
L 671.435953 45.805341 
L 608.216268 45.805341 
z
" clip-path="url(#p2718d3f6f1)" style="fill: #ed7d31; stroke: #ffffff; stroke-width: 0.5; stroke-linejoin: miter"/>
   </g>
   <g id="patch_40">
    <path d="M 637.143177 92.872707 
L 707.387271 92.872707 
L 707.387271 75.222445 
L 637.143177 75.222445 
z
" clip-path="url(#p2718d3f6f1)" style="fill: #70ad47; stroke: #ffffff; stroke-width: 0.5; stroke-linejoin: miter"/>
   </g>
   <g id="patch_41">
    <path d="M 655.00664 445.877952 
L 713.543385 445.877952 
L 713.543385 428.227689 
L 655.00664 428.227689 
z
" clip-path="url(#p2718d3f6f1)" style="fill: #70ad47; stroke: #ffffff; stroke-width: 0.5; stroke-linejoin: miter"/>
   </g>
   <g id="patch_42">
    <path d="M 713.543385 63.455603 
L 783.78748 63.455603 
L 783.78748 45.805341 
L 713.543385 45.805341 
z
" clip-path="url(#p2718d3f6f1)" style="fill: #70ad47; stroke: #ffffff; stroke-width: 0.5; stroke-linejoin: miter"/>
   </g>
   <g id="patch_43">
    <path d="M 716.22632 445.877952 
L 768.909391 445.877952 
L 768.909391 428.227689 
L 716.22632 428.227689 
z
" clip-path="url(#p2718d3f6f1)" style="fill: #ed7d31; stroke: #ffffff; stroke-width: 0.5; stroke-linejoin: miter"/>
   </g>
   <g id="matplotlib.axis_1">
    <g id="xtick_1">
     <g id="line2d_1">
      <defs>
       <path id="m2c4109bfcb" d="M 0 0 
L 0 3.5 
" style="stroke: #000000; stroke-width: 0.8"/>
      </defs>
      <g>
       <use xlink:href="#m2c4109bfcb" x="44.25375" y="527.6575" style="stroke: #000000; stroke-width: 0.8"/>
      </g>
     </g>
     <g id="text_1">
      <!-- 0 -->
      <g transform="translate(41.468594 542.7075) scale(0.1 -0.1)">
       <defs>
        <path id="NotoSerifCJKjp-Regular-30" d="M 1779 -96 
C 2547 -96 3258 602 3258 2342 
C 3258 4058 2547 4755 1779 4755 
C 1011 4755 301 4058 301 2342 
C 301 602 1011 -96 1779 -96 
z
M 1779 102 
C 1299 102 832 640 832 2342 
C 832 4019 1299 4550 1779 4550 
C 2253 4550 2726 4019 2726 2342 
C 2726 640 2253 102 1779 102 
z
" transform="scale(0.015625)"/>
       </defs>
       <use xlink:href="#NotoSerifCJKjp-Regular-30"/>
      </g>
     </g>
    </g>
    <g id="xtick_2">
     <g id="line2d_2">
      <g>
       <use xlink:href="#m2c4109bfcb" x="132.058868" y="527.6575" style="stroke: #000000; stroke-width: 0.8"/>
      </g>
     </g>
     <g id="text_2">
      <!-- 5 -->
      <g transform="translate(129.269024 542.7075) scale(0.1 -0.1)">
       <defs>
        <path id="NotoSerifCJKjp-Regular-35" d="M 1574 -96 
C 2573 -96 3213 499 3213 1408 
C 3213 2317 2624 2803 1709 2803 
C 1421 2803 1158 2765 902 2656 
L 1005 4211 
L 3091 4211 
L 3091 4659 
L 800 4659 
L 653 2458 
L 813 2394 
C 1037 2496 1286 2547 1562 2547 
C 2221 2547 2650 2176 2650 1382 
C 2650 563 2234 102 1498 102 
C 1293 102 1146 134 998 198 
L 845 691 
C 794 922 710 1005 550 1005 
C 429 1005 326 941 282 819 
C 397 230 883 -96 1574 -96 
z
" transform="scale(0.015625)"/>
       </defs>
       <use xlink:href="#NotoSerifCJKjp-Regular-35"/>
      </g>
     </g>
    </g>
    <g id="xtick_3">
     <g id="line2d_3">
      <g>
       <use xlink:href="#m2c4109bfcb" x="219.863986" y="527.6575" style="stroke: #000000; stroke-width: 0.8"/>
      </g>
     </g>
     <g id="text_3">
      <!-- 10 -->
      <g transform="translate(214.724143 542.7075) scale(0.1 -0.1)">
       <defs>
        <path id="NotoSerifCJKjp-Regular-31" d="M 480 0 
L 2733 -6 
L 2733 173 
L 1907 269 
L 1894 1472 
L 1894 3642 
L 1920 4653 
L 1824 4723 
L 448 4371 
L 448 4179 
L 1370 4333 
L 1370 1472 
L 1357 269 
L 480 179 
L 480 0 
z
" transform="scale(0.015625)"/>
       </defs>
       <use xlink:href="#NotoSerifCJKjp-Regular-31"/>
       <use xlink:href="#NotoSerifCJKjp-Regular-30" transform="translate(47.099991 0)"/>
      </g>
     </g>
    </g>
    <g id="xtick_4">
     <g id="line2d_4">
      <g>
       <use xlink:href="#m2c4109bfcb" x="307.669105" y="527.6575" style="stroke: #000000; stroke-width: 0.8"/>
      </g>
     </g>
     <g id="text_4">
      <!-- 15 -->
      <g transform="translate(302.524573 542.7075) scale(0.1 -0.1)">
       <use xlink:href="#NotoSerifCJKjp-Regular-31"/>
       <use xlink:href="#NotoSerifCJKjp-Regular-35" transform="translate(47.099991 0)"/>
      </g>
     </g>
    </g>
    <g id="xtick_5">
     <g id="line2d_5">
      <g>
       <use xlink:href="#m2c4109bfcb" x="395.474223" y="527.6575" style="stroke: #000000; stroke-width: 0.8"/>
      </g>
     </g>
     <g id="text_5">
      <!-- 20 -->
      <g transform="translate(389.899223 542.7075) scale(0.1 -0.1)">
       <defs>
        <path id="NotoSerifCJKjp-Regular-32" d="M 410 0 
L 3270 0 
L 3270 448 
L 762 448 
C 1152 877 1530 1293 1715 1485 
C 2688 2483 3078 2950 3078 3539 
C 3078 4294 2637 4755 1779 4755 
C 1126 4755 512 4422 410 3770 
C 448 3642 550 3571 672 3571 
C 819 3571 922 3654 986 3904 
L 1139 4461 
C 1306 4531 1466 4557 1626 4557 
C 2195 4557 2534 4192 2534 3552 
C 2534 2989 2253 2541 1574 1722 
C 1261 1350 832 845 410 346 
L 410 0 
z
" transform="scale(0.015625)"/>
       </defs>
       <use xlink:href="#NotoSerifCJKjp-Regular-32"/>
       <use xlink:href="#NotoSerifCJKjp-Regular-30" transform="translate(55.799988 0)"/>
      </g>
     </g>
    </g>
    <g id="xtick_6">
     <g id="line2d_6">
      <g>
       <use xlink:href="#m2c4109bfcb" x="483.279341" y="527.6575" style="stroke: #000000; stroke-width: 0.8"/>
      </g>
     </g>
     <g id="text_6">
      <!-- 25 -->
      <g transform="translate(477.699654 542.7075) scale(0.1 -0.1)">
       <use xlink:href="#NotoSerifCJKjp-Regular-32"/>
       <use xlink:href="#NotoSerifCJKjp-Regular-35" transform="translate(55.799988 0)"/>
      </g>
     </g>
    </g>
    <g id="xtick_7">
     <g id="line2d_7">
      <g>
       <use xlink:href="#m2c4109bfcb" x="571.084459" y="527.6575" style="stroke: #000000; stroke-width: 0.8"/>
      </g>
     </g>
     <g id="text_7">
      <!-- 30 -->
      <g transform="translate(565.514147 542.7075) scale(0.1 -0.1)">
       <defs>
        <path id="NotoSerifCJKjp-Regular-33" d="M 1638 -96 
C 2534 -96 3155 416 3155 1203 
C 3155 1875 2778 2342 1952 2458 
C 2662 2618 3021 3085 3021 3629 
C 3021 4301 2547 4755 1728 4755 
C 1120 4755 550 4499 442 3866 
C 480 3757 576 3706 685 3706 
C 845 3706 941 3776 998 3994 
L 1146 4486 
C 1306 4538 1453 4557 1606 4557 
C 2163 4557 2477 4205 2477 3610 
C 2477 2925 2035 2554 1414 2554 
L 1158 2554 
L 1158 2330 
L 1446 2330 
C 2214 2330 2611 1926 2611 1222 
C 2611 544 2202 102 1491 102 
C 1312 102 1158 134 1018 186 
L 864 685 
C 806 922 717 1011 563 1011 
C 442 1011 346 941 301 813 
C 429 218 909 -96 1638 -96 
z
" transform="scale(0.015625)"/>
       </defs>
       <use xlink:href="#NotoSerifCJKjp-Regular-33"/>
       <use xlink:href="#NotoSerifCJKjp-Regular-30" transform="translate(55.699997 0)"/>
      </g>
     </g>
    </g>
    <g id="xtick_8">
     <g id="line2d_8">
      <g>
       <use xlink:href="#m2c4109bfcb" x="658.889577" y="527.6575" style="stroke: #000000; stroke-width: 0.8"/>
      </g>
     </g>
     <g id="text_8">
      <!-- 35 -->
      <g transform="translate(653.314577 542.7075) scale(0.1 -0.1)">
       <use xlink:href="#NotoSerifCJKjp-Regular-33"/>
       <use xlink:href="#NotoSerifCJKjp-Regular-35" transform="translate(55.699997 0)"/>
      </g>
     </g>
    </g>
    <g id="xtick_9">
     <g id="line2d_9">
      <g>
       <use xlink:href="#m2c4109bfcb" x="746.694696" y="527.6575" style="stroke: #000000; stroke-width: 0.8"/>
      </g>
     </g>
     <g id="text_9">
      <!-- 40 -->
      <g transform="translate(741.134539 542.7075) scale(0.1 -0.1)">
       <defs>
        <path id="NotoSerifCJKjp-Regular-34" d="M 2170 -115 
L 2650 -115 
L 2650 1229 
L 3418 1229 
L 3418 1600 
L 2650 1600 
L 2650 4730 
L 2291 4730 
L 218 1530 
L 218 1229 
L 2170 1229 
L 2170 -115 
z
M 493 1600 
L 1389 2989 
L 2170 4211 
L 2170 1600 
L 493 1600 
z
" transform="scale(0.015625)"/>
       </defs>
       <use xlink:href="#NotoSerifCJKjp-Regular-34"/>
       <use xlink:href="#NotoSerifCJKjp-Regular-30" transform="translate(55.499985 0)"/>
      </g>
     </g>
    </g>
    <g id="text_10">
     <!-- 时间（小时） -->
     <g transform="translate(402.484568 557.3575) scale(0.1 -0.1)">
      <defs>
       <path id="NotoSerifCJKjp-Regular-65f6" d="M 2880 2861 
L 2803 2816 
C 3149 2426 3526 1805 3546 1286 
C 4006 870 4442 2035 2880 2861 
z
M 1907 1069 
L 922 1069 
L 922 2733 
L 1907 2733 
L 1907 1069 
z
M 525 4992 
L 525 13 
L 582 13 
C 794 13 922 128 922 160 
L 922 877 
L 1907 877 
L 1907 326 
L 1971 326 
C 2112 326 2304 429 2310 474 
L 2310 4518 
C 2438 4544 2547 4589 2592 4640 
L 2080 5043 
L 1843 4781 
L 998 4781 
L 525 4992 
z
M 1907 2925 
L 922 2925 
L 922 4589 
L 1907 4589 
L 1907 2925 
z
M 5664 4211 
L 5363 3802 
L 5069 3802 
L 5069 5043 
C 5229 5062 5293 5120 5306 5216 
L 4646 5286 
L 4646 3802 
L 2464 3802 
L 2515 3610 
L 4646 3610 
L 4646 179 
C 4646 64 4602 26 4461 26 
C 4301 26 3456 83 3456 83 
L 3456 -13 
C 3821 -58 4013 -115 4134 -192 
C 4243 -256 4288 -365 4314 -499 
C 4992 -435 5069 -198 5069 147 
L 5069 3610 
L 6048 3610 
C 6138 3610 6195 3642 6214 3712 
C 6016 3923 5664 4211 5664 4211 
z
" transform="scale(0.015625)"/>
       <path id="NotoSerifCJKjp-Regular-95f4" d="M 1133 5402 
L 1062 5350 
C 1344 5069 1702 4595 1818 4237 
C 2278 3936 2586 4870 1133 5402 
z
M 1382 4461 
L 736 4531 
L 736 -499 
L 813 -499 
C 973 -499 1146 -410 1146 -346 
L 1146 4282 
C 1312 4307 1363 4365 1382 4461 
z
M 3987 1139 
L 2381 1139 
L 2381 2240 
L 3987 2240 
L 3987 1139 
z
M 1984 3827 
L 1984 326 
L 2048 326 
C 2253 326 2381 442 2381 474 
L 2381 947 
L 3987 947 
L 3987 442 
L 4051 442 
C 4198 442 4384 550 4390 595 
L 4390 3392 
C 4499 3411 4589 3456 4621 3494 
L 4154 3866 
L 3930 3629 
L 2445 3629 
L 1984 3827 
z
M 3987 3437 
L 3987 2432 
L 2381 2432 
L 2381 3437 
L 3987 3437 
z
M 5210 4826 
L 2483 4826 
L 2541 4634 
L 5274 4634 
L 5274 198 
C 5274 90 5235 45 5101 45 
C 4960 45 4211 109 4211 109 
L 4211 0 
C 4531 -38 4710 -90 4819 -166 
C 4915 -230 4960 -346 4979 -474 
C 5606 -410 5683 -186 5683 147 
L 5683 4557 
C 5811 4582 5920 4634 5965 4685 
L 5421 5094 
L 5210 4826 
z
" transform="scale(0.015625)"/>
       <path id="NotoSerifCJKjp-Regular-ff08" d="M 5997 5299 
L 5888 5427 
C 5024 4877 4166 3974 4166 2432 
C 4166 890 5024 -13 5888 -563 
L 5997 -435 
C 5254 166 4589 1088 4589 2432 
C 4589 3776 5254 4698 5997 5299 
z
" transform="scale(0.015625)"/>
       <path id="NotoSerifCJKjp-Regular-5c0f" d="M 4269 3674 
L 4179 3629 
C 4787 2995 5504 1978 5613 1178 
C 6182 704 6522 2253 4269 3674 
z
M 1606 3712 
C 1402 2880 909 1760 224 1050 
L 294 973 
C 1152 1600 1741 2605 2048 3366 
C 2208 3354 2266 3392 2291 3469 
L 1606 3712 
z
M 3002 5280 
L 3002 230 
C 3002 115 2957 70 2816 70 
C 2643 70 1760 141 1760 141 
L 1760 38 
C 2138 -13 2336 -70 2464 -147 
C 2579 -224 2630 -339 2650 -493 
C 3366 -416 3450 -179 3450 192 
L 3450 5030 
C 3610 5050 3667 5114 3686 5203 
L 3002 5280 
z
" transform="scale(0.015625)"/>
       <path id="NotoSerifCJKjp-Regular-ff09" d="M 512 5427 
L 403 5299 
C 1146 4698 1811 3776 1811 2432 
C 1811 1088 1146 166 403 -435 
L 512 -563 
C 1376 -13 2234 890 2234 2432 
C 2234 3974 1376 4877 512 5427 
z
" transform="scale(0.015625)"/>
      </defs>
      <use xlink:href="#NotoSerifCJKjp-Regular-65f6"/>
      <use xlink:href="#NotoSerifCJKjp-Regular-95f4" transform="translate(99.999985 0)"/>
      <use xlink:href="#NotoSerifCJKjp-Regular-ff08" transform="translate(199.999969 0)"/>
      <use xlink:href="#NotoSerifCJKjp-Regular-5c0f" transform="translate(299.999954 0)"/>
      <use xlink:href="#NotoSerifCJKjp-Regular-65f6" transform="translate(399.999939 0)"/>
      <use xlink:href="#NotoSerifCJKjp-Regular-ff09" transform="translate(499.999924 0)"/>
     </g>
    </g>
   </g>
   <g id="matplotlib.axis_2">
    <g id="ytick_1">
     <g id="line2d_10">
      <defs>
       <path id="m90381a0c64" d="M 0 0 
L -3.5 0 
" style="stroke: #000000; stroke-width: 0.8"/>
      </defs>
      <g>
       <use xlink:href="#m90381a0c64" x="44.25375" y="495.887028" style="stroke: #000000; stroke-width: 0.8"/>
      </g>
     </g>
     <g id="text_11">
      <!-- ACA1-4 -->
      <g transform="translate(9.26375 499.107028) scale(0.08 -0.08)">
       <defs>
        <path id="NotoSerifCJKjp-Regular-41" d="M 2125 4115 
L 2880 1798 
L 1382 1798 
L 2125 4115 
z
M 2675 0 
L 4550 0 
L 4550 192 
L 3962 243 
L 2458 4698 
L 2099 4698 
L 621 256 
L 77 192 
L 77 0 
L 1510 0 
L 1510 192 
L 890 256 
L 1318 1594 
L 2950 1594 
L 3386 250 
L 2675 192 
L 2675 0 
z
" transform="scale(0.015625)"/>
        <path id="NotoSerifCJKjp-Regular-43" d="M 2701 -102 
C 3219 -102 3654 0 4083 256 
L 4096 1274 
L 3808 1274 
L 3616 314 
C 3347 173 3066 115 2758 115 
C 1728 115 966 896 966 2330 
C 966 3744 1728 4538 2784 4538 
C 3078 4538 3322 4486 3565 4358 
L 3757 3386 
L 4045 3386 
L 4026 4410 
C 3616 4653 3226 4768 2701 4768 
C 1363 4768 358 3814 358 2317 
C 358 813 1325 -102 2701 -102 
z
" transform="scale(0.015625)"/>
        <path id="NotoSerifCJKjp-Regular-2d" d="M 275 1549 
L 1933 1549 
L 1933 1875 
L 275 1875 
L 275 1549 
z
" transform="scale(0.015625)"/>
       </defs>
       <use xlink:href="#NotoSerifCJKjp-Regular-41"/>
       <use xlink:href="#NotoSerifCJKjp-Regular-43" transform="translate(71.799988 0)"/>
       <use xlink:href="#NotoSerifCJKjp-Regular-41" transform="translate(140.899979 0)"/>
       <use xlink:href="#NotoSerifCJKjp-Regular-31" transform="translate(212.699966 0)"/>
       <use xlink:href="#NotoSerifCJKjp-Regular-2d" transform="translate(259.799957 0)"/>
       <use xlink:href="#NotoSerifCJKjp-Regular-34" transform="translate(294.399948 0)"/>
      </g>
     </g>
    </g>
    <g id="ytick_2">
     <g id="line2d_11">
      <g>
       <use xlink:href="#m90381a0c64" x="44.25375" y="466.469924" style="stroke: #000000; stroke-width: 0.8"/>
      </g>
     </g>
     <g id="text_12">
      <!-- PFM1-1 -->
      <g transform="translate(8.99125 469.689924) scale(0.08 -0.08)">
       <defs>
        <path id="NotoSerifCJKjp-Regular-50" d="M 339 4467 
L 998 4416 
C 1005 3782 1005 3142 1005 2502 
L 1005 2157 
C 1005 1510 1005 877 998 250 
L 339 192 
L 339 0 
L 2310 0 
L 2310 192 
L 1581 256 
L 1574 1907 
L 1958 1907 
C 3302 1907 3866 2515 3866 3302 
C 3866 4141 3322 4659 2150 4659 
L 339 4659 
L 339 4467 
z
M 1574 2118 
L 1574 2502 
C 1574 3162 1574 3808 1581 4448 
L 2106 4448 
C 2938 4448 3315 4051 3315 3309 
C 3315 2605 2918 2118 1946 2118 
L 1574 2118 
z
" transform="scale(0.015625)"/>
        <path id="NotoSerifCJKjp-Regular-46" d="M 3526 3507 
L 3795 3507 
L 3757 4659 
L 339 4659 
L 339 4467 
L 998 4416 
C 1005 3782 1005 3142 1005 2502 
L 1005 2157 
C 1005 1510 1005 877 998 250 
L 339 192 
L 339 0 
L 2310 0 
L 2310 192 
L 1581 256 
C 1574 877 1574 1517 1574 2259 
L 2714 2259 
L 2803 1574 
L 3027 1574 
L 3027 3142 
L 2803 3142 
L 2714 2470 
L 1574 2470 
C 1574 3168 1574 3814 1581 4435 
L 3347 4435 
L 3526 3507 
z
" transform="scale(0.015625)"/>
        <path id="NotoSerifCJKjp-Regular-4d" d="M 4659 0 
L 5914 0 
L 5914 192 
L 5242 250 
C 5235 877 5235 1510 5235 2157 
L 5235 2502 
C 5235 3142 5235 3789 5242 4416 
L 5901 4467 
L 5901 4659 
L 4646 4659 
L 3085 749 
L 1491 4659 
L 269 4659 
L 269 4467 
L 915 4410 
L 902 262 
L 262 192 
L 262 0 
L 1830 0 
L 1830 192 
L 1152 262 
L 1152 2477 
L 1120 4160 
L 2822 0 
L 3034 0 
L 4691 4160 
L 4672 2080 
C 4672 1510 4672 877 4666 250 
L 4013 192 
L 4013 0 
L 4659 0 
z
" transform="scale(0.015625)"/>
       </defs>
       <use xlink:href="#NotoSerifCJKjp-Regular-50"/>
       <use xlink:href="#NotoSerifCJKjp-Regular-46" transform="translate(64.099991 0)"/>
       <use xlink:href="#NotoSerifCJKjp-Regular-4d" transform="translate(126.999985 0)"/>
       <use xlink:href="#NotoSerifCJKjp-Regular-31" transform="translate(224.499969 0)"/>
       <use xlink:href="#NotoSerifCJKjp-Regular-2d" transform="translate(271.59996 0)"/>
       <use xlink:href="#NotoSerifCJKjp-Regular-31" transform="translate(306.199951 0)"/>
      </g>
     </g>
    </g>
    <g id="ytick_3">
     <g id="line2d_12">
      <g>
       <use xlink:href="#m90381a0c64" x="44.25375" y="437.052821" style="stroke: #000000; stroke-width: 0.8"/>
      </g>
     </g>
     <g id="text_13">
      <!-- HPM1-1 -->
      <g transform="translate(7.2 440.272821) scale(0.08 -0.08)">
       <defs>
        <path id="NotoSerifCJKjp-Regular-48" d="M 3226 4467 
L 3878 4416 
C 3891 3789 3891 3155 3891 2522 
L 1574 2522 
C 1574 3162 1574 3795 1581 4416 
L 2240 4467 
L 2240 4659 
L 339 4659 
L 339 4467 
L 998 4416 
C 1005 3782 1005 3142 1005 2502 
L 1005 2157 
C 1005 1510 1005 877 998 250 
L 339 192 
L 339 0 
L 2240 0 
L 2240 192 
L 1581 250 
C 1574 870 1574 1517 1574 2310 
L 3891 2310 
C 3891 1517 3891 870 3878 250 
L 3226 192 
L 3226 0 
L 5126 0 
L 5126 192 
L 4467 250 
C 4454 877 4454 1517 4454 2157 
L 4454 2502 
C 4454 3149 4454 3789 4467 4416 
L 5126 4467 
L 5126 4659 
L 3226 4659 
L 3226 4467 
z
" transform="scale(0.015625)"/>
       </defs>
       <use xlink:href="#NotoSerifCJKjp-Regular-48"/>
       <use xlink:href="#NotoSerifCJKjp-Regular-50" transform="translate(85.299988 0)"/>
       <use xlink:href="#NotoSerifCJKjp-Regular-4d" transform="translate(149.399979 0)"/>
       <use xlink:href="#NotoSerifCJKjp-Regular-31" transform="translate(246.899963 0)"/>
       <use xlink:href="#NotoSerifCJKjp-Regular-2d" transform="translate(293.999954 0)"/>
       <use xlink:href="#NotoSerifCJKjp-Regular-31" transform="translate(328.599945 0)"/>
      </g>
     </g>
    </g>
    <g id="ytick_4">
     <g id="line2d_13">
      <g>
       <use xlink:href="#m90381a0c64" x="44.25375" y="407.635717" style="stroke: #000000; stroke-width: 0.8"/>
      </g>
     </g>
     <g id="text_14">
      <!-- ICM1-4 -->
      <g transform="translate(9.71125 410.855717) scale(0.08 -0.08)">
       <defs>
        <path id="NotoSerifCJKjp-Regular-49" d="M 339 4467 
L 998 4416 
C 1011 3782 1011 3142 1011 2502 
L 1011 2157 
C 1011 1510 1011 877 998 250 
L 339 192 
L 339 0 
L 2253 0 
L 2253 192 
L 1587 250 
C 1574 877 1574 1517 1574 2157 
L 1574 2502 
C 1574 3149 1574 3789 1587 4416 
L 2253 4467 
L 2253 4659 
L 339 4659 
L 339 4467 
z
" transform="scale(0.015625)"/>
       </defs>
       <use xlink:href="#NotoSerifCJKjp-Regular-49"/>
       <use xlink:href="#NotoSerifCJKjp-Regular-43" transform="translate(40.499985 0)"/>
       <use xlink:href="#NotoSerifCJKjp-Regular-4d" transform="translate(109.599976 0)"/>
       <use xlink:href="#NotoSerifCJKjp-Regular-31" transform="translate(207.09996 0)"/>
       <use xlink:href="#NotoSerifCJKjp-Regular-2d" transform="translate(254.199951 0)"/>
       <use xlink:href="#NotoSerifCJKjp-Regular-34" transform="translate(288.799942 0)"/>
      </g>
     </g>
    </g>
    <g id="ytick_5">
     <g id="line2d_14">
      <g>
       <use xlink:href="#m90381a0c64" x="44.25375" y="378.218613" style="stroke: #000000; stroke-width: 0.8"/>
      </g>
     </g>
     <g id="text_15">
      <!-- ICM1-3 -->
      <g transform="translate(9.695 381.438613) scale(0.08 -0.08)">
       <use xlink:href="#NotoSerifCJKjp-Regular-49"/>
       <use xlink:href="#NotoSerifCJKjp-Regular-43" transform="translate(40.499985 0)"/>
       <use xlink:href="#NotoSerifCJKjp-Regular-4d" transform="translate(109.599976 0)"/>
       <use xlink:href="#NotoSerifCJKjp-Regular-31" transform="translate(207.09996 0)"/>
       <use xlink:href="#NotoSerifCJKjp-Regular-2d" transform="translate(254.199951 0)"/>
       <use xlink:href="#NotoSerifCJKjp-Regular-33" transform="translate(288.799942 0)"/>
      </g>
     </g>
    </g>
    <g id="ytick_6">
     <g id="line2d_15">
      <g>
       <use xlink:href="#m90381a0c64" x="44.25375" y="348.801509" style="stroke: #000000; stroke-width: 0.8"/>
      </g>
     </g>
     <g id="text_16">
      <!-- ACA1-3 -->
      <g transform="translate(9.2475 352.021509) scale(0.08 -0.08)">
       <use xlink:href="#NotoSerifCJKjp-Regular-41"/>
       <use xlink:href="#NotoSerifCJKjp-Regular-43" transform="translate(71.799988 0)"/>
       <use xlink:href="#NotoSerifCJKjp-Regular-41" transform="translate(140.899979 0)"/>
       <use xlink:href="#NotoSerifCJKjp-Regular-31" transform="translate(212.699966 0)"/>
       <use xlink:href="#NotoSerifCJKjp-Regular-2d" transform="translate(259.799957 0)"/>
       <use xlink:href="#NotoSerifCJKjp-Regular-33" transform="translate(294.399948 0)"/>
      </g>
     </g>
    </g>
    <g id="ytick_7">
     <g id="line2d_16">
      <g>
       <use xlink:href="#m90381a0c64" x="44.25375" y="319.384406" style="stroke: #000000; stroke-width: 0.8"/>
      </g>
     </g>
     <g id="text_17">
      <!-- PFM1-5 -->
      <g transform="translate(8.295 322.604406) scale(0.08 -0.08)">
       <use xlink:href="#NotoSerifCJKjp-Regular-50"/>
       <use xlink:href="#NotoSerifCJKjp-Regular-46" transform="translate(64.099991 0)"/>
       <use xlink:href="#NotoSerifCJKjp-Regular-4d" transform="translate(126.999985 0)"/>
       <use xlink:href="#NotoSerifCJKjp-Regular-31" transform="translate(224.499969 0)"/>
       <use xlink:href="#NotoSerifCJKjp-Regular-2d" transform="translate(271.59996 0)"/>
       <use xlink:href="#NotoSerifCJKjp-Regular-35" transform="translate(306.199951 0)"/>
      </g>
     </g>
    </g>
    <g id="ytick_8">
     <g id="line2d_17">
      <g>
       <use xlink:href="#m90381a0c64" x="44.25375" y="289.967302" style="stroke: #000000; stroke-width: 0.8"/>
      </g>
     </g>
     <g id="text_18">
      <!-- PFM1-4 -->
      <g transform="translate(8.31875 293.187302) scale(0.08 -0.08)">
       <use xlink:href="#NotoSerifCJKjp-Regular-50"/>
       <use xlink:href="#NotoSerifCJKjp-Regular-46" transform="translate(64.099991 0)"/>
       <use xlink:href="#NotoSerifCJKjp-Regular-4d" transform="translate(126.999985 0)"/>
       <use xlink:href="#NotoSerifCJKjp-Regular-31" transform="translate(224.499969 0)"/>
       <use xlink:href="#NotoSerifCJKjp-Regular-2d" transform="translate(271.59996 0)"/>
       <use xlink:href="#NotoSerifCJKjp-Regular-34" transform="translate(306.199951 0)"/>
      </g>
     </g>
    </g>
    <g id="ytick_9">
     <g id="line2d_18">
      <g>
       <use xlink:href="#m90381a0c64" x="44.25375" y="260.550198" style="stroke: #000000; stroke-width: 0.8"/>
      </g>
     </g>
     <g id="text_19">
      <!-- ACA1-2 -->
      <g transform="translate(9.24 263.770198) scale(0.08 -0.08)">
       <use xlink:href="#NotoSerifCJKjp-Regular-41"/>
       <use xlink:href="#NotoSerifCJKjp-Regular-43" transform="translate(71.799988 0)"/>
       <use xlink:href="#NotoSerifCJKjp-Regular-41" transform="translate(140.899979 0)"/>
       <use xlink:href="#NotoSerifCJKjp-Regular-31" transform="translate(212.699966 0)"/>
       <use xlink:href="#NotoSerifCJKjp-Regular-2d" transform="translate(259.799957 0)"/>
       <use xlink:href="#NotoSerifCJKjp-Regular-32" transform="translate(294.399948 0)"/>
      </g>
     </g>
    </g>
    <g id="ytick_10">
     <g id="line2d_19">
      <g>
       <use xlink:href="#m90381a0c64" x="44.25375" y="231.133094" style="stroke: #000000; stroke-width: 0.8"/>
      </g>
     </g>
     <g id="text_20">
      <!-- ICM1-2 -->
      <g transform="translate(9.6875 234.353094) scale(0.08 -0.08)">
       <use xlink:href="#NotoSerifCJKjp-Regular-49"/>
       <use xlink:href="#NotoSerifCJKjp-Regular-43" transform="translate(40.499985 0)"/>
       <use xlink:href="#NotoSerifCJKjp-Regular-4d" transform="translate(109.599976 0)"/>
       <use xlink:href="#NotoSerifCJKjp-Regular-31" transform="translate(207.09996 0)"/>
       <use xlink:href="#NotoSerifCJKjp-Regular-2d" transform="translate(254.199951 0)"/>
       <use xlink:href="#NotoSerifCJKjp-Regular-32" transform="translate(288.799942 0)"/>
      </g>
     </g>
    </g>
    <g id="ytick_11">
     <g id="line2d_20">
      <g>
       <use xlink:href="#m90381a0c64" x="44.25375" y="201.715991" style="stroke: #000000; stroke-width: 0.8"/>
      </g>
     </g>
     <g id="text_21">
      <!-- PFM1-3 -->
      <g transform="translate(8.3025 204.935991) scale(0.08 -0.08)">
       <use xlink:href="#NotoSerifCJKjp-Regular-50"/>
       <use xlink:href="#NotoSerifCJKjp-Regular-46" transform="translate(64.099991 0)"/>
       <use xlink:href="#NotoSerifCJKjp-Regular-4d" transform="translate(126.999985 0)"/>
       <use xlink:href="#NotoSerifCJKjp-Regular-31" transform="translate(224.499969 0)"/>
       <use xlink:href="#NotoSerifCJKjp-Regular-2d" transform="translate(271.59996 0)"/>
       <use xlink:href="#NotoSerifCJKjp-Regular-33" transform="translate(306.199951 0)"/>
      </g>
     </g>
    </g>
    <g id="ytick_12">
     <g id="line2d_21">
      <g>
       <use xlink:href="#m90381a0c64" x="44.25375" y="172.298887" style="stroke: #000000; stroke-width: 0.8"/>
      </g>
     </g>
     <g id="text_22">
      <!-- ICM1-5 -->
      <g transform="translate(9.6875 175.518887) scale(0.08 -0.08)">
       <use xlink:href="#NotoSerifCJKjp-Regular-49"/>
       <use xlink:href="#NotoSerifCJKjp-Regular-43" transform="translate(40.499985 0)"/>
       <use xlink:href="#NotoSerifCJKjp-Regular-4d" transform="translate(109.599976 0)"/>
       <use xlink:href="#NotoSerifCJKjp-Regular-31" transform="translate(207.09996 0)"/>
       <use xlink:href="#NotoSerifCJKjp-Regular-2d" transform="translate(254.199951 0)"/>
       <use xlink:href="#NotoSerifCJKjp-Regular-35" transform="translate(288.799942 0)"/>
      </g>
     </g>
    </g>
    <g id="ytick_13">
     <g id="line2d_22">
      <g>
       <use xlink:href="#m90381a0c64" x="44.25375" y="142.881783" style="stroke: #000000; stroke-width: 0.8"/>
      </g>
     </g>
     <g id="text_23">
      <!-- ACA1-1 -->
      <g transform="translate(9.93625 146.101783) scale(0.08 -0.08)">
       <use xlink:href="#NotoSerifCJKjp-Regular-41"/>
       <use xlink:href="#NotoSerifCJKjp-Regular-43" transform="translate(71.799988 0)"/>
       <use xlink:href="#NotoSerifCJKjp-Regular-41" transform="translate(140.899979 0)"/>
       <use xlink:href="#NotoSerifCJKjp-Regular-31" transform="translate(212.699966 0)"/>
       <use xlink:href="#NotoSerifCJKjp-Regular-2d" transform="translate(259.799957 0)"/>
       <use xlink:href="#NotoSerifCJKjp-Regular-31" transform="translate(294.399948 0)"/>
      </g>
     </g>
    </g>
    <g id="ytick_14">
     <g id="line2d_23">
      <g>
       <use xlink:href="#m90381a0c64" x="44.25375" y="113.464679" style="stroke: #000000; stroke-width: 0.8"/>
      </g>
     </g>
     <g id="text_24">
      <!-- PFM1-2 -->
      <g transform="translate(8.295 116.684679) scale(0.08 -0.08)">
       <use xlink:href="#NotoSerifCJKjp-Regular-50"/>
       <use xlink:href="#NotoSerifCJKjp-Regular-46" transform="translate(64.099991 0)"/>
       <use xlink:href="#NotoSerifCJKjp-Regular-4d" transform="translate(126.999985 0)"/>
       <use xlink:href="#NotoSerifCJKjp-Regular-31" transform="translate(224.499969 0)"/>
       <use xlink:href="#NotoSerifCJKjp-Regular-2d" transform="translate(271.59996 0)"/>
       <use xlink:href="#NotoSerifCJKjp-Regular-32" transform="translate(306.199951 0)"/>
      </g>
     </g>
    </g>
    <g id="ytick_15">
     <g id="line2d_24">
      <g>
       <use xlink:href="#m90381a0c64" x="44.25375" y="84.047576" style="stroke: #000000; stroke-width: 0.8"/>
      </g>
     </g>
     <g id="text_25">
      <!-- ICM1-1 -->
      <g transform="translate(10.38375 87.267576) scale(0.08 -0.08)">
       <use xlink:href="#NotoSerifCJKjp-Regular-49"/>
       <use xlink:href="#NotoSerifCJKjp-Regular-43" transform="translate(40.499985 0)"/>
       <use xlink:href="#NotoSerifCJKjp-Regular-4d" transform="translate(109.599976 0)"/>
       <use xlink:href="#NotoSerifCJKjp-Regular-31" transform="translate(207.09996 0)"/>
       <use xlink:href="#NotoSerifCJKjp-Regular-2d" transform="translate(254.199951 0)"/>
       <use xlink:href="#NotoSerifCJKjp-Regular-31" transform="translate(288.799942 0)"/>
      </g>
     </g>
    </g>
    <g id="ytick_16">
     <g id="line2d_25">
      <g>
       <use xlink:href="#m90381a0c64" x="44.25375" y="54.630472" style="stroke: #000000; stroke-width: 0.8"/>
      </g>
     </g>
     <g id="text_26">
      <!-- ASM1-1 -->
      <g transform="translate(8.87125 57.850472) scale(0.08 -0.08)">
       <defs>
        <path id="NotoSerifCJKjp-Regular-53" d="M 1690 -102 
C 2669 -102 3315 397 3315 1197 
C 3315 1850 3014 2208 2042 2611 
L 1754 2726 
C 1248 2938 947 3206 947 3686 
C 947 4250 1376 4531 1978 4531 
C 2234 4531 2426 4486 2624 4371 
L 2797 3507 
L 3072 3507 
L 3098 4416 
C 2784 4640 2432 4768 1946 4768 
C 1120 4768 454 4352 454 3546 
C 454 2893 851 2490 1613 2170 
L 1888 2061 
C 2586 1773 2810 1523 2810 1056 
C 2810 442 2349 128 1651 128 
C 1318 128 1082 173 813 326 
L 640 1222 
L 378 1222 
L 339 269 
C 653 64 1158 -102 1690 -102 
z
" transform="scale(0.015625)"/>
       </defs>
       <use xlink:href="#NotoSerifCJKjp-Regular-41"/>
       <use xlink:href="#NotoSerifCJKjp-Regular-53" transform="translate(71.799988 0)"/>
       <use xlink:href="#NotoSerifCJKjp-Regular-4d" transform="translate(128.499985 0)"/>
       <use xlink:href="#NotoSerifCJKjp-Regular-31" transform="translate(225.999969 0)"/>
       <use xlink:href="#NotoSerifCJKjp-Regular-2d" transform="translate(273.09996 0)"/>
       <use xlink:href="#NotoSerifCJKjp-Regular-31" transform="translate(307.699951 0)"/>
      </g>
     </g>
    </g>
   </g>
   <g id="line2d_26">
    <path d="M 783.78748 527.6575 
L 783.78748 22.86 
" clip-path="url(#p2718d3f6f1)" style="fill: none; stroke-dasharray: 4.44,1.92; stroke-dashoffset: 0; stroke: #dc143c; stroke-width: 1.2"/>
   </g>
   <g id="patch_44">
    <path d="M 44.25375 527.6575 
L 44.25375 22.86 
" style="fill: none; stroke: #000000; stroke-width: 0.8; stroke-linejoin: miter; stroke-linecap: square"/>
   </g>
   <g id="patch_45">
    <path d="M 820.715386 527.6575 
L 820.715386 22.86 
" style="fill: none; stroke: #000000; stroke-width: 0.8; stroke-linejoin: miter; stroke-linecap: square"/>
   </g>
   <g id="patch_46">
    <path d="M 44.25375 527.6575 
L 820.715386 527.6575 
" style="fill: none; stroke: #000000; stroke-width: 0.8; stroke-linejoin: miter; stroke-linecap: square"/>
   </g>
   <g id="patch_47">
    <path d="M 44.25375 22.86 
L 820.715386 22.86 
" style="fill: none; stroke: #000000; stroke-width: 0.8; stroke-linejoin: miter; stroke-linecap: square"/>
   </g>
   <g id="text_27">
    <g clip-path="url(#p2718d3f6f1)">
     <!-- A1 -->
     <g style="fill: #ffffff" transform="translate(51.604805 497.794528) scale(0.07 -0.07)">
      <use xlink:href="#NotoSerifCJKjp-Regular-41"/>
      <use xlink:href="#NotoSerifCJKjp-Regular-31" transform="translate(71.799988 0)"/>
     </g>
    </g>
   </g>
   <g id="text_28">
    <g clip-path="url(#p2718d3f6f1)">
     <!-- E1 -->
     <g style="fill: #ffffff" transform="translate(76.421019 85.955076) scale(0.07 -0.07)">
      <defs>
       <path id="NotoSerifCJKjp-Regular-45" d="M 3507 3507 
L 3782 3507 
L 3738 4659 
L 339 4659 
L 339 4467 
L 998 4416 
C 1005 3782 1005 3142 1005 2502 
L 1005 2157 
C 1005 1510 1005 877 998 250 
L 339 192 
L 339 0 
L 3853 0 
L 3891 1171 
L 3622 1171 
L 3437 218 
L 1581 218 
C 1574 851 1574 1504 1574 2259 
L 2707 2259 
L 2790 1600 
L 3014 1600 
L 3014 3142 
L 2790 3142 
L 2707 2470 
L 1574 2470 
C 1574 3168 1574 3814 1581 4435 
L 3328 4435 
L 3507 3507 
z
" transform="scale(0.015625)"/>
      </defs>
      <use xlink:href="#NotoSerifCJKjp-Regular-45"/>
      <use xlink:href="#NotoSerifCJKjp-Regular-31" transform="translate(65.199997 0)"/>
     </g>
    </g>
   </g>
   <g id="text_29">
    <g clip-path="url(#p2718d3f6f1)">
     <!-- A1 -->
     <g style="fill: #ffffff" transform="translate(54.238958 468.377424) scale(0.07 -0.07)">
      <use xlink:href="#NotoSerifCJKjp-Regular-41"/>
      <use xlink:href="#NotoSerifCJKjp-Regular-31" transform="translate(71.799988 0)"/>
     </g>
    </g>
   </g>
   <g id="text_30">
    <g clip-path="url(#p2718d3f6f1)">
     <!-- C1 -->
     <g style="fill: #ffffff" transform="translate(66.597016 262.457698) scale(0.07 -0.07)">
      <use xlink:href="#NotoSerifCJKjp-Regular-43"/>
      <use xlink:href="#NotoSerifCJKjp-Regular-31" transform="translate(69.099991 0)"/>
     </g>
    </g>
   </g>
   <g id="text_31">
    <g clip-path="url(#p2718d3f6f1)">
     <!-- C1 -->
     <g style="fill: #ffffff" transform="translate(66.597016 233.040594) scale(0.07 -0.07)">
      <use xlink:href="#NotoSerifCJKjp-Regular-43"/>
      <use xlink:href="#NotoSerifCJKjp-Regular-31" transform="translate(69.099991 0)"/>
     </g>
    </g>
   </g>
   <g id="text_32">
    <g clip-path="url(#p2718d3f6f1)">
     <!-- B1 -->
     <g style="fill: #ffffff" transform="translate(52.309282 380.126113) scale(0.07 -0.07)">
      <defs>
       <path id="NotoSerifCJKjp-Regular-42" d="M 339 4467 
L 998 4416 
C 1005 3782 1005 3149 1005 2515 
L 1005 2176 
C 1005 1523 1005 883 998 250 
L 339 192 
L 339 0 
L 2195 0 
C 3507 0 4006 602 4006 1267 
C 4006 1882 3590 2349 2592 2451 
C 3424 2611 3757 3053 3757 3552 
C 3757 4211 3277 4659 2227 4659 
L 339 4659 
L 339 4467 
z
M 1568 2330 
L 2029 2330 
C 3002 2330 3430 1958 3430 1261 
C 3430 582 2957 211 2150 211 
L 1581 211 
C 1568 858 1568 1523 1568 2330 
z
M 1581 4448 
L 2067 4448 
C 2893 4448 3206 4115 3206 3546 
C 3206 2899 2790 2528 1965 2528 
L 1568 2528 
C 1568 3194 1568 3827 1581 4448 
z
" transform="scale(0.015625)"/>
      </defs>
      <use xlink:href="#NotoSerifCJKjp-Regular-42"/>
      <use xlink:href="#NotoSerifCJKjp-Regular-31" transform="translate(66.999985 0)"/>
     </g>
    </g>
   </g>
   <g id="text_33">
    <g clip-path="url(#p2718d3f6f1)">
     <!-- D1 -->
     <g style="fill: #ffffff" transform="translate(62.715409 174.206387) scale(0.07 -0.07)">
      <defs>
       <path id="NotoSerifCJKjp-Regular-44" d="M 339 4467 
L 998 4416 
C 1005 3782 1005 3136 1005 2464 
L 1005 2291 
C 1005 1530 1005 877 998 250 
L 339 192 
L 339 0 
L 2163 0 
C 3654 0 4563 896 4563 2330 
C 4563 3814 3693 4659 2253 4659 
L 339 4659 
L 339 4467 
z
M 1581 211 
C 1574 858 1574 1517 1574 2291 
L 1574 2464 
C 1574 3155 1574 3808 1581 4448 
L 2176 4448 
C 3328 4448 3962 3712 3962 2330 
C 3962 1018 3328 211 2106 211 
L 1581 211 
z
" transform="scale(0.015625)"/>
      </defs>
      <use xlink:href="#NotoSerifCJKjp-Regular-44"/>
      <use xlink:href="#NotoSerifCJKjp-Regular-31" transform="translate(76.999985 0)"/>
     </g>
    </g>
   </g>
   <g id="text_34">
    <g clip-path="url(#p2718d3f6f1)">
     <!-- B2 -->
     <g style="fill: #ffffff" transform="translate(106.443846 350.709009) scale(0.07 -0.07)">
      <use xlink:href="#NotoSerifCJKjp-Regular-42"/>
      <use xlink:href="#NotoSerifCJKjp-Regular-32" transform="translate(66.999985 0)"/>
     </g>
    </g>
   </g>
   <g id="text_35">
    <g clip-path="url(#p2718d3f6f1)">
     <!-- B2 -->
     <g style="fill: #ffffff" transform="translate(128.395126 321.291906) scale(0.07 -0.07)">
      <use xlink:href="#NotoSerifCJKjp-Regular-42"/>
      <use xlink:href="#NotoSerifCJKjp-Regular-32" transform="translate(66.999985 0)"/>
     </g>
    </g>
   </g>
   <g id="text_36">
    <g clip-path="url(#p2718d3f6f1)">
     <!-- A2 -->
     <g style="fill: #ffffff" transform="translate(111.007676 438.960321) scale(0.07 -0.07)">
      <use xlink:href="#NotoSerifCJKjp-Regular-41"/>
      <use xlink:href="#NotoSerifCJKjp-Regular-32" transform="translate(71.799988 0)"/>
     </g>
    </g>
   </g>
   <g id="text_37">
    <g clip-path="url(#p2718d3f6f1)">
     <!-- A2 -->
     <g style="fill: #ffffff" transform="translate(84.66614 409.543217) scale(0.07 -0.07)">
      <use xlink:href="#NotoSerifCJKjp-Regular-41"/>
      <use xlink:href="#NotoSerifCJKjp-Regular-32" transform="translate(71.799988 0)"/>
     </g>
    </g>
   </g>
   <g id="text_38">
    <g clip-path="url(#p2718d3f6f1)">
     <!-- D2 -->
     <g style="fill: #ffffff" transform="translate(106.898726 144.789283) scale(0.07 -0.07)">
      <use xlink:href="#NotoSerifCJKjp-Regular-44"/>
      <use xlink:href="#NotoSerifCJKjp-Regular-32" transform="translate(76.999985 0)"/>
     </g>
    </g>
   </g>
   <g id="text_39">
    <g clip-path="url(#p2718d3f6f1)">
     <!-- D2 -->
     <g style="fill: #ffffff" transform="translate(118.606075 115.372179) scale(0.07 -0.07)">
      <use xlink:href="#NotoSerifCJKjp-Regular-44"/>
      <use xlink:href="#NotoSerifCJKjp-Regular-32" transform="translate(76.999985 0)"/>
     </g>
    </g>
   </g>
   <g id="text_40">
    <g clip-path="url(#p2718d3f6f1)">
     <!-- C2 -->
     <g style="fill: #ffffff" transform="translate(109.643745 203.623491) scale(0.07 -0.07)">
      <use xlink:href="#NotoSerifCJKjp-Regular-43"/>
      <use xlink:href="#NotoSerifCJKjp-Regular-32" transform="translate(69.099991 0)"/>
     </g>
    </g>
   </g>
   <g id="text_41">
    <g clip-path="url(#p2718d3f6f1)">
     <!-- E2 -->
     <g style="fill: #ffffff" transform="translate(126.292157 468.377424) scale(0.07 -0.07)">
      <use xlink:href="#NotoSerifCJKjp-Regular-45"/>
      <use xlink:href="#NotoSerifCJKjp-Regular-32" transform="translate(65.199997 0)"/>
     </g>
    </g>
   </g>
   <g id="text_42">
    <g clip-path="url(#p2718d3f6f1)">
     <!-- C3_1 -->
     <g style="fill: #ffffff" transform="translate(139.896739 203.623491) scale(0.07 -0.07)">
      <defs>
       <path id="NotoSerifCJKjp-Regular-5f" d="M -32 -448 
L 3642 -448 
L 3642 -141 
L -32 -141 
L -32 -448 
z
" transform="scale(0.015625)"/>
      </defs>
      <use xlink:href="#NotoSerifCJKjp-Regular-43"/>
      <use xlink:href="#NotoSerifCJKjp-Regular-33" transform="translate(69.099991 0)"/>
      <use xlink:href="#NotoSerifCJKjp-Regular-5f" transform="translate(124.799988 0)"/>
      <use xlink:href="#NotoSerifCJKjp-Regular-31" transform="translate(181.099976 0)"/>
     </g>
    </g>
   </g>
   <g id="text_43">
    <g clip-path="url(#p2718d3f6f1)">
     <!-- C3_1 -->
     <g style="fill: #ffffff" transform="translate(140.886986 144.789283) scale(0.07 -0.07)">
      <use xlink:href="#NotoSerifCJKjp-Regular-43"/>
      <use xlink:href="#NotoSerifCJKjp-Regular-33" transform="translate(69.099991 0)"/>
      <use xlink:href="#NotoSerifCJKjp-Regular-5f" transform="translate(124.799988 0)"/>
      <use xlink:href="#NotoSerifCJKjp-Regular-31" transform="translate(181.099976 0)"/>
     </g>
    </g>
   </g>
   <g id="text_44">
    <g clip-path="url(#p2718d3f6f1)">
     <!-- E3 -->
     <g style="fill: #ffffff" transform="translate(158.910161 56.537972) scale(0.07 -0.07)">
      <use xlink:href="#NotoSerifCJKjp-Regular-45"/>
      <use xlink:href="#NotoSerifCJKjp-Regular-33" transform="translate(65.199997 0)"/>
     </g>
    </g>
   </g>
   <g id="text_45">
    <g clip-path="url(#p2718d3f6f1)">
     <!-- D3 -->
     <g style="fill: #ffffff" transform="translate(165.021679 115.372179) scale(0.07 -0.07)">
      <use xlink:href="#NotoSerifCJKjp-Regular-44"/>
      <use xlink:href="#NotoSerifCJKjp-Regular-33" transform="translate(76.999985 0)"/>
     </g>
    </g>
   </g>
   <g id="text_46">
    <g clip-path="url(#p2718d3f6f1)">
     <!-- C4_1 -->
     <g style="fill: #ffffff" transform="translate(184.977143 438.960321) scale(0.07 -0.07)">
      <use xlink:href="#NotoSerifCJKjp-Regular-43"/>
      <use xlink:href="#NotoSerifCJKjp-Regular-34" transform="translate(69.099991 0)"/>
      <use xlink:href="#NotoSerifCJKjp-Regular-5f" transform="translate(124.599976 0)"/>
      <use xlink:href="#NotoSerifCJKjp-Regular-31" transform="translate(180.899963 0)"/>
     </g>
    </g>
   </g>
   <g id="text_47">
    <g clip-path="url(#p2718d3f6f1)">
     <!-- C4_1 -->
     <g style="fill: #ffffff" transform="translate(190.830817 85.955076) scale(0.07 -0.07)">
      <use xlink:href="#NotoSerifCJKjp-Regular-43"/>
      <use xlink:href="#NotoSerifCJKjp-Regular-34" transform="translate(69.099991 0)"/>
      <use xlink:href="#NotoSerifCJKjp-Regular-5f" transform="translate(124.599976 0)"/>
      <use xlink:href="#NotoSerifCJKjp-Regular-31" transform="translate(180.899963 0)"/>
     </g>
    </g>
   </g>
   <g id="text_48">
    <g clip-path="url(#p2718d3f6f1)">
     <!-- A3 -->
     <g style="fill: #ffffff" transform="translate(223.557606 56.537972) scale(0.07 -0.07)">
      <use xlink:href="#NotoSerifCJKjp-Regular-41"/>
      <use xlink:href="#NotoSerifCJKjp-Regular-33" transform="translate(71.799988 0)"/>
     </g>
    </g>
   </g>
   <g id="text_49">
    <g clip-path="url(#p2718d3f6f1)">
     <!-- B3 -->
     <g style="fill: #ffffff" transform="translate(203.283978 291.874802) scale(0.07 -0.07)">
      <use xlink:href="#NotoSerifCJKjp-Regular-42"/>
      <use xlink:href="#NotoSerifCJKjp-Regular-33" transform="translate(66.999985 0)"/>
     </g>
    </g>
   </g>
   <g id="text_50">
    <g clip-path="url(#p2718d3f6f1)">
     <!-- D4 -->
     <g style="fill: #ffffff" transform="translate(328.612162 438.960321) scale(0.07 -0.07)">
      <use xlink:href="#NotoSerifCJKjp-Regular-44"/>
      <use xlink:href="#NotoSerifCJKjp-Regular-34" transform="translate(76.999985 0)"/>
     </g>
    </g>
   </g>
   <g id="text_51">
    <g clip-path="url(#p2718d3f6f1)">
     <!-- D4 -->
     <g style="fill: #ffffff" transform="translate(313.382852 56.537972) scale(0.07 -0.07)">
      <use xlink:href="#NotoSerifCJKjp-Regular-44"/>
      <use xlink:href="#NotoSerifCJKjp-Regular-34" transform="translate(76.999985 0)"/>
     </g>
    </g>
   </g>
   <g id="text_52">
    <g clip-path="url(#p2718d3f6f1)">
     <!-- E3 -->
     <g style="fill: #ffffff" transform="translate(354.291184 85.955076) scale(0.07 -0.07)">
      <use xlink:href="#NotoSerifCJKjp-Regular-45"/>
      <use xlink:href="#NotoSerifCJKjp-Regular-33" transform="translate(65.199997 0)"/>
     </g>
    </g>
   </g>
   <g id="text_53">
    <g clip-path="url(#p2718d3f6f1)">
     <!-- C5_1 -->
     <g style="fill: #ffffff" transform="translate(390.323411 56.537972) scale(0.07 -0.07)">
      <use xlink:href="#NotoSerifCJKjp-Regular-43"/>
      <use xlink:href="#NotoSerifCJKjp-Regular-35" transform="translate(69.099991 0)"/>
      <use xlink:href="#NotoSerifCJKjp-Regular-5f" transform="translate(124.899979 0)"/>
      <use xlink:href="#NotoSerifCJKjp-Regular-31" transform="translate(181.199966 0)"/>
     </g>
    </g>
   </g>
   <g id="text_54">
    <g clip-path="url(#p2718d3f6f1)">
     <!-- C3_2 -->
     <g style="fill: #ffffff" transform="translate(437.788067 144.789283) scale(0.07 -0.07)">
      <use xlink:href="#NotoSerifCJKjp-Regular-43"/>
      <use xlink:href="#NotoSerifCJKjp-Regular-33" transform="translate(69.099991 0)"/>
      <use xlink:href="#NotoSerifCJKjp-Regular-5f" transform="translate(124.799988 0)"/>
      <use xlink:href="#NotoSerifCJKjp-Regular-32" transform="translate(181.099976 0)"/>
     </g>
    </g>
   </g>
   <g id="text_55">
    <g clip-path="url(#p2718d3f6f1)">
     <!-- C3_2 -->
     <g style="fill: #ffffff" transform="translate(440.949052 468.377424) scale(0.07 -0.07)">
      <use xlink:href="#NotoSerifCJKjp-Regular-43"/>
      <use xlink:href="#NotoSerifCJKjp-Regular-33" transform="translate(69.099991 0)"/>
      <use xlink:href="#NotoSerifCJKjp-Regular-5f" transform="translate(124.799988 0)"/>
      <use xlink:href="#NotoSerifCJKjp-Regular-32" transform="translate(181.099976 0)"/>
     </g>
    </g>
   </g>
   <g id="text_56">
    <g clip-path="url(#p2718d3f6f1)">
     <!-- D5 -->
     <g style="fill: #ffffff" transform="translate(482.260729 56.537972) scale(0.07 -0.07)">
      <use xlink:href="#NotoSerifCJKjp-Regular-44"/>
      <use xlink:href="#NotoSerifCJKjp-Regular-35" transform="translate(76.999985 0)"/>
     </g>
    </g>
   </g>
   <g id="text_57">
    <g clip-path="url(#p2718d3f6f1)">
     <!-- C4_2 -->
     <g style="fill: #ffffff" transform="translate(486.029455 438.960321) scale(0.07 -0.07)">
      <use xlink:href="#NotoSerifCJKjp-Regular-43"/>
      <use xlink:href="#NotoSerifCJKjp-Regular-34" transform="translate(69.099991 0)"/>
      <use xlink:href="#NotoSerifCJKjp-Regular-5f" transform="translate(124.599976 0)"/>
      <use xlink:href="#NotoSerifCJKjp-Regular-32" transform="translate(180.899963 0)"/>
     </g>
    </g>
   </g>
   <g id="text_58">
    <g clip-path="url(#p2718d3f6f1)">
     <!-- C4_2 -->
     <g style="fill: #ffffff" transform="translate(491.88313 85.955076) scale(0.07 -0.07)">
      <use xlink:href="#NotoSerifCJKjp-Regular-43"/>
      <use xlink:href="#NotoSerifCJKjp-Regular-34" transform="translate(69.099991 0)"/>
      <use xlink:href="#NotoSerifCJKjp-Regular-5f" transform="translate(124.599976 0)"/>
      <use xlink:href="#NotoSerifCJKjp-Regular-32" transform="translate(180.899963 0)"/>
     </g>
    </g>
   </g>
   <g id="text_59">
    <g clip-path="url(#p2718d3f6f1)">
     <!-- D6 -->
     <g style="fill: #ffffff" transform="translate(587.62687 438.960321) scale(0.07 -0.07)">
      <defs>
       <path id="NotoSerifCJKjp-Regular-36" d="M 1850 -96 
C 2656 -96 3258 538 3258 1414 
C 3258 2253 2803 2816 2029 2816 
C 1606 2816 1248 2650 941 2323 
C 1107 3450 1850 4339 3136 4614 
L 3104 4755 
C 1414 4557 358 3258 358 1773 
C 358 634 922 -96 1850 -96 
z
M 922 2118 
C 1222 2432 1523 2554 1856 2554 
C 2394 2554 2726 2144 2726 1376 
C 2726 557 2342 102 1856 102 
C 1261 102 909 736 909 1830 
L 922 2118 
z
" transform="scale(0.015625)"/>
      </defs>
      <use xlink:href="#NotoSerifCJKjp-Regular-44"/>
      <use xlink:href="#NotoSerifCJKjp-Regular-36" transform="translate(76.999985 0)"/>
     </g>
    </g>
   </g>
   <g id="text_60">
    <g clip-path="url(#p2718d3f6f1)">
     <!-- C5_2 -->
     <g style="fill: #ffffff" transform="translate(562.116834 56.537972) scale(0.07 -0.07)">
      <use xlink:href="#NotoSerifCJKjp-Regular-43"/>
      <use xlink:href="#NotoSerifCJKjp-Regular-35" transform="translate(69.099991 0)"/>
      <use xlink:href="#NotoSerifCJKjp-Regular-5f" transform="translate(124.899979 0)"/>
      <use xlink:href="#NotoSerifCJKjp-Regular-32" transform="translate(181.199966 0)"/>
     </g>
    </g>
   </g>
   <g id="text_61">
    <g clip-path="url(#p2718d3f6f1)">
     <!-- C3_3 -->
     <g style="fill: #ffffff" transform="translate(609.88938 144.789283) scale(0.07 -0.07)">
      <use xlink:href="#NotoSerifCJKjp-Regular-43"/>
      <use xlink:href="#NotoSerifCJKjp-Regular-33" transform="translate(69.099991 0)"/>
      <use xlink:href="#NotoSerifCJKjp-Regular-5f" transform="translate(124.799988 0)"/>
      <use xlink:href="#NotoSerifCJKjp-Regular-33" transform="translate(181.099976 0)"/>
     </g>
    </g>
   </g>
   <g id="text_62">
    <g clip-path="url(#p2718d3f6f1)">
     <!-- C3_3 -->
     <g style="fill: #ffffff" transform="translate(613.050365 115.372179) scale(0.07 -0.07)">
      <use xlink:href="#NotoSerifCJKjp-Regular-43"/>
      <use xlink:href="#NotoSerifCJKjp-Regular-33" transform="translate(69.099991 0)"/>
      <use xlink:href="#NotoSerifCJKjp-Regular-5f" transform="translate(124.799988 0)"/>
      <use xlink:href="#NotoSerifCJKjp-Regular-33" transform="translate(181.099976 0)"/>
     </g>
    </g>
   </g>
   <g id="text_63">
    <g clip-path="url(#p2718d3f6f1)">
     <!-- B4 -->
     <g style="fill: #ffffff" transform="translate(635.538611 56.537972) scale(0.07 -0.07)">
      <use xlink:href="#NotoSerifCJKjp-Regular-42"/>
      <use xlink:href="#NotoSerifCJKjp-Regular-34" transform="translate(66.999985 0)"/>
     </g>
    </g>
   </g>
   <g id="text_64">
    <g clip-path="url(#p2718d3f6f1)">
     <!-- C4_3 -->
     <g style="fill: #ffffff" transform="translate(663.984443 85.955076) scale(0.07 -0.07)">
      <use xlink:href="#NotoSerifCJKjp-Regular-43"/>
      <use xlink:href="#NotoSerifCJKjp-Regular-34" transform="translate(69.099991 0)"/>
      <use xlink:href="#NotoSerifCJKjp-Regular-5f" transform="translate(124.599976 0)"/>
      <use xlink:href="#NotoSerifCJKjp-Regular-33" transform="translate(180.899963 0)"/>
     </g>
    </g>
   </g>
   <g id="text_65">
    <g clip-path="url(#p2718d3f6f1)">
     <!-- C4_3 -->
     <g style="fill: #ffffff" transform="translate(675.994232 438.960321) scale(0.07 -0.07)">
      <use xlink:href="#NotoSerifCJKjp-Regular-43"/>
      <use xlink:href="#NotoSerifCJKjp-Regular-34" transform="translate(69.099991 0)"/>
      <use xlink:href="#NotoSerifCJKjp-Regular-5f" transform="translate(124.599976 0)"/>
      <use xlink:href="#NotoSerifCJKjp-Regular-33" transform="translate(180.899963 0)"/>
     </g>
    </g>
   </g>
   <g id="text_66">
    <g clip-path="url(#p2718d3f6f1)">
     <!-- C5_3 -->
     <g style="fill: #ffffff" transform="translate(740.374261 56.537972) scale(0.07 -0.07)">
      <use xlink:href="#NotoSerifCJKjp-Regular-43"/>
      <use xlink:href="#NotoSerifCJKjp-Regular-35" transform="translate(69.099991 0)"/>
      <use xlink:href="#NotoSerifCJKjp-Regular-5f" transform="translate(124.899979 0)"/>
      <use xlink:href="#NotoSerifCJKjp-Regular-33" transform="translate(181.199966 0)"/>
     </g>
    </g>
   </g>
   <g id="text_67">
    <g clip-path="url(#p2718d3f6f1)">
     <!-- B4 -->
     <g style="fill: #ffffff" transform="translate(738.280355 438.960321) scale(0.07 -0.07)">
      <use xlink:href="#NotoSerifCJKjp-Regular-42"/>
      <use xlink:href="#NotoSerifCJKjp-Regular-34" transform="translate(66.999985 0)"/>
     </g>
    </g>
   </g>
   <g id="text_68">
    <!-- $C_{max}$ = 151604 s -->
    <g style="fill: #dc143c" transform="translate(785.543582 46.36192) scale(0.08 -0.08)">
     <defs>
      <path id="DejaVuSans-Oblique-43" d="M 4447 4306 
L 4319 3641 
Q 4019 3944 3683 4091 
Q 3347 4238 2956 4238 
Q 2422 4238 2017 3981 
Q 1613 3725 1319 3200 
Q 1131 2863 1032 2486 
Q 934 2109 934 1728 
Q 934 1091 1264 756 
Q 1594 422 2222 422 
Q 2656 422 3056 561 
Q 3456 700 3834 978 
L 3688 231 
Q 3316 72 2936 -9 
Q 2556 -91 2175 -91 
Q 1278 -91 773 396 
Q 269 884 269 1753 
Q 269 2309 461 2846 
Q 653 3384 1013 3828 
Q 1394 4300 1883 4525 
Q 2372 4750 3022 4750 
Q 3422 4750 3780 4639 
Q 4138 4528 4447 4306 
z
" transform="scale(0.015625)"/>
      <path id="DejaVuSans-Oblique-6d" d="M 5747 2113 
L 5338 0 
L 4763 0 
L 5166 2094 
Q 5191 2228 5203 2325 
Q 5216 2422 5216 2491 
Q 5216 2772 5059 2928 
Q 4903 3084 4622 3084 
Q 4203 3084 3875 2770 
Q 3547 2456 3450 1953 
L 3066 0 
L 2491 0 
L 2900 2094 
Q 2925 2209 2937 2307 
Q 2950 2406 2950 2484 
Q 2950 2769 2794 2926 
Q 2638 3084 2363 3084 
Q 1938 3084 1609 2770 
Q 1281 2456 1184 1953 
L 800 0 
L 225 0 
L 909 3500 
L 1484 3500 
L 1375 2956 
Q 1609 3263 1923 3423 
Q 2238 3584 2597 3584 
Q 2978 3584 3223 3384 
Q 3469 3184 3519 2828 
Q 3781 3197 4126 3390 
Q 4472 3584 4856 3584 
Q 5306 3584 5551 3325 
Q 5797 3066 5797 2591 
Q 5797 2488 5784 2364 
Q 5772 2241 5747 2113 
z
" transform="scale(0.015625)"/>
      <path id="DejaVuSans-Oblique-61" d="M 3438 1997 
L 3047 0 
L 2472 0 
L 2578 531 
Q 2325 219 2001 64 
Q 1678 -91 1281 -91 
Q 834 -91 548 182 
Q 263 456 263 884 
Q 263 1497 752 1853 
Q 1241 2209 2100 2209 
L 2900 2209 
L 2931 2363 
Q 2938 2388 2941 2417 
Q 2944 2447 2944 2509 
Q 2944 2788 2717 2942 
Q 2491 3097 2081 3097 
Q 1800 3097 1504 3025 
Q 1209 2953 897 2809 
L 997 3341 
Q 1322 3463 1633 3523 
Q 1944 3584 2234 3584 
Q 2853 3584 3176 3315 
Q 3500 3047 3500 2534 
Q 3500 2431 3484 2292 
Q 3469 2153 3438 1997 
z
M 2816 1759 
L 2241 1759 
Q 1534 1759 1195 1570 
Q 856 1381 856 984 
Q 856 709 1029 553 
Q 1203 397 1509 397 
Q 1978 397 2328 733 
Q 2678 1069 2791 1631 
L 2816 1759 
z
" transform="scale(0.015625)"/>
      <path id="DejaVuSans-Oblique-78" d="M 3841 3500 
L 2234 1784 
L 3219 0 
L 2559 0 
L 1819 1388 
L 531 0 
L -166 0 
L 1556 1844 
L 641 3500 
L 1300 3500 
L 1972 2234 
L 3144 3500 
L 3841 3500 
z
" transform="scale(0.015625)"/>
      <path id="NotoSerifCJKjp-Regular-20" transform="scale(0.015625)"/>
      <path id="NotoSerifCJKjp-Regular-3d" d="M 3475 1466 
L 3475 1734 
L 243 1734 
L 243 1466 
L 3475 1466 
z
M 3475 2874 
L 3475 3142 
L 243 3142 
L 243 2874 
L 3475 2874 
z
" transform="scale(0.015625)"/>
      <path id="NotoSerifCJKjp-Regular-73" d="M 1414 -96 
C 2285 -96 2733 339 2733 896 
C 2733 1344 2483 1632 1837 1856 
L 1510 1971 
C 1043 2131 858 2304 858 2611 
C 858 2950 1107 3187 1594 3187 
C 1798 3187 1978 3142 2170 3034 
L 2298 2426 
L 2554 2426 
L 2573 3110 
C 2253 3302 1978 3398 1594 3398 
C 826 3398 397 2982 397 2445 
C 397 1965 723 1690 1242 1504 
L 1574 1382 
C 2093 1216 2253 1037 2253 723 
C 2253 358 1965 109 1402 109 
C 1133 109 934 154 755 237 
L 627 922 
L 346 922 
L 346 160 
C 691 -6 1005 -96 1414 -96 
z
" transform="scale(0.015625)"/>
     </defs>
     <use xlink:href="#DejaVuSans-Oblique-43" transform="translate(0 0.703125)"/>
     <use xlink:href="#DejaVuSans-Oblique-6d" transform="translate(69.824219 -15.703125) scale(0.7)"/>
     <use xlink:href="#DejaVuSans-Oblique-61" transform="translate(138.012695 -15.703125) scale(0.7)"/>
     <use xlink:href="#DejaVuSans-Oblique-78" transform="translate(180.908203 -15.703125) scale(0.7)"/>
     <use xlink:href="#NotoSerifCJKjp-Regular-20" transform="translate(225.068359 0.703125)"/>
     <use xlink:href="#NotoSerifCJKjp-Regular-3d" transform="translate(250.66835 0.703125)"/>
     <use xlink:href="#NotoSerifCJKjp-Regular-20" transform="translate(308.668335 0.703125)"/>
     <use xlink:href="#NotoSerifCJKjp-Regular-31" transform="translate(334.268326 0.703125)"/>
     <use xlink:href="#NotoSerifCJKjp-Regular-35" transform="translate(381.368317 0.703125)"/>
     <use xlink:href="#NotoSerifCJKjp-Regular-31" transform="translate(437.168304 0.703125)"/>
     <use xlink:href="#NotoSerifCJKjp-Regular-36" transform="translate(484.268295 0.703125)"/>
     <use xlink:href="#NotoSerifCJKjp-Regular-30" transform="translate(540.068283 0.703125)"/>
     <use xlink:href="#NotoSerifCJKjp-Regular-34" transform="translate(595.76828 0.703125)"/>
     <use xlink:href="#NotoSerifCJKjp-Regular-20" transform="translate(651.268265 0.703125)"/>
     <use xlink:href="#NotoSerifCJKjp-Regular-73" transform="translate(676.868256 0.703125)"/>
    </g>
    <!-- (42:06:44) -->
    <g style="fill: #dc143c" transform="translate(785.543582 56.16992) scale(0.08 -0.08)">
     <defs>
      <path id="NotoSerifCJKjp-Regular-28" d="M 1043 1933 
C 1043 3130 1293 3968 2144 5139 
L 2022 5242 
C 1050 4250 589 3219 589 1933 
C 589 653 1050 -378 2022 -1376 
L 2144 -1267 
C 1306 -102 1043 742 1043 1933 
z
" transform="scale(0.015625)"/>
      <path id="NotoSerifCJKjp-Regular-3a" d="M 1043 -96 
C 1267 -96 1440 90 1440 294 
C 1440 518 1267 691 1043 691 
C 813 691 653 518 653 294 
C 653 90 813 -96 1043 -96 
z
M 1043 2438 
C 1267 2438 1440 2624 1440 2829 
C 1440 3053 1267 3226 1043 3226 
C 813 3226 653 3053 653 2829 
C 653 2624 813 2438 1043 2438 
z
" transform="scale(0.015625)"/>
      <path id="NotoSerifCJKjp-Regular-29" d="M 1299 1933 
C 1299 742 1043 -96 192 -1267 
L 314 -1376 
C 1280 -384 1747 653 1747 1933 
C 1747 3219 1280 4250 314 5242 
L 192 5139 
C 1024 3974 1299 3130 1299 1933 
z
" transform="scale(0.015625)"/>
     </defs>
     <use xlink:href="#NotoSerifCJKjp-Regular-28"/>
     <use xlink:href="#NotoSerifCJKjp-Regular-34" transform="translate(36.399994 0)"/>
     <use xlink:href="#NotoSerifCJKjp-Regular-32" transform="translate(91.899979 0)"/>
     <use xlink:href="#NotoSerifCJKjp-Regular-3a" transform="translate(147.699966 0)"/>
     <use xlink:href="#NotoSerifCJKjp-Regular-30" transform="translate(180.399963 0)"/>
     <use xlink:href="#NotoSerifCJKjp-Regular-36" transform="translate(236.09996 0)"/>
     <use xlink:href="#NotoSerifCJKjp-Regular-3a" transform="translate(291.899948 0)"/>
     <use xlink:href="#NotoSerifCJKjp-Regular-34" transform="translate(324.599945 0)"/>
     <use xlink:href="#NotoSerifCJKjp-Regular-34" transform="translate(380.09993 0)"/>
     <use xlink:href="#NotoSerifCJKjp-Regular-29" transform="translate(435.599915 0)"/>
    </g>
   </g>
   <g id="text_69">
    <g id="patch_48">
     <path d="M 52.018366 527.185775 
L 167.910866 527.185775 
Q 170.310866 527.185775 170.310866 524.785775 
L 170.310866 515.905775 
Q 170.310866 513.505775 167.910866 513.505775 
L 52.018366 513.505775 
Q 49.618366 513.505775 49.618366 515.905775 
L 49.618366 524.785775 
Q 49.618366 527.185775 52.018366 527.185775 
z
" style="fill: #ffffe0; opacity: 0.8; stroke: #808080; stroke-linejoin: miter"/>
    </g>
    <!-- 状态: OPTIMAL  |  gap = 0.00% -->
    <g transform="translate(52.018366 522.609525) scale(0.08 -0.08)">
     <defs>
      <path id="NotoSerifCJKjp-Regular-72b6" d="M 4723 5018 
L 4666 4960 
C 4934 4781 5235 4435 5280 4115 
C 5728 3821 6035 4781 4723 5018 
z
M 474 4320 
L 397 4275 
C 659 3974 947 3482 973 3085 
C 1395 2707 1811 3686 474 4320 
z
M 3763 5312 
C 3757 4589 3757 3942 3725 3354 
L 2163 3354 
L 2214 3168 
L 3712 3168 
C 3603 1638 3264 531 2131 -397 
L 2227 -499 
C 3597 397 3987 1523 4115 3085 
C 4250 1971 4608 461 5773 -454 
C 5830 -211 5965 -122 6176 -102 
L 6189 -26 
C 4864 838 4390 2112 4224 3168 
L 5990 3168 
C 6080 3168 6138 3200 6157 3264 
C 5946 3462 5606 3725 5606 3725 
L 5312 3354 
L 4128 3354 
C 4160 3872 4173 4442 4179 5062 
C 4333 5082 4397 5152 4410 5242 
L 3763 5312 
z
M 1549 5331 
L 1549 2157 
C 1005 1786 474 1446 250 1318 
L 602 826 
C 659 864 691 947 691 1024 
C 1037 1389 1331 1722 1549 1965 
L 1549 -486 
L 1632 -486 
C 1792 -486 1971 -378 1971 -314 
L 1971 5088 
C 2125 5114 2176 5178 2195 5267 
L 1549 5331 
z
" transform="scale(0.015625)"/>
      <path id="NotoSerifCJKjp-Regular-6001" d="M 2534 1651 
L 1920 1715 
L 1920 96 
C 1920 -237 2042 -326 2624 -326 
L 3501 -326 
C 4723 -326 4947 -262 4947 -58 
C 4947 26 4902 70 4749 115 
L 4736 851 
L 4653 851 
C 4576 518 4506 243 4448 141 
C 4416 83 4390 70 4294 64 
C 4192 51 3898 45 3520 45 
L 2669 45 
C 2368 45 2336 77 2336 173 
L 2336 1498 
C 2458 1510 2522 1568 2534 1651 
z
M 1325 1581 
L 1210 1581 
C 1184 1043 864 576 563 403 
C 435 314 358 186 422 70 
C 506 -64 723 -26 890 96 
C 1152 288 1472 794 1325 1581 
z
M 4928 1568 
L 4851 1510 
C 5210 1178 5619 595 5690 141 
C 6163 -218 6509 870 4928 1568 
z
M 2886 1914 
L 2816 1856 
C 3104 1581 3456 1101 3514 723 
C 3930 403 4256 1331 2886 1914 
z
M 5568 4659 
L 5267 4288 
L 3194 4288 
C 3277 4544 3341 4813 3386 5088 
C 3514 5088 3603 5133 3629 5235 
L 2944 5363 
C 2899 4992 2829 4634 2720 4288 
L 390 4288 
L 448 4096 
L 2656 4096 
C 2298 3136 1594 2323 224 1811 
L 275 1728 
C 1338 2029 2042 2490 2515 3046 
C 2822 2810 3187 2432 3309 2131 
C 3744 1901 3968 2752 2598 3149 
C 2822 3437 2995 3757 3123 4096 
L 3520 4096 
C 3923 3008 4749 2227 5779 1773 
C 5843 1978 5971 2099 6157 2118 
L 6163 2189 
C 5120 2509 4134 3174 3667 4096 
L 5952 4096 
C 6042 4096 6099 4128 6118 4198 
C 5907 4397 5568 4659 5568 4659 
z
" transform="scale(0.015625)"/>
      <path id="NotoSerifCJKjp-Regular-4f" d="M 2451 -102 
C 3590 -102 4544 806 4544 2330 
C 4544 3872 3590 4768 2451 4768 
C 1318 4768 358 3846 358 2330 
C 358 787 1318 -102 2451 -102 
z
M 2451 115 
C 1478 115 966 1120 966 2330 
C 966 3533 1478 4538 2451 4538 
C 3430 4538 3936 3533 3936 2330 
C 3936 1120 3430 115 2451 115 
z
" transform="scale(0.015625)"/>
      <path id="NotoSerifCJKjp-Regular-54" d="M 141 3443 
L 416 3443 
L 602 4435 
L 1818 4435 
C 1830 3795 1830 3149 1830 2502 
L 1830 2157 
C 1830 1510 1830 877 1818 250 
L 1088 192 
L 1088 0 
L 3136 0 
L 3136 192 
L 2400 250 
C 2394 883 2394 1517 2394 2157 
L 2394 2502 
C 2394 3155 2394 3802 2400 4435 
L 3622 4435 
L 3808 3443 
L 4083 3443 
L 4026 4659 
L 192 4659 
L 141 3443 
z
" transform="scale(0.015625)"/>
      <path id="NotoSerifCJKjp-Regular-4c" d="M 339 4467 
L 998 4416 
C 1005 3789 1005 3142 1005 2502 
L 1005 2106 
C 1005 1504 1005 877 998 250 
L 339 192 
L 339 0 
L 3725 0 
L 3770 1248 
L 3488 1248 
L 3296 218 
L 1581 218 
C 1574 858 1574 1498 1574 2048 
L 1574 2419 
C 1574 3136 1574 3782 1581 4416 
L 2266 4467 
L 2266 4659 
L 339 4659 
L 339 4467 
z
" transform="scale(0.015625)"/>
      <path id="NotoSerifCJKjp-Regular-7c" d="M 851 -1741 
L 1165 -1741 
L 1165 5216 
L 851 5216 
L 851 -1741 
z
" transform="scale(0.015625)"/>
      <path id="NotoSerifCJKjp-Regular-67" d="M 1670 1306 
C 1203 1306 915 1683 915 2253 
C 915 2829 1216 3206 1677 3206 
C 2131 3206 2438 2835 2438 2259 
C 2438 1690 2131 1306 1670 1306 
z
M 1670 1114 
C 2438 1114 2925 1568 2925 2253 
C 2925 2541 2842 2790 2688 2982 
L 3443 2957 
L 3443 3302 
L 3334 3373 
L 2534 3123 
C 2336 3296 2035 3398 1677 3398 
C 902 3398 422 2944 422 2253 
C 422 1818 614 1472 954 1280 
C 621 1011 486 787 486 538 
C 486 269 627 77 922 -13 
C 486 -218 262 -467 262 -819 
C 262 -1312 634 -1664 1594 -1664 
C 2778 -1664 3411 -1075 3411 -480 
C 3411 58 3046 371 2272 371 
L 1338 371 
C 986 371 845 525 845 742 
C 845 922 922 1043 1082 1222 
C 1248 1152 1446 1114 1670 1114 
z
M 1050 -64 
C 1171 -83 1293 -90 1459 -90 
L 2246 -90 
C 2784 -90 2957 -333 2957 -621 
C 2957 -1082 2496 -1434 1606 -1434 
C 1005 -1434 666 -1190 666 -730 
C 666 -448 787 -275 1050 -64 
z
" transform="scale(0.015625)"/>
      <path id="NotoSerifCJKjp-Regular-61" d="M 2925 -90 
C 3174 -90 3366 13 3501 237 
L 3398 333 
C 3296 218 3219 179 3110 179 
C 2938 179 2842 288 2842 691 
L 2842 2272 
C 2842 3066 2483 3398 1741 3398 
C 1018 3398 544 3085 416 2560 
C 454 2413 550 2330 698 2330 
C 858 2330 966 2413 1005 2643 
L 1101 3104 
C 1274 3168 1434 3200 1600 3200 
C 2106 3200 2330 3008 2330 2298 
L 2330 2035 
C 2048 1971 1747 1888 1478 1805 
C 634 1562 333 1235 333 736 
C 333 205 710 -96 1216 -96 
C 1677 -96 1965 115 2342 525 
C 2394 141 2573 -90 2925 -90 
z
M 2330 723 
C 1926 339 1696 218 1440 218 
C 1082 218 845 422 845 819 
C 845 1171 1056 1446 1594 1645 
C 1811 1728 2067 1798 2330 1869 
L 2330 723 
z
" transform="scale(0.015625)"/>
      <path id="NotoSerifCJKjp-Regular-70" d="M 2349 -96 
C 3174 -96 3770 589 3770 1683 
C 3770 2733 3213 3398 2432 3398 
C 2042 3398 1651 3238 1331 2854 
L 1299 3328 
L 1216 3379 
L 230 3123 
L 230 2957 
L 800 2931 
C 813 2611 819 2272 819 1837 
L 819 -173 
L 806 -1434 
L 262 -1485 
L 262 -1664 
L 1971 -1664 
L 1971 -1485 
L 1350 -1434 
L 1338 -173 
L 1338 371 
C 1645 19 2003 -96 2349 -96 
z
M 1350 2688 
C 1670 3008 1946 3104 2227 3104 
C 2810 3104 3206 2643 3206 1670 
C 3206 608 2752 211 2195 211 
C 1882 211 1626 294 1350 563 
L 1350 2688 
z
" transform="scale(0.015625)"/>
      <path id="NotoSerifCJKjp-Regular-2e" d="M 1043 -96 
C 1267 -96 1440 90 1440 294 
C 1440 518 1267 691 1043 691 
C 813 691 653 518 653 294 
C 653 90 813 -96 1043 -96 
z
" transform="scale(0.015625)"/>
      <path id="NotoSerifCJKjp-Regular-25" d="M 1235 1862 
C 1722 1862 2176 2285 2176 3290 
C 2176 4307 1722 4723 1235 4723 
C 742 4723 288 4307 288 3290 
C 288 2285 742 1862 1235 1862 
z
M 1235 2022 
C 960 2022 704 2298 704 3290 
C 704 4288 960 4557 1235 4557 
C 1510 4557 1766 4282 1766 3290 
C 1766 2298 1510 2022 1235 2022 
z
M 4678 -64 
C 5165 -64 5619 352 5619 1370 
C 5619 2381 5165 2797 4678 2797 
C 4186 2797 3731 2381 3731 1370 
C 3731 352 4186 -64 4678 -64 
z
M 4678 102 
C 4403 102 4141 371 4141 1370 
C 4141 2355 4403 2630 4678 2630 
C 4954 2630 5216 2355 5216 1370 
C 5216 371 4954 102 4678 102 
z
M 1408 -179 
L 4659 4538 
L 4493 4659 
L 1242 -64 
L 1408 -179 
z
" transform="scale(0.015625)"/>
     </defs>
     <use xlink:href="#NotoSerifCJKjp-Regular-72b6"/>
     <use xlink:href="#NotoSerifCJKjp-Regular-6001" transform="translate(99.999985 0)"/>
     <use xlink:href="#NotoSerifCJKjp-Regular-3a" transform="translate(199.999969 0)"/>
     <use xlink:href="#NotoSerifCJKjp-Regular-20" transform="translate(232.699966 0)"/>
     <use xlink:href="#NotoSerifCJKjp-Regular-4f" transform="translate(258.299957 0)"/>
     <use xlink:href="#NotoSerifCJKjp-Regular-50" transform="translate(334.999939 0)"/>
     <use xlink:href="#NotoSerifCJKjp-Regular-54" transform="translate(399.09993 0)"/>
     <use xlink:href="#NotoSerifCJKjp-Regular-49" transform="translate(464.999924 0)"/>
     <use xlink:href="#NotoSerifCJKjp-Regular-4d" transform="translate(505.499908 0)"/>
     <use xlink:href="#NotoSerifCJKjp-Regular-41" transform="translate(602.999893 0)"/>
     <use xlink:href="#NotoSerifCJKjp-Regular-4c" transform="translate(674.799881 0)"/>
     <use xlink:href="#NotoSerifCJKjp-Regular-20" transform="translate(737.299866 0)"/>
     <use xlink:href="#NotoSerifCJKjp-Regular-20" transform="translate(762.899857 0)"/>
     <use xlink:href="#NotoSerifCJKjp-Regular-7c" transform="translate(788.499847 0)"/>
     <use xlink:href="#NotoSerifCJKjp-Regular-20" transform="translate(820.099838 0)"/>
     <use xlink:href="#NotoSerifCJKjp-Regular-20" transform="translate(845.699829 0)"/>
     <use xlink:href="#NotoSerifCJKjp-Regular-67" transform="translate(871.29982 0)"/>
     <use xlink:href="#NotoSerifCJKjp-Regular-61" transform="translate(927.899811 0)"/>
     <use xlink:href="#NotoSerifCJKjp-Regular-70" transform="translate(983.599808 0)"/>
     <use xlink:href="#NotoSerifCJKjp-Regular-20" transform="translate(1047.399796 0)"/>
     <use xlink:href="#NotoSerifCJKjp-Regular-3d" transform="translate(1072.999786 0)"/>
     <use xlink:href="#NotoSerifCJKjp-Regular-20" transform="translate(1130.999771 0)"/>
     <use xlink:href="#NotoSerifCJKjp-Regular-30" transform="translate(1156.599762 0)"/>
     <use xlink:href="#NotoSerifCJKjp-Regular-2e" transform="translate(1212.299759 0)"/>
     <use xlink:href="#NotoSerifCJKjp-Regular-30" transform="translate(1244.999756 0)"/>
     <use xlink:href="#NotoSerifCJKjp-Regular-30" transform="translate(1300.699753 0)"/>
     <use xlink:href="#NotoSerifCJKjp-Regular-25" transform="translate(1356.39975 0)"/>
    </g>
   </g>
   <g id="text_70">
    <!-- P2  单班组五车间设备甘特图 -->
    <g transform="translate(356.21988 16.86) scale(0.12 -0.12)">
     <defs>
      <path id="NotoSerifCJKjp-Regular-5355" d="M 1632 5293 
L 1562 5242 
C 1856 4966 2202 4499 2278 4122 
C 2752 3795 3085 4800 1632 5293 
z
M 4826 2982 
L 3405 2982 
L 3405 3808 
L 4826 3808 
L 4826 2982 
z
M 4826 2797 
L 4826 1933 
L 3405 1933 
L 3405 2797 
L 4826 2797 
z
M 1536 2982 
L 1536 3808 
L 2982 3808 
L 2982 2982 
L 1536 2982 
z
M 1536 2797 
L 2982 2797 
L 2982 1933 
L 1536 1933 
L 1536 2797 
z
M 5555 1382 
L 5222 966 
L 3405 966 
L 3405 1747 
L 4826 1747 
L 4826 1485 
L 4890 1485 
C 5037 1485 5242 1587 5248 1632 
L 5248 3738 
C 5376 3763 5472 3808 5517 3859 
L 4998 4256 
L 4762 4000 
L 3725 4000 
C 4058 4250 4416 4614 4710 4973 
C 4851 4947 4934 4998 4966 5062 
L 4346 5363 
C 4102 4851 3782 4320 3533 4000 
L 1574 4000 
L 1120 4211 
L 1120 1427 
L 1190 1427 
C 1363 1427 1536 1523 1536 1568 
L 1536 1747 
L 2982 1747 
L 2982 966 
L 224 966 
L 282 781 
L 2982 781 
L 2982 -512 
L 3046 -512 
C 3270 -512 3405 -410 3405 -378 
L 3405 781 
L 6003 781 
C 6086 781 6157 813 6176 883 
C 5939 1094 5555 1382 5555 1382 
z
" transform="scale(0.015625)"/>
      <path id="NotoSerifCJKjp-Regular-73ed" d="M 3194 5299 
L 3194 2669 
C 3194 1395 2931 339 1888 -410 
L 1971 -493 
C 3258 218 3584 1350 3590 2669 
L 3590 5056 
C 3750 5082 3802 5146 3814 5235 
L 3194 5299 
z
M 3162 -38 
L 3213 -224 
L 6048 -224 
C 6138 -224 6189 -192 6208 -122 
C 6022 83 5690 384 5690 384 
L 5395 -38 
L 4902 -38 
L 4902 2330 
L 5773 2330 
C 5856 2330 5914 2355 5933 2426 
C 5766 2618 5472 2880 5472 2880 
L 5216 2509 
L 4902 2509 
L 4902 4544 
L 5875 4544 
C 5965 4544 6022 4576 6042 4646 
C 5830 4845 5498 5114 5498 5114 
L 5197 4730 
L 3654 4730 
L 3706 4544 
L 4493 4544 
L 4493 2509 
L 3731 2509 
L 3782 2330 
L 4493 2330 
L 4493 -38 
L 3162 -38 
z
M 205 582 
L 480 58 
C 538 83 582 154 602 224 
C 1299 653 1830 1024 2214 1274 
L 2176 1363 
L 1408 1043 
L 1408 2714 
L 2029 2714 
C 2112 2714 2176 2746 2189 2816 
C 2029 2989 1760 3226 1760 3226 
L 1523 2899 
L 1408 2899 
L 1408 4518 
L 2112 4518 
C 2189 4518 2253 4544 2266 4614 
L 2266 1389 
L 2336 1389 
C 2477 1389 2637 1472 2637 1523 
L 2637 4397 
C 2797 4416 2842 4474 2861 4557 
L 2266 4627 
C 2074 4819 1760 5075 1760 5075 
L 1478 4704 
L 262 4704 
L 314 4518 
L 998 4518 
L 998 2899 
L 326 2899 
L 378 2714 
L 998 2714 
L 998 877 
C 659 742 371 634 205 582 
z
" transform="scale(0.015625)"/>
      <path id="NotoSerifCJKjp-Regular-7ec4" d="M 282 442 
L 563 -128 
C 627 -102 678 -51 698 32 
C 1536 403 2163 723 2611 973 
L 2586 1062 
C 1658 787 710 531 282 442 
z
M 2074 5043 
L 1459 5325 
C 1280 4845 787 3942 397 3571 
C 352 3539 230 3514 230 3514 
L 461 2938 
C 499 2950 538 2982 576 3027 
C 934 3123 1286 3226 1562 3309 
C 1210 2784 781 2240 416 1933 
C 365 1894 230 1862 230 1862 
L 461 1286 
C 512 1306 557 1338 595 1402 
C 1389 1638 2099 1901 2490 2035 
L 2470 2138 
C 1798 2029 1133 1933 685 1875 
C 1344 2438 2067 3258 2445 3821 
C 2566 3789 2656 3834 2688 3885 
L 2112 4250 
C 2016 4045 1869 3789 1696 3520 
C 1286 3494 890 3482 602 3475 
C 1050 3891 1562 4499 1837 4947 
C 1965 4928 2042 4979 2074 5043 
z
M 2848 5101 
L 2848 -19 
L 1997 -19 
L 2048 -211 
L 6067 -211 
C 6157 -211 6214 -179 6234 -109 
C 6061 83 5773 333 5773 333 
L 5530 -19 
L 5427 -19 
L 5427 4634 
C 5587 4653 5670 4678 5715 4749 
L 5152 5184 
L 4915 4883 
L 3347 4883 
L 2848 5101 
z
M 3270 -19 
L 3270 1459 
L 4992 1459 
L 4992 -19 
L 3270 -19 
z
M 3270 1645 
L 3270 3130 
L 4992 3130 
L 4992 1645 
L 3270 1645 
z
M 3270 3322 
L 3270 4698 
L 4992 4698 
L 4992 3322 
L 3270 3322 
z
" transform="scale(0.015625)"/>
      <path id="NotoSerifCJKjp-Regular-4e94" d="M 928 2726 
L 986 2541 
L 2317 2541 
C 2125 1658 1920 755 1747 96 
L 243 96 
L 301 -96 
L 5990 -96 
C 6086 -96 6150 -64 6170 6 
C 5939 224 5562 525 5562 525 
L 5235 96 
L 4768 96 
L 4768 2464 
C 4902 2490 4998 2541 5043 2592 
L 4531 2989 
L 4288 2726 
L 2784 2726 
C 2918 3347 3046 3955 3142 4448 
L 5606 4448 
C 5702 4448 5760 4474 5773 4544 
C 5555 4755 5184 5043 5184 5043 
L 4851 4627 
L 646 4627 
L 704 4448 
L 2701 4448 
C 2611 3955 2490 3354 2355 2726 
L 928 2726 
z
M 2182 96 
C 2349 749 2554 1651 2746 2541 
L 4352 2541 
L 4352 96 
L 2182 96 
z
" transform="scale(0.015625)"/>
      <path id="NotoSerifCJKjp-Regular-8f66" d="M 3238 5126 
L 2630 5363 
C 2522 5082 2342 4678 2138 4250 
L 442 4250 
L 499 4058 
L 2048 4058 
C 1792 3539 1517 3002 1293 2624 
C 1184 2598 1062 2554 986 2509 
L 1440 2106 
L 1670 2323 
L 3123 2323 
L 3123 1261 
L 250 1261 
L 307 1075 
L 3123 1075 
L 3123 -499 
L 3194 -499 
C 3411 -499 3552 -397 3552 -371 
L 3552 1075 
L 5997 1075 
C 6086 1075 6144 1107 6163 1178 
C 5939 1382 5562 1658 5562 1658 
L 5242 1261 
L 3552 1261 
L 3552 2323 
L 5434 2323 
C 5530 2323 5587 2355 5606 2426 
C 5395 2624 5037 2899 5037 2899 
L 4736 2509 
L 3552 2509 
L 3552 3386 
C 3712 3405 3763 3462 3782 3552 
L 3123 3629 
L 3123 2509 
L 1709 2509 
C 1946 2938 2246 3520 2515 4058 
L 5779 4058 
C 5862 4058 5926 4090 5939 4160 
C 5734 4358 5382 4621 5382 4621 
L 5082 4250 
L 2605 4250 
C 2752 4550 2880 4826 2970 5037 
C 3123 5005 3200 5062 3238 5126 
z
" transform="scale(0.015625)"/>
      <path id="NotoSerifCJKjp-Regular-8bbe" d="M 710 5331 
L 640 5280 
C 954 4979 1370 4486 1504 4109 
C 1971 3834 2227 4781 710 5331 
z
M 1491 3398 
C 1613 3424 1702 3469 1728 3514 
L 1312 3866 
L 1101 3642 
L 262 3642 
L 320 3450 
L 1094 3450 
L 1094 640 
C 1094 525 1062 480 858 378 
L 1146 -141 
C 1197 -115 1267 -45 1306 64 
C 1837 544 2310 1018 2560 1267 
L 2515 1350 
C 2150 1107 1786 870 1491 678 
L 1491 3398 
z
M 2893 5011 
L 2893 4410 
C 2893 3814 2752 3155 1926 2630 
L 1990 2547 
C 3168 3034 3296 3846 3296 4410 
L 3296 4755 
L 4595 4755 
L 4595 3258 
C 4595 2982 4653 2886 5018 2886 
L 5376 2886 
C 6003 2886 6163 2970 6163 3136 
C 6163 3226 6112 3264 5978 3302 
L 5958 3309 
L 5894 3309 
C 5862 3296 5818 3290 5779 3283 
C 5760 3283 5722 3283 5696 3283 
C 5645 3277 5530 3277 5421 3277 
L 5133 3277 
C 5011 3277 4998 3302 4998 3379 
L 4998 4698 
C 5114 4717 5197 4742 5235 4787 
L 4774 5190 
L 4538 4947 
L 3373 4947 
L 2893 5158 
L 2893 5011 
z
M 3686 653 
C 3136 211 2445 -141 1613 -390 
L 1664 -493 
C 2586 -294 3328 26 3917 442 
C 4422 19 5062 -275 5837 -474 
C 5894 -262 6035 -134 6240 -109 
L 6246 -32 
C 5466 102 4787 333 4230 678 
C 4755 1126 5146 1658 5427 2278 
C 5581 2291 5651 2304 5702 2362 
L 5242 2797 
L 4954 2528 
L 2285 2528 
L 2342 2342 
L 2726 2342 
C 2931 1638 3251 1088 3686 653 
z
M 3942 877 
C 3462 1248 3098 1728 2861 2342 
L 4954 2342 
C 4730 1786 4390 1299 3942 877 
z
" transform="scale(0.015625)"/>
      <path id="NotoSerifCJKjp-Regular-5907" d="M 2861 5171 
L 2189 5370 
C 1830 4589 1094 3610 416 3059 
L 493 2982 
C 979 3277 1472 3706 1888 4160 
C 2170 3802 2534 3494 2957 3232 
C 2163 2784 1210 2438 218 2202 
L 262 2086 
C 621 2144 960 2208 1293 2291 
L 1293 2144 
L 1293 -499 
L 1363 -499 
C 1542 -499 1715 -403 1715 -358 
L 1715 -109 
L 4717 -109 
L 4717 -461 
L 4781 -461 
C 4922 -461 5133 -365 5139 -320 
L 5139 1888 
C 5261 1907 5357 1958 5395 2010 
L 4890 2400 
L 4659 2144 
L 1747 2144 
L 1389 2317 
C 2093 2496 2739 2733 3309 3027 
C 4058 2630 4947 2355 5862 2189 
C 5907 2406 6048 2541 6240 2573 
L 6253 2650 
C 5382 2752 4486 2950 3699 3245 
C 4243 3565 4704 3942 5075 4371 
C 5248 4378 5325 4384 5376 4442 
L 4902 4909 
L 4563 4634 
L 2285 4634 
C 2406 4794 2522 4947 2618 5101 
C 2784 5082 2835 5114 2861 5171 
z
M 4717 1952 
L 4717 1120 
L 3430 1120 
L 3430 1952 
L 4717 1952 
z
M 4717 77 
L 3430 77 
L 3430 928 
L 4717 928 
L 4717 77 
z
M 1715 77 
L 1715 928 
L 3040 928 
L 3040 77 
L 1715 77 
z
M 3040 1952 
L 3040 1120 
L 1715 1120 
L 1715 1952 
L 3040 1952 
z
M 1984 4275 
L 2131 4442 
L 4493 4442 
C 4179 4064 3763 3725 3277 3418 
C 2758 3654 2310 3936 1984 4275 
z
" transform="scale(0.015625)"/>
      <path id="NotoSerifCJKjp-Regular-7518" d="M 269 3968 
L 326 3782 
L 1651 3782 
L 1651 -493 
L 1734 -493 
C 1894 -493 2067 -390 2067 -326 
L 2067 96 
L 4307 96 
L 4307 -390 
L 4390 -390 
C 4550 -390 4730 -282 4730 -224 
L 4730 3782 
L 5978 3782 
C 6067 3782 6125 3814 6144 3885 
C 5926 4090 5574 4378 5574 4378 
L 5267 3968 
L 4730 3968 
L 4730 5082 
C 4896 5107 4941 5171 4954 5261 
L 4307 5331 
L 4307 3968 
L 2067 3968 
L 2067 5082 
C 2234 5107 2285 5171 2298 5267 
L 1651 5331 
L 1651 3968 
L 269 3968 
z
M 2067 3782 
L 4307 3782 
L 4307 2214 
L 2067 2214 
L 2067 3782 
z
M 2067 282 
L 2067 2022 
L 4307 2022 
L 4307 282 
L 2067 282 
z
" transform="scale(0.015625)"/>
      <path id="NotoSerifCJKjp-Regular-7279" d="M 2829 1754 
L 2765 1696 
C 3053 1434 3405 979 3501 621 
C 3968 301 4301 1274 2829 1754 
z
M 3885 5344 
L 3885 4429 
L 2573 4429 
L 2624 4237 
L 3885 4237 
L 3885 3258 
L 2234 3258 
L 2285 3078 
L 6042 3078 
C 6131 3078 6189 3110 6208 3181 
C 6003 3373 5664 3661 5664 3661 
L 5357 3258 
L 4301 3258 
L 4301 4237 
L 5728 4237 
C 5811 4237 5869 4269 5888 4339 
C 5690 4531 5350 4813 5350 4813 
L 5056 4429 
L 4301 4429 
L 4301 5107 
C 4461 5126 4525 5190 4538 5280 
L 3885 5344 
z
M 4749 3002 
L 4749 2182 
L 2253 2182 
L 2304 1997 
L 4749 1997 
L 4749 154 
C 4749 58 4710 19 4589 19 
C 4448 19 3718 77 3718 77 
L 3718 -32 
C 4032 -70 4205 -115 4314 -186 
C 4403 -256 4442 -365 4461 -493 
C 5088 -435 5158 -218 5158 122 
L 5158 1997 
L 6016 1997 
C 6106 1997 6170 2029 6176 2099 
C 5984 2291 5664 2566 5664 2566 
L 5376 2182 
L 5158 2182 
L 5158 2771 
C 5312 2790 5363 2842 5382 2931 
L 4749 3002 
z
M 205 1920 
L 467 1382 
C 525 1408 576 1472 602 1542 
L 1312 1888 
L 1312 -499 
L 1395 -499 
C 1549 -499 1715 -390 1715 -326 
L 1715 2093 
L 2694 2611 
L 2662 2701 
L 1715 2381 
L 1715 3661 
L 2560 3661 
C 2650 3661 2707 3693 2726 3763 
C 2522 3962 2195 4237 2195 4237 
L 1907 3846 
L 1715 3846 
L 1715 5120 
C 1875 5146 1926 5210 1946 5306 
L 1312 5370 
L 1312 3846 
L 851 3846 
C 922 4102 986 4371 1030 4640 
C 1165 4646 1229 4710 1248 4787 
L 640 4902 
C 602 4134 454 3334 237 2758 
L 352 2707 
C 531 2963 678 3296 794 3661 
L 1312 3661 
L 1312 2253 
C 826 2093 429 1971 205 1920 
z
" transform="scale(0.015625)"/>
      <path id="NotoSerifCJKjp-Regular-56fe" d="M 2669 2067 
L 2643 1965 
C 3155 1824 3578 1574 3757 1402 
C 4154 1293 4269 2086 2669 2067 
z
M 2016 1248 
L 1990 1146 
C 2976 928 3821 538 4186 269 
C 4685 154 4755 1133 2016 1248 
z
M 5261 4800 
L 5261 128 
L 1120 128 
L 1120 4800 
L 5261 4800 
z
M 1120 -326 
L 1120 -58 
L 5261 -58 
L 5261 -461 
L 5325 -461 
C 5478 -461 5677 -339 5683 -301 
L 5683 4723 
C 5811 4749 5920 4787 5965 4845 
L 5440 5261 
L 5197 4986 
L 1158 4986 
L 704 5210 
L 704 -493 
L 781 -493 
C 973 -493 1120 -390 1120 -326 
z
M 3008 4506 
L 2426 4742 
C 2253 4134 1875 3373 1414 2848 
L 1478 2765 
C 1786 3008 2067 3309 2304 3622 
C 2477 3302 2707 3021 2982 2784 
C 2502 2400 1920 2074 1293 1843 
L 1350 1747 
C 2067 1946 2694 2234 3226 2592 
C 3667 2272 4192 2035 4781 1869 
C 4832 2061 4954 2189 5120 2214 
L 5126 2291 
C 4557 2394 4000 2566 3520 2810 
C 3904 3117 4224 3456 4467 3834 
C 4627 3840 4691 3853 4742 3904 
L 4294 4320 
L 4013 4064 
L 2592 4064 
C 2669 4192 2733 4320 2784 4442 
C 2906 4429 2982 4442 3008 4506 
z
M 2387 3744 
L 2483 3878 
L 3974 3878 
C 3782 3565 3526 3258 3219 2982 
C 2880 3194 2592 3450 2387 3744 
z
" transform="scale(0.015625)"/>
     </defs>
     <use xlink:href="#NotoSerifCJKjp-Regular-50"/>
     <use xlink:href="#NotoSerifCJKjp-Regular-32" transform="translate(64.099991 0)"/>
     <use xlink:href="#NotoSerifCJKjp-Regular-20" transform="translate(119.899979 0)"/>
     <use xlink:href="#NotoSerifCJKjp-Regular-20" transform="translate(145.499969 0)"/>
     <use xlink:href="#NotoSerifCJKjp-Regular-5355" transform="translate(171.09996 0)"/>
     <use xlink:href="#NotoSerifCJKjp-Regular-73ed" transform="translate(271.099945 0)"/>
     <use xlink:href="#NotoSerifCJKjp-Regular-7ec4" transform="translate(371.09993 0)"/>
     <use xlink:href="#NotoSerifCJKjp-Regular-4e94" transform="translate(471.099915 0)"/>
     <use xlink:href="#NotoSerifCJKjp-Regular-8f66" transform="translate(571.099899 0)"/>
     <use xlink:href="#NotoSerifCJKjp-Regular-95f4" transform="translate(671.099884 0)"/>
     <use xlink:href="#NotoSerifCJKjp-Regular-8bbe" transform="translate(771.099869 0)"/>
     <use xlink:href="#NotoSerifCJKjp-Regular-5907" transform="translate(871.099854 0)"/>
     <use xlink:href="#NotoSerifCJKjp-Regular-7518" transform="translate(971.099838 0)"/>
     <use xlink:href="#NotoSerifCJKjp-Regular-7279" transform="translate(1071.099823 0)"/>
     <use xlink:href="#NotoSerifCJKjp-Regular-56fe" transform="translate(1171.099808 0)"/>
    </g>
   </g>
   <g id="legend_1">
    <g id="patch_49">
     <path d="M 760.685386 100.485 
L 814.415386 100.485 
Q 816.215386 100.485 816.215386 98.685 
L 816.215386 29.16 
Q 816.215386 27.36 814.415386 27.36 
L 760.685386 27.36 
Q 758.885386 27.36 758.885386 29.16 
L 758.885386 98.685 
Q 758.885386 100.485 760.685386 100.485 
z
" style="fill: #ffffff; opacity: 0.8; stroke: #cccccc; stroke-linejoin: miter"/>
    </g>
    <g id="patch_50">
     <path d="M 762.485386 38.205 
L 780.485386 38.205 
L 780.485386 31.905 
L 762.485386 31.905 
z
" style="fill: #4472c4; stroke: #4472c4; stroke-linejoin: miter"/>
    </g>
    <g id="text_71">
     <!-- A车间 -->
     <g transform="translate(787.685386 38.205) scale(0.09 -0.09)">
      <use xlink:href="#NotoSerifCJKjp-Regular-41"/>
      <use xlink:href="#NotoSerifCJKjp-Regular-8f66" transform="translate(71.799988 0)"/>
      <use xlink:href="#NotoSerifCJKjp-Regular-95f4" transform="translate(171.799973 0)"/>
     </g>
    </g>
    <g id="patch_51">
     <path d="M 762.485386 52.29 
L 780.485386 52.29 
L 780.485386 45.99 
L 762.485386 45.99 
z
" style="fill: #ed7d31; stroke: #ed7d31; stroke-linejoin: miter"/>
    </g>
    <g id="text_72">
     <!-- B车间 -->
     <g transform="translate(787.685386 52.29) scale(0.09 -0.09)">
      <use xlink:href="#NotoSerifCJKjp-Regular-42"/>
      <use xlink:href="#NotoSerifCJKjp-Regular-8f66" transform="translate(66.999985 0)"/>
      <use xlink:href="#NotoSerifCJKjp-Regular-95f4" transform="translate(166.999969 0)"/>
     </g>
    </g>
    <g id="patch_52">
     <path d="M 762.485386 66.375 
L 780.485386 66.375 
L 780.485386 60.075 
L 762.485386 60.075 
z
" style="fill: #70ad47; stroke: #70ad47; stroke-linejoin: miter"/>
    </g>
    <g id="text_73">
     <!-- C车间 -->
     <g transform="translate(787.685386 66.375) scale(0.09 -0.09)">
      <use xlink:href="#NotoSerifCJKjp-Regular-43"/>
      <use xlink:href="#NotoSerifCJKjp-Regular-8f66" transform="translate(69.099991 0)"/>
      <use xlink:href="#NotoSerifCJKjp-Regular-95f4" transform="translate(169.099976 0)"/>
     </g>
    </g>
    <g id="patch_53">
     <path d="M 762.485386 80.46 
L 780.485386 80.46 
L 780.485386 74.16 
L 762.485386 74.16 
z
" style="fill: #ff0000; stroke: #ff0000; stroke-linejoin: miter"/>
    </g>
    <g id="text_74">
     <!-- D车间 -->
     <g transform="translate(787.685386 80.46) scale(0.09 -0.09)">
      <use xlink:href="#NotoSerifCJKjp-Regular-44"/>
      <use xlink:href="#NotoSerifCJKjp-Regular-8f66" transform="translate(76.999985 0)"/>
      <use xlink:href="#NotoSerifCJKjp-Regular-95f4" transform="translate(176.999969 0)"/>
     </g>
    </g>
    <g id="patch_54">
     <path d="M 762.485386 94.545 
L 780.485386 94.545 
L 780.485386 88.245 
L 762.485386 88.245 
z
" style="fill: #7030a0; stroke: #7030a0; stroke-linejoin: miter"/>
    </g>
    <g id="text_75">
     <!-- E车间 -->
     <g transform="translate(787.685386 94.545) scale(0.09 -0.09)">
      <use xlink:href="#NotoSerifCJKjp-Regular-45"/>
      <use xlink:href="#NotoSerifCJKjp-Regular-8f66" transform="translate(65.199997 0)"/>
      <use xlink:href="#NotoSerifCJKjp-Regular-95f4" transform="translate(165.199982 0)"/>
     </g>
    </g>
   </g>
  </g>
 </g>
 <defs>
  <clipPath id="p2718d3f6f1">
   <rect x="44.25375" y="22.86" width="776.461636" height="504.7975"/>
  </clipPath>
 </defs>
</svg>
