<?xml version="1.0" encoding="utf-8" standalone="no"?>
<!DOCTYPE svg PUBLIC "-//W3C//DTD SVG 1.1//EN"
  "http://www.w3.org/Graphics/SVG/1.1/DTD/svg11.dtd">
<svg xmlns:xlink="http://www.w3.org/1999/xlink" width="922.79494pt" height="438.3375pt" viewBox="0 0 922.79494 438.3375" xmlns="http://www.w3.org/2000/svg" version="1.1">
 <metadata>
  <rdf:RDF xmlns:dc="http://purl.org/dc/elements/1.1/" xmlns:cc="http://creativecommons.org/ns#" xmlns:rdf="http://www.w3.org/1999/02/22-rdf-syntax-ns#">
   <cc:Work>
    <dc:type rdf:resource="http://purl.org/dc/dcmitype/StillImage"/>
    <dc:date>2026-05-02T21:56:13.950822</dc:date>
    <dc:format>image/svg+xml</dc:format>
    <dc:creator>
     <cc:Agent>
      <dc:title>Matplotlib v3.10.8, https://matplotlib.org/</dc:title>
     </cc:Agent>
    </dc:creator>
   </cc:Work>
  </rdf:RDF>
 </metadata>
 <defs>
  <style type="text/css">*{stroke-linejoin: round; stroke-linecap: butt}</style>
 </defs>
 <g id="figure_1">
  <g id="patch_1">
   <path d="M 0 438.3375 
L 922.79494 438.3375 
L 922.79494 -0 
L 0 -0 
z
" style="fill: #ffffff"/>
  </g>
  <g id="axes_1">
   <g id="patch_2">
    <path d="M 44.95 215.12875 
L 891.010038 215.12875 
L 891.010038 60.28125 
L 44.95 60.28125 
z
" style="fill: #ffffff"/>
   </g>
   <g id="patch_3">
    <path d="M 74.861213 208.090227 
L 171.0044 208.090227 
L 171.0044 155.301307 
L 74.861213 155.301307 
z
" clip-path="url(#p5e45ad53cd)" style="fill: #ed7d31; stroke: #ffffff; stroke-width: 0.5; stroke-linejoin: miter"/>
   </g>
   <g id="patch_4">
    <path d="M 155.899237 120.108693 
L 194.356511 120.108693 
L 194.356511 67.319773 
L 155.899237 67.319773 
z
" clip-path="url(#p5e45ad53cd)" style="fill: #4472c4; stroke: #ffffff; stroke-width: 0.5; stroke-linejoin: miter"/>
   </g>
   <g id="patch_5">
    <path d="M 175.726098 208.090227 
L 239.821556 208.090227 
L 239.821556 155.301307 
L 175.726098 155.301307 
z
" clip-path="url(#p5e45ad53cd)" style="fill: #ed7d31; stroke: #ffffff; stroke-width: 0.5; stroke-linejoin: miter"/>
   </g>
   <g id="patch_6">
    <path d="M 198.095413 120.108693 
L 294.238599 120.108693 
L 294.238599 67.319773 
L 198.095413 67.319773 
z
" clip-path="url(#p5e45ad53cd)" style="fill: #4472c4; stroke: #ffffff; stroke-width: 0.5; stroke-linejoin: miter"/>
   </g>
   <g id="patch_7">
    <path d="M 241.210291 208.090227 
L 481.568256 208.090227 
L 481.568256 155.301307 
L 241.210291 155.301307 
z
" clip-path="url(#p5e45ad53cd)" style="fill: #ed7d31; stroke: #ffffff; stroke-width: 0.5; stroke-linejoin: miter"/>
   </g>
   <g id="patch_8">
    <path d="M 296.642179 120.108693 
L 392.785365 120.108693 
L 392.785365 67.319773 
L 296.642179 67.319773 
z
" clip-path="url(#p5e45ad53cd)" style="fill: #4472c4; stroke: #ffffff; stroke-width: 0.5; stroke-linejoin: miter"/>
   </g>
   <g id="patch_9">
    <path d="M 394.1741 120.108693 
L 471.088649 120.108693 
L 471.088649 67.319773 
L 394.1741 67.319773 
z
" clip-path="url(#p5e45ad53cd)" style="fill: #4472c4; stroke: #ffffff; stroke-width: 0.5; stroke-linejoin: miter"/>
   </g>
   <g id="patch_10">
    <path d="M 481.568256 120.108693 
L 577.711442 120.108693 
L 577.711442 67.319773 
L 481.568256 67.319773 
z
" clip-path="url(#p5e45ad53cd)" style="fill: #4472c4; stroke: #ffffff; stroke-width: 0.5; stroke-linejoin: miter"/>
   </g>
   <g id="patch_11">
    <path d="M 505.700196 208.090227 
L 569.795653 208.090227 
L 569.795653 155.301307 
L 505.700196 155.301307 
z
" clip-path="url(#p5e45ad53cd)" style="fill: #ed7d31; stroke: #ffffff; stroke-width: 0.5; stroke-linejoin: miter"/>
   </g>
   <g id="patch_12">
    <path d="M 577.711442 208.090227 
L 712.311903 208.090227 
L 712.311903 155.301307 
L 577.711442 155.301307 
z
" clip-path="url(#p5e45ad53cd)" style="fill: #ed7d31; stroke: #ffffff; stroke-width: 0.5; stroke-linejoin: miter"/>
   </g>
   <g id="patch_13">
    <path d="M 582.614745 120.108693 
L 659.529294 120.108693 
L 659.529294 67.319773 
L 582.614745 67.319773 
z
" clip-path="url(#p5e45ad53cd)" style="fill: #4472c4; stroke: #ffffff; stroke-width: 0.5; stroke-linejoin: miter"/>
   </g>
   <g id="patch_14">
    <path d="M 662.467002 120.108693 
L 731.690096 120.108693 
L 731.690096 67.319773 
L 662.467002 67.319773 
z
" clip-path="url(#p5e45ad53cd)" style="fill: #4472c4; stroke: #ffffff; stroke-width: 0.5; stroke-linejoin: miter"/>
   </g>
   <g id="patch_15">
    <path d="M 713.700638 208.090227 
L 777.796095 208.090227 
L 777.796095 155.301307 
L 713.700638 155.301307 
z
" clip-path="url(#p5e45ad53cd)" style="fill: #ed7d31; stroke: #ffffff; stroke-width: 0.5; stroke-linejoin: miter"/>
   </g>
   <g id="patch_16">
    <path d="M 777.796095 120.108693 
L 854.710644 120.108693 
L 854.710644 67.319773 
L 777.796095 67.319773 
z
" clip-path="url(#p5e45ad53cd)" style="fill: #4472c4; stroke: #ffffff; stroke-width: 0.5; stroke-linejoin: miter"/>
   </g>
   <g id="patch_17">
    <path d="M 780.733804 208.090227 
L 838.419715 208.090227 
L 838.419715 155.301307 
L 780.733804 155.301307 
z
" clip-path="url(#p5e45ad53cd)" style="fill: #ed7d31; stroke: #ffffff; stroke-width: 0.5; stroke-linejoin: miter"/>
   </g>
   <g id="matplotlib.axis_1">
    <g id="xtick_1">
     <g id="line2d_1">
      <defs>
       <path id="m692e67bfa3" d="M 0 0 
L 0 3.5 
" style="stroke: #000000; stroke-width: 0.8"/>
      </defs>
      <g>
       <use xlink:href="#m692e67bfa3" x="44.95" y="215.12875" style="stroke: #000000; stroke-width: 0.8"/>
      </g>
     </g>
    </g>
    <g id="xtick_2">
     <g id="line2d_2">
      <g>
       <use xlink:href="#m692e67bfa3" x="141.093186" y="215.12875" style="stroke: #000000; stroke-width: 0.8"/>
      </g>
     </g>
    </g>
    <g id="xtick_3">
     <g id="line2d_3">
      <g>
       <use xlink:href="#m692e67bfa3" x="237.236372" y="215.12875" style="stroke: #000000; stroke-width: 0.8"/>
      </g>
     </g>
    </g>
    <g id="xtick_4">
     <g id="line2d_4">
      <g>
       <use xlink:href="#m692e67bfa3" x="333.379558" y="215.12875" style="stroke: #000000; stroke-width: 0.8"/>
      </g>
     </g>
    </g>
    <g id="xtick_5">
     <g id="line2d_5">
      <g>
       <use xlink:href="#m692e67bfa3" x="429.522745" y="215.12875" style="stroke: #000000; stroke-width: 0.8"/>
      </g>
     </g>
    </g>
    <g id="xtick_6">
     <g id="line2d_6">
      <g>
       <use xlink:href="#m692e67bfa3" x="525.665931" y="215.12875" style="stroke: #000000; stroke-width: 0.8"/>
      </g>
     </g>
    </g>
    <g id="xtick_7">
     <g id="line2d_7">
      <g>
       <use xlink:href="#m692e67bfa3" x="621.809117" y="215.12875" style="stroke: #000000; stroke-width: 0.8"/>
      </g>
     </g>
    </g>
    <g id="xtick_8">
     <g id="line2d_8">
      <g>
       <use xlink:href="#m692e67bfa3" x="717.952303" y="215.12875" style="stroke: #000000; stroke-width: 0.8"/>
      </g>
     </g>
    </g>
    <g id="xtick_9">
     <g id="line2d_9">
      <g>
       <use xlink:href="#m692e67bfa3" x="814.095489" y="215.12875" style="stroke: #000000; stroke-width: 0.8"/>
      </g>
     </g>
    </g>
   </g>
   <g id="matplotlib.axis_2">
    <g id="ytick_1">
     <g id="line2d_10">
      <defs>
       <path id="md908308733" d="M 0 0 
L -3.5 0 
" style="stroke: #000000; stroke-width: 0.8"/>
      </defs>
      <g>
       <use xlink:href="#md908308733" x="44.95" y="181.695767" style="stroke: #000000; stroke-width: 0.8"/>
      </g>
     </g>
     <g id="text_1">
      <!-- HPM1-1 -->
      <g transform="translate(7.89625 184.915767) scale(0.08 -0.08)">
       <defs>
        <path id="NotoSerifCJKjp-Regular-48" d="M 3226 4467 
L 3878 4416 
C 3891 3789 3891 3155 3891 2522 
L 1574 2522 
C 1574 3162 1574 3795 1581 4416 
L 2240 4467 
L 2240 4659 
L 339 4659 
L 339 4467 
L 998 4416 
C 1005 3782 1005 3142 1005 2502 
L 1005 2157 
C 1005 1510 1005 877 998 250 
L 339 192 
L 339 0 
L 2240 0 
L 2240 192 
L 1581 250 
C 1574 870 1574 1517 1574 2310 
L 3891 2310 
C 3891 1517 3891 870 3878 250 
L 3226 192 
L 3226 0 
L 5126 0 
L 5126 192 
L 4467 250 
C 4454 877 4454 1517 4454 2157 
L 4454 2502 
C 4454 3149 4454 3789 4467 4416 
L 5126 4467 
L 5126 4659 
L 3226 4659 
L 3226 4467 
z
" transform="scale(0.015625)"/>
        <path id="NotoSerifCJKjp-Regular-50" d="M 339 4467 
L 998 4416 
C 1005 3782 1005 3142 1005 2502 
L 1005 2157 
C 1005 1510 1005 877 998 250 
L 339 192 
L 339 0 
L 2310 0 
L 2310 192 
L 1581 256 
L 1574 1907 
L 1958 1907 
C 3302 1907 3866 2515 3866 3302 
C 3866 4141 3322 4659 2150 4659 
L 339 4659 
L 339 4467 
z
M 1574 2118 
L 1574 2502 
C 1574 3162 1574 3808 1581 4448 
L 2106 4448 
C 2938 4448 3315 4051 3315 3309 
C 3315 2605 2918 2118 1946 2118 
L 1574 2118 
z
" transform="scale(0.015625)"/>
        <path id="NotoSerifCJKjp-Regular-4d" d="M 4659 0 
L 5914 0 
L 5914 192 
L 5242 250 
C 5235 877 5235 1510 5235 2157 
L 5235 2502 
C 5235 3142 5235 3789 5242 4416 
L 5901 4467 
L 5901 4659 
L 4646 4659 
L 3085 749 
L 1491 4659 
L 269 4659 
L 269 4467 
L 915 4410 
L 902 262 
L 262 192 
L 262 0 
L 1830 0 
L 1830 192 
L 1152 262 
L 1152 2477 
L 1120 4160 
L 2822 0 
L 3034 0 
L 4691 4160 
L 4672 2080 
C 4672 1510 4672 877 4666 250 
L 4013 192 
L 4013 0 
L 4659 0 
z
" transform="scale(0.015625)"/>
        <path id="NotoSerifCJKjp-Regular-31" d="M 480 0 
L 2733 -6 
L 2733 173 
L 1907 269 
L 1894 1472 
L 1894 3642 
L 1920 4653 
L 1824 4723 
L 448 4371 
L 448 4179 
L 1370 4333 
L 1370 1472 
L 1357 269 
L 480 179 
L 480 0 
z
" transform="scale(0.015625)"/>
        <path id="NotoSerifCJKjp-Regular-2d" d="M 275 1549 
L 1933 1549 
L 1933 1875 
L 275 1875 
L 275 1549 
z
" transform="scale(0.015625)"/>
       </defs>
       <use xlink:href="#NotoSerifCJKjp-Regular-48"/>
       <use xlink:href="#NotoSerifCJKjp-Regular-50" transform="translate(85.299988 0)"/>
       <use xlink:href="#NotoSerifCJKjp-Regular-4d" transform="translate(149.399979 0)"/>
       <use xlink:href="#NotoSerifCJKjp-Regular-31" transform="translate(246.899963 0)"/>
       <use xlink:href="#NotoSerifCJKjp-Regular-2d" transform="translate(293.999954 0)"/>
       <use xlink:href="#NotoSerifCJKjp-Regular-31" transform="translate(328.599945 0)"/>
      </g>
     </g>
    </g>
    <g id="ytick_2">
     <g id="line2d_11">
      <g>
       <use xlink:href="#md908308733" x="44.95" y="93.714233" style="stroke: #000000; stroke-width: 0.8"/>
      </g>
     </g>
     <g id="text_2">
      <!-- ASM1-1 -->
      <g transform="translate(9.5675 96.934233) scale(0.08 -0.08)">
       <defs>
        <path id="NotoSerifCJKjp-Regular-41" d="M 2125 4115 
L 2880 1798 
L 1382 1798 
L 2125 4115 
z
M 2675 0 
L 4550 0 
L 4550 192 
L 3962 243 
L 2458 4698 
L 2099 4698 
L 621 256 
L 77 192 
L 77 0 
L 1510 0 
L 1510 192 
L 890 256 
L 1318 1594 
L 2950 1594 
L 3386 250 
L 2675 192 
L 2675 0 
z
" transform="scale(0.015625)"/>
        <path id="NotoSerifCJKjp-Regular-53" d="M 1690 -102 
C 2669 -102 3315 397 3315 1197 
C 3315 1850 3014 2208 2042 2611 
L 1754 2726 
C 1248 2938 947 3206 947 3686 
C 947 4250 1376 4531 1978 4531 
C 2234 4531 2426 4486 2624 4371 
L 2797 3507 
L 3072 3507 
L 3098 4416 
C 2784 4640 2432 4768 1946 4768 
C 1120 4768 454 4352 454 3546 
C 454 2893 851 2490 1613 2170 
L 1888 2061 
C 2586 1773 2810 1523 2810 1056 
C 2810 442 2349 128 1651 128 
C 1318 128 1082 173 813 326 
L 640 1222 
L 378 1222 
L 339 269 
C 653 64 1158 -102 1690 -102 
z
" transform="scale(0.015625)"/>
       </defs>
       <use xlink:href="#NotoSerifCJKjp-Regular-41"/>
       <use xlink:href="#NotoSerifCJKjp-Regular-53" transform="translate(71.799988 0)"/>
       <use xlink:href="#NotoSerifCJKjp-Regular-4d" transform="translate(128.499985 0)"/>
       <use xlink:href="#NotoSerifCJKjp-Regular-31" transform="translate(225.999969 0)"/>
       <use xlink:href="#NotoSerifCJKjp-Regular-2d" transform="translate(273.09996 0)"/>
       <use xlink:href="#NotoSerifCJKjp-Regular-31" transform="translate(307.699951 0)"/>
      </g>
     </g>
    </g>
   </g>
   <g id="line2d_12">
    <path d="M 854.710644 215.12875 
L 854.710644 60.28125 
" clip-path="url(#p5e45ad53cd)" style="fill: none; stroke-dasharray: 4.44,1.92; stroke-dashoffset: 0; stroke: #dc143c; stroke-width: 1.2"/>
   </g>
   <g id="patch_18">
    <path d="M 44.95 215.12875 
L 44.95 60.28125 
" style="fill: none; stroke: #000000; stroke-width: 0.8; stroke-linejoin: miter; stroke-linecap: square"/>
   </g>
   <g id="patch_19">
    <path d="M 891.010038 215.12875 
L 891.010038 60.28125 
" style="fill: none; stroke: #000000; stroke-width: 0.8; stroke-linejoin: miter; stroke-linecap: square"/>
   </g>
   <g id="patch_20">
    <path d="M 44.95 215.12875 
L 891.010038 215.12875 
" style="fill: none; stroke: #000000; stroke-width: 0.8; stroke-linejoin: miter; stroke-linecap: square"/>
   </g>
   <g id="patch_21">
    <path d="M 44.95 60.28125 
L 891.010038 60.28125 
" style="fill: none; stroke: #000000; stroke-width: 0.8; stroke-linejoin: miter; stroke-linecap: square"/>
   </g>
   <g id="text_3">
    <g clip-path="url(#p5e45ad53cd)">
     <!-- A2 -->
     <g style="fill: #ffffff" transform="translate(118.467025 183.603267) scale(0.07 -0.07)">
      <defs>
       <path id="NotoSerifCJKjp-Regular-32" d="M 410 0 
L 3270 0 
L 3270 448 
L 762 448 
C 1152 877 1530 1293 1715 1485 
C 2688 2483 3078 2950 3078 3539 
C 3078 4294 2637 4755 1779 4755 
C 1126 4755 512 4422 410 3770 
C 448 3642 550 3571 672 3571 
C 819 3571 922 3654 986 3904 
L 1139 4461 
C 1306 4531 1466 4557 1626 4557 
C 2195 4557 2534 4192 2534 3552 
C 2534 2989 2253 2541 1574 1722 
C 1261 1350 832 845 410 346 
L 410 0 
z
" transform="scale(0.015625)"/>
      </defs>
      <use xlink:href="#NotoSerifCJKjp-Regular-41"/>
      <use xlink:href="#NotoSerifCJKjp-Regular-32" transform="translate(71.799988 0)"/>
     </g>
    </g>
   </g>
   <g id="text_4">
    <g clip-path="url(#p5e45ad53cd)">
     <!-- E3 -->
     <g style="fill: #ffffff" transform="translate(170.896155 95.621733) scale(0.07 -0.07)">
      <defs>
       <path id="NotoSerifCJKjp-Regular-45" d="M 3507 3507 
L 3782 3507 
L 3738 4659 
L 339 4659 
L 339 4467 
L 998 4416 
C 1005 3782 1005 3142 1005 2502 
L 1005 2157 
C 1005 1510 1005 877 998 250 
L 339 192 
L 339 0 
L 3853 0 
L 3891 1171 
L 3622 1171 
L 3437 218 
L 1581 218 
C 1574 851 1574 1504 1574 2259 
L 2707 2259 
L 2790 1600 
L 3014 1600 
L 3014 3142 
L 2790 3142 
L 2707 2470 
L 1574 2470 
C 1574 3168 1574 3814 1581 4435 
L 3328 4435 
L 3507 3507 
z
" transform="scale(0.015625)"/>
       <path id="NotoSerifCJKjp-Regular-33" d="M 1638 -96 
C 2534 -96 3155 416 3155 1203 
C 3155 1875 2778 2342 1952 2458 
C 2662 2618 3021 3085 3021 3629 
C 3021 4301 2547 4755 1728 4755 
C 1120 4755 550 4499 442 3866 
C 480 3757 576 3706 685 3706 
C 845 3706 941 3776 998 3994 
L 1146 4486 
C 1306 4538 1453 4557 1606 4557 
C 2163 4557 2477 4205 2477 3610 
C 2477 2925 2035 2554 1414 2554 
L 1158 2554 
L 1158 2330 
L 1446 2330 
C 2214 2330 2611 1926 2611 1222 
C 2611 544 2202 102 1491 102 
C 1312 102 1158 134 1018 186 
L 864 685 
C 806 922 717 1011 563 1011 
C 442 1011 346 941 301 813 
C 429 218 909 -96 1638 -96 
z
" transform="scale(0.015625)"/>
      </defs>
      <use xlink:href="#NotoSerifCJKjp-Regular-45"/>
      <use xlink:href="#NotoSerifCJKjp-Regular-33" transform="translate(65.199997 0)"/>
     </g>
    </g>
   </g>
   <g id="text_5">
    <g clip-path="url(#p5e45ad53cd)">
     <!-- C4_1 -->
     <g style="fill: #ffffff" transform="translate(199.794374 183.603267) scale(0.07 -0.07)">
      <defs>
       <path id="NotoSerifCJKjp-Regular-43" d="M 2701 -102 
C 3219 -102 3654 0 4083 256 
L 4096 1274 
L 3808 1274 
L 3616 314 
C 3347 173 3066 115 2758 115 
C 1728 115 966 896 966 2330 
C 966 3744 1728 4538 2784 4538 
C 3078 4538 3322 4486 3565 4358 
L 3757 3386 
L 4045 3386 
L 4026 4410 
C 3616 4653 3226 4768 2701 4768 
C 1363 4768 358 3814 358 2317 
C 358 813 1325 -102 2701 -102 
z
" transform="scale(0.015625)"/>
       <path id="NotoSerifCJKjp-Regular-34" d="M 2170 -115 
L 2650 -115 
L 2650 1229 
L 3418 1229 
L 3418 1600 
L 2650 1600 
L 2650 4730 
L 2291 4730 
L 218 1530 
L 218 1229 
L 2170 1229 
L 2170 -115 
z
M 493 1600 
L 1389 2989 
L 2170 4211 
L 2170 1600 
L 493 1600 
z
" transform="scale(0.015625)"/>
       <path id="NotoSerifCJKjp-Regular-5f" d="M -32 -448 
L 3642 -448 
L 3642 -141 
L -32 -141 
L -32 -448 
z
" transform="scale(0.015625)"/>
      </defs>
      <use xlink:href="#NotoSerifCJKjp-Regular-43"/>
      <use xlink:href="#NotoSerifCJKjp-Regular-34" transform="translate(69.099991 0)"/>
      <use xlink:href="#NotoSerifCJKjp-Regular-5f" transform="translate(124.599976 0)"/>
      <use xlink:href="#NotoSerifCJKjp-Regular-31" transform="translate(180.899963 0)"/>
     </g>
    </g>
   </g>
   <g id="text_6">
    <g clip-path="url(#p5e45ad53cd)">
     <!-- A3 -->
     <g style="fill: #ffffff" transform="translate(241.704506 95.621733) scale(0.07 -0.07)">
      <use xlink:href="#NotoSerifCJKjp-Regular-41"/>
      <use xlink:href="#NotoSerifCJKjp-Regular-33" transform="translate(71.799988 0)"/>
     </g>
    </g>
   </g>
   <g id="text_7">
    <g clip-path="url(#p5e45ad53cd)">
     <!-- D4 -->
     <g style="fill: #ffffff" transform="translate(356.751773 183.603267) scale(0.07 -0.07)">
      <defs>
       <path id="NotoSerifCJKjp-Regular-44" d="M 339 4467 
L 998 4416 
C 1005 3782 1005 3136 1005 2464 
L 1005 2291 
C 1005 1530 1005 877 998 250 
L 339 192 
L 339 0 
L 2163 0 
C 3654 0 4563 896 4563 2330 
C 4563 3814 3693 4659 2253 4659 
L 339 4659 
L 339 4467 
z
M 1581 211 
C 1574 858 1574 1517 1574 2291 
L 1574 2464 
C 1574 3155 1574 3808 1581 4448 
L 2176 4448 
C 3328 4448 3962 3712 3962 2330 
C 3962 1018 3328 211 2106 211 
L 1581 211 
z
" transform="scale(0.015625)"/>
      </defs>
      <use xlink:href="#NotoSerifCJKjp-Regular-44"/>
      <use xlink:href="#NotoSerifCJKjp-Regular-34" transform="translate(76.999985 0)"/>
     </g>
    </g>
   </g>
   <g id="text_8">
    <g clip-path="url(#p5e45ad53cd)">
     <!-- D4 -->
     <g style="fill: #ffffff" transform="translate(340.076272 95.621733) scale(0.07 -0.07)">
      <use xlink:href="#NotoSerifCJKjp-Regular-44"/>
      <use xlink:href="#NotoSerifCJKjp-Regular-34" transform="translate(76.999985 0)"/>
     </g>
    </g>
   </g>
   <g id="text_9">
    <g clip-path="url(#p5e45ad53cd)">
     <!-- C5_1 -->
     <g style="fill: #ffffff" transform="translate(424.641531 95.621733) scale(0.07 -0.07)">
      <defs>
       <path id="NotoSerifCJKjp-Regular-35" d="M 1574 -96 
C 2573 -96 3213 499 3213 1408 
C 3213 2317 2624 2803 1709 2803 
C 1421 2803 1158 2765 902 2656 
L 1005 4211 
L 3091 4211 
L 3091 4659 
L 800 4659 
L 653 2458 
L 813 2394 
C 1037 2496 1286 2547 1562 2547 
C 2221 2547 2650 2176 2650 1382 
C 2650 563 2234 102 1498 102 
C 1293 102 1146 134 998 198 
L 845 691 
C 794 922 710 1005 550 1005 
C 429 1005 326 941 282 819 
C 397 230 883 -96 1574 -96 
z
" transform="scale(0.015625)"/>
      </defs>
      <use xlink:href="#NotoSerifCJKjp-Regular-43"/>
      <use xlink:href="#NotoSerifCJKjp-Regular-35" transform="translate(69.099991 0)"/>
      <use xlink:href="#NotoSerifCJKjp-Regular-5f" transform="translate(124.899979 0)"/>
      <use xlink:href="#NotoSerifCJKjp-Regular-31" transform="translate(181.199966 0)"/>
     </g>
    </g>
   </g>
   <g id="text_10">
    <g clip-path="url(#p5e45ad53cd)">
     <!-- D5 -->
     <g style="fill: #ffffff" transform="translate(524.991959 95.621733) scale(0.07 -0.07)">
      <use xlink:href="#NotoSerifCJKjp-Regular-44"/>
      <use xlink:href="#NotoSerifCJKjp-Regular-35" transform="translate(76.999985 0)"/>
     </g>
    </g>
   </g>
   <g id="text_11">
    <g clip-path="url(#p5e45ad53cd)">
     <!-- C4_2 -->
     <g style="fill: #ffffff" transform="translate(529.463862 183.603267) scale(0.07 -0.07)">
      <use xlink:href="#NotoSerifCJKjp-Regular-43"/>
      <use xlink:href="#NotoSerifCJKjp-Regular-34" transform="translate(69.099991 0)"/>
      <use xlink:href="#NotoSerifCJKjp-Regular-5f" transform="translate(124.599976 0)"/>
      <use xlink:href="#NotoSerifCJKjp-Regular-32" transform="translate(180.899963 0)"/>
     </g>
    </g>
   </g>
   <g id="text_12">
    <g clip-path="url(#p5e45ad53cd)">
     <!-- D6 -->
     <g style="fill: #ffffff" transform="translate(640.363782 183.603267) scale(0.07 -0.07)">
      <defs>
       <path id="NotoSerifCJKjp-Regular-36" d="M 1850 -96 
C 2656 -96 3258 538 3258 1414 
C 3258 2253 2803 2816 2029 2816 
C 1606 2816 1248 2650 941 2323 
C 1107 3450 1850 4339 3136 4614 
L 3104 4755 
C 1414 4557 358 3258 358 1773 
C 358 634 922 -96 1850 -96 
z
M 922 2118 
C 1222 2432 1523 2554 1856 2554 
C 2394 2554 2726 2144 2726 1376 
C 2726 557 2342 102 1856 102 
C 1261 102 909 736 909 1830 
L 922 2118 
z
" transform="scale(0.015625)"/>
      </defs>
      <use xlink:href="#NotoSerifCJKjp-Regular-44"/>
      <use xlink:href="#NotoSerifCJKjp-Regular-36" transform="translate(76.999985 0)"/>
     </g>
    </g>
   </g>
   <g id="text_13">
    <g clip-path="url(#p5e45ad53cd)">
     <!-- C5_2 -->
     <g style="fill: #ffffff" transform="translate(612.777566 95.621733) scale(0.07 -0.07)">
      <use xlink:href="#NotoSerifCJKjp-Regular-43"/>
      <use xlink:href="#NotoSerifCJKjp-Regular-35" transform="translate(69.099991 0)"/>
      <use xlink:href="#NotoSerifCJKjp-Regular-5f" transform="translate(124.899979 0)"/>
      <use xlink:href="#NotoSerifCJKjp-Regular-32" transform="translate(181.199966 0)"/>
     </g>
    </g>
   </g>
   <g id="text_14">
    <g clip-path="url(#p5e45ad53cd)">
     <!-- B4 -->
     <g style="fill: #ffffff" transform="translate(692.791049 95.621733) scale(0.07 -0.07)">
      <defs>
       <path id="NotoSerifCJKjp-Regular-42" d="M 339 4467 
L 998 4416 
C 1005 3782 1005 3149 1005 2515 
L 1005 2176 
C 1005 1523 1005 883 998 250 
L 339 192 
L 339 0 
L 2195 0 
C 3507 0 4006 602 4006 1267 
C 4006 1882 3590 2349 2592 2451 
C 3424 2611 3757 3053 3757 3552 
C 3757 4211 3277 4659 2227 4659 
L 339 4659 
L 339 4467 
z
M 1568 2330 
L 2029 2330 
C 3002 2330 3430 1958 3430 1261 
C 3430 582 2957 211 2150 211 
L 1581 211 
C 1568 858 1568 1523 1568 2330 
z
M 1581 4448 
L 2067 4448 
C 2893 4448 3206 4115 3206 3546 
C 3206 2899 2790 2528 1965 2528 
L 1568 2528 
C 1568 3194 1568 3827 1581 4448 
z
" transform="scale(0.015625)"/>
      </defs>
      <use xlink:href="#NotoSerifCJKjp-Regular-42"/>
      <use xlink:href="#NotoSerifCJKjp-Regular-34" transform="translate(66.999985 0)"/>
     </g>
    </g>
   </g>
   <g id="text_15">
    <g clip-path="url(#p5e45ad53cd)">
     <!-- C4_3 -->
     <g style="fill: #ffffff" transform="translate(737.467585 183.603267) scale(0.07 -0.07)">
      <use xlink:href="#NotoSerifCJKjp-Regular-43"/>
      <use xlink:href="#NotoSerifCJKjp-Regular-34" transform="translate(69.099991 0)"/>
      <use xlink:href="#NotoSerifCJKjp-Regular-5f" transform="translate(124.599976 0)"/>
      <use xlink:href="#NotoSerifCJKjp-Regular-33" transform="translate(180.899963 0)"/>
     </g>
    </g>
   </g>
   <g id="text_16">
    <g clip-path="url(#p5e45ad53cd)">
     <!-- C5_3 -->
     <g style="fill: #ffffff" transform="translate(807.962198 95.621733) scale(0.07 -0.07)">
      <use xlink:href="#NotoSerifCJKjp-Regular-43"/>
      <use xlink:href="#NotoSerifCJKjp-Regular-35" transform="translate(69.099991 0)"/>
      <use xlink:href="#NotoSerifCJKjp-Regular-5f" transform="translate(124.899979 0)"/>
      <use xlink:href="#NotoSerifCJKjp-Regular-33" transform="translate(181.199966 0)"/>
     </g>
    </g>
   </g>
   <g id="text_17">
    <g clip-path="url(#p5e45ad53cd)">
     <!-- B4 -->
     <g style="fill: #ffffff" transform="translate(805.28926 183.603267) scale(0.07 -0.07)">
      <use xlink:href="#NotoSerifCJKjp-Regular-42"/>
      <use xlink:href="#NotoSerifCJKjp-Regular-34" transform="translate(66.999985 0)"/>
     </g>
    </g>
   </g>
   <g id="text_18">
    <!-- $C_{max}$ = 151604 s -->
    <g style="fill: #dc143c" transform="translate(857.59494 64.961619) scale(0.08 -0.08)">
     <defs>
      <path id="DejaVuSans-Oblique-43" d="M 4447 4306 
L 4319 3641 
Q 4019 3944 3683 4091 
Q 3347 4238 2956 4238 
Q 2422 4238 2017 3981 
Q 1613 3725 1319 3200 
Q 1131 2863 1032 2486 
Q 934 2109 934 1728 
Q 934 1091 1264 756 
Q 1594 422 2222 422 
Q 2656 422 3056 561 
Q 3456 700 3834 978 
L 3688 231 
Q 3316 72 2936 -9 
Q 2556 -91 2175 -91 
Q 1278 -91 773 396 
Q 269 884 269 1753 
Q 269 2309 461 2846 
Q 653 3384 1013 3828 
Q 1394 4300 1883 4525 
Q 2372 4750 3022 4750 
Q 3422 4750 3780 4639 
Q 4138 4528 4447 4306 
z
" transform="scale(0.015625)"/>
      <path id="DejaVuSans-Oblique-6d" d="M 5747 2113 
L 5338 0 
L 4763 0 
L 5166 2094 
Q 5191 2228 5203 2325 
Q 5216 2422 5216 2491 
Q 5216 2772 5059 2928 
Q 4903 3084 4622 3084 
Q 4203 3084 3875 2770 
Q 3547 2456 3450 1953 
L 3066 0 
L 2491 0 
L 2900 2094 
Q 2925 2209 2937 2307 
Q 2950 2406 2950 2484 
Q 2950 2769 2794 2926 
Q 2638 3084 2363 3084 
Q 1938 3084 1609 2770 
Q 1281 2456 1184 1953 
L 800 0 
L 225 0 
L 909 3500 
L 1484 3500 
L 1375 2956 
Q 1609 3263 1923 3423 
Q 2238 3584 2597 3584 
Q 2978 3584 3223 3384 
Q 3469 3184 3519 2828 
Q 3781 3197 4126 3390 
Q 4472 3584 4856 3584 
Q 5306 3584 5551 3325 
Q 5797 3066 5797 2591 
Q 5797 2488 5784 2364 
Q 5772 2241 5747 2113 
z
" transform="scale(0.015625)"/>
      <path id="DejaVuSans-Oblique-61" d="M 3438 1997 
L 3047 0 
L 2472 0 
L 2578 531 
Q 2325 219 2001 64 
Q 1678 -91 1281 -91 
Q 834 -91 548 182 
Q 263 456 263 884 
Q 263 1497 752 1853 
Q 1241 2209 2100 2209 
L 2900 2209 
L 2931 2363 
Q 2938 2388 2941 2417 
Q 2944 2447 2944 2509 
Q 2944 2788 2717 2942 
Q 2491 3097 2081 3097 
Q 1800 3097 1504 3025 
Q 1209 2953 897 2809 
L 997 3341 
Q 1322 3463 1633 3523 
Q 1944 3584 2234 3584 
Q 2853 3584 3176 3315 
Q 3500 3047 3500 2534 
Q 3500 2431 3484 2292 
Q 3469 2153 3438 1997 
z
M 2816 1759 
L 2241 1759 
Q 1534 1759 1195 1570 
Q 856 1381 856 984 
Q 856 709 1029 553 
Q 1203 397 1509 397 
Q 1978 397 2328 733 
Q 2678 1069 2791 1631 
L 2816 1759 
z
" transform="scale(0.015625)"/>
      <path id="DejaVuSans-Oblique-78" d="M 3841 3500 
L 2234 1784 
L 3219 0 
L 2559 0 
L 1819 1388 
L 531 0 
L -166 0 
L 1556 1844 
L 641 3500 
L 1300 3500 
L 1972 2234 
L 3144 3500 
L 3841 3500 
z
" transform="scale(0.015625)"/>
      <path id="NotoSerifCJKjp-Regular-20" transform="scale(0.015625)"/>
      <path id="NotoSerifCJKjp-Regular-3d" d="M 3475 1466 
L 3475 1734 
L 243 1734 
L 243 1466 
L 3475 1466 
z
M 3475 2874 
L 3475 3142 
L 243 3142 
L 243 2874 
L 3475 2874 
z
" transform="scale(0.015625)"/>
      <path id="NotoSerifCJKjp-Regular-30" d="M 1779 -96 
C 2547 -96 3258 602 3258 2342 
C 3258 4058 2547 4755 1779 4755 
C 1011 4755 301 4058 301 2342 
C 301 602 1011 -96 1779 -96 
z
M 1779 102 
C 1299 102 832 640 832 2342 
C 832 4019 1299 4550 1779 4550 
C 2253 4550 2726 4019 2726 2342 
C 2726 640 2253 102 1779 102 
z
" transform="scale(0.015625)"/>
      <path id="NotoSerifCJKjp-Regular-73" d="M 1414 -96 
C 2285 -96 2733 339 2733 896 
C 2733 1344 2483 1632 1837 1856 
L 1510 1971 
C 1043 2131 858 2304 858 2611 
C 858 2950 1107 3187 1594 3187 
C 1798 3187 1978 3142 2170 3034 
L 2298 2426 
L 2554 2426 
L 2573 3110 
C 2253 3302 1978 3398 1594 3398 
C 826 3398 397 2982 397 2445 
C 397 1965 723 1690 1242 1504 
L 1574 1382 
C 2093 1216 2253 1037 2253 723 
C 2253 358 1965 109 1402 109 
C 1133 109 934 154 755 237 
L 627 922 
L 346 922 
L 346 160 
C 691 -6 1005 -96 1414 -96 
z
" transform="scale(0.015625)"/>
     </defs>
     <use xlink:href="#DejaVuSans-Oblique-43" transform="translate(0 0.703125)"/>
     <use xlink:href="#DejaVuSans-Oblique-6d" transform="translate(69.824219 -15.703125) scale(0.7)"/>
     <use xlink:href="#DejaVuSans-Oblique-61" transform="translate(138.012695 -15.703125) scale(0.7)"/>
     <use xlink:href="#DejaVuSans-Oblique-78" transform="translate(180.908203 -15.703125) scale(0.7)"/>
     <use xlink:href="#NotoSerifCJKjp-Regular-20" transform="translate(225.068359 0.703125)"/>
     <use xlink:href="#NotoSerifCJKjp-Regular-3d" transform="translate(250.66835 0.703125)"/>
     <use xlink:href="#NotoSerifCJKjp-Regular-20" transform="translate(308.668335 0.703125)"/>
     <use xlink:href="#NotoSerifCJKjp-Regular-31" transform="translate(334.268326 0.703125)"/>
     <use xlink:href="#NotoSerifCJKjp-Regular-35" transform="translate(381.368317 0.703125)"/>
     <use xlink:href="#NotoSerifCJKjp-Regular-31" transform="translate(437.168304 0.703125)"/>
     <use xlink:href="#NotoSerifCJKjp-Regular-36" transform="translate(484.268295 0.703125)"/>
     <use xlink:href="#NotoSerifCJKjp-Regular-30" transform="translate(540.068283 0.703125)"/>
     <use xlink:href="#NotoSerifCJKjp-Regular-34" transform="translate(595.76828 0.703125)"/>
     <use xlink:href="#NotoSerifCJKjp-Regular-20" transform="translate(651.268265 0.703125)"/>
     <use xlink:href="#NotoSerifCJKjp-Regular-73" transform="translate(676.868256 0.703125)"/>
    </g>
   </g>
   <g id="text_19">
    <!-- P2  单班组 — 关键设备（ASM / HPM） -->
    <g transform="translate(44.95 54.28125) scale(0.1 -0.1)">
     <defs>
      <path id="NotoSerifCJKjp-Regular-5355" d="M 1632 5293 
L 1562 5242 
C 1856 4966 2202 4499 2278 4122 
C 2752 3795 3085 4800 1632 5293 
z
M 4826 2982 
L 3405 2982 
L 3405 3808 
L 4826 3808 
L 4826 2982 
z
M 4826 2797 
L 4826 1933 
L 3405 1933 
L 3405 2797 
L 4826 2797 
z
M 1536 2982 
L 1536 3808 
L 2982 3808 
L 2982 2982 
L 1536 2982 
z
M 1536 2797 
L 2982 2797 
L 2982 1933 
L 1536 1933 
L 1536 2797 
z
M 5555 1382 
L 5222 966 
L 3405 966 
L 3405 1747 
L 4826 1747 
L 4826 1485 
L 4890 1485 
C 5037 1485 5242 1587 5248 1632 
L 5248 3738 
C 5376 3763 5472 3808 5517 3859 
L 4998 4256 
L 4762 4000 
L 3725 4000 
C 4058 4250 4416 4614 4710 4973 
C 4851 4947 4934 4998 4966 5062 
L 4346 5363 
C 4102 4851 3782 4320 3533 4000 
L 1574 4000 
L 1120 4211 
L 1120 1427 
L 1190 1427 
C 1363 1427 1536 1523 1536 1568 
L 1536 1747 
L 2982 1747 
L 2982 966 
L 224 966 
L 282 781 
L 2982 781 
L 2982 -512 
L 3046 -512 
C 3270 -512 3405 -410 3405 -378 
L 3405 781 
L 6003 781 
C 6086 781 6157 813 6176 883 
C 5939 1094 5555 1382 5555 1382 
z
" transform="scale(0.015625)"/>
      <path id="NotoSerifCJKjp-Regular-73ed" d="M 3194 5299 
L 3194 2669 
C 3194 1395 2931 339 1888 -410 
L 1971 -493 
C 3258 218 3584 1350 3590 2669 
L 3590 5056 
C 3750 5082 3802 5146 3814 5235 
L 3194 5299 
z
M 3162 -38 
L 3213 -224 
L 6048 -224 
C 6138 -224 6189 -192 6208 -122 
C 6022 83 5690 384 5690 384 
L 5395 -38 
L 4902 -38 
L 4902 2330 
L 5773 2330 
C 5856 2330 5914 2355 5933 2426 
C 5766 2618 5472 2880 5472 2880 
L 5216 2509 
L 4902 2509 
L 4902 4544 
L 5875 4544 
C 5965 4544 6022 4576 6042 4646 
C 5830 4845 5498 5114 5498 5114 
L 5197 4730 
L 3654 4730 
L 3706 4544 
L 4493 4544 
L 4493 2509 
L 3731 2509 
L 3782 2330 
L 4493 2330 
L 4493 -38 
L 3162 -38 
z
M 205 582 
L 480 58 
C 538 83 582 154 602 224 
C 1299 653 1830 1024 2214 1274 
L 2176 1363 
L 1408 1043 
L 1408 2714 
L 2029 2714 
C 2112 2714 2176 2746 2189 2816 
C 2029 2989 1760 3226 1760 3226 
L 1523 2899 
L 1408 2899 
L 1408 4518 
L 2112 4518 
C 2189 4518 2253 4544 2266 4614 
L 2266 1389 
L 2336 1389 
C 2477 1389 2637 1472 2637 1523 
L 2637 4397 
C 2797 4416 2842 4474 2861 4557 
L 2266 4627 
C 2074 4819 1760 5075 1760 5075 
L 1478 4704 
L 262 4704 
L 314 4518 
L 998 4518 
L 998 2899 
L 326 2899 
L 378 2714 
L 998 2714 
L 998 877 
C 659 742 371 634 205 582 
z
" transform="scale(0.015625)"/>
      <path id="NotoSerifCJKjp-Regular-7ec4" d="M 282 442 
L 563 -128 
C 627 -102 678 -51 698 32 
C 1536 403 2163 723 2611 973 
L 2586 1062 
C 1658 787 710 531 282 442 
z
M 2074 5043 
L 1459 5325 
C 1280 4845 787 3942 397 3571 
C 352 3539 230 3514 230 3514 
L 461 2938 
C 499 2950 538 2982 576 3027 
C 934 3123 1286 3226 1562 3309 
C 1210 2784 781 2240 416 1933 
C 365 1894 230 1862 230 1862 
L 461 1286 
C 512 1306 557 1338 595 1402 
C 1389 1638 2099 1901 2490 2035 
L 2470 2138 
C 1798 2029 1133 1933 685 1875 
C 1344 2438 2067 3258 2445 3821 
C 2566 3789 2656 3834 2688 3885 
L 2112 4250 
C 2016 4045 1869 3789 1696 3520 
C 1286 3494 890 3482 602 3475 
C 1050 3891 1562 4499 1837 4947 
C 1965 4928 2042 4979 2074 5043 
z
M 2848 5101 
L 2848 -19 
L 1997 -19 
L 2048 -211 
L 6067 -211 
C 6157 -211 6214 -179 6234 -109 
C 6061 83 5773 333 5773 333 
L 5530 -19 
L 5427 -19 
L 5427 4634 
C 5587 4653 5670 4678 5715 4749 
L 5152 5184 
L 4915 4883 
L 3347 4883 
L 2848 5101 
z
M 3270 -19 
L 3270 1459 
L 4992 1459 
L 4992 -19 
L 3270 -19 
z
M 3270 1645 
L 3270 3130 
L 4992 3130 
L 4992 1645 
L 3270 1645 
z
M 3270 3322 
L 3270 4698 
L 4992 4698 
L 4992 3322 
L 3270 3322 
z
" transform="scale(0.015625)"/>
      <path id="NotoSerifCJKjp-Regular-2014" d="M 275 1549 
L 5414 1549 
L 5414 1875 
L 275 1875 
L 275 1549 
z
" transform="scale(0.015625)"/>
      <path id="NotoSerifCJKjp-Regular-5173" d="M 1824 5318 
L 1747 5280 
C 1997 4966 2278 4474 2304 4070 
C 2758 3699 3174 4704 1824 5318 
z
M 4128 5357 
C 3981 4909 3731 4294 3494 3853 
L 1242 3853 
L 1293 3667 
L 3002 3667 
L 3002 2707 
C 3002 2547 2995 2394 2976 2234 
L 986 2234 
L 1037 2042 
L 2950 2042 
C 2816 1158 2342 314 928 -410 
L 992 -506 
C 2720 128 3245 1094 3386 2042 
L 3430 2042 
C 3731 794 4294 -64 5293 -525 
C 5350 -307 5491 -166 5677 -128 
L 5683 -58 
C 4672 250 3930 1030 3571 2042 
L 5491 2042 
C 5581 2042 5645 2074 5664 2144 
C 5434 2349 5082 2624 5082 2624 
L 4762 2234 
L 3405 2234 
C 3424 2394 3430 2554 3430 2714 
L 3430 3667 
L 5242 3667 
C 5331 3667 5389 3699 5408 3770 
C 5190 3968 4838 4237 4838 4237 
L 4525 3853 
L 3654 3853 
C 4013 4218 4378 4678 4589 5037 
C 4736 5030 4806 5088 4832 5165 
L 4128 5357 
z
" transform="scale(0.015625)"/>
      <path id="NotoSerifCJKjp-Regular-952e" d="M 2304 2093 
L 2208 2048 
C 2323 1574 2458 1184 2624 870 
C 2413 378 2086 -58 1581 -403 
L 1638 -499 
C 2182 -211 2547 154 2797 576 
C 3309 -154 4051 -371 5152 -371 
C 5357 -371 5805 -371 5990 -371 
C 6003 -205 6086 -70 6234 -45 
L 6234 45 
C 5952 38 5440 38 5197 38 
C 4154 38 3430 205 2925 806 
C 3181 1338 3290 1939 3360 2560 
C 3488 2573 3552 2592 3597 2643 
L 3168 3034 
L 2938 2790 
L 2637 2790 
C 2829 3283 3085 4006 3226 4454 
C 3354 4461 3469 4493 3526 4544 
L 3059 4960 
L 2835 4730 
L 2150 4730 
L 2208 4538 
L 2861 4538 
C 2714 4051 2464 3309 2278 2854 
C 2202 2829 2118 2790 2061 2752 
L 2438 2451 
L 2605 2605 
L 2982 2605 
C 2944 2074 2867 1562 2714 1101 
C 2554 1370 2419 1696 2304 2093 
z
M 4883 5293 
L 4282 5363 
L 4282 4742 
L 3584 4742 
L 3642 4550 
L 4282 4550 
L 4282 3878 
L 3258 3878 
L 3309 3693 
L 4282 3693 
L 4282 2995 
L 3622 2995 
L 3680 2803 
L 4282 2803 
L 4282 2112 
L 3571 2112 
L 3622 1926 
L 4282 1926 
L 4282 1286 
L 3360 1286 
L 3411 1094 
L 4282 1094 
L 4282 218 
L 4358 218 
C 4499 218 4659 307 4659 365 
L 4659 1094 
L 5792 1094 
C 5882 1094 5939 1126 5958 1197 
C 5779 1382 5491 1632 5491 1632 
L 5229 1286 
L 4659 1286 
L 4659 1926 
L 5619 1926 
C 5709 1926 5766 1958 5786 2029 
C 5613 2208 5338 2445 5338 2445 
L 5094 2112 
L 4659 2112 
L 4659 2803 
L 5197 2803 
L 5197 2618 
L 5248 2618 
C 5370 2618 5549 2714 5555 2752 
L 5555 3693 
L 6029 3693 
C 6112 3693 6170 3725 6189 3795 
C 6054 3962 5830 4198 5830 4198 
L 5632 3878 
L 5555 3878 
L 5555 4518 
C 5658 4525 5741 4570 5773 4614 
L 5344 4954 
L 5146 4742 
L 4659 4742 
L 4659 5120 
C 4813 5146 4864 5203 4883 5293 
z
M 5197 3878 
L 4659 3878 
L 4659 4550 
L 5197 4550 
L 5197 3878 
z
M 5197 3693 
L 5197 2995 
L 4659 2995 
L 4659 3693 
L 5197 3693 
z
M 1318 5101 
C 1472 5114 1530 5165 1542 5235 
L 915 5414 
C 806 4768 486 3629 205 3046 
L 301 2995 
C 390 3117 474 3245 563 3392 
L 608 3219 
L 1005 3219 
L 1005 2189 
L 250 2189 
L 301 2003 
L 1005 2003 
L 1005 422 
C 1005 320 966 275 794 134 
L 1190 -256 
C 1229 -224 1261 -160 1280 -77 
C 1664 333 2029 749 2195 941 
L 2138 1018 
L 1376 480 
L 1376 2003 
L 2048 2003 
C 2138 2003 2195 2035 2208 2106 
C 2048 2272 1786 2490 1786 2490 
L 1542 2189 
L 1376 2189 
L 1376 3219 
L 1984 3219 
C 2067 3219 2125 3251 2138 3322 
C 1978 3494 1690 3718 1690 3718 
L 1453 3405 
L 570 3405 
C 742 3699 909 4038 1043 4365 
L 2061 4365 
C 2150 4365 2214 4397 2227 4467 
C 2042 4646 1760 4864 1760 4864 
L 1510 4557 
L 1126 4557 
C 1203 4749 1267 4934 1318 5101 
z
" transform="scale(0.015625)"/>
      <path id="NotoSerifCJKjp-Regular-8bbe" d="M 710 5331 
L 640 5280 
C 954 4979 1370 4486 1504 4109 
C 1971 3834 2227 4781 710 5331 
z
M 1491 3398 
C 1613 3424 1702 3469 1728 3514 
L 1312 3866 
L 1101 3642 
L 262 3642 
L 320 3450 
L 1094 3450 
L 1094 640 
C 1094 525 1062 480 858 378 
L 1146 -141 
C 1197 -115 1267 -45 1306 64 
C 1837 544 2310 1018 2560 1267 
L 2515 1350 
C 2150 1107 1786 870 1491 678 
L 1491 3398 
z
M 2893 5011 
L 2893 4410 
C 2893 3814 2752 3155 1926 2630 
L 1990 2547 
C 3168 3034 3296 3846 3296 4410 
L 3296 4755 
L 4595 4755 
L 4595 3258 
C 4595 2982 4653 2886 5018 2886 
L 5376 2886 
C 6003 2886 6163 2970 6163 3136 
C 6163 3226 6112 3264 5978 3302 
L 5958 3309 
L 5894 3309 
C 5862 3296 5818 3290 5779 3283 
C 5760 3283 5722 3283 5696 3283 
C 5645 3277 5530 3277 5421 3277 
L 5133 3277 
C 5011 3277 4998 3302 4998 3379 
L 4998 4698 
C 5114 4717 5197 4742 5235 4787 
L 4774 5190 
L 4538 4947 
L 3373 4947 
L 2893 5158 
L 2893 5011 
z
M 3686 653 
C 3136 211 2445 -141 1613 -390 
L 1664 -493 
C 2586 -294 3328 26 3917 442 
C 4422 19 5062 -275 5837 -474 
C 5894 -262 6035 -134 6240 -109 
L 6246 -32 
C 5466 102 4787 333 4230 678 
C 4755 1126 5146 1658 5427 2278 
C 5581 2291 5651 2304 5702 2362 
L 5242 2797 
L 4954 2528 
L 2285 2528 
L 2342 2342 
L 2726 2342 
C 2931 1638 3251 1088 3686 653 
z
M 3942 877 
C 3462 1248 3098 1728 2861 2342 
L 4954 2342 
C 4730 1786 4390 1299 3942 877 
z
" transform="scale(0.015625)"/>
      <path id="NotoSerifCJKjp-Regular-5907" d="M 2861 5171 
L 2189 5370 
C 1830 4589 1094 3610 416 3059 
L 493 2982 
C 979 3277 1472 3706 1888 4160 
C 2170 3802 2534 3494 2957 3232 
C 2163 2784 1210 2438 218 2202 
L 262 2086 
C 621 2144 960 2208 1293 2291 
L 1293 2144 
L 1293 -499 
L 1363 -499 
C 1542 -499 1715 -403 1715 -358 
L 1715 -109 
L 4717 -109 
L 4717 -461 
L 4781 -461 
C 4922 -461 5133 -365 5139 -320 
L 5139 1888 
C 5261 1907 5357 1958 5395 2010 
L 4890 2400 
L 4659 2144 
L 1747 2144 
L 1389 2317 
C 2093 2496 2739 2733 3309 3027 
C 4058 2630 4947 2355 5862 2189 
C 5907 2406 6048 2541 6240 2573 
L 6253 2650 
C 5382 2752 4486 2950 3699 3245 
C 4243 3565 4704 3942 5075 4371 
C 5248 4378 5325 4384 5376 4442 
L 4902 4909 
L 4563 4634 
L 2285 4634 
C 2406 4794 2522 4947 2618 5101 
C 2784 5082 2835 5114 2861 5171 
z
M 4717 1952 
L 4717 1120 
L 3430 1120 
L 3430 1952 
L 4717 1952 
z
M 4717 77 
L 3430 77 
L 3430 928 
L 4717 928 
L 4717 77 
z
M 1715 77 
L 1715 928 
L 3040 928 
L 3040 77 
L 1715 77 
z
M 3040 1952 
L 3040 1120 
L 1715 1120 
L 1715 1952 
L 3040 1952 
z
M 1984 4275 
L 2131 4442 
L 4493 4442 
C 4179 4064 3763 3725 3277 3418 
C 2758 3654 2310 3936 1984 4275 
z
" transform="scale(0.015625)"/>
      <path id="NotoSerifCJKjp-Regular-ff08" d="M 5997 5299 
L 5888 5427 
C 5024 4877 4166 3974 4166 2432 
C 4166 890 5024 -13 5888 -563 
L 5997 -435 
C 5254 166 4589 1088 4589 2432 
C 4589 3776 5254 4698 5997 5299 
z
" transform="scale(0.015625)"/>
      <path id="NotoSerifCJKjp-Regular-2f" d="M 51 -1114 
L 346 -1114 
L 2202 4941 
L 1920 4941 
L 51 -1114 
z
" transform="scale(0.015625)"/>
      <path id="NotoSerifCJKjp-Regular-ff09" d="M 512 5427 
L 403 5299 
C 1146 4698 1811 3776 1811 2432 
C 1811 1088 1146 166 403 -435 
L 512 -563 
C 1376 -13 2234 890 2234 2432 
C 2234 3974 1376 4877 512 5427 
z
" transform="scale(0.015625)"/>
     </defs>
     <use xlink:href="#NotoSerifCJKjp-Regular-50"/>
     <use xlink:href="#NotoSerifCJKjp-Regular-32" transform="translate(64.099991 0)"/>
     <use xlink:href="#NotoSerifCJKjp-Regular-20" transform="translate(119.899979 0)"/>
     <use xlink:href="#NotoSerifCJKjp-Regular-20" transform="translate(145.499969 0)"/>
     <use xlink:href="#NotoSerifCJKjp-Regular-5355" transform="translate(171.09996 0)"/>
     <use xlink:href="#NotoSerifCJKjp-Regular-73ed" transform="translate(271.099945 0)"/>
     <use xlink:href="#NotoSerifCJKjp-Regular-7ec4" transform="translate(371.09993 0)"/>
     <use xlink:href="#NotoSerifCJKjp-Regular-20" transform="translate(471.099915 0)"/>
     <use xlink:href="#NotoSerifCJKjp-Regular-2014" transform="translate(496.699905 0)"/>
     <use xlink:href="#NotoSerifCJKjp-Regular-20" transform="translate(585.69989 0)"/>
     <use xlink:href="#NotoSerifCJKjp-Regular-5173" transform="translate(611.299881 0)"/>
     <use xlink:href="#NotoSerifCJKjp-Regular-952e" transform="translate(711.299866 0)"/>
     <use xlink:href="#NotoSerifCJKjp-Regular-8bbe" transform="translate(811.29985 0)"/>
     <use xlink:href="#NotoSerifCJKjp-Regular-5907" transform="translate(911.299835 0)"/>
     <use xlink:href="#NotoSerifCJKjp-Regular-ff08" transform="translate(1011.29982 0)"/>
     <use xlink:href="#NotoSerifCJKjp-Regular-41" transform="translate(1111.299805 0)"/>
     <use xlink:href="#NotoSerifCJKjp-Regular-53" transform="translate(1183.099792 0)"/>
     <use xlink:href="#NotoSerifCJKjp-Regular-4d" transform="translate(1239.799789 0)"/>
     <use xlink:href="#NotoSerifCJKjp-Regular-20" transform="translate(1337.299774 0)"/>
     <use xlink:href="#NotoSerifCJKjp-Regular-2f" transform="translate(1362.899765 0)"/>
     <use xlink:href="#NotoSerifCJKjp-Regular-20" transform="translate(1398.099762 0)"/>
     <use xlink:href="#NotoSerifCJKjp-Regular-48" transform="translate(1423.699753 0)"/>
     <use xlink:href="#NotoSerifCJKjp-Regular-50" transform="translate(1508.999741 0)"/>
     <use xlink:href="#NotoSerifCJKjp-Regular-4d" transform="translate(1573.099731 0)"/>
     <use xlink:href="#NotoSerifCJKjp-Regular-ff09" transform="translate(1670.599716 0)"/>
    </g>
   </g>
   <g id="legend_1">
    <g id="patch_22">
     <path d="M 815.689882 95.65125 
L 884.710038 95.65125 
Q 886.510038 95.65125 886.510038 93.85125 
L 886.510038 66.58125 
Q 886.510038 64.78125 884.710038 64.78125 
L 815.689882 64.78125 
Q 813.889882 64.78125 813.889882 66.58125 
L 813.889882 93.85125 
Q 813.889882 95.65125 815.689882 95.65125 
z
" style="fill: #ffffff; opacity: 0.8; stroke: #cccccc; stroke-linejoin: miter"/>
    </g>
    <g id="patch_23">
     <path d="M 817.489882 75.62625 
L 835.489882 75.62625 
L 835.489882 69.32625 
L 817.489882 69.32625 
z
" style="fill: #4472c4; stroke: #4472c4; stroke-linejoin: miter"/>
    </g>
    <g id="text_20">
     <!-- ASM类型 -->
     <g transform="translate(842.689882 75.62625) scale(0.09 -0.09)">
      <defs>
       <path id="NotoSerifCJKjp-Regular-7c7b" d="M 1261 5158 
L 1190 5107 
C 1491 4877 1875 4467 1990 4141 
C 2432 3878 2688 4774 1261 5158 
z
M 3827 2387 
L 3770 2323 
C 4051 2176 4397 1888 4512 1626 
C 4934 1421 5120 2266 3827 2387 
z
M 4698 5248 
C 4461 4877 4083 4358 3776 4000 
L 3392 4000 
L 3392 5094 
C 3546 5114 3597 5171 3610 5261 
L 2970 5318 
L 2970 4000 
L 333 4000 
L 390 3808 
L 2528 3808 
C 2003 3194 1197 2618 314 2227 
L 371 2118 
C 1408 2470 2336 2995 2970 3661 
L 2970 2400 
L 3053 2400 
C 3213 2400 3392 2490 3392 2541 
L 3392 3808 
L 3430 3808 
C 3955 3155 4813 2573 5696 2272 
C 5734 2451 5901 2560 6118 2605 
L 6125 2688 
C 5306 2867 4224 3290 3642 3808 
L 5894 3808 
C 5984 3808 6048 3840 6067 3910 
C 5850 4102 5510 4371 5510 4371 
L 5210 4000 
L 3968 4000 
C 4339 4269 4749 4621 4998 4870 
C 5126 4838 5222 4864 5267 4922 
L 4698 5248 
z
M 2874 2234 
C 2861 1952 2835 1696 2784 1459 
L 314 1459 
L 371 1267 
L 2733 1267 
C 2502 563 1907 64 250 -365 
L 301 -493 
C 2355 -90 2957 474 3174 1267 
L 3283 1267 
C 3731 269 4563 -218 5818 -493 
C 5862 -288 5990 -147 6170 -109 
L 6176 -38 
C 4928 102 3936 474 3437 1267 
L 5920 1267 
C 6016 1267 6080 1299 6093 1370 
C 5875 1568 5530 1843 5530 1843 
L 5222 1459 
L 3219 1459 
C 3258 1626 3277 1805 3296 1997 
C 3443 2010 3507 2080 3520 2163 
L 2874 2234 
z
" transform="scale(0.015625)"/>
       <path id="NotoSerifCJKjp-Regular-578b" d="M 4006 5037 
L 4006 2637 
L 4083 2637 
C 4230 2637 4410 2720 4410 2771 
L 4410 4800 
C 4563 4826 4621 4877 4634 4966 
L 4006 5037 
z
M 5395 5331 
L 5395 2413 
C 5395 2330 5370 2298 5267 2298 
C 5165 2298 4640 2336 4640 2336 
L 4640 2234 
C 4870 2202 5005 2157 5088 2086 
C 5158 2016 5184 1914 5203 1786 
C 5734 1843 5798 2042 5798 2381 
L 5798 5094 
C 5946 5120 6010 5171 6022 5267 
L 5395 5331 
z
M 2374 4755 
L 2374 3674 
L 1568 3674 
L 1581 4006 
L 1581 4755 
L 2374 4755 
z
M 288 3674 
L 339 3494 
L 1158 3494 
C 1094 2931 877 2355 237 1862 
L 314 1779 
C 1203 2234 1472 2886 1549 3494 
L 2374 3494 
L 2374 1869 
L 2432 1869 
C 2643 1869 2778 1958 2778 1990 
L 2778 3494 
L 3616 3494 
C 3699 3494 3763 3526 3782 3597 
C 3584 3782 3258 4051 3258 4051 
L 2970 3674 
L 2778 3674 
L 2778 4755 
L 3514 4755 
C 3603 4755 3661 4787 3680 4858 
C 3482 5037 3155 5286 3155 5286 
L 2880 4934 
L 461 4934 
L 512 4755 
L 1184 4755 
L 1184 4000 
L 1171 3674 
L 288 3674 
z
M 282 -154 
L 339 -333 
L 5946 -333 
C 6042 -333 6106 -301 6125 -230 
C 5894 -32 5536 250 5536 250 
L 5216 -154 
L 3405 -154 
L 3405 1037 
L 5402 1037 
C 5491 1037 5555 1069 5574 1133 
C 5357 1338 5005 1606 5005 1606 
L 4698 1222 
L 3405 1222 
L 3405 1830 
C 3565 1856 3629 1920 3642 2003 
L 2982 2074 
L 2982 1222 
L 902 1222 
L 954 1037 
L 2982 1037 
L 2982 -154 
L 282 -154 
z
" transform="scale(0.015625)"/>
      </defs>
      <use xlink:href="#NotoSerifCJKjp-Regular-41"/>
      <use xlink:href="#NotoSerifCJKjp-Regular-53" transform="translate(71.799988 0)"/>
      <use xlink:href="#NotoSerifCJKjp-Regular-4d" transform="translate(128.499985 0)"/>
      <use xlink:href="#NotoSerifCJKjp-Regular-7c7b" transform="translate(225.999969 0)"/>
      <use xlink:href="#NotoSerifCJKjp-Regular-578b" transform="translate(325.999954 0)"/>
     </g>
    </g>
    <g id="patch_24">
     <path d="M 817.489882 89.71125 
L 835.489882 89.71125 
L 835.489882 83.41125 
L 817.489882 83.41125 
z
" style="fill: #ed7d31; stroke: #ed7d31; stroke-linejoin: miter"/>
    </g>
    <g id="text_21">
     <!-- HPM类型 -->
     <g transform="translate(842.689882 89.71125) scale(0.09 -0.09)">
      <use xlink:href="#NotoSerifCJKjp-Regular-48"/>
      <use xlink:href="#NotoSerifCJKjp-Regular-50" transform="translate(85.299988 0)"/>
      <use xlink:href="#NotoSerifCJKjp-Regular-4d" transform="translate(149.399979 0)"/>
      <use xlink:href="#NotoSerifCJKjp-Regular-7c7b" transform="translate(246.899963 0)"/>
      <use xlink:href="#NotoSerifCJKjp-Regular-578b" transform="translate(346.899948 0)"/>
     </g>
    </g>
   </g>
  </g>
  <g id="axes_2">
   <g id="patch_25">
    <path d="M 44.95 398.8375 
L 891.010038 398.8375 
L 891.010038 243.99 
L 44.95 243.99 
z
" style="fill: #ffffff"/>
   </g>
   <g id="patch_26">
    <path d="M 252.640647 274.490265 
L 329.555196 274.490265 
L 329.555196 251.028523 
L 252.640647 251.028523 
z
" clip-path="url(#pca8a30cd68)" style="fill: #4472c4; stroke: #ffffff; stroke-width: 0.5; stroke-linejoin: miter"/>
   </g>
   <g id="patch_27">
    <path d="M 332.492905 274.490265 
L 401.715999 274.490265 
L 401.715999 251.028523 
L 332.492905 251.028523 
z
" clip-path="url(#pca8a30cd68)" style="fill: #4472c4; stroke: #ffffff; stroke-width: 0.5; stroke-linejoin: miter"/>
   </g>
   <g id="patch_28">
    <path d="M 441.081292 274.490265 
L 517.995841 274.490265 
L 517.995841 251.028523 
L 441.081292 251.028523 
z
" clip-path="url(#pca8a30cd68)" style="fill: #4472c4; stroke: #ffffff; stroke-width: 0.5; stroke-linejoin: miter"/>
   </g>
   <g id="patch_29">
    <path d="M 629.521937 274.490265 
L 706.436486 274.490265 
L 706.436486 251.028523 
L 629.521937 251.028523 
z
" clip-path="url(#pca8a30cd68)" style="fill: #4472c4; stroke: #ffffff; stroke-width: 0.5; stroke-linejoin: miter"/>
   </g>
   <g id="patch_30">
    <path d="M 194.554139 313.593169 
L 434.912104 313.593169 
L 434.912104 290.131427 
L 194.554139 290.131427 
z
" clip-path="url(#pca8a30cd68)" style="fill: #ed7d31; stroke: #ffffff; stroke-width: 0.5; stroke-linejoin: miter"/>
   </g>
   <g id="patch_31">
    <path d="M 565.378408 313.593169 
L 699.978869 313.593169 
L 699.978869 290.131427 
L 565.378408 290.131427 
z
" clip-path="url(#pca8a30cd68)" style="fill: #ed7d31; stroke: #ffffff; stroke-width: 0.5; stroke-linejoin: miter"/>
   </g>
   <g id="patch_32">
    <path d="M 171.0044 352.696073 
L 267.147586 352.696073 
L 267.147586 329.234331 
L 171.0044 329.234331 
z
" clip-path="url(#pca8a30cd68)" style="fill: #4472c4; stroke: #ffffff; stroke-width: 0.5; stroke-linejoin: miter"/>
   </g>
   <g id="patch_33">
    <path d="M 270.886487 352.696073 
L 309.343762 352.696073 
L 309.343762 329.234331 
L 270.886487 329.234331 
z
" clip-path="url(#pca8a30cd68)" style="fill: #4472c4; stroke: #ffffff; stroke-width: 0.5; stroke-linejoin: miter"/>
   </g>
   <g id="patch_34">
    <path d="M 312.094525 352.696073 
L 408.237711 352.696073 
L 408.237711 329.234331 
L 312.094525 329.234331 
z
" clip-path="url(#pca8a30cd68)" style="fill: #4472c4; stroke: #ffffff; stroke-width: 0.5; stroke-linejoin: miter"/>
   </g>
   <g id="patch_35">
    <path d="M 434.912104 352.696073 
L 531.055291 352.696073 
L 531.055291 329.234331 
L 434.912104 329.234331 
z
" clip-path="url(#pca8a30cd68)" style="fill: #4472c4; stroke: #ffffff; stroke-width: 0.5; stroke-linejoin: miter"/>
   </g>
   <g id="patch_36">
    <path d="M 74.861213 391.798977 
L 171.0044 391.798977 
L 171.0044 368.337235 
L 74.861213 368.337235 
z
" clip-path="url(#pca8a30cd68)" style="fill: #ed7d31; stroke: #ffffff; stroke-width: 0.5; stroke-linejoin: miter"/>
   </g>
   <g id="patch_37">
    <path d="M 175.726098 391.798977 
L 239.821556 391.798977 
L 239.821556 368.337235 
L 175.726098 368.337235 
z
" clip-path="url(#pca8a30cd68)" style="fill: #ed7d31; stroke: #ffffff; stroke-width: 0.5; stroke-linejoin: miter"/>
   </g>
   <g id="patch_38">
    <path d="M 242.759264 391.798977 
L 300.445176 391.798977 
L 300.445176 368.337235 
L 242.759264 368.337235 
z
" clip-path="url(#pca8a30cd68)" style="fill: #ed7d31; stroke: #ffffff; stroke-width: 0.5; stroke-linejoin: miter"/>
   </g>
   <g id="patch_39">
    <path d="M 364.166743 391.798977 
L 428.262201 391.798977 
L 428.262201 368.337235 
L 364.166743 368.337235 
z
" clip-path="url(#pca8a30cd68)" style="fill: #ed7d31; stroke: #ffffff; stroke-width: 0.5; stroke-linejoin: miter"/>
   </g>
   <g id="patch_40">
    <path d="M 552.607388 391.798977 
L 616.702846 391.798977 
L 616.702846 368.337235 
L 552.607388 368.337235 
z
" clip-path="url(#pca8a30cd68)" style="fill: #ed7d31; stroke: #ffffff; stroke-width: 0.5; stroke-linejoin: miter"/>
   </g>
   <g id="matplotlib.axis_3">
    <g id="xtick_10">
     <g id="line2d_13">
      <g>
       <use xlink:href="#m692e67bfa3" x="44.95" y="398.8375" style="stroke: #000000; stroke-width: 0.8"/>
      </g>
     </g>
     <g id="text_22">
      <!-- 0 -->
      <g transform="translate(42.164844 413.8875) scale(0.1 -0.1)">
       <use xlink:href="#NotoSerifCJKjp-Regular-30"/>
      </g>
     </g>
    </g>
    <g id="xtick_11">
     <g id="line2d_14">
      <g>
       <use xlink:href="#m692e67bfa3" x="141.093186" y="398.8375" style="stroke: #000000; stroke-width: 0.8"/>
      </g>
     </g>
     <g id="text_23">
      <!-- 5 -->
      <g transform="translate(138.303342 413.8875) scale(0.1 -0.1)">
       <use xlink:href="#NotoSerifCJKjp-Regular-35"/>
      </g>
     </g>
    </g>
    <g id="xtick_12">
     <g id="line2d_15">
      <g>
       <use xlink:href="#m692e67bfa3" x="237.236372" y="398.8375" style="stroke: #000000; stroke-width: 0.8"/>
      </g>
     </g>
     <g id="text_24">
      <!-- 10 -->
      <g transform="translate(232.096529 413.8875) scale(0.1 -0.1)">
       <use xlink:href="#NotoSerifCJKjp-Regular-31"/>
       <use xlink:href="#NotoSerifCJKjp-Regular-30" transform="translate(47.099991 0)"/>
      </g>
     </g>
    </g>
    <g id="xtick_13">
     <g id="line2d_16">
      <g>
       <use xlink:href="#m692e67bfa3" x="333.379558" y="398.8375" style="stroke: #000000; stroke-width: 0.8"/>
      </g>
     </g>
     <g id="text_25">
      <!-- 15 -->
      <g transform="translate(328.235027 413.8875) scale(0.1 -0.1)">
       <use xlink:href="#NotoSerifCJKjp-Regular-31"/>
       <use xlink:href="#NotoSerifCJKjp-Regular-35" transform="translate(47.099991 0)"/>
      </g>
     </g>
    </g>
    <g id="xtick_14">
     <g id="line2d_17">
      <g>
       <use xlink:href="#m692e67bfa3" x="429.522745" y="398.8375" style="stroke: #000000; stroke-width: 0.8"/>
      </g>
     </g>
     <g id="text_26">
      <!-- 20 -->
      <g transform="translate(423.947745 413.8875) scale(0.1 -0.1)">
       <use xlink:href="#NotoSerifCJKjp-Regular-32"/>
       <use xlink:href="#NotoSerifCJKjp-Regular-30" transform="translate(55.799988 0)"/>
      </g>
     </g>
    </g>
    <g id="xtick_15">
     <g id="line2d_18">
      <g>
       <use xlink:href="#m692e67bfa3" x="525.665931" y="398.8375" style="stroke: #000000; stroke-width: 0.8"/>
      </g>
     </g>
     <g id="text_27">
      <!-- 25 -->
      <g transform="translate(520.086243 413.8875) scale(0.1 -0.1)">
       <use xlink:href="#NotoSerifCJKjp-Regular-32"/>
       <use xlink:href="#NotoSerifCJKjp-Regular-35" transform="translate(55.799988 0)"/>
      </g>
     </g>
    </g>
    <g id="xtick_16">
     <g id="line2d_19">
      <g>
       <use xlink:href="#m692e67bfa3" x="621.809117" y="398.8375" style="stroke: #000000; stroke-width: 0.8"/>
      </g>
     </g>
     <g id="text_28">
      <!-- 30 -->
      <g transform="translate(616.238804 413.8875) scale(0.1 -0.1)">
       <use xlink:href="#NotoSerifCJKjp-Regular-33"/>
       <use xlink:href="#NotoSerifCJKjp-Regular-30" transform="translate(55.699997 0)"/>
      </g>
     </g>
    </g>
    <g id="xtick_17">
     <g id="line2d_20">
      <g>
       <use xlink:href="#m692e67bfa3" x="717.952303" y="398.8375" style="stroke: #000000; stroke-width: 0.8"/>
      </g>
     </g>
     <g id="text_29">
      <!-- 35 -->
      <g transform="translate(712.377303 413.8875) scale(0.1 -0.1)">
       <use xlink:href="#NotoSerifCJKjp-Regular-33"/>
       <use xlink:href="#NotoSerifCJKjp-Regular-35" transform="translate(55.699997 0)"/>
      </g>
     </g>
    </g>
    <g id="xtick_18">
     <g id="line2d_21">
      <g>
       <use xlink:href="#m692e67bfa3" x="814.095489" y="398.8375" style="stroke: #000000; stroke-width: 0.8"/>
      </g>
     </g>
     <g id="text_30">
      <!-- 40 -->
      <g transform="translate(808.535333 413.8875) scale(0.1 -0.1)">
       <use xlink:href="#NotoSerifCJKjp-Regular-34"/>
       <use xlink:href="#NotoSerifCJKjp-Regular-30" transform="translate(55.499985 0)"/>
      </g>
     </g>
    </g>
    <g id="text_31">
     <!-- 时间（小时） -->
     <g transform="translate(437.980019 428.5375) scale(0.1 -0.1)">
      <defs>
       <path id="NotoSerifCJKjp-Regular-65f6" d="M 2880 2861 
L 2803 2816 
C 3149 2426 3526 1805 3546 1286 
C 4006 870 4442 2035 2880 2861 
z
M 1907 1069 
L 922 1069 
L 922 2733 
L 1907 2733 
L 1907 1069 
z
M 525 4992 
L 525 13 
L 582 13 
C 794 13 922 128 922 160 
L 922 877 
L 1907 877 
L 1907 326 
L 1971 326 
C 2112 326 2304 429 2310 474 
L 2310 4518 
C 2438 4544 2547 4589 2592 4640 
L 2080 5043 
L 1843 4781 
L 998 4781 
L 525 4992 
z
M 1907 2925 
L 922 2925 
L 922 4589 
L 1907 4589 
L 1907 2925 
z
M 5664 4211 
L 5363 3802 
L 5069 3802 
L 5069 5043 
C 5229 5062 5293 5120 5306 5216 
L 4646 5286 
L 4646 3802 
L 2464 3802 
L 2515 3610 
L 4646 3610 
L 4646 179 
C 4646 64 4602 26 4461 26 
C 4301 26 3456 83 3456 83 
L 3456 -13 
C 3821 -58 4013 -115 4134 -192 
C 4243 -256 4288 -365 4314 -499 
C 4992 -435 5069 -198 5069 147 
L 5069 3610 
L 6048 3610 
C 6138 3610 6195 3642 6214 3712 
C 6016 3923 5664 4211 5664 4211 
z
" transform="scale(0.015625)"/>
       <path id="NotoSerifCJKjp-Regular-95f4" d="M 1133 5402 
L 1062 5350 
C 1344 5069 1702 4595 1818 4237 
C 2278 3936 2586 4870 1133 5402 
z
M 1382 4461 
L 736 4531 
L 736 -499 
L 813 -499 
C 973 -499 1146 -410 1146 -346 
L 1146 4282 
C 1312 4307 1363 4365 1382 4461 
z
M 3987 1139 
L 2381 1139 
L 2381 2240 
L 3987 2240 
L 3987 1139 
z
M 1984 3827 
L 1984 326 
L 2048 326 
C 2253 326 2381 442 2381 474 
L 2381 947 
L 3987 947 
L 3987 442 
L 4051 442 
C 4198 442 4384 550 4390 595 
L 4390 3392 
C 4499 3411 4589 3456 4621 3494 
L 4154 3866 
L 3930 3629 
L 2445 3629 
L 1984 3827 
z
M 3987 3437 
L 3987 2432 
L 2381 2432 
L 2381 3437 
L 3987 3437 
z
M 5210 4826 
L 2483 4826 
L 2541 4634 
L 5274 4634 
L 5274 198 
C 5274 90 5235 45 5101 45 
C 4960 45 4211 109 4211 109 
L 4211 0 
C 4531 -38 4710 -90 4819 -166 
C 4915 -230 4960 -346 4979 -474 
C 5606 -410 5683 -186 5683 147 
L 5683 4557 
C 5811 4582 5920 4634 5965 4685 
L 5421 5094 
L 5210 4826 
z
" transform="scale(0.015625)"/>
       <path id="NotoSerifCJKjp-Regular-5c0f" d="M 4269 3674 
L 4179 3629 
C 4787 2995 5504 1978 5613 1178 
C 6182 704 6522 2253 4269 3674 
z
M 1606 3712 
C 1402 2880 909 1760 224 1050 
L 294 973 
C 1152 1600 1741 2605 2048 3366 
C 2208 3354 2266 3392 2291 3469 
L 1606 3712 
z
M 3002 5280 
L 3002 230 
C 3002 115 2957 70 2816 70 
C 2643 70 1760 141 1760 141 
L 1760 38 
C 2138 -13 2336 -70 2464 -147 
C 2579 -224 2630 -339 2650 -493 
C 3366 -416 3450 -179 3450 192 
L 3450 5030 
C 3610 5050 3667 5114 3686 5203 
L 3002 5280 
z
" transform="scale(0.015625)"/>
      </defs>
      <use xlink:href="#NotoSerifCJKjp-Regular-65f6"/>
      <use xlink:href="#NotoSerifCJKjp-Regular-95f4" transform="translate(99.999985 0)"/>
      <use xlink:href="#NotoSerifCJKjp-Regular-ff08" transform="translate(199.999969 0)"/>
      <use xlink:href="#NotoSerifCJKjp-Regular-5c0f" transform="translate(299.999954 0)"/>
      <use xlink:href="#NotoSerifCJKjp-Regular-65f6" transform="translate(399.999939 0)"/>
      <use xlink:href="#NotoSerifCJKjp-Regular-ff09" transform="translate(499.999924 0)"/>
     </g>
    </g>
   </g>
   <g id="matplotlib.axis_4">
    <g id="ytick_3">
     <g id="line2d_22">
      <g>
       <use xlink:href="#md908308733" x="44.95" y="380.068106" style="stroke: #000000; stroke-width: 0.8"/>
      </g>
     </g>
     <g id="text_32">
      <!-- HPM2-1 -->
      <g transform="translate(7.2 383.288106) scale(0.08 -0.08)">
       <use xlink:href="#NotoSerifCJKjp-Regular-48"/>
       <use xlink:href="#NotoSerifCJKjp-Regular-50" transform="translate(85.299988 0)"/>
       <use xlink:href="#NotoSerifCJKjp-Regular-4d" transform="translate(149.399979 0)"/>
       <use xlink:href="#NotoSerifCJKjp-Regular-32" transform="translate(246.899963 0)"/>
       <use xlink:href="#NotoSerifCJKjp-Regular-2d" transform="translate(302.699951 0)"/>
       <use xlink:href="#NotoSerifCJKjp-Regular-31" transform="translate(337.299942 0)"/>
      </g>
     </g>
    </g>
    <g id="ytick_4">
     <g id="line2d_23">
      <g>
       <use xlink:href="#md908308733" x="44.95" y="340.965202" style="stroke: #000000; stroke-width: 0.8"/>
      </g>
     </g>
     <g id="text_33">
      <!-- ASM2-1 -->
      <g transform="translate(8.87125 344.185202) scale(0.08 -0.08)">
       <use xlink:href="#NotoSerifCJKjp-Regular-41"/>
       <use xlink:href="#NotoSerifCJKjp-Regular-53" transform="translate(71.799988 0)"/>
       <use xlink:href="#NotoSerifCJKjp-Regular-4d" transform="translate(128.499985 0)"/>
       <use xlink:href="#NotoSerifCJKjp-Regular-32" transform="translate(225.999969 0)"/>
       <use xlink:href="#NotoSerifCJKjp-Regular-2d" transform="translate(281.799957 0)"/>
       <use xlink:href="#NotoSerifCJKjp-Regular-31" transform="translate(316.399948 0)"/>
      </g>
     </g>
    </g>
    <g id="ytick_5">
     <g id="line2d_24">
      <g>
       <use xlink:href="#md908308733" x="44.95" y="301.862298" style="stroke: #000000; stroke-width: 0.8"/>
      </g>
     </g>
     <g id="text_34">
      <!-- HPM1-1 -->
      <g transform="translate(7.89625 305.082298) scale(0.08 -0.08)">
       <use xlink:href="#NotoSerifCJKjp-Regular-48"/>
       <use xlink:href="#NotoSerifCJKjp-Regular-50" transform="translate(85.299988 0)"/>
       <use xlink:href="#NotoSerifCJKjp-Regular-4d" transform="translate(149.399979 0)"/>
       <use xlink:href="#NotoSerifCJKjp-Regular-31" transform="translate(246.899963 0)"/>
       <use xlink:href="#NotoSerifCJKjp-Regular-2d" transform="translate(293.999954 0)"/>
       <use xlink:href="#NotoSerifCJKjp-Regular-31" transform="translate(328.599945 0)"/>
      </g>
     </g>
    </g>
    <g id="ytick_6">
     <g id="line2d_25">
      <g>
       <use xlink:href="#md908308733" x="44.95" y="262.759394" style="stroke: #000000; stroke-width: 0.8"/>
      </g>
     </g>
     <g id="text_35">
      <!-- ASM1-1 -->
      <g transform="translate(9.5675 265.979394) scale(0.08 -0.08)">
       <use xlink:href="#NotoSerifCJKjp-Regular-41"/>
       <use xlink:href="#NotoSerifCJKjp-Regular-53" transform="translate(71.799988 0)"/>
       <use xlink:href="#NotoSerifCJKjp-Regular-4d" transform="translate(128.499985 0)"/>
       <use xlink:href="#NotoSerifCJKjp-Regular-31" transform="translate(225.999969 0)"/>
       <use xlink:href="#NotoSerifCJKjp-Regular-2d" transform="translate(273.09996 0)"/>
       <use xlink:href="#NotoSerifCJKjp-Regular-31" transform="translate(307.699951 0)"/>
      </g>
     </g>
    </g>
   </g>
   <g id="line2d_26">
    <path d="M 706.436486 398.8375 
L 706.436486 243.99 
" clip-path="url(#pca8a30cd68)" style="fill: none; stroke-dasharray: 4.44,1.92; stroke-dashoffset: 0; stroke: #dc143c; stroke-width: 1.2"/>
   </g>
   <g id="patch_41">
    <path d="M 44.95 398.8375 
L 44.95 243.99 
" style="fill: none; stroke: #000000; stroke-width: 0.8; stroke-linejoin: miter; stroke-linecap: square"/>
   </g>
   <g id="patch_42">
    <path d="M 891.010038 398.8375 
L 891.010038 243.99 
" style="fill: none; stroke: #000000; stroke-width: 0.8; stroke-linejoin: miter; stroke-linecap: square"/>
   </g>
   <g id="patch_43">
    <path d="M 44.95 398.8375 
L 891.010038 398.8375 
" style="fill: none; stroke: #000000; stroke-width: 0.8; stroke-linejoin: miter; stroke-linecap: square"/>
   </g>
   <g id="patch_44">
    <path d="M 44.95 243.99 
L 891.010038 243.99 
" style="fill: none; stroke: #000000; stroke-width: 0.8; stroke-linejoin: miter; stroke-linecap: square"/>
   </g>
   <g id="text_36">
    <g clip-path="url(#pca8a30cd68)">
     <!-- C5_1 -->
     <g style="fill: #ffffff" transform="translate(283.108078 264.666894) scale(0.07 -0.07)">
      <use xlink:href="#NotoSerifCJKjp-Regular-43"/>
      <use xlink:href="#NotoSerifCJKjp-Regular-35" transform="translate(69.099991 0)"/>
      <use xlink:href="#NotoSerifCJKjp-Regular-5f" transform="translate(124.899979 0)"/>
      <use xlink:href="#NotoSerifCJKjp-Regular-31" transform="translate(181.199966 0)"/>
     </g>
    </g>
   </g>
   <g id="text_37">
    <g clip-path="url(#pca8a30cd68)">
     <!-- B4 -->
     <g style="fill: #ffffff" transform="translate(362.816952 264.666894) scale(0.07 -0.07)">
      <use xlink:href="#NotoSerifCJKjp-Regular-42"/>
      <use xlink:href="#NotoSerifCJKjp-Regular-34" transform="translate(66.999985 0)"/>
     </g>
    </g>
   </g>
   <g id="text_38">
    <g clip-path="url(#pca8a30cd68)">
     <!-- C5_2 -->
     <g style="fill: #ffffff" transform="translate(471.244113 264.666894) scale(0.07 -0.07)">
      <use xlink:href="#NotoSerifCJKjp-Regular-43"/>
      <use xlink:href="#NotoSerifCJKjp-Regular-35" transform="translate(69.099991 0)"/>
      <use xlink:href="#NotoSerifCJKjp-Regular-5f" transform="translate(124.899979 0)"/>
      <use xlink:href="#NotoSerifCJKjp-Regular-32" transform="translate(181.199966 0)"/>
     </g>
    </g>
   </g>
   <g id="text_39">
    <g clip-path="url(#pca8a30cd68)">
     <!-- C5_3 -->
     <g style="fill: #ffffff" transform="translate(659.68804 264.666894) scale(0.07 -0.07)">
      <use xlink:href="#NotoSerifCJKjp-Regular-43"/>
      <use xlink:href="#NotoSerifCJKjp-Regular-35" transform="translate(69.099991 0)"/>
      <use xlink:href="#NotoSerifCJKjp-Regular-5f" transform="translate(124.899979 0)"/>
      <use xlink:href="#NotoSerifCJKjp-Regular-33" transform="translate(181.199966 0)"/>
     </g>
    </g>
   </g>
   <g id="text_40">
    <g clip-path="url(#pca8a30cd68)">
     <!-- D4 -->
     <g style="fill: #ffffff" transform="translate(310.095622 303.769798) scale(0.07 -0.07)">
      <use xlink:href="#NotoSerifCJKjp-Regular-44"/>
      <use xlink:href="#NotoSerifCJKjp-Regular-34" transform="translate(76.999985 0)"/>
     </g>
    </g>
   </g>
   <g id="text_41">
    <g clip-path="url(#pca8a30cd68)">
     <!-- D6 -->
     <g style="fill: #ffffff" transform="translate(628.030748 303.769798) scale(0.07 -0.07)">
      <use xlink:href="#NotoSerifCJKjp-Regular-44"/>
      <use xlink:href="#NotoSerifCJKjp-Regular-36" transform="translate(76.999985 0)"/>
     </g>
    </g>
   </g>
   <g id="text_42">
    <g clip-path="url(#pca8a30cd68)">
     <!-- A3 -->
     <g style="fill: #ffffff" transform="translate(214.613493 342.872702) scale(0.07 -0.07)">
      <use xlink:href="#NotoSerifCJKjp-Regular-41"/>
      <use xlink:href="#NotoSerifCJKjp-Regular-33" transform="translate(71.799988 0)"/>
     </g>
    </g>
   </g>
   <g id="text_43">
    <g clip-path="url(#pca8a30cd68)">
     <!-- E3 -->
     <g style="fill: #ffffff" transform="translate(285.883406 342.872702) scale(0.07 -0.07)">
      <use xlink:href="#NotoSerifCJKjp-Regular-45"/>
      <use xlink:href="#NotoSerifCJKjp-Regular-33" transform="translate(65.199997 0)"/>
     </g>
    </g>
   </g>
   <g id="text_44">
    <g clip-path="url(#pca8a30cd68)">
     <!-- D4 -->
     <g style="fill: #ffffff" transform="translate(355.528618 342.872702) scale(0.07 -0.07)">
      <use xlink:href="#NotoSerifCJKjp-Regular-44"/>
      <use xlink:href="#NotoSerifCJKjp-Regular-34" transform="translate(76.999985 0)"/>
     </g>
    </g>
   </g>
   <g id="text_45">
    <g clip-path="url(#pca8a30cd68)">
     <!-- D5 -->
     <g style="fill: #ffffff" transform="translate(478.335807 342.872702) scale(0.07 -0.07)">
      <use xlink:href="#NotoSerifCJKjp-Regular-44"/>
      <use xlink:href="#NotoSerifCJKjp-Regular-35" transform="translate(76.999985 0)"/>
     </g>
    </g>
   </g>
   <g id="text_46">
    <g clip-path="url(#pca8a30cd68)">
     <!-- A2 -->
     <g style="fill: #ffffff" transform="translate(118.467025 381.975606) scale(0.07 -0.07)">
      <use xlink:href="#NotoSerifCJKjp-Regular-41"/>
      <use xlink:href="#NotoSerifCJKjp-Regular-32" transform="translate(71.799988 0)"/>
     </g>
    </g>
   </g>
   <g id="text_47">
    <g clip-path="url(#pca8a30cd68)">
     <!-- C4_1 -->
     <g style="fill: #ffffff" transform="translate(199.794374 381.975606) scale(0.07 -0.07)">
      <use xlink:href="#NotoSerifCJKjp-Regular-43"/>
      <use xlink:href="#NotoSerifCJKjp-Regular-34" transform="translate(69.099991 0)"/>
      <use xlink:href="#NotoSerifCJKjp-Regular-5f" transform="translate(124.599976 0)"/>
      <use xlink:href="#NotoSerifCJKjp-Regular-31" transform="translate(180.899963 0)"/>
     </g>
    </g>
   </g>
   <g id="text_48">
    <g clip-path="url(#pca8a30cd68)">
     <!-- B4 -->
     <g style="fill: #ffffff" transform="translate(267.31472 381.975606) scale(0.07 -0.07)">
      <use xlink:href="#NotoSerifCJKjp-Regular-42"/>
      <use xlink:href="#NotoSerifCJKjp-Regular-34" transform="translate(66.999985 0)"/>
     </g>
    </g>
   </g>
   <g id="text_49">
    <g clip-path="url(#pca8a30cd68)">
     <!-- C4_2 -->
     <g style="fill: #ffffff" transform="translate(387.930409 381.975606) scale(0.07 -0.07)">
      <use xlink:href="#NotoSerifCJKjp-Regular-43"/>
      <use xlink:href="#NotoSerifCJKjp-Regular-34" transform="translate(69.099991 0)"/>
      <use xlink:href="#NotoSerifCJKjp-Regular-5f" transform="translate(124.599976 0)"/>
      <use xlink:href="#NotoSerifCJKjp-Regular-32" transform="translate(180.899963 0)"/>
     </g>
    </g>
   </g>
   <g id="text_50">
    <g clip-path="url(#pca8a30cd68)">
     <!-- C4_3 -->
     <g style="fill: #ffffff" transform="translate(576.374336 381.975606) scale(0.07 -0.07)">
      <use xlink:href="#NotoSerifCJKjp-Regular-43"/>
      <use xlink:href="#NotoSerifCJKjp-Regular-34" transform="translate(69.099991 0)"/>
      <use xlink:href="#NotoSerifCJKjp-Regular-5f" transform="translate(124.599976 0)"/>
      <use xlink:href="#NotoSerifCJKjp-Regular-33" transform="translate(180.899963 0)"/>
     </g>
    </g>
   </g>
   <g id="text_51">
    <!-- $C_{max}$ = 123844 s -->
    <g style="fill: #dc143c" transform="translate(709.320782 253.558232) scale(0.08 -0.08)">
     <defs>
      <path id="NotoSerifCJKjp-Regular-38" d="M 1754 -96 
C 2637 -96 3219 384 3219 1126 
C 3219 1722 2893 2131 2093 2502 
C 2784 2829 3027 3251 3027 3686 
C 3027 4301 2579 4755 1798 4755 
C 1075 4755 499 4307 499 3603 
C 499 3059 774 2605 1434 2285 
C 730 1978 365 1587 365 1024 
C 365 352 858 -96 1754 -96 
z
M 1946 2573 
C 1178 2912 973 3302 973 3731 
C 973 4243 1357 4550 1792 4550 
C 2304 4550 2579 4160 2579 3699 
C 2579 3213 2394 2880 1946 2573 
z
M 1587 2214 
C 2458 1830 2720 1453 2720 986 
C 2720 454 2374 102 1779 102 
C 1184 102 832 474 832 1082 
C 832 1568 1050 1888 1587 2214 
z
" transform="scale(0.015625)"/>
     </defs>
     <use xlink:href="#DejaVuSans-Oblique-43" transform="translate(0 0.703125)"/>
     <use xlink:href="#DejaVuSans-Oblique-6d" transform="translate(69.824219 -15.703125) scale(0.7)"/>
     <use xlink:href="#DejaVuSans-Oblique-61" transform="translate(138.012695 -15.703125) scale(0.7)"/>
     <use xlink:href="#DejaVuSans-Oblique-78" transform="translate(180.908203 -15.703125) scale(0.7)"/>
     <use xlink:href="#NotoSerifCJKjp-Regular-20" transform="translate(225.068359 0.703125)"/>
     <use xlink:href="#NotoSerifCJKjp-Regular-3d" transform="translate(250.66835 0.703125)"/>
     <use xlink:href="#NotoSerifCJKjp-Regular-20" transform="translate(308.668335 0.703125)"/>
     <use xlink:href="#NotoSerifCJKjp-Regular-31" transform="translate(334.268326 0.703125)"/>
     <use xlink:href="#NotoSerifCJKjp-Regular-32" transform="translate(381.368317 0.703125)"/>
     <use xlink:href="#NotoSerifCJKjp-Regular-33" transform="translate(437.168304 0.703125)"/>
     <use xlink:href="#NotoSerifCJKjp-Regular-38" transform="translate(492.868301 0.703125)"/>
     <use xlink:href="#NotoSerifCJKjp-Regular-34" transform="translate(548.668289 0.703125)"/>
     <use xlink:href="#NotoSerifCJKjp-Regular-34" transform="translate(604.168274 0.703125)"/>
     <use xlink:href="#NotoSerifCJKjp-Regular-20" transform="translate(659.668259 0.703125)"/>
     <use xlink:href="#NotoSerifCJKjp-Regular-73" transform="translate(685.26825 0.703125)"/>
    </g>
   </g>
   <g id="text_52">
    <!-- P3  双班组 — 关键设备（ASM / HPM） -->
    <g transform="translate(44.95 237.99) scale(0.1 -0.1)">
     <defs>
      <path id="NotoSerifCJKjp-Regular-53cc" d="M 762 3808 
L 672 3744 
C 1139 3341 1549 2810 1875 2266 
C 1530 1235 998 282 218 -435 
L 314 -512 
C 1178 115 1747 928 2131 1811 
C 2355 1376 2515 960 2592 627 
C 2835 64 3245 416 2874 1299 
C 2739 1587 2554 1914 2304 2259 
C 2566 3002 2720 3782 2822 4544 
C 2957 4563 3021 4570 3066 4634 
L 2592 5075 
L 2336 4806 
L 333 4806 
L 390 4614 
L 2381 4614 
C 2304 3955 2182 3290 1997 2650 
C 1664 3040 1254 3437 762 3808 
z
M 4294 1466 
C 3834 710 3206 58 2387 -442 
L 2464 -525 
C 3341 -102 3994 448 4480 1088 
C 4832 442 5280 -96 5824 -506 
C 5875 -333 6035 -218 6227 -205 
L 6246 -141 
C 5626 250 5120 774 4717 1421 
C 5325 2349 5638 3430 5830 4538 
C 5978 4550 6042 4570 6093 4627 
L 5606 5082 
L 5331 4806 
L 3104 4806 
L 3162 4614 
L 3539 4614 
C 3648 3405 3898 2349 4294 1466 
z
M 4493 1818 
C 4090 2605 3821 3546 3699 4614 
L 5376 4614 
C 5222 3622 4947 2662 4493 1818 
z
" transform="scale(0.015625)"/>
     </defs>
     <use xlink:href="#NotoSerifCJKjp-Regular-50"/>
     <use xlink:href="#NotoSerifCJKjp-Regular-33" transform="translate(64.099991 0)"/>
     <use xlink:href="#NotoSerifCJKjp-Regular-20" transform="translate(119.799988 0)"/>
     <use xlink:href="#NotoSerifCJKjp-Regular-20" transform="translate(145.399979 0)"/>
     <use xlink:href="#NotoSerifCJKjp-Regular-53cc" transform="translate(170.999969 0)"/>
     <use xlink:href="#NotoSerifCJKjp-Regular-73ed" transform="translate(270.999954 0)"/>
     <use xlink:href="#NotoSerifCJKjp-Regular-7ec4" transform="translate(370.999939 0)"/>
     <use xlink:href="#NotoSerifCJKjp-Regular-20" transform="translate(470.999924 0)"/>
     <use xlink:href="#NotoSerifCJKjp-Regular-2014" transform="translate(496.599915 0)"/>
     <use xlink:href="#NotoSerifCJKjp-Regular-20" transform="translate(585.599899 0)"/>
     <use xlink:href="#NotoSerifCJKjp-Regular-5173" transform="translate(611.19989 0)"/>
     <use xlink:href="#NotoSerifCJKjp-Regular-952e" transform="translate(711.199875 0)"/>
     <use xlink:href="#NotoSerifCJKjp-Regular-8bbe" transform="translate(811.19986 0)"/>
     <use xlink:href="#NotoSerifCJKjp-Regular-5907" transform="translate(911.199844 0)"/>
     <use xlink:href="#NotoSerifCJKjp-Regular-ff08" transform="translate(1011.199829 0)"/>
     <use xlink:href="#NotoSerifCJKjp-Regular-41" transform="translate(1111.199814 0)"/>
     <use xlink:href="#NotoSerifCJKjp-Regular-53" transform="translate(1182.999802 0)"/>
     <use xlink:href="#NotoSerifCJKjp-Regular-4d" transform="translate(1239.699799 0)"/>
     <use xlink:href="#NotoSerifCJKjp-Regular-20" transform="translate(1337.199783 0)"/>
     <use xlink:href="#NotoSerifCJKjp-Regular-2f" transform="translate(1362.799774 0)"/>
     <use xlink:href="#NotoSerifCJKjp-Regular-20" transform="translate(1397.999771 0)"/>
     <use xlink:href="#NotoSerifCJKjp-Regular-48" transform="translate(1423.599762 0)"/>
     <use xlink:href="#NotoSerifCJKjp-Regular-50" transform="translate(1508.89975 0)"/>
     <use xlink:href="#NotoSerifCJKjp-Regular-4d" transform="translate(1572.999741 0)"/>
     <use xlink:href="#NotoSerifCJKjp-Regular-ff09" transform="translate(1670.499725 0)"/>
    </g>
   </g>
  </g>
  <g id="text_53">
   <!-- P2 / P3  关键设备时间轴对比图 -->
   <g transform="translate(381.644062 16.86) scale(0.12 -0.12)">
    <defs>
     <path id="NotoSerifCJKjp-Regular-8f74" d="M 1850 5152 
L 1254 5338 
C 1197 5050 1094 4634 979 4198 
L 282 4198 
L 333 4006 
L 928 4006 
C 787 3501 627 2982 499 2611 
C 403 2579 294 2534 224 2496 
L 666 2131 
L 877 2349 
L 1421 2349 
L 1421 1235 
C 934 1114 525 1018 294 973 
L 602 435 
C 659 461 710 512 736 589 
L 1421 877 
L 1421 -506 
L 1485 -506 
C 1690 -506 1818 -410 1818 -384 
L 1818 1056 
L 2714 1466 
L 2688 1562 
L 1818 1331 
L 1818 2349 
L 2598 2349 
C 2682 2349 2739 2381 2758 2451 
C 2586 2624 2298 2842 2298 2842 
L 2048 2534 
L 1818 2534 
L 1818 3398 
C 1971 3418 2022 3475 2042 3565 
L 1459 3635 
L 1459 2534 
L 877 2534 
C 1011 2950 1184 3494 1325 4006 
L 2605 4006 
C 2688 4006 2752 4038 2765 4109 
C 2573 4294 2259 4531 2259 4531 
L 1978 4198 
L 1382 4198 
C 1466 4518 1542 4806 1594 5037 
C 1747 5018 1818 5082 1850 5152 
z
M 4762 5248 
L 4173 5312 
L 4173 3821 
L 3315 3821 
L 2893 4032 
L 2893 -506 
L 2963 -506 
C 3142 -506 3283 -410 3283 -358 
L 3283 -26 
L 5478 -26 
L 5478 -461 
L 5536 -461 
C 5677 -461 5862 -358 5869 -314 
L 5869 3565 
C 5997 3584 6106 3629 6144 3686 
L 5645 4077 
L 5414 3821 
L 4557 3821 
L 4557 5088 
C 4698 5101 4749 5158 4762 5248 
z
M 5478 3635 
L 5478 2074 
L 4557 2074 
L 4557 3635 
L 5478 3635 
z
M 5478 166 
L 4557 166 
L 4557 1888 
L 5478 1888 
L 5478 166 
z
M 3283 166 
L 3283 1888 
L 4173 1888 
L 4173 166 
L 3283 166 
z
M 3283 2074 
L 3283 3635 
L 4173 3635 
L 4173 2074 
L 3283 2074 
z
" transform="scale(0.015625)"/>
     <path id="NotoSerifCJKjp-Regular-5bf9" d="M 3117 2912 
L 3053 2848 
C 3462 2470 3674 1882 3789 1517 
C 4205 1139 4576 2266 3117 2912 
z
M 5619 4173 
L 5331 3770 
L 5146 3770 
L 5146 5088 
C 5299 5107 5363 5165 5382 5254 
L 4730 5331 
L 4730 3770 
L 2810 3770 
L 2861 3584 
L 4730 3584 
L 4730 179 
C 4730 77 4691 38 4550 38 
C 4403 38 3610 90 3610 90 
L 3610 -6 
C 3949 -45 4134 -102 4250 -179 
C 4352 -256 4397 -365 4416 -493 
C 5069 -435 5146 -198 5146 141 
L 5146 3584 
L 5965 3584 
C 6048 3584 6112 3616 6131 3686 
C 5946 3891 5619 4173 5619 4173 
z
M 730 3693 
L 640 3629 
C 1056 3245 1434 2739 1734 2227 
C 1357 1318 838 461 186 -192 
L 282 -269 
C 1011 307 1555 1037 1965 1824 
C 2195 1376 2374 941 2464 608 
C 2707 45 3136 390 2746 1248 
C 2611 1542 2413 1882 2157 2227 
C 2470 2918 2682 3642 2829 4320 
C 2976 4333 3040 4346 3085 4410 
L 2618 4845 
L 2362 4576 
L 307 4576 
L 365 4384 
L 2387 4384 
C 2272 3795 2106 3181 1875 2579 
C 1562 2957 1184 3334 730 3693 
z
" transform="scale(0.015625)"/>
     <path id="NotoSerifCJKjp-Regular-6bd4" d="M 5587 4045 
C 5101 3565 4499 3104 4006 2797 
L 4006 5030 
C 4160 5056 4218 5126 4230 5210 
L 3590 5286 
L 3590 166 
C 3590 -218 3738 -346 4256 -346 
L 4902 -346 
C 5901 -346 6138 -275 6138 -77 
C 6138 13 6099 64 5946 122 
L 5920 1210 
L 5837 1210 
C 5760 755 5677 269 5626 160 
C 5600 96 5562 77 5485 64 
C 5395 58 5197 51 4915 51 
L 4326 51 
C 4058 51 4006 115 4006 282 
L 4006 2637 
C 4576 2835 5248 3155 5818 3552 
C 5939 3494 6016 3501 6067 3552 
L 5587 4045 
z
M 1069 5286 
L 1069 326 
C 730 237 454 173 269 141 
L 602 -442 
C 659 -416 710 -358 736 -275 
C 1875 166 2682 531 3258 794 
L 3232 896 
C 2611 723 2003 563 1485 429 
L 1485 3072 
L 3174 3072 
C 3258 3072 3328 3104 3341 3168 
C 3130 3379 2758 3680 2758 3680 
L 2445 3251 
L 1485 3251 
L 1485 5030 
C 1645 5056 1702 5120 1715 5210 
L 1069 5286 
z
" transform="scale(0.015625)"/>
     <path id="NotoSerifCJKjp-Regular-56fe" d="M 2669 2067 
L 2643 1965 
C 3155 1824 3578 1574 3757 1402 
C 4154 1293 4269 2086 2669 2067 
z
M 2016 1248 
L 1990 1146 
C 2976 928 3821 538 4186 269 
C 4685 154 4755 1133 2016 1248 
z
M 5261 4800 
L 5261 128 
L 1120 128 
L 1120 4800 
L 5261 4800 
z
M 1120 -326 
L 1120 -58 
L 5261 -58 
L 5261 -461 
L 5325 -461 
C 5478 -461 5677 -339 5683 -301 
L 5683 4723 
C 5811 4749 5920 4787 5965 4845 
L 5440 5261 
L 5197 4986 
L 1158 4986 
L 704 5210 
L 704 -493 
L 781 -493 
C 973 -493 1120 -390 1120 -326 
z
M 3008 4506 
L 2426 4742 
C 2253 4134 1875 3373 1414 2848 
L 1478 2765 
C 1786 3008 2067 3309 2304 3622 
C 2477 3302 2707 3021 2982 2784 
C 2502 2400 1920 2074 1293 1843 
L 1350 1747 
C 2067 1946 2694 2234 3226 2592 
C 3667 2272 4192 2035 4781 1869 
C 4832 2061 4954 2189 5120 2214 
L 5126 2291 
C 4557 2394 4000 2566 3520 2810 
C 3904 3117 4224 3456 4467 3834 
C 4627 3840 4691 3853 4742 3904 
L 4294 4320 
L 4013 4064 
L 2592 4064 
C 2669 4192 2733 4320 2784 4442 
C 2906 4429 2982 4442 3008 4506 
z
M 2387 3744 
L 2483 3878 
L 3974 3878 
C 3782 3565 3526 3258 3219 2982 
C 2880 3194 2592 3450 2387 3744 
z
" transform="scale(0.015625)"/>
    </defs>
    <use xlink:href="#NotoSerifCJKjp-Regular-50"/>
    <use xlink:href="#NotoSerifCJKjp-Regular-32" transform="translate(64.099991 0)"/>
    <use xlink:href="#NotoSerifCJKjp-Regular-20" transform="translate(119.899979 0)"/>
    <use xlink:href="#NotoSerifCJKjp-Regular-2f" transform="translate(145.499969 0)"/>
    <use xlink:href="#NotoSerifCJKjp-Regular-20" transform="translate(180.699966 0)"/>
    <use xlink:href="#NotoSerifCJKjp-Regular-50" transform="translate(206.299957 0)"/>
    <use xlink:href="#NotoSerifCJKjp-Regular-33" transform="translate(270.399948 0)"/>
    <use xlink:href="#NotoSerifCJKjp-Regular-20" transform="translate(326.099945 0)"/>
    <use xlink:href="#NotoSerifCJKjp-Regular-20" transform="translate(351.699936 0)"/>
    <use xlink:href="#NotoSerifCJKjp-Regular-5173" transform="translate(377.299927 0)"/>
    <use xlink:href="#NotoSerifCJKjp-Regular-952e" transform="translate(477.299911 0)"/>
    <use xlink:href="#NotoSerifCJKjp-Regular-8bbe" transform="translate(577.299896 0)"/>
    <use xlink:href="#NotoSerifCJKjp-Regular-5907" transform="translate(677.299881 0)"/>
    <use xlink:href="#NotoSerifCJKjp-Regular-65f6" transform="translate(777.299866 0)"/>
    <use xlink:href="#NotoSerifCJKjp-Regular-95f4" transform="translate(877.29985 0)"/>
    <use xlink:href="#NotoSerifCJKjp-Regular-8f74" transform="translate(977.299835 0)"/>
    <use xlink:href="#NotoSerifCJKjp-Regular-5bf9" transform="translate(1077.29982 0)"/>
    <use xlink:href="#NotoSerifCJKjp-Regular-6bd4" transform="translate(1177.299805 0)"/>
    <use xlink:href="#NotoSerifCJKjp-Regular-56fe" transform="translate(1277.299789 0)"/>
   </g>
  </g>
 </g>
 <defs>
  <clipPath id="p5e45ad53cd">
   <rect x="44.95" y="60.28125" width="846.060038" height="154.8475"/>
  </clipPath>
  <clipPath id="pca8a30cd68">
   <rect x="44.95" y="243.99" width="846.060038" height="154.8475"/>
  </clipPath>
 </defs>
</svg>
