<?xml version="1.0" encoding="utf-8" standalone="no"?>
<!DOCTYPE svg PUBLIC "-//W3C//DTD SVG 1.1//EN"
  "http://www.w3.org/Graphics/SVG/1.1/DTD/svg11.dtd">
<svg xmlns:xlink="http://www.w3.org/1999/xlink" width="806.900364pt" height="492.277143pt" viewBox="0 0 806.900364 492.277143" xmlns="http://www.w3.org/2000/svg" version="1.1">
 <metadata>
  <rdf:RDF xmlns:dc="http://purl.org/dc/elements/1.1/" xmlns:cc="http://creativecommons.org/ns#" xmlns:rdf="http://www.w3.org/1999/02/22-rdf-syntax-ns#">
   <cc:Work>
    <dc:type rdf:resource="http://purl.org/dc/dcmitype/StillImage"/>
    <dc:date>2026-05-02T23:32:14.904499</dc:date>
    <dc:format>image/svg+xml</dc:format>
    <dc:creator>
     <cc:Agent>
      <dc:title>Matplotlib v3.10.8, https://matplotlib.org/</dc:title>
     </cc:Agent>
    </dc:creator>
   </cc:Work>
  </rdf:RDF>
 </metadata>
 <defs>
  <style type="text/css">*{stroke-linejoin: round; stroke-linecap: butt}</style>
 </defs>
 <g id="figure_1">
  <g id="patch_1">
   <path d="M 0 492.277143 
L 806.900364 492.277143 
L 806.900364 0 
L 0 0 
z
" style="fill: #fafaf7"/>
  </g>
  <g id="axes_1">
   <g id="patch_2">
    <path d="M 44.95 190.285714 
L 770.35 190.285714 
L 770.35 9.257143 
L 44.95 9.257143 
z
" style="fill: #fafaf7"/>
   </g>
   <g id="patch_3">
    <path d="M 70.595455 182.057143 
L 153.027273 182.057143 
L 153.027273 120.342857 
L 70.595455 120.342857 
z
" clip-path="url(#p0341136d23)" style="fill: #f4a261; stroke: #ffffff; stroke-width: 0.5; stroke-linejoin: miter"/>
   </g>
   <g id="patch_4">
    <path d="M 140.076318 79.2 
L 173.049045 79.2 
L 173.049045 17.485714 
L 140.076318 17.485714 
z
" clip-path="url(#p0341136d23)" style="fill: #6fa8dc; stroke: #ffffff; stroke-width: 0.5; stroke-linejoin: miter"/>
   </g>
   <g id="patch_5">
    <path d="M 157.075591 182.057143 
L 212.030136 182.057143 
L 212.030136 120.342857 
L 157.075591 120.342857 
z
" clip-path="url(#p0341136d23)" style="fill: #f4a261; stroke: #ffffff; stroke-width: 0.5; stroke-linejoin: miter"/>
   </g>
   <g id="patch_6">
    <path d="M 176.254727 79.2 
L 258.686545 79.2 
L 258.686545 17.485714 
L 176.254727 17.485714 
z
" clip-path="url(#p0341136d23)" style="fill: #6fa8dc; stroke: #ffffff; stroke-width: 0.5; stroke-linejoin: miter"/>
   </g>
   <g id="patch_7">
    <path d="M 213.220818 182.057143 
L 419.300364 182.057143 
L 419.300364 120.342857 
L 213.220818 120.342857 
z
" clip-path="url(#p0341136d23)" style="fill: #f4a261; stroke: #ffffff; stroke-width: 0.5; stroke-linejoin: miter"/>
   </g>
   <g id="patch_8">
    <path d="M 260.747341 79.2 
L 343.179159 79.2 
L 343.179159 17.485714 
L 260.747341 17.485714 
z
" clip-path="url(#p0341136d23)" style="fill: #6fa8dc; stroke: #ffffff; stroke-width: 0.5; stroke-linejoin: miter"/>
   </g>
   <g id="patch_9">
    <path d="M 344.369841 79.2 
L 410.315295 79.2 
L 410.315295 17.485714 
L 344.369841 17.485714 
z
" clip-path="url(#p0341136d23)" style="fill: #6fa8dc; stroke: #ffffff; stroke-width: 0.5; stroke-linejoin: miter"/>
   </g>
   <g id="patch_10">
    <path d="M 419.300364 79.2 
L 501.732182 79.2 
L 501.732182 17.485714 
L 419.300364 17.485714 
z
" clip-path="url(#p0341136d23)" style="fill: #6fa8dc; stroke: #ffffff; stroke-width: 0.5; stroke-linejoin: miter"/>
   </g>
   <g id="patch_11">
    <path d="M 439.99075 182.057143 
L 494.945295 182.057143 
L 494.945295 120.342857 
L 439.99075 120.342857 
z
" clip-path="url(#p0341136d23)" style="fill: #f4a261; stroke: #ffffff; stroke-width: 0.5; stroke-linejoin: miter"/>
   </g>
   <g id="patch_12">
    <path d="M 501.732182 182.057143 
L 617.136727 182.057143 
L 617.136727 120.342857 
L 501.732182 120.342857 
z
" clip-path="url(#p0341136d23)" style="fill: #f4a261; stroke: #ffffff; stroke-width: 0.5; stroke-linejoin: miter"/>
   </g>
   <g id="patch_13">
    <path d="M 505.936205 79.2 
L 571.881659 79.2 
L 571.881659 17.485714 
L 505.936205 17.485714 
z
" clip-path="url(#p0341136d23)" style="fill: #6fa8dc; stroke: #ffffff; stroke-width: 0.5; stroke-linejoin: miter"/>
   </g>
   <g id="patch_14">
    <path d="M 574.400409 79.2 
L 633.751318 79.2 
L 633.751318 17.485714 
L 574.400409 17.485714 
z
" clip-path="url(#p0341136d23)" style="fill: #6fa8dc; stroke: #ffffff; stroke-width: 0.5; stroke-linejoin: miter"/>
   </g>
   <g id="patch_15">
    <path d="M 618.327409 182.057143 
L 673.281955 182.057143 
L 673.281955 120.342857 
L 618.327409 120.342857 
z
" clip-path="url(#p0341136d23)" style="fill: #f4a261; stroke: #ffffff; stroke-width: 0.5; stroke-linejoin: miter"/>
   </g>
   <g id="patch_16">
    <path d="M 673.281955 79.2 
L 739.227409 79.2 
L 739.227409 17.485714 
L 673.281955 17.485714 
z
" clip-path="url(#p0341136d23)" style="fill: #6fa8dc; stroke: #ffffff; stroke-width: 0.5; stroke-linejoin: miter"/>
   </g>
   <g id="patch_17">
    <path d="M 675.800705 182.057143 
L 725.259795 182.057143 
L 725.259795 120.342857 
L 675.800705 120.342857 
z
" clip-path="url(#p0341136d23)" style="fill: #f4a261; stroke: #ffffff; stroke-width: 0.5; stroke-linejoin: miter"/>
   </g>
   <g id="matplotlib.axis_1">
    <g id="xtick_1">
     <g id="line2d_1">
      <defs>
       <path id="m75065e519d" d="M 0 0 
L 0 3.5 
" style="stroke: #2f3437; stroke-width: 0.8"/>
      </defs>
      <g>
       <use xlink:href="#m75065e519d" x="44.95" y="190.285714" style="fill: #2f3437; stroke: #2f3437; stroke-width: 0.8"/>
      </g>
     </g>
    </g>
    <g id="xtick_2">
     <g id="line2d_2">
      <g>
       <use xlink:href="#m75065e519d" x="127.381818" y="190.285714" style="fill: #2f3437; stroke: #2f3437; stroke-width: 0.8"/>
      </g>
     </g>
    </g>
    <g id="xtick_3">
     <g id="line2d_3">
      <g>
       <use xlink:href="#m75065e519d" x="209.813636" y="190.285714" style="fill: #2f3437; stroke: #2f3437; stroke-width: 0.8"/>
      </g>
     </g>
    </g>
    <g id="xtick_4">
     <g id="line2d_4">
      <g>
       <use xlink:href="#m75065e519d" x="292.245455" y="190.285714" style="fill: #2f3437; stroke: #2f3437; stroke-width: 0.8"/>
      </g>
     </g>
    </g>
    <g id="xtick_5">
     <g id="line2d_5">
      <g>
       <use xlink:href="#m75065e519d" x="374.677273" y="190.285714" style="fill: #2f3437; stroke: #2f3437; stroke-width: 0.8"/>
      </g>
     </g>
    </g>
    <g id="xtick_6">
     <g id="line2d_6">
      <g>
       <use xlink:href="#m75065e519d" x="457.109091" y="190.285714" style="fill: #2f3437; stroke: #2f3437; stroke-width: 0.8"/>
      </g>
     </g>
    </g>
    <g id="xtick_7">
     <g id="line2d_7">
      <g>
       <use xlink:href="#m75065e519d" x="539.540909" y="190.285714" style="fill: #2f3437; stroke: #2f3437; stroke-width: 0.8"/>
      </g>
     </g>
    </g>
    <g id="xtick_8">
     <g id="line2d_8">
      <g>
       <use xlink:href="#m75065e519d" x="621.972727" y="190.285714" style="fill: #2f3437; stroke: #2f3437; stroke-width: 0.8"/>
      </g>
     </g>
    </g>
    <g id="xtick_9">
     <g id="line2d_9">
      <g>
       <use xlink:href="#m75065e519d" x="704.404545" y="190.285714" style="fill: #2f3437; stroke: #2f3437; stroke-width: 0.8"/>
      </g>
     </g>
    </g>
   </g>
   <g id="matplotlib.axis_2">
    <g id="ytick_1">
     <g id="line2d_10">
      <defs>
       <path id="m7a1ab00416" d="M 0 0 
L -3.5 0 
" style="stroke: #2f3437; stroke-width: 0.8"/>
      </defs>
      <g>
       <use xlink:href="#m7a1ab00416" x="44.95" y="151.2" style="fill: #2f3437; stroke: #2f3437; stroke-width: 0.8"/>
      </g>
     </g>
     <g id="text_1">
      <!-- HPM1-1 -->
      <g style="fill: #2f3437" transform="translate(7.89625 154.42) scale(0.08 -0.08)">
       <defs>
        <path id="NotoSerifCJKjp-Regular-48" d="M 3226 4467 
L 3878 4416 
C 3891 3789 3891 3155 3891 2522 
L 1574 2522 
C 1574 3162 1574 3795 1581 4416 
L 2240 4467 
L 2240 4659 
L 339 4659 
L 339 4467 
L 998 4416 
C 1005 3782 1005 3142 1005 2502 
L 1005 2157 
C 1005 1510 1005 877 998 250 
L 339 192 
L 339 0 
L 2240 0 
L 2240 192 
L 1581 250 
C 1574 870 1574 1517 1574 2310 
L 3891 2310 
C 3891 1517 3891 870 3878 250 
L 3226 192 
L 3226 0 
L 5126 0 
L 5126 192 
L 4467 250 
C 4454 877 4454 1517 4454 2157 
L 4454 2502 
C 4454 3149 4454 3789 4467 4416 
L 5126 4467 
L 5126 4659 
L 3226 4659 
L 3226 4467 
z
" transform="scale(0.015625)"/>
        <path id="NotoSerifCJKjp-Regular-50" d="M 339 4467 
L 998 4416 
C 1005 3782 1005 3142 1005 2502 
L 1005 2157 
C 1005 1510 1005 877 998 250 
L 339 192 
L 339 0 
L 2310 0 
L 2310 192 
L 1581 256 
L 1574 1907 
L 1958 1907 
C 3302 1907 3866 2515 3866 3302 
C 3866 4141 3322 4659 2150 4659 
L 339 4659 
L 339 4467 
z
M 1574 2118 
L 1574 2502 
C 1574 3162 1574 3808 1581 4448 
L 2106 4448 
C 2938 4448 3315 4051 3315 3309 
C 3315 2605 2918 2118 1946 2118 
L 1574 2118 
z
" transform="scale(0.015625)"/>
        <path id="NotoSerifCJKjp-Regular-4d" d="M 4659 0 
L 5914 0 
L 5914 192 
L 5242 250 
C 5235 877 5235 1510 5235 2157 
L 5235 2502 
C 5235 3142 5235 3789 5242 4416 
L 5901 4467 
L 5901 4659 
L 4646 4659 
L 3085 749 
L 1491 4659 
L 269 4659 
L 269 4467 
L 915 4410 
L 902 262 
L 262 192 
L 262 0 
L 1830 0 
L 1830 192 
L 1152 262 
L 1152 2477 
L 1120 4160 
L 2822 0 
L 3034 0 
L 4691 4160 
L 4672 2080 
C 4672 1510 4672 877 4666 250 
L 4013 192 
L 4013 0 
L 4659 0 
z
" transform="scale(0.015625)"/>
        <path id="NotoSerifCJKjp-Regular-31" d="M 480 0 
L 2733 -6 
L 2733 173 
L 1907 269 
L 1894 1472 
L 1894 3642 
L 1920 4653 
L 1824 4723 
L 448 4371 
L 448 4179 
L 1370 4333 
L 1370 1472 
L 1357 269 
L 480 179 
L 480 0 
z
" transform="scale(0.015625)"/>
        <path id="NotoSerifCJKjp-Regular-2d" d="M 275 1549 
L 1933 1549 
L 1933 1875 
L 275 1875 
L 275 1549 
z
" transform="scale(0.015625)"/>
       </defs>
       <use xlink:href="#NotoSerifCJKjp-Regular-48"/>
       <use xlink:href="#NotoSerifCJKjp-Regular-50" transform="translate(85.299988 0)"/>
       <use xlink:href="#NotoSerifCJKjp-Regular-4d" transform="translate(149.399979 0)"/>
       <use xlink:href="#NotoSerifCJKjp-Regular-31" transform="translate(246.899963 0)"/>
       <use xlink:href="#NotoSerifCJKjp-Regular-2d" transform="translate(293.999954 0)"/>
       <use xlink:href="#NotoSerifCJKjp-Regular-31" transform="translate(328.599945 0)"/>
      </g>
     </g>
    </g>
    <g id="ytick_2">
     <g id="line2d_11">
      <g>
       <use xlink:href="#m7a1ab00416" x="44.95" y="48.342857" style="fill: #2f3437; stroke: #2f3437; stroke-width: 0.8"/>
      </g>
     </g>
     <g id="text_2">
      <!-- ASM1-1 -->
      <g style="fill: #2f3437" transform="translate(9.5675 51.562857) scale(0.08 -0.08)">
       <defs>
        <path id="NotoSerifCJKjp-Regular-41" d="M 2125 4115 
L 2880 1798 
L 1382 1798 
L 2125 4115 
z
M 2675 0 
L 4550 0 
L 4550 192 
L 3962 243 
L 2458 4698 
L 2099 4698 
L 621 256 
L 77 192 
L 77 0 
L 1510 0 
L 1510 192 
L 890 256 
L 1318 1594 
L 2950 1594 
L 3386 250 
L 2675 192 
L 2675 0 
z
" transform="scale(0.015625)"/>
        <path id="NotoSerifCJKjp-Regular-53" d="M 1690 -102 
C 2669 -102 3315 397 3315 1197 
C 3315 1850 3014 2208 2042 2611 
L 1754 2726 
C 1248 2938 947 3206 947 3686 
C 947 4250 1376 4531 1978 4531 
C 2234 4531 2426 4486 2624 4371 
L 2797 3507 
L 3072 3507 
L 3098 4416 
C 2784 4640 2432 4768 1946 4768 
C 1120 4768 454 4352 454 3546 
C 454 2893 851 2490 1613 2170 
L 1888 2061 
C 2586 1773 2810 1523 2810 1056 
C 2810 442 2349 128 1651 128 
C 1318 128 1082 173 813 326 
L 640 1222 
L 378 1222 
L 339 269 
C 653 64 1158 -102 1690 -102 
z
" transform="scale(0.015625)"/>
       </defs>
       <use xlink:href="#NotoSerifCJKjp-Regular-41"/>
       <use xlink:href="#NotoSerifCJKjp-Regular-53" transform="translate(71.799988 0)"/>
       <use xlink:href="#NotoSerifCJKjp-Regular-4d" transform="translate(128.499985 0)"/>
       <use xlink:href="#NotoSerifCJKjp-Regular-31" transform="translate(225.999969 0)"/>
       <use xlink:href="#NotoSerifCJKjp-Regular-2d" transform="translate(273.09996 0)"/>
       <use xlink:href="#NotoSerifCJKjp-Regular-31" transform="translate(307.699951 0)"/>
      </g>
     </g>
    </g>
   </g>
   <g id="line2d_12">
    <path d="M 739.227409 190.285714 
L 739.227409 9.257143 
" clip-path="url(#p0341136d23)" style="fill: none; stroke-dasharray: 4.44,1.92; stroke-dashoffset: 0; stroke: #e76f51; stroke-width: 1.2"/>
   </g>
   <g id="patch_18">
    <path d="M 44.95 190.285714 
L 44.95 9.257143 
" style="fill: none; stroke: #b8c2cc; stroke-width: 0.8; stroke-linejoin: miter; stroke-linecap: square"/>
   </g>
   <g id="patch_19">
    <path d="M 770.35 190.285714 
L 770.35 9.257143 
" style="fill: none; stroke: #b8c2cc; stroke-width: 0.8; stroke-linejoin: miter; stroke-linecap: square"/>
   </g>
   <g id="patch_20">
    <path d="M 44.95 190.285714 
L 770.35 190.285714 
" style="fill: none; stroke: #b8c2cc; stroke-width: 0.8; stroke-linejoin: miter; stroke-linecap: square"/>
   </g>
   <g id="patch_21">
    <path d="M 44.95 9.257143 
L 770.35 9.257143 
" style="fill: none; stroke: #b8c2cc; stroke-width: 0.8; stroke-linejoin: miter; stroke-linecap: square"/>
   </g>
   <g id="text_3">
    <g clip-path="url(#p0341136d23)">
     <!-- A2 -->
     <g style="fill: #ffffff" transform="translate(107.345582 153.1075) scale(0.07 -0.07)">
      <defs>
       <path id="NotoSerifCJKjp-Regular-32" d="M 410 0 
L 3270 0 
L 3270 448 
L 762 448 
C 1152 877 1530 1293 1715 1485 
C 2688 2483 3078 2950 3078 3539 
C 3078 4294 2637 4755 1779 4755 
C 1126 4755 512 4422 410 3770 
C 448 3642 550 3571 672 3571 
C 819 3571 922 3654 986 3904 
L 1139 4461 
C 1306 4531 1466 4557 1626 4557 
C 2195 4557 2534 4192 2534 3552 
C 2534 2989 2253 2541 1574 1722 
C 1261 1350 832 845 410 346 
L 410 0 
z
" transform="scale(0.015625)"/>
      </defs>
      <use xlink:href="#NotoSerifCJKjp-Regular-41"/>
      <use xlink:href="#NotoSerifCJKjp-Regular-32" transform="translate(71.799988 0)"/>
     </g>
    </g>
   </g>
   <g id="text_4">
    <g clip-path="url(#p0341136d23)">
     <!-- E3 -->
     <g style="fill: #ffffff" transform="translate(152.330963 50.250357) scale(0.07 -0.07)">
      <defs>
       <path id="NotoSerifCJKjp-Regular-45" d="M 3507 3507 
L 3782 3507 
L 3738 4659 
L 339 4659 
L 339 4467 
L 998 4416 
C 1005 3782 1005 3142 1005 2502 
L 1005 2157 
C 1005 1510 1005 877 998 250 
L 339 192 
L 339 0 
L 3853 0 
L 3891 1171 
L 3622 1171 
L 3437 218 
L 1581 218 
C 1574 851 1574 1504 1574 2259 
L 2707 2259 
L 2790 1600 
L 3014 1600 
L 3014 3142 
L 2790 3142 
L 2707 2470 
L 1574 2470 
C 1574 3168 1574 3814 1581 4435 
L 3328 4435 
L 3507 3507 
z
" transform="scale(0.015625)"/>
       <path id="NotoSerifCJKjp-Regular-33" d="M 1638 -96 
C 2534 -96 3155 416 3155 1203 
C 3155 1875 2778 2342 1952 2458 
C 2662 2618 3021 3085 3021 3629 
C 3021 4301 2547 4755 1728 4755 
C 1120 4755 550 4499 442 3866 
C 480 3757 576 3706 685 3706 
C 845 3706 941 3776 998 3994 
L 1146 4486 
C 1306 4538 1453 4557 1606 4557 
C 2163 4557 2477 4205 2477 3610 
C 2477 2925 2035 2554 1414 2554 
L 1158 2554 
L 1158 2330 
L 1446 2330 
C 2214 2330 2611 1926 2611 1222 
C 2611 544 2202 102 1491 102 
C 1312 102 1158 134 1018 186 
L 864 685 
C 806 922 717 1011 563 1011 
C 442 1011 346 941 301 813 
C 429 218 909 -96 1638 -96 
z
" transform="scale(0.015625)"/>
      </defs>
      <use xlink:href="#NotoSerifCJKjp-Regular-45"/>
      <use xlink:href="#NotoSerifCJKjp-Regular-33" transform="translate(65.199997 0)"/>
     </g>
    </g>
   </g>
   <g id="text_5">
    <g clip-path="url(#p0341136d23)">
     <!-- C4_1 -->
     <g style="fill: #ffffff" transform="translate(176.573411 153.1075) scale(0.07 -0.07)">
      <defs>
       <path id="NotoSerifCJKjp-Regular-43" d="M 2701 -102 
C 3219 -102 3654 0 4083 256 
L 4096 1274 
L 3808 1274 
L 3616 314 
C 3347 173 3066 115 2758 115 
C 1728 115 966 896 966 2330 
C 966 3744 1728 4538 2784 4538 
C 3078 4538 3322 4486 3565 4358 
L 3757 3386 
L 4045 3386 
L 4026 4410 
C 3616 4653 3226 4768 2701 4768 
C 1363 4768 358 3814 358 2317 
C 358 813 1325 -102 2701 -102 
z
" transform="scale(0.015625)"/>
       <path id="NotoSerifCJKjp-Regular-34" d="M 2170 -115 
L 2650 -115 
L 2650 1229 
L 3418 1229 
L 3418 1600 
L 2650 1600 
L 2650 4730 
L 2291 4730 
L 218 1530 
L 218 1229 
L 2170 1229 
L 2170 -115 
z
M 493 1600 
L 1389 2989 
L 2170 4211 
L 2170 1600 
L 493 1600 
z
" transform="scale(0.015625)"/>
       <path id="NotoSerifCJKjp-Regular-5f" d="M -32 -448 
L 3642 -448 
L 3642 -141 
L -32 -141 
L -32 -448 
z
" transform="scale(0.015625)"/>
      </defs>
      <use xlink:href="#NotoSerifCJKjp-Regular-43"/>
      <use xlink:href="#NotoSerifCJKjp-Regular-34" transform="translate(69.099991 0)"/>
      <use xlink:href="#NotoSerifCJKjp-Regular-5f" transform="translate(124.599976 0)"/>
      <use xlink:href="#NotoSerifCJKjp-Regular-31" transform="translate(180.899963 0)"/>
     </g>
    </g>
   </g>
   <g id="text_6">
    <g clip-path="url(#p0341136d23)">
     <!-- A3 -->
     <g style="fill: #ffffff" transform="translate(213.008136 50.250357) scale(0.07 -0.07)">
      <use xlink:href="#NotoSerifCJKjp-Regular-41"/>
      <use xlink:href="#NotoSerifCJKjp-Regular-33" transform="translate(71.799988 0)"/>
     </g>
    </g>
   </g>
   <g id="text_7">
    <g clip-path="url(#p0341136d23)">
     <!-- D4 -->
     <g style="fill: #ffffff" transform="translate(311.623091 153.1075) scale(0.07 -0.07)">
      <defs>
       <path id="NotoSerifCJKjp-Regular-44" d="M 339 4467 
L 998 4416 
C 1005 3782 1005 3136 1005 2464 
L 1005 2291 
C 1005 1530 1005 877 998 250 
L 339 192 
L 339 0 
L 2163 0 
C 3654 0 4563 896 4563 2330 
C 4563 3814 3693 4659 2253 4659 
L 339 4659 
L 339 4467 
z
M 1581 211 
C 1574 858 1574 1517 1574 2291 
L 1574 2464 
C 1574 3155 1574 3808 1581 4448 
L 2176 4448 
C 3328 4448 3962 3712 3962 2330 
C 3962 1018 3328 211 2106 211 
L 1581 211 
z
" transform="scale(0.015625)"/>
      </defs>
      <use xlink:href="#NotoSerifCJKjp-Regular-44"/>
      <use xlink:href="#NotoSerifCJKjp-Regular-34" transform="translate(76.999985 0)"/>
     </g>
    </g>
   </g>
   <g id="text_8">
    <g clip-path="url(#p0341136d23)">
     <!-- D4 -->
     <g style="fill: #ffffff" transform="translate(297.32575 50.250357) scale(0.07 -0.07)">
      <use xlink:href="#NotoSerifCJKjp-Regular-44"/>
      <use xlink:href="#NotoSerifCJKjp-Regular-34" transform="translate(76.999985 0)"/>
     </g>
    </g>
   </g>
   <g id="text_9">
    <g clip-path="url(#p0341136d23)">
     <!-- C5_1 -->
     <g style="fill: #ffffff" transform="translate(369.352724 50.250357) scale(0.07 -0.07)">
      <defs>
       <path id="NotoSerifCJKjp-Regular-35" d="M 1574 -96 
C 2573 -96 3213 499 3213 1408 
C 3213 2317 2624 2803 1709 2803 
C 1421 2803 1158 2765 902 2656 
L 1005 4211 
L 3091 4211 
L 3091 4659 
L 800 4659 
L 653 2458 
L 813 2394 
C 1037 2496 1286 2547 1562 2547 
C 2221 2547 2650 2176 2650 1382 
C 2650 563 2234 102 1498 102 
C 1293 102 1146 134 998 198 
L 845 691 
C 794 922 710 1005 550 1005 
C 429 1005 326 941 282 819 
C 397 230 883 -96 1574 -96 
z
" transform="scale(0.015625)"/>
      </defs>
      <use xlink:href="#NotoSerifCJKjp-Regular-43"/>
      <use xlink:href="#NotoSerifCJKjp-Regular-35" transform="translate(69.099991 0)"/>
      <use xlink:href="#NotoSerifCJKjp-Regular-5f" transform="translate(124.899979 0)"/>
      <use xlink:href="#NotoSerifCJKjp-Regular-31" transform="translate(181.199966 0)"/>
     </g>
    </g>
   </g>
   <g id="text_10">
    <g clip-path="url(#p0341136d23)">
     <!-- D5 -->
     <g style="fill: #ffffff" transform="translate(455.868382 50.250357) scale(0.07 -0.07)">
      <use xlink:href="#NotoSerifCJKjp-Regular-44"/>
      <use xlink:href="#NotoSerifCJKjp-Regular-35" transform="translate(76.999985 0)"/>
     </g>
    </g>
   </g>
   <g id="text_11">
    <g clip-path="url(#p0341136d23)">
     <!-- C4_2 -->
     <g style="fill: #ffffff" transform="translate(459.18396 153.1075) scale(0.07 -0.07)">
      <use xlink:href="#NotoSerifCJKjp-Regular-43"/>
      <use xlink:href="#NotoSerifCJKjp-Regular-34" transform="translate(69.099991 0)"/>
      <use xlink:href="#NotoSerifCJKjp-Regular-5f" transform="translate(124.599976 0)"/>
      <use xlink:href="#NotoSerifCJKjp-Regular-32" transform="translate(180.899963 0)"/>
     </g>
    </g>
   </g>
   <g id="text_12">
    <g clip-path="url(#p0341136d23)">
     <!-- D6 -->
     <g style="fill: #ffffff" transform="translate(554.786564 153.1075) scale(0.07 -0.07)">
      <defs>
       <path id="NotoSerifCJKjp-Regular-36" d="M 1850 -96 
C 2656 -96 3258 538 3258 1414 
C 3258 2253 2803 2816 2029 2816 
C 1606 2816 1248 2650 941 2323 
C 1107 3450 1850 4339 3136 4614 
L 3104 4755 
C 1414 4557 358 3258 358 1773 
C 358 634 922 -96 1850 -96 
z
M 922 2118 
C 1222 2432 1523 2554 1856 2554 
C 2394 2554 2726 2144 2726 1376 
C 2726 557 2342 102 1856 102 
C 1261 102 909 736 909 1830 
L 922 2118 
z
" transform="scale(0.015625)"/>
      </defs>
      <use xlink:href="#NotoSerifCJKjp-Regular-44"/>
      <use xlink:href="#NotoSerifCJKjp-Regular-36" transform="translate(76.999985 0)"/>
     </g>
    </g>
   </g>
   <g id="text_13">
    <g clip-path="url(#p0341136d23)">
     <!-- C5_2 -->
     <g style="fill: #ffffff" transform="translate(530.614479 50.250357) scale(0.07 -0.07)">
      <use xlink:href="#NotoSerifCJKjp-Regular-43"/>
      <use xlink:href="#NotoSerifCJKjp-Regular-35" transform="translate(69.099991 0)"/>
      <use xlink:href="#NotoSerifCJKjp-Regular-5f" transform="translate(124.899979 0)"/>
      <use xlink:href="#NotoSerifCJKjp-Regular-32" transform="translate(181.199966 0)"/>
     </g>
    </g>
   </g>
   <g id="text_14">
    <g clip-path="url(#p0341136d23)">
     <!-- B4 -->
     <g style="fill: #ffffff" transform="translate(599.788364 50.250357) scale(0.07 -0.07)">
      <defs>
       <path id="NotoSerifCJKjp-Regular-42" d="M 339 4467 
L 998 4416 
C 1005 3782 1005 3149 1005 2515 
L 1005 2176 
C 1005 1523 1005 883 998 250 
L 339 192 
L 339 0 
L 2195 0 
C 3507 0 4006 602 4006 1267 
C 4006 1882 3590 2349 2592 2451 
C 3424 2611 3757 3053 3757 3552 
C 3757 4211 3277 4659 2227 4659 
L 339 4659 
L 339 4467 
z
M 1568 2330 
L 2029 2330 
C 3002 2330 3430 1958 3430 1261 
C 3430 582 2957 211 2150 211 
L 1581 211 
C 1568 858 1568 1523 1568 2330 
z
M 1581 4448 
L 2067 4448 
C 2893 4448 3206 4115 3206 3546 
C 3206 2899 2790 2528 1965 2528 
L 1568 2528 
C 1568 3194 1568 3827 1581 4448 
z
" transform="scale(0.015625)"/>
      </defs>
      <use xlink:href="#NotoSerifCJKjp-Regular-42"/>
      <use xlink:href="#NotoSerifCJKjp-Regular-34" transform="translate(66.999985 0)"/>
     </g>
    </g>
   </g>
   <g id="text_15">
    <g clip-path="url(#p0341136d23)">
     <!-- C4_3 -->
     <g style="fill: #ffffff" transform="translate(637.523901 153.1075) scale(0.07 -0.07)">
      <use xlink:href="#NotoSerifCJKjp-Regular-43"/>
      <use xlink:href="#NotoSerifCJKjp-Regular-34" transform="translate(69.099991 0)"/>
      <use xlink:href="#NotoSerifCJKjp-Regular-5f" transform="translate(124.599976 0)"/>
      <use xlink:href="#NotoSerifCJKjp-Regular-33" transform="translate(180.899963 0)"/>
     </g>
    </g>
   </g>
   <g id="text_16">
    <g clip-path="url(#p0341136d23)">
     <!-- C5_3 -->
     <g style="fill: #ffffff" transform="translate(697.96351 50.250357) scale(0.07 -0.07)">
      <use xlink:href="#NotoSerifCJKjp-Regular-43"/>
      <use xlink:href="#NotoSerifCJKjp-Regular-35" transform="translate(69.099991 0)"/>
      <use xlink:href="#NotoSerifCJKjp-Regular-5f" transform="translate(124.899979 0)"/>
      <use xlink:href="#NotoSerifCJKjp-Regular-33" transform="translate(181.199966 0)"/>
     </g>
    </g>
   </g>
   <g id="text_17">
    <g clip-path="url(#p0341136d23)">
     <!-- B4 -->
     <g style="fill: #ffffff" transform="translate(696.24275 153.1075) scale(0.07 -0.07)">
      <use xlink:href="#NotoSerifCJKjp-Regular-42"/>
      <use xlink:href="#NotoSerifCJKjp-Regular-34" transform="translate(66.999985 0)"/>
     </g>
    </g>
   </g>
   <g id="text_18">
    <!-- $C_{max}$ = 151604 s -->
    <g style="fill: #e76f51" transform="translate(741.700364 13.64) scale(0.08 -0.08)">
     <defs>
      <path id="DejaVuSans-Oblique-43" d="M 4447 4306 
L 4319 3641 
Q 4019 3944 3683 4091 
Q 3347 4238 2956 4238 
Q 2422 4238 2017 3981 
Q 1613 3725 1319 3200 
Q 1131 2863 1032 2486 
Q 934 2109 934 1728 
Q 934 1091 1264 756 
Q 1594 422 2222 422 
Q 2656 422 3056 561 
Q 3456 700 3834 978 
L 3688 231 
Q 3316 72 2936 -9 
Q 2556 -91 2175 -91 
Q 1278 -91 773 396 
Q 269 884 269 1753 
Q 269 2309 461 2846 
Q 653 3384 1013 3828 
Q 1394 4300 1883 4525 
Q 2372 4750 3022 4750 
Q 3422 4750 3780 4639 
Q 4138 4528 4447 4306 
z
" transform="scale(0.015625)"/>
      <path id="DejaVuSans-Oblique-6d" d="M 5747 2113 
L 5338 0 
L 4763 0 
L 5166 2094 
Q 5191 2228 5203 2325 
Q 5216 2422 5216 2491 
Q 5216 2772 5059 2928 
Q 4903 3084 4622 3084 
Q 4203 3084 3875 2770 
Q 3547 2456 3450 1953 
L 3066 0 
L 2491 0 
L 2900 2094 
Q 2925 2209 2937 2307 
Q 2950 2406 2950 2484 
Q 2950 2769 2794 2926 
Q 2638 3084 2363 3084 
Q 1938 3084 1609 2770 
Q 1281 2456 1184 1953 
L 800 0 
L 225 0 
L 909 3500 
L 1484 3500 
L 1375 2956 
Q 1609 3263 1923 3423 
Q 2238 3584 2597 3584 
Q 2978 3584 3223 3384 
Q 3469 3184 3519 2828 
Q 3781 3197 4126 3390 
Q 4472 3584 4856 3584 
Q 5306 3584 5551 3325 
Q 5797 3066 5797 2591 
Q 5797 2488 5784 2364 
Q 5772 2241 5747 2113 
z
" transform="scale(0.015625)"/>
      <path id="DejaVuSans-Oblique-61" d="M 3438 1997 
L 3047 0 
L 2472 0 
L 2578 531 
Q 2325 219 2001 64 
Q 1678 -91 1281 -91 
Q 834 -91 548 182 
Q 263 456 263 884 
Q 263 1497 752 1853 
Q 1241 2209 2100 2209 
L 2900 2209 
L 2931 2363 
Q 2938 2388 2941 2417 
Q 2944 2447 2944 2509 
Q 2944 2788 2717 2942 
Q 2491 3097 2081 3097 
Q 1800 3097 1504 3025 
Q 1209 2953 897 2809 
L 997 3341 
Q 1322 3463 1633 3523 
Q 1944 3584 2234 3584 
Q 2853 3584 3176 3315 
Q 3500 3047 3500 2534 
Q 3500 2431 3484 2292 
Q 3469 2153 3438 1997 
z
M 2816 1759 
L 2241 1759 
Q 1534 1759 1195 1570 
Q 856 1381 856 984 
Q 856 709 1029 553 
Q 1203 397 1509 397 
Q 1978 397 2328 733 
Q 2678 1069 2791 1631 
L 2816 1759 
z
" transform="scale(0.015625)"/>
      <path id="DejaVuSans-Oblique-78" d="M 3841 3500 
L 2234 1784 
L 3219 0 
L 2559 0 
L 1819 1388 
L 531 0 
L -166 0 
L 1556 1844 
L 641 3500 
L 1300 3500 
L 1972 2234 
L 3144 3500 
L 3841 3500 
z
" transform="scale(0.015625)"/>
      <path id="NotoSerifCJKjp-Regular-20" transform="scale(0.015625)"/>
      <path id="NotoSerifCJKjp-Regular-3d" d="M 3475 1466 
L 3475 1734 
L 243 1734 
L 243 1466 
L 3475 1466 
z
M 3475 2874 
L 3475 3142 
L 243 3142 
L 243 2874 
L 3475 2874 
z
" transform="scale(0.015625)"/>
      <path id="NotoSerifCJKjp-Regular-30" d="M 1779 -96 
C 2547 -96 3258 602 3258 2342 
C 3258 4058 2547 4755 1779 4755 
C 1011 4755 301 4058 301 2342 
C 301 602 1011 -96 1779 -96 
z
M 1779 102 
C 1299 102 832 640 832 2342 
C 832 4019 1299 4550 1779 4550 
C 2253 4550 2726 4019 2726 2342 
C 2726 640 2253 102 1779 102 
z
" transform="scale(0.015625)"/>
      <path id="NotoSerifCJKjp-Regular-73" d="M 1414 -96 
C 2285 -96 2733 339 2733 896 
C 2733 1344 2483 1632 1837 1856 
L 1510 1971 
C 1043 2131 858 2304 858 2611 
C 858 2950 1107 3187 1594 3187 
C 1798 3187 1978 3142 2170 3034 
L 2298 2426 
L 2554 2426 
L 2573 3110 
C 2253 3302 1978 3398 1594 3398 
C 826 3398 397 2982 397 2445 
C 397 1965 723 1690 1242 1504 
L 1574 1382 
C 2093 1216 2253 1037 2253 723 
C 2253 358 1965 109 1402 109 
C 1133 109 934 154 755 237 
L 627 922 
L 346 922 
L 346 160 
C 691 -6 1005 -96 1414 -96 
z
" transform="scale(0.015625)"/>
     </defs>
     <use xlink:href="#DejaVuSans-Oblique-43" transform="translate(0 0.703125)"/>
     <use xlink:href="#DejaVuSans-Oblique-6d" transform="translate(69.824219 -15.703125) scale(0.7)"/>
     <use xlink:href="#DejaVuSans-Oblique-61" transform="translate(138.012695 -15.703125) scale(0.7)"/>
     <use xlink:href="#DejaVuSans-Oblique-78" transform="translate(180.908203 -15.703125) scale(0.7)"/>
     <use xlink:href="#NotoSerifCJKjp-Regular-20" transform="translate(225.068359 0.703125)"/>
     <use xlink:href="#NotoSerifCJKjp-Regular-3d" transform="translate(250.66835 0.703125)"/>
     <use xlink:href="#NotoSerifCJKjp-Regular-20" transform="translate(308.668335 0.703125)"/>
     <use xlink:href="#NotoSerifCJKjp-Regular-31" transform="translate(334.268326 0.703125)"/>
     <use xlink:href="#NotoSerifCJKjp-Regular-35" transform="translate(381.368317 0.703125)"/>
     <use xlink:href="#NotoSerifCJKjp-Regular-31" transform="translate(437.168304 0.703125)"/>
     <use xlink:href="#NotoSerifCJKjp-Regular-36" transform="translate(484.268295 0.703125)"/>
     <use xlink:href="#NotoSerifCJKjp-Regular-30" transform="translate(540.068283 0.703125)"/>
     <use xlink:href="#NotoSerifCJKjp-Regular-34" transform="translate(595.76828 0.703125)"/>
     <use xlink:href="#NotoSerifCJKjp-Regular-20" transform="translate(651.268265 0.703125)"/>
     <use xlink:href="#NotoSerifCJKjp-Regular-73" transform="translate(676.868256 0.703125)"/>
    </g>
   </g>
   <g id="text_19">
    <g id="patch_22">
     <path d="M 299.767109 232.692786 
L 515.532891 232.692786 
Q 518.857891 232.692786 518.857891 229.367786 
L 518.857891 219.250286 
Q 518.857891 215.925286 515.532891 215.925286 
L 299.767109 215.925286 
Q 296.442109 215.925286 296.442109 219.250286 
L 296.442109 229.367786 
Q 296.442109 232.692786 299.767109 232.692786 
z
" style="fill: #fce1c6; opacity: 0.9; stroke: #e76f51; stroke-linejoin: miter"/>
    </g>
    <!-- 151604 s → 123844 s，缩短 27760 s，降幅 18.31% -->
    <g style="fill: #e76f51" transform="translate(299.767109 226.897786) scale(0.095 -0.095)">
     <defs>
      <path id="NotoSerifCJKjp-Regular-2192" d="M 5510 2573 
L 256 2573 
L 256 2291 
L 5510 2291 
C 5107 1990 4634 1530 4294 1069 
L 4512 896 
C 4947 1491 5600 2061 6182 2432 
C 5600 2803 4947 3373 4512 3968 
L 4294 3795 
C 4627 3341 5107 2874 5510 2573 
z
" transform="scale(0.015625)"/>
      <path id="NotoSerifCJKjp-Regular-38" d="M 1754 -96 
C 2637 -96 3219 384 3219 1126 
C 3219 1722 2893 2131 2093 2502 
C 2784 2829 3027 3251 3027 3686 
C 3027 4301 2579 4755 1798 4755 
C 1075 4755 499 4307 499 3603 
C 499 3059 774 2605 1434 2285 
C 730 1978 365 1587 365 1024 
C 365 352 858 -96 1754 -96 
z
M 1946 2573 
C 1178 2912 973 3302 973 3731 
C 973 4243 1357 4550 1792 4550 
C 2304 4550 2579 4160 2579 3699 
C 2579 3213 2394 2880 1946 2573 
z
M 1587 2214 
C 2458 1830 2720 1453 2720 986 
C 2720 454 2374 102 1779 102 
C 1184 102 832 474 832 1082 
C 832 1568 1050 1888 1587 2214 
z
" transform="scale(0.015625)"/>
      <path id="NotoSerifCJKjp-Regular-ff0c" d="M 1152 -166 
C 890 -70 576 38 576 365 
C 576 570 730 755 992 755 
C 1293 755 1466 499 1466 154 
C 1466 -320 1254 -934 589 -1254 
L 486 -1094 
C 979 -819 1126 -442 1152 -166 
z
" transform="scale(0.015625)"/>
      <path id="NotoSerifCJKjp-Regular-7f29" d="M 3744 5395 
L 3680 5350 
C 3885 5171 4102 4845 4134 4582 
C 4531 4275 4909 5114 3744 5395 
z
M 307 442 
L 602 -96 
C 666 -77 717 -13 730 64 
C 1395 422 1894 730 2246 966 
L 2221 1043 
C 1453 781 672 531 307 442 
z
M 1824 5107 
L 1216 5357 
C 1088 4877 717 3974 410 3590 
C 378 3565 262 3533 262 3533 
L 480 2982 
C 525 3002 563 3034 595 3085 
C 864 3168 1133 3264 1338 3341 
C 1062 2822 723 2285 435 1971 
C 390 1939 262 1914 262 1914 
L 486 1350 
C 544 1370 595 1421 640 1498 
C 1210 1702 1760 1926 2042 2042 
L 2029 2131 
C 1536 2054 1037 1978 685 1933 
C 1222 2490 1798 3302 2106 3866 
C 2157 3859 2202 3859 2240 3872 
C 2208 3808 2208 3744 2240 3680 
C 2330 3558 2541 3597 2630 3706 
C 2726 3814 2784 4026 2765 4294 
L 5530 4294 
L 5338 3840 
L 5427 3802 
C 5574 3904 5830 4109 5971 4237 
C 6093 4243 6163 4250 6214 4294 
L 5773 4723 
L 5536 4480 
L 2746 4480 
C 2733 4563 2714 4646 2688 4736 
L 2579 4742 
C 2605 4493 2483 4154 2355 4032 
L 2304 3974 
L 1766 4269 
C 1696 4070 1581 3814 1446 3539 
C 1133 3520 832 3501 595 3488 
C 960 3910 1363 4550 1594 5005 
C 1722 4992 1792 5050 1824 5107 
z
M 5318 122 
L 3878 122 
L 3878 1178 
L 5318 1178 
L 5318 122 
z
M 3878 -365 
L 3878 -64 
L 5318 -64 
L 5318 -461 
L 5376 -461 
C 5504 -461 5696 -365 5702 -326 
L 5702 2310 
C 5837 2336 5939 2381 5978 2432 
L 5478 2822 
L 5254 2573 
L 4442 2573 
C 4544 2797 4666 3104 4768 3373 
L 5907 3373 
C 5990 3373 6054 3405 6067 3475 
C 5882 3642 5594 3853 5594 3853 
L 5338 3558 
L 3322 3558 
L 3373 3373 
L 4346 3373 
L 4250 2573 
L 3910 2573 
L 3494 2771 
L 3494 -506 
L 3558 -506 
C 3731 -506 3878 -410 3878 -365 
z
M 5318 1370 
L 3878 1370 
L 3878 2381 
L 5318 2381 
L 5318 1370 
z
M 3578 3840 
L 2989 4045 
C 2733 3123 2310 2182 1907 1587 
L 2003 1523 
C 2195 1722 2381 1958 2560 2227 
L 2560 -499 
L 2630 -499 
C 2771 -499 2931 -410 2938 -378 
L 2938 2598 
C 3040 2618 3110 2656 3130 2714 
L 2906 2803 
C 3066 3098 3213 3405 3334 3725 
C 3475 3718 3552 3770 3578 3840 
z
" transform="scale(0.015625)"/>
      <path id="NotoSerifCJKjp-Regular-77ed" d="M 2611 4826 
L 2662 4634 
L 5952 4634 
C 6042 4634 6112 4666 6131 4736 
C 5914 4928 5574 5197 5574 5197 
L 5274 4826 
L 2611 4826 
z
M 3309 1645 
L 3219 1606 
C 3418 1235 3622 672 3622 237 
C 4019 -166 4454 768 3309 1645 
z
M 4858 1696 
C 4762 1165 4557 461 4358 -58 
L 2304 -58 
L 2349 -243 
L 6054 -243 
C 6144 -243 6202 -211 6221 -147 
C 6010 51 5677 320 5677 320 
L 5376 -58 
L 4499 -58 
C 4826 397 5120 973 5293 1402 
C 5427 1402 5498 1459 5523 1536 
L 4858 1696 
z
M 5184 3622 
L 5184 2278 
L 3379 2278 
L 3379 3622 
L 5184 3622 
z
M 2970 3808 
L 2970 1715 
L 3034 1715 
C 3206 1715 3379 1811 3379 1850 
L 3379 2086 
L 5184 2086 
L 5184 1805 
L 5242 1805 
C 5376 1805 5587 1894 5594 1933 
L 5594 3546 
C 5722 3571 5824 3616 5862 3667 
L 5350 4064 
L 5120 3808 
L 3411 3808 
L 2970 4006 
L 2970 3808 
z
M 915 5344 
C 838 4480 614 3622 307 3027 
L 410 2963 
C 659 3251 864 3629 1030 4051 
L 1382 4051 
L 1382 3066 
L 1376 2726 
L 314 2726 
L 365 2534 
L 1370 2534 
C 1318 1574 1094 512 256 -390 
L 346 -461 
C 1139 141 1498 922 1658 1690 
C 1958 1363 2253 902 2304 518 
C 2746 160 3104 1165 1690 1830 
C 1728 2067 1754 2304 1766 2534 
L 2694 2534 
C 2784 2534 2842 2566 2854 2637 
C 2669 2822 2355 3078 2355 3078 
L 2080 2726 
L 1779 2726 
L 1786 3066 
L 1786 4051 
L 2605 4051 
C 2688 4051 2752 4083 2771 4154 
C 2566 4346 2240 4608 2240 4608 
L 1952 4243 
L 1101 4243 
C 1197 4506 1267 4781 1331 5069 
C 1472 5075 1542 5133 1562 5216 
L 915 5344 
z
" transform="scale(0.015625)"/>
      <path id="NotoSerifCJKjp-Regular-37" d="M 986 0 
L 1453 0 
L 3123 4371 
L 3123 4659 
L 352 4659 
L 352 4211 
L 2829 4211 
L 934 45 
L 986 0 
z
" transform="scale(0.015625)"/>
      <path id="NotoSerifCJKjp-Regular-964d" d="M 3590 4544 
L 4819 4544 
C 4653 4243 4435 3968 4179 3718 
C 3898 3917 3654 4141 3482 4403 
L 3590 4544 
z
M 3558 5331 
C 3296 4659 2752 3891 2170 3456 
L 2240 3379 
C 2662 3603 3053 3930 3379 4294 
C 3539 4006 3744 3757 3981 3539 
C 3475 3110 2842 2765 2112 2522 
L 2163 2419 
C 2982 2618 3674 2925 4224 3328 
C 4698 2957 5280 2688 5920 2502 
C 5978 2688 6093 2810 6253 2835 
L 6266 2906 
C 5626 3021 4998 3232 4480 3526 
C 4819 3808 5094 4134 5312 4493 
C 5466 4499 5530 4518 5587 4570 
L 5133 4986 
L 4851 4736 
L 3738 4736 
C 3821 4851 3891 4966 3955 5075 
C 4109 5062 4154 5088 4186 5152 
L 3558 5331 
z
M 4218 2790 
L 4218 2157 
L 2464 2157 
L 2515 1971 
L 2995 1971 
L 2995 864 
L 2195 864 
L 2246 672 
L 4218 672 
L 4218 -493 
L 4294 -493 
C 4448 -493 4621 -403 4621 -346 
L 4621 672 
L 5901 672 
C 5990 672 6048 704 6067 774 
C 5875 966 5562 1216 5562 1216 
L 5280 864 
L 4621 864 
L 4621 1971 
L 5715 1971 
C 5798 1971 5856 2003 5875 2074 
C 5702 2246 5402 2470 5402 2470 
L 5152 2157 
L 4621 2157 
L 4621 2560 
C 4762 2586 4813 2643 4826 2720 
L 4218 2790 
z
M 3386 1971 
L 4218 1971 
L 4218 864 
L 3386 864 
L 3386 1971 
z
M 525 4960 
L 525 -512 
L 595 -512 
C 794 -512 934 -397 934 -365 
L 934 4781 
L 1798 4781 
C 1645 4269 1389 3514 1216 3104 
C 1677 2611 1824 2118 1824 1664 
C 1824 1421 1766 1280 1651 1216 
C 1594 1184 1555 1178 1485 1178 
C 1395 1178 1152 1178 1024 1178 
L 1024 1082 
C 1158 1062 1286 1030 1344 979 
C 1395 922 1421 787 1421 640 
C 2035 672 2266 973 2266 1568 
C 2259 2061 2022 2618 1382 3130 
C 1651 3520 2061 4262 2278 4659 
C 2426 4666 2515 4685 2566 4730 
L 2054 5235 
L 1779 4960 
L 1011 4960 
L 525 5171 
L 525 4960 
z
" transform="scale(0.015625)"/>
      <path id="NotoSerifCJKjp-Regular-5e45" d="M 2682 4902 
L 2733 4723 
L 5990 4723 
C 6080 4723 6144 4755 6163 4826 
C 5952 5018 5613 5286 5613 5286 
L 5318 4902 
L 2682 4902 
z
M 2784 2170 
L 2784 -499 
L 2848 -499 
C 3053 -499 3187 -403 3187 -371 
L 3187 -109 
L 5510 -109 
L 5510 -467 
L 5574 -467 
C 5766 -467 5926 -371 5926 -333 
L 5926 1952 
C 6061 1978 6131 2010 6170 2061 
L 5696 2419 
L 5485 2170 
L 3264 2170 
L 2784 2374 
L 2784 2170 
z
M 3187 83 
L 3187 960 
L 4154 960 
L 4154 83 
L 3187 83 
z
M 5510 83 
L 4531 83 
L 4531 960 
L 5510 960 
L 5510 83 
z
M 3187 1146 
L 3187 1984 
L 4154 1984 
L 4154 1146 
L 3187 1146 
z
M 5510 1146 
L 4531 1146 
L 4531 1984 
L 5510 1984 
L 5510 1146 
z
M 3098 4134 
L 3098 2483 
L 3168 2483 
C 3373 2483 3507 2573 3507 2605 
L 3507 2835 
L 5178 2835 
L 5178 2554 
L 5242 2554 
C 5440 2554 5600 2643 5600 2669 
L 5600 3930 
C 5722 3949 5786 3981 5824 4032 
L 5363 4384 
L 5158 4134 
L 3578 4134 
L 3098 4339 
L 3098 4134 
z
M 3507 3021 
L 3507 3949 
L 5178 3949 
L 5178 3021 
L 3507 3021 
z
M 467 4262 
L 467 781 
L 531 781 
C 691 781 838 877 838 915 
L 838 4070 
L 1248 4070 
L 1248 -486 
L 1306 -486 
C 1472 -486 1606 -384 1613 -352 
L 1613 4070 
L 2067 4070 
L 2067 1472 
C 2067 1395 2054 1370 1990 1370 
C 1926 1370 1677 1389 1677 1389 
L 1677 1286 
C 1811 1261 1882 1222 1933 1165 
C 1978 1101 1990 998 1990 896 
C 2394 941 2432 1107 2432 1421 
L 2432 4000 
C 2560 4026 2669 4070 2714 4122 
L 2202 4506 
L 2003 4262 
L 1632 4262 
L 1632 5101 
C 1798 5126 1856 5184 1862 5274 
L 1229 5338 
L 1229 4262 
L 870 4262 
L 467 4454 
L 467 4262 
z
" transform="scale(0.015625)"/>
      <path id="NotoSerifCJKjp-Regular-2e" d="M 1043 -96 
C 1267 -96 1440 90 1440 294 
C 1440 518 1267 691 1043 691 
C 813 691 653 518 653 294 
C 653 90 813 -96 1043 -96 
z
" transform="scale(0.015625)"/>
      <path id="NotoSerifCJKjp-Regular-25" d="M 1235 1862 
C 1722 1862 2176 2285 2176 3290 
C 2176 4307 1722 4723 1235 4723 
C 742 4723 288 4307 288 3290 
C 288 2285 742 1862 1235 1862 
z
M 1235 2022 
C 960 2022 704 2298 704 3290 
C 704 4288 960 4557 1235 4557 
C 1510 4557 1766 4282 1766 3290 
C 1766 2298 1510 2022 1235 2022 
z
M 4678 -64 
C 5165 -64 5619 352 5619 1370 
C 5619 2381 5165 2797 4678 2797 
C 4186 2797 3731 2381 3731 1370 
C 3731 352 4186 -64 4678 -64 
z
M 4678 102 
C 4403 102 4141 371 4141 1370 
C 4141 2355 4403 2630 4678 2630 
C 4954 2630 5216 2355 5216 1370 
C 5216 371 4954 102 4678 102 
z
M 1408 -179 
L 4659 4538 
L 4493 4659 
L 1242 -64 
L 1408 -179 
z
" transform="scale(0.015625)"/>
     </defs>
     <use xlink:href="#NotoSerifCJKjp-Regular-31"/>
     <use xlink:href="#NotoSerifCJKjp-Regular-35" transform="translate(47.099991 0)"/>
     <use xlink:href="#NotoSerifCJKjp-Regular-31" transform="translate(102.899979 0)"/>
     <use xlink:href="#NotoSerifCJKjp-Regular-36" transform="translate(149.999969 0)"/>
     <use xlink:href="#NotoSerifCJKjp-Regular-30" transform="translate(205.799957 0)"/>
     <use xlink:href="#NotoSerifCJKjp-Regular-34" transform="translate(261.499954 0)"/>
     <use xlink:href="#NotoSerifCJKjp-Regular-20" transform="translate(316.999939 0)"/>
     <use xlink:href="#NotoSerifCJKjp-Regular-73" transform="translate(342.59993 0)"/>
     <use xlink:href="#NotoSerifCJKjp-Regular-20" transform="translate(389.899918 0)"/>
     <use xlink:href="#NotoSerifCJKjp-Regular-2192" transform="translate(415.499908 0)"/>
     <use xlink:href="#NotoSerifCJKjp-Regular-20" transform="translate(515.499893 0)"/>
     <use xlink:href="#NotoSerifCJKjp-Regular-31" transform="translate(541.099884 0)"/>
     <use xlink:href="#NotoSerifCJKjp-Regular-32" transform="translate(588.199875 0)"/>
     <use xlink:href="#NotoSerifCJKjp-Regular-33" transform="translate(643.999863 0)"/>
     <use xlink:href="#NotoSerifCJKjp-Regular-38" transform="translate(699.69986 0)"/>
     <use xlink:href="#NotoSerifCJKjp-Regular-34" transform="translate(755.499847 0)"/>
     <use xlink:href="#NotoSerifCJKjp-Regular-34" transform="translate(810.999832 0)"/>
     <use xlink:href="#NotoSerifCJKjp-Regular-20" transform="translate(866.499817 0)"/>
     <use xlink:href="#NotoSerifCJKjp-Regular-73" transform="translate(892.099808 0)"/>
     <use xlink:href="#NotoSerifCJKjp-Regular-ff0c" transform="translate(939.399796 0)"/>
     <use xlink:href="#NotoSerifCJKjp-Regular-7f29" transform="translate(1039.39978 0)"/>
     <use xlink:href="#NotoSerifCJKjp-Regular-77ed" transform="translate(1139.399765 0)"/>
     <use xlink:href="#NotoSerifCJKjp-Regular-20" transform="translate(1239.39975 0)"/>
     <use xlink:href="#NotoSerifCJKjp-Regular-32" transform="translate(1264.999741 0)"/>
     <use xlink:href="#NotoSerifCJKjp-Regular-37" transform="translate(1320.799728 0)"/>
     <use xlink:href="#NotoSerifCJKjp-Regular-37" transform="translate(1375.699722 0)"/>
     <use xlink:href="#NotoSerifCJKjp-Regular-36" transform="translate(1430.599716 0)"/>
     <use xlink:href="#NotoSerifCJKjp-Regular-30" transform="translate(1486.399704 0)"/>
     <use xlink:href="#NotoSerifCJKjp-Regular-20" transform="translate(1542.099701 0)"/>
     <use xlink:href="#NotoSerifCJKjp-Regular-73" transform="translate(1567.699692 0)"/>
     <use xlink:href="#NotoSerifCJKjp-Regular-ff0c" transform="translate(1614.99968 0)"/>
     <use xlink:href="#NotoSerifCJKjp-Regular-964d" transform="translate(1714.999664 0)"/>
     <use xlink:href="#NotoSerifCJKjp-Regular-5e45" transform="translate(1814.999649 0)"/>
     <use xlink:href="#NotoSerifCJKjp-Regular-20" transform="translate(1914.999634 0)"/>
     <use xlink:href="#NotoSerifCJKjp-Regular-31" transform="translate(1940.599625 0)"/>
     <use xlink:href="#NotoSerifCJKjp-Regular-38" transform="translate(1987.699615 0)"/>
     <use xlink:href="#NotoSerifCJKjp-Regular-2e" transform="translate(2043.499603 0)"/>
     <use xlink:href="#NotoSerifCJKjp-Regular-33" transform="translate(2076.1996 0)"/>
     <use xlink:href="#NotoSerifCJKjp-Regular-31" transform="translate(2131.899597 0)"/>
     <use xlink:href="#NotoSerifCJKjp-Regular-25" transform="translate(2178.999588 0)"/>
    </g>
   </g>
   <g id="legend_1">
    <g id="patch_23">
     <path d="M 674.726406 44.627143 
L 764.05 44.627143 
Q 765.85 44.627143 765.85 42.827143 
L 765.85 15.557143 
Q 765.85 13.757143 764.05 13.757143 
L 674.726406 13.757143 
Q 672.926406 13.757143 672.926406 15.557143 
L 672.926406 42.827143 
Q 672.926406 44.627143 674.726406 44.627143 
z
" style="fill: #fafaf7; opacity: 0.8; stroke: #b8c2cc; stroke-linejoin: miter"/>
    </g>
    <g id="patch_24">
     <path d="M 676.526406 24.602143 
L 694.526406 24.602143 
L 694.526406 18.302143 
L 676.526406 18.302143 
z
" style="fill: #6fa8dc; stroke: #6fa8dc; stroke-linejoin: miter"/>
    </g>
    <g id="text_20">
     <!-- ASM 设备作业 -->
     <g transform="translate(701.726406 24.602143) scale(0.09 -0.09)">
      <defs>
       <path id="NotoSerifCJKjp-Regular-8bbe" d="M 710 5331 
L 640 5280 
C 954 4979 1370 4486 1504 4109 
C 1971 3834 2227 4781 710 5331 
z
M 1491 3398 
C 1613 3424 1702 3469 1728 3514 
L 1312 3866 
L 1101 3642 
L 262 3642 
L 320 3450 
L 1094 3450 
L 1094 640 
C 1094 525 1062 480 858 378 
L 1146 -141 
C 1197 -115 1267 -45 1306 64 
C 1837 544 2310 1018 2560 1267 
L 2515 1350 
C 2150 1107 1786 870 1491 678 
L 1491 3398 
z
M 2893 5011 
L 2893 4410 
C 2893 3814 2752 3155 1926 2630 
L 1990 2547 
C 3168 3034 3296 3846 3296 4410 
L 3296 4755 
L 4595 4755 
L 4595 3258 
C 4595 2982 4653 2886 5018 2886 
L 5376 2886 
C 6003 2886 6163 2970 6163 3136 
C 6163 3226 6112 3264 5978 3302 
L 5958 3309 
L 5894 3309 
C 5862 3296 5818 3290 5779 3283 
C 5760 3283 5722 3283 5696 3283 
C 5645 3277 5530 3277 5421 3277 
L 5133 3277 
C 5011 3277 4998 3302 4998 3379 
L 4998 4698 
C 5114 4717 5197 4742 5235 4787 
L 4774 5190 
L 4538 4947 
L 3373 4947 
L 2893 5158 
L 2893 5011 
z
M 3686 653 
C 3136 211 2445 -141 1613 -390 
L 1664 -493 
C 2586 -294 3328 26 3917 442 
C 4422 19 5062 -275 5837 -474 
C 5894 -262 6035 -134 6240 -109 
L 6246 -32 
C 5466 102 4787 333 4230 678 
C 4755 1126 5146 1658 5427 2278 
C 5581 2291 5651 2304 5702 2362 
L 5242 2797 
L 4954 2528 
L 2285 2528 
L 2342 2342 
L 2726 2342 
C 2931 1638 3251 1088 3686 653 
z
M 3942 877 
C 3462 1248 3098 1728 2861 2342 
L 4954 2342 
C 4730 1786 4390 1299 3942 877 
z
" transform="scale(0.015625)"/>
       <path id="NotoSerifCJKjp-Regular-5907" d="M 2861 5171 
L 2189 5370 
C 1830 4589 1094 3610 416 3059 
L 493 2982 
C 979 3277 1472 3706 1888 4160 
C 2170 3802 2534 3494 2957 3232 
C 2163 2784 1210 2438 218 2202 
L 262 2086 
C 621 2144 960 2208 1293 2291 
L 1293 2144 
L 1293 -499 
L 1363 -499 
C 1542 -499 1715 -403 1715 -358 
L 1715 -109 
L 4717 -109 
L 4717 -461 
L 4781 -461 
C 4922 -461 5133 -365 5139 -320 
L 5139 1888 
C 5261 1907 5357 1958 5395 2010 
L 4890 2400 
L 4659 2144 
L 1747 2144 
L 1389 2317 
C 2093 2496 2739 2733 3309 3027 
C 4058 2630 4947 2355 5862 2189 
C 5907 2406 6048 2541 6240 2573 
L 6253 2650 
C 5382 2752 4486 2950 3699 3245 
C 4243 3565 4704 3942 5075 4371 
C 5248 4378 5325 4384 5376 4442 
L 4902 4909 
L 4563 4634 
L 2285 4634 
C 2406 4794 2522 4947 2618 5101 
C 2784 5082 2835 5114 2861 5171 
z
M 4717 1952 
L 4717 1120 
L 3430 1120 
L 3430 1952 
L 4717 1952 
z
M 4717 77 
L 3430 77 
L 3430 928 
L 4717 928 
L 4717 77 
z
M 1715 77 
L 1715 928 
L 3040 928 
L 3040 77 
L 1715 77 
z
M 3040 1952 
L 3040 1120 
L 1715 1120 
L 1715 1952 
L 3040 1952 
z
M 1984 4275 
L 2131 4442 
L 4493 4442 
C 4179 4064 3763 3725 3277 3418 
C 2758 3654 2310 3936 1984 4275 
z
" transform="scale(0.015625)"/>
       <path id="NotoSerifCJKjp-Regular-4f5c" d="M 3334 5357 
C 3002 4256 2432 3174 1894 2502 
L 1984 2432 
C 2413 2803 2816 3309 3168 3891 
L 3667 3891 
L 3667 -499 
L 3738 -499 
C 3955 -499 4096 -397 4096 -365 
L 4096 1184 
L 5850 1184 
C 5939 1184 6003 1216 6022 1286 
C 5798 1491 5459 1760 5459 1760 
L 5158 1376 
L 4096 1376 
L 4096 2560 
L 5734 2560 
C 5824 2560 5882 2592 5901 2662 
C 5702 2848 5370 3117 5370 3117 
L 5082 2746 
L 4096 2746 
L 4096 3891 
L 6016 3891 
C 6112 3891 6163 3923 6182 3994 
C 5971 4192 5626 4467 5626 4467 
L 5306 4077 
L 3277 4077 
C 3450 4371 3603 4685 3738 5005 
C 3878 4998 3955 5050 3981 5126 
L 3334 5357 
z
M 1811 5363 
C 1440 4122 806 2893 205 2131 
L 294 2067 
C 602 2349 902 2688 1178 3078 
L 1178 -499 
L 1254 -499 
C 1414 -499 1594 -397 1594 -365 
L 1594 3373 
C 1709 3386 1766 3430 1786 3488 
L 1510 3590 
C 1779 4032 2016 4512 2214 5018 
C 2355 5005 2432 5062 2464 5139 
L 1811 5363 
z
" transform="scale(0.015625)"/>
       <path id="NotoSerifCJKjp-Regular-4e1a" d="M 781 3930 
L 672 3891 
C 1082 3149 1574 2016 1600 1178 
C 2086 704 2406 2150 781 3930 
z
M 5619 486 
L 5306 64 
L 4198 64 
L 4198 1082 
C 4774 1862 5376 2893 5696 3571 
C 5824 3533 5920 3565 5965 3635 
L 5331 3987 
C 5062 3219 4614 2195 4198 1376 
L 4198 5030 
C 4346 5043 4390 5101 4403 5190 
L 3789 5254 
L 3789 64 
L 2694 64 
L 2694 5030 
C 2835 5043 2886 5101 2899 5190 
L 2278 5261 
L 2278 64 
L 294 64 
L 352 -122 
L 6054 -122 
C 6138 -122 6202 -90 6221 -19 
C 5997 192 5619 486 5619 486 
z
" transform="scale(0.015625)"/>
      </defs>
      <use xlink:href="#NotoSerifCJKjp-Regular-41"/>
      <use xlink:href="#NotoSerifCJKjp-Regular-53" transform="translate(71.799988 0)"/>
      <use xlink:href="#NotoSerifCJKjp-Regular-4d" transform="translate(128.499985 0)"/>
      <use xlink:href="#NotoSerifCJKjp-Regular-20" transform="translate(225.999969 0)"/>
      <use xlink:href="#NotoSerifCJKjp-Regular-8bbe" transform="translate(251.59996 0)"/>
      <use xlink:href="#NotoSerifCJKjp-Regular-5907" transform="translate(351.599945 0)"/>
      <use xlink:href="#NotoSerifCJKjp-Regular-4f5c" transform="translate(451.59993 0)"/>
      <use xlink:href="#NotoSerifCJKjp-Regular-4e1a" transform="translate(551.599915 0)"/>
     </g>
    </g>
    <g id="patch_25">
     <path d="M 676.526406 38.687143 
L 694.526406 38.687143 
L 694.526406 32.387143 
L 676.526406 32.387143 
z
" style="fill: #f4a261; stroke: #f4a261; stroke-linejoin: miter"/>
    </g>
    <g id="text_21">
     <!-- HPM 设备作业 -->
     <g transform="translate(701.726406 38.687143) scale(0.09 -0.09)">
      <use xlink:href="#NotoSerifCJKjp-Regular-48"/>
      <use xlink:href="#NotoSerifCJKjp-Regular-50" transform="translate(85.299988 0)"/>
      <use xlink:href="#NotoSerifCJKjp-Regular-4d" transform="translate(149.399979 0)"/>
      <use xlink:href="#NotoSerifCJKjp-Regular-20" transform="translate(246.899963 0)"/>
      <use xlink:href="#NotoSerifCJKjp-Regular-8bbe" transform="translate(272.499954 0)"/>
      <use xlink:href="#NotoSerifCJKjp-Regular-5907" transform="translate(372.499939 0)"/>
      <use xlink:href="#NotoSerifCJKjp-Regular-4f5c" transform="translate(472.499924 0)"/>
      <use xlink:href="#NotoSerifCJKjp-Regular-4e1a" transform="translate(572.499908 0)"/>
     </g>
    </g>
   </g>
  </g>
  <g id="axes_2">
   <g id="patch_26">
    <path d="M 44.95 452.777143 
L 770.35 452.777143 
L 770.35 271.748571 
L 44.95 271.748571 
z
" style="fill: #fafaf7"/>
   </g>
   <g id="patch_27">
    <path d="M 223.021045 307.405714 
L 288.9665 307.405714 
L 288.9665 279.977143 
L 223.021045 279.977143 
z
" clip-path="url(#pb8d8eeabb3)" style="fill: #6fa8dc; stroke: #ffffff; stroke-width: 0.5; stroke-linejoin: miter"/>
   </g>
   <g id="patch_28">
    <path d="M 291.48525 307.405714 
L 350.836159 307.405714 
L 350.836159 279.977143 
L 291.48525 279.977143 
z
" clip-path="url(#pb8d8eeabb3)" style="fill: #6fa8dc; stroke: #ffffff; stroke-width: 0.5; stroke-linejoin: miter"/>
   </g>
   <g id="patch_29">
    <path d="M 384.587409 307.405714 
L 450.532864 307.405714 
L 450.532864 279.977143 
L 384.587409 279.977143 
z
" clip-path="url(#pb8d8eeabb3)" style="fill: #6fa8dc; stroke: #ffffff; stroke-width: 0.5; stroke-linejoin: miter"/>
   </g>
   <g id="patch_30">
    <path d="M 546.153773 307.405714 
L 612.099227 307.405714 
L 612.099227 279.977143 
L 546.153773 279.977143 
z
" clip-path="url(#pb8d8eeabb3)" style="fill: #6fa8dc; stroke: #ffffff; stroke-width: 0.5; stroke-linejoin: miter"/>
   </g>
   <g id="patch_31">
    <path d="M 173.218489 353.12 
L 379.298034 353.12 
L 379.298034 325.691429 
L 173.218489 325.691429 
z
" clip-path="url(#pb8d8eeabb3)" style="fill: #f4a261; stroke: #ffffff; stroke-width: 0.5; stroke-linejoin: miter"/>
   </g>
   <g id="patch_32">
    <path d="M 491.158011 353.12 
L 606.562557 353.12 
L 606.562557 325.691429 
L 491.158011 325.691429 
z
" clip-path="url(#pb8d8eeabb3)" style="fill: #f4a261; stroke: #ffffff; stroke-width: 0.5; stroke-linejoin: miter"/>
   </g>
   <g id="patch_33">
    <path d="M 153.027273 398.834286 
L 235.459091 398.834286 
L 235.459091 371.405714 
L 153.027273 371.405714 
z
" clip-path="url(#pb8d8eeabb3)" style="fill: #6fa8dc; stroke: #ffffff; stroke-width: 0.5; stroke-linejoin: miter"/>
   </g>
   <g id="patch_34">
    <path d="M 238.664773 398.834286 
L 271.6375 398.834286 
L 271.6375 371.405714 
L 238.664773 371.405714 
z
" clip-path="url(#pb8d8eeabb3)" style="fill: #6fa8dc; stroke: #ffffff; stroke-width: 0.5; stroke-linejoin: miter"/>
   </g>
   <g id="patch_35">
    <path d="M 273.995966 398.834286 
L 356.427784 398.834286 
L 356.427784 371.405714 
L 273.995966 371.405714 
z
" clip-path="url(#pb8d8eeabb3)" style="fill: #6fa8dc; stroke: #ffffff; stroke-width: 0.5; stroke-linejoin: miter"/>
   </g>
   <g id="patch_36">
    <path d="M 379.298034 398.834286 
L 461.729852 398.834286 
L 461.729852 371.405714 
L 379.298034 371.405714 
z
" clip-path="url(#pb8d8eeabb3)" style="fill: #6fa8dc; stroke: #ffffff; stroke-width: 0.5; stroke-linejoin: miter"/>
   </g>
   <g id="patch_37">
    <path d="M 70.595455 444.548571 
L 153.027273 444.548571 
L 153.027273 417.12 
L 70.595455 417.12 
z
" clip-path="url(#pb8d8eeabb3)" style="fill: #f4a261; stroke: #ffffff; stroke-width: 0.5; stroke-linejoin: miter"/>
   </g>
   <g id="patch_38">
    <path d="M 157.075591 444.548571 
L 212.030136 444.548571 
L 212.030136 417.12 
L 157.075591 417.12 
z
" clip-path="url(#pb8d8eeabb3)" style="fill: #f4a261; stroke: #ffffff; stroke-width: 0.5; stroke-linejoin: miter"/>
   </g>
   <g id="patch_39">
    <path d="M 214.548886 444.548571 
L 264.007977 444.548571 
L 264.007977 417.12 
L 214.548886 417.12 
z
" clip-path="url(#pb8d8eeabb3)" style="fill: #f4a261; stroke: #ffffff; stroke-width: 0.5; stroke-linejoin: miter"/>
   </g>
   <g id="patch_40">
    <path d="M 318.641955 444.548571 
L 373.5965 444.548571 
L 373.5965 417.12 
L 318.641955 417.12 
z
" clip-path="url(#pb8d8eeabb3)" style="fill: #f4a261; stroke: #ffffff; stroke-width: 0.5; stroke-linejoin: miter"/>
   </g>
   <g id="patch_41">
    <path d="M 480.208318 444.548571 
L 535.162864 444.548571 
L 535.162864 417.12 
L 480.208318 417.12 
z
" clip-path="url(#pb8d8eeabb3)" style="fill: #f4a261; stroke: #ffffff; stroke-width: 0.5; stroke-linejoin: miter"/>
   </g>
   <g id="matplotlib.axis_3">
    <g id="xtick_10">
     <g id="line2d_13">
      <g>
       <use xlink:href="#m75065e519d" x="44.95" y="452.777143" style="fill: #2f3437; stroke: #2f3437; stroke-width: 0.8"/>
      </g>
     </g>
     <g id="text_22">
      <!-- 0 -->
      <g style="fill: #2f3437" transform="translate(42.164844 467.827143) scale(0.1 -0.1)">
       <use xlink:href="#NotoSerifCJKjp-Regular-30"/>
      </g>
     </g>
    </g>
    <g id="xtick_11">
     <g id="line2d_14">
      <g>
       <use xlink:href="#m75065e519d" x="127.381818" y="452.777143" style="fill: #2f3437; stroke: #2f3437; stroke-width: 0.8"/>
      </g>
     </g>
     <g id="text_23">
      <!-- 5 -->
      <g style="fill: #2f3437" transform="translate(124.591974 467.827143) scale(0.1 -0.1)">
       <use xlink:href="#NotoSerifCJKjp-Regular-35"/>
      </g>
     </g>
    </g>
    <g id="xtick_12">
     <g id="line2d_15">
      <g>
       <use xlink:href="#m75065e519d" x="209.813636" y="452.777143" style="fill: #2f3437; stroke: #2f3437; stroke-width: 0.8"/>
      </g>
     </g>
     <g id="text_24">
      <!-- 10 -->
      <g style="fill: #2f3437" transform="translate(204.673793 467.827143) scale(0.1 -0.1)">
       <use xlink:href="#NotoSerifCJKjp-Regular-31"/>
       <use xlink:href="#NotoSerifCJKjp-Regular-30" transform="translate(47.099991 0)"/>
      </g>
     </g>
    </g>
    <g id="xtick_13">
     <g id="line2d_16">
      <g>
       <use xlink:href="#m75065e519d" x="292.245455" y="452.777143" style="fill: #2f3437; stroke: #2f3437; stroke-width: 0.8"/>
      </g>
     </g>
     <g id="text_25">
      <!-- 15 -->
      <g style="fill: #2f3437" transform="translate(287.100923 467.827143) scale(0.1 -0.1)">
       <use xlink:href="#NotoSerifCJKjp-Regular-31"/>
       <use xlink:href="#NotoSerifCJKjp-Regular-35" transform="translate(47.099991 0)"/>
      </g>
     </g>
    </g>
    <g id="xtick_14">
     <g id="line2d_17">
      <g>
       <use xlink:href="#m75065e519d" x="374.677273" y="452.777143" style="fill: #2f3437; stroke: #2f3437; stroke-width: 0.8"/>
      </g>
     </g>
     <g id="text_26">
      <!-- 20 -->
      <g style="fill: #2f3437" transform="translate(369.102273 467.827143) scale(0.1 -0.1)">
       <use xlink:href="#NotoSerifCJKjp-Regular-32"/>
       <use xlink:href="#NotoSerifCJKjp-Regular-30" transform="translate(55.799988 0)"/>
      </g>
     </g>
    </g>
    <g id="xtick_15">
     <g id="line2d_18">
      <g>
       <use xlink:href="#m75065e519d" x="457.109091" y="452.777143" style="fill: #2f3437; stroke: #2f3437; stroke-width: 0.8"/>
      </g>
     </g>
     <g id="text_27">
      <!-- 25 -->
      <g style="fill: #2f3437" transform="translate(451.529403 467.827143) scale(0.1 -0.1)">
       <use xlink:href="#NotoSerifCJKjp-Regular-32"/>
       <use xlink:href="#NotoSerifCJKjp-Regular-35" transform="translate(55.799988 0)"/>
      </g>
     </g>
    </g>
    <g id="xtick_16">
     <g id="line2d_19">
      <g>
       <use xlink:href="#m75065e519d" x="539.540909" y="452.777143" style="fill: #2f3437; stroke: #2f3437; stroke-width: 0.8"/>
      </g>
     </g>
     <g id="text_28">
      <!-- 30 -->
      <g style="fill: #2f3437" transform="translate(533.970597 467.827143) scale(0.1 -0.1)">
       <use xlink:href="#NotoSerifCJKjp-Regular-33"/>
       <use xlink:href="#NotoSerifCJKjp-Regular-30" transform="translate(55.699997 0)"/>
      </g>
     </g>
    </g>
    <g id="xtick_17">
     <g id="line2d_20">
      <g>
       <use xlink:href="#m75065e519d" x="621.972727" y="452.777143" style="fill: #2f3437; stroke: #2f3437; stroke-width: 0.8"/>
      </g>
     </g>
     <g id="text_29">
      <!-- 35 -->
      <g style="fill: #2f3437" transform="translate(616.397727 467.827143) scale(0.1 -0.1)">
       <use xlink:href="#NotoSerifCJKjp-Regular-33"/>
       <use xlink:href="#NotoSerifCJKjp-Regular-35" transform="translate(55.699997 0)"/>
      </g>
     </g>
    </g>
    <g id="xtick_18">
     <g id="line2d_21">
      <g>
       <use xlink:href="#m75065e519d" x="704.404545" y="452.777143" style="fill: #2f3437; stroke: #2f3437; stroke-width: 0.8"/>
      </g>
     </g>
     <g id="text_30">
      <!-- 40 -->
      <g style="fill: #2f3437" transform="translate(698.844389 467.827143) scale(0.1 -0.1)">
       <use xlink:href="#NotoSerifCJKjp-Regular-34"/>
       <use xlink:href="#NotoSerifCJKjp-Regular-30" transform="translate(55.499985 0)"/>
      </g>
     </g>
    </g>
    <g id="text_31">
     <!-- 时间（小时） -->
     <g style="fill: #2f3437" transform="translate(377.65 482.477143) scale(0.1 -0.1)">
      <defs>
       <path id="NotoSerifCJKjp-Regular-65f6" d="M 2880 2861 
L 2803 2816 
C 3149 2426 3526 1805 3546 1286 
C 4006 870 4442 2035 2880 2861 
z
M 1907 1069 
L 922 1069 
L 922 2733 
L 1907 2733 
L 1907 1069 
z
M 525 4992 
L 525 13 
L 582 13 
C 794 13 922 128 922 160 
L 922 877 
L 1907 877 
L 1907 326 
L 1971 326 
C 2112 326 2304 429 2310 474 
L 2310 4518 
C 2438 4544 2547 4589 2592 4640 
L 2080 5043 
L 1843 4781 
L 998 4781 
L 525 4992 
z
M 1907 2925 
L 922 2925 
L 922 4589 
L 1907 4589 
L 1907 2925 
z
M 5664 4211 
L 5363 3802 
L 5069 3802 
L 5069 5043 
C 5229 5062 5293 5120 5306 5216 
L 4646 5286 
L 4646 3802 
L 2464 3802 
L 2515 3610 
L 4646 3610 
L 4646 179 
C 4646 64 4602 26 4461 26 
C 4301 26 3456 83 3456 83 
L 3456 -13 
C 3821 -58 4013 -115 4134 -192 
C 4243 -256 4288 -365 4314 -499 
C 4992 -435 5069 -198 5069 147 
L 5069 3610 
L 6048 3610 
C 6138 3610 6195 3642 6214 3712 
C 6016 3923 5664 4211 5664 4211 
z
" transform="scale(0.015625)"/>
       <path id="NotoSerifCJKjp-Regular-95f4" d="M 1133 5402 
L 1062 5350 
C 1344 5069 1702 4595 1818 4237 
C 2278 3936 2586 4870 1133 5402 
z
M 1382 4461 
L 736 4531 
L 736 -499 
L 813 -499 
C 973 -499 1146 -410 1146 -346 
L 1146 4282 
C 1312 4307 1363 4365 1382 4461 
z
M 3987 1139 
L 2381 1139 
L 2381 2240 
L 3987 2240 
L 3987 1139 
z
M 1984 3827 
L 1984 326 
L 2048 326 
C 2253 326 2381 442 2381 474 
L 2381 947 
L 3987 947 
L 3987 442 
L 4051 442 
C 4198 442 4384 550 4390 595 
L 4390 3392 
C 4499 3411 4589 3456 4621 3494 
L 4154 3866 
L 3930 3629 
L 2445 3629 
L 1984 3827 
z
M 3987 3437 
L 3987 2432 
L 2381 2432 
L 2381 3437 
L 3987 3437 
z
M 5210 4826 
L 2483 4826 
L 2541 4634 
L 5274 4634 
L 5274 198 
C 5274 90 5235 45 5101 45 
C 4960 45 4211 109 4211 109 
L 4211 0 
C 4531 -38 4710 -90 4819 -166 
C 4915 -230 4960 -346 4979 -474 
C 5606 -410 5683 -186 5683 147 
L 5683 4557 
C 5811 4582 5920 4634 5965 4685 
L 5421 5094 
L 5210 4826 
z
" transform="scale(0.015625)"/>
       <path id="NotoSerifCJKjp-Regular-ff08" d="M 5997 5299 
L 5888 5427 
C 5024 4877 4166 3974 4166 2432 
C 4166 890 5024 -13 5888 -563 
L 5997 -435 
C 5254 166 4589 1088 4589 2432 
C 4589 3776 5254 4698 5997 5299 
z
" transform="scale(0.015625)"/>
       <path id="NotoSerifCJKjp-Regular-5c0f" d="M 4269 3674 
L 4179 3629 
C 4787 2995 5504 1978 5613 1178 
C 6182 704 6522 2253 4269 3674 
z
M 1606 3712 
C 1402 2880 909 1760 224 1050 
L 294 973 
C 1152 1600 1741 2605 2048 3366 
C 2208 3354 2266 3392 2291 3469 
L 1606 3712 
z
M 3002 5280 
L 3002 230 
C 3002 115 2957 70 2816 70 
C 2643 70 1760 141 1760 141 
L 1760 38 
C 2138 -13 2336 -70 2464 -147 
C 2579 -224 2630 -339 2650 -493 
C 3366 -416 3450 -179 3450 192 
L 3450 5030 
C 3610 5050 3667 5114 3686 5203 
L 3002 5280 
z
" transform="scale(0.015625)"/>
       <path id="NotoSerifCJKjp-Regular-ff09" d="M 512 5427 
L 403 5299 
C 1146 4698 1811 3776 1811 2432 
C 1811 1088 1146 166 403 -435 
L 512 -563 
C 1376 -13 2234 890 2234 2432 
C 2234 3974 1376 4877 512 5427 
z
" transform="scale(0.015625)"/>
      </defs>
      <use xlink:href="#NotoSerifCJKjp-Regular-65f6"/>
      <use xlink:href="#NotoSerifCJKjp-Regular-95f4" transform="translate(99.999985 0)"/>
      <use xlink:href="#NotoSerifCJKjp-Regular-ff08" transform="translate(199.999969 0)"/>
      <use xlink:href="#NotoSerifCJKjp-Regular-5c0f" transform="translate(299.999954 0)"/>
      <use xlink:href="#NotoSerifCJKjp-Regular-65f6" transform="translate(399.999939 0)"/>
      <use xlink:href="#NotoSerifCJKjp-Regular-ff09" transform="translate(499.999924 0)"/>
     </g>
    </g>
   </g>
   <g id="matplotlib.axis_4">
    <g id="ytick_3">
     <g id="line2d_22">
      <g>
       <use xlink:href="#m7a1ab00416" x="44.95" y="430.834286" style="fill: #2f3437; stroke: #2f3437; stroke-width: 0.8"/>
      </g>
     </g>
     <g id="text_32">
      <!-- HPM2-1 -->
      <g style="fill: #2f3437" transform="translate(7.2 434.054286) scale(0.08 -0.08)">
       <use xlink:href="#NotoSerifCJKjp-Regular-48"/>
       <use xlink:href="#NotoSerifCJKjp-Regular-50" transform="translate(85.299988 0)"/>
       <use xlink:href="#NotoSerifCJKjp-Regular-4d" transform="translate(149.399979 0)"/>
       <use xlink:href="#NotoSerifCJKjp-Regular-32" transform="translate(246.899963 0)"/>
       <use xlink:href="#NotoSerifCJKjp-Regular-2d" transform="translate(302.699951 0)"/>
       <use xlink:href="#NotoSerifCJKjp-Regular-31" transform="translate(337.299942 0)"/>
      </g>
     </g>
    </g>
    <g id="ytick_4">
     <g id="line2d_23">
      <g>
       <use xlink:href="#m7a1ab00416" x="44.95" y="385.12" style="fill: #2f3437; stroke: #2f3437; stroke-width: 0.8"/>
      </g>
     </g>
     <g id="text_33">
      <!-- ASM2-1 -->
      <g style="fill: #2f3437" transform="translate(8.87125 388.34) scale(0.08 -0.08)">
       <use xlink:href="#NotoSerifCJKjp-Regular-41"/>
       <use xlink:href="#NotoSerifCJKjp-Regular-53" transform="translate(71.799988 0)"/>
       <use xlink:href="#NotoSerifCJKjp-Regular-4d" transform="translate(128.499985 0)"/>
       <use xlink:href="#NotoSerifCJKjp-Regular-32" transform="translate(225.999969 0)"/>
       <use xlink:href="#NotoSerifCJKjp-Regular-2d" transform="translate(281.799957 0)"/>
       <use xlink:href="#NotoSerifCJKjp-Regular-31" transform="translate(316.399948 0)"/>
      </g>
     </g>
    </g>
    <g id="ytick_5">
     <g id="line2d_24">
      <g>
       <use xlink:href="#m7a1ab00416" x="44.95" y="339.405714" style="fill: #2f3437; stroke: #2f3437; stroke-width: 0.8"/>
      </g>
     </g>
     <g id="text_34">
      <!-- HPM1-1 -->
      <g style="fill: #2f3437" transform="translate(7.89625 342.625714) scale(0.08 -0.08)">
       <use xlink:href="#NotoSerifCJKjp-Regular-48"/>
       <use xlink:href="#NotoSerifCJKjp-Regular-50" transform="translate(85.299988 0)"/>
       <use xlink:href="#NotoSerifCJKjp-Regular-4d" transform="translate(149.399979 0)"/>
       <use xlink:href="#NotoSerifCJKjp-Regular-31" transform="translate(246.899963 0)"/>
       <use xlink:href="#NotoSerifCJKjp-Regular-2d" transform="translate(293.999954 0)"/>
       <use xlink:href="#NotoSerifCJKjp-Regular-31" transform="translate(328.599945 0)"/>
      </g>
     </g>
    </g>
    <g id="ytick_6">
     <g id="line2d_25">
      <g>
       <use xlink:href="#m7a1ab00416" x="44.95" y="293.691429" style="fill: #2f3437; stroke: #2f3437; stroke-width: 0.8"/>
      </g>
     </g>
     <g id="text_35">
      <!-- ASM1-1 -->
      <g style="fill: #2f3437" transform="translate(9.5675 296.911429) scale(0.08 -0.08)">
       <use xlink:href="#NotoSerifCJKjp-Regular-41"/>
       <use xlink:href="#NotoSerifCJKjp-Regular-53" transform="translate(71.799988 0)"/>
       <use xlink:href="#NotoSerifCJKjp-Regular-4d" transform="translate(128.499985 0)"/>
       <use xlink:href="#NotoSerifCJKjp-Regular-31" transform="translate(225.999969 0)"/>
       <use xlink:href="#NotoSerifCJKjp-Regular-2d" transform="translate(273.09996 0)"/>
       <use xlink:href="#NotoSerifCJKjp-Regular-31" transform="translate(307.699951 0)"/>
      </g>
     </g>
    </g>
   </g>
   <g id="line2d_26">
    <path d="M 612.099227 452.777143 
L 612.099227 271.748571 
" clip-path="url(#pb8d8eeabb3)" style="fill: none; stroke-dasharray: 4.44,1.92; stroke-dashoffset: 0; stroke: #e76f51; stroke-width: 1.2"/>
   </g>
   <g id="patch_42">
    <path d="M 44.95 452.777143 
L 44.95 271.748571 
" style="fill: none; stroke: #b8c2cc; stroke-width: 0.8; stroke-linejoin: miter; stroke-linecap: square"/>
   </g>
   <g id="patch_43">
    <path d="M 770.35 452.777143 
L 770.35 271.748571 
" style="fill: none; stroke: #b8c2cc; stroke-width: 0.8; stroke-linejoin: miter; stroke-linecap: square"/>
   </g>
   <g id="patch_44">
    <path d="M 44.95 452.777143 
L 770.35 452.777143 
" style="fill: none; stroke: #b8c2cc; stroke-width: 0.8; stroke-linejoin: miter; stroke-linecap: square"/>
   </g>
   <g id="patch_45">
    <path d="M 44.95 271.748571 
L 770.35 271.748571 
" style="fill: none; stroke: #b8c2cc; stroke-width: 0.8; stroke-linejoin: miter; stroke-linecap: square"/>
   </g>
   <g id="text_36">
    <g clip-path="url(#pb8d8eeabb3)">
     <!-- C5_1 -->
     <g style="fill: #ffffff" transform="translate(248.003929 295.598929) scale(0.07 -0.07)">
      <use xlink:href="#NotoSerifCJKjp-Regular-43"/>
      <use xlink:href="#NotoSerifCJKjp-Regular-35" transform="translate(69.099991 0)"/>
      <use xlink:href="#NotoSerifCJKjp-Regular-5f" transform="translate(124.899979 0)"/>
      <use xlink:href="#NotoSerifCJKjp-Regular-31" transform="translate(181.199966 0)"/>
     </g>
    </g>
   </g>
   <g id="text_37">
    <g clip-path="url(#pb8d8eeabb3)">
     <!-- B4 -->
     <g style="fill: #ffffff" transform="translate(316.873205 295.598929) scale(0.07 -0.07)">
      <use xlink:href="#NotoSerifCJKjp-Regular-42"/>
      <use xlink:href="#NotoSerifCJKjp-Regular-34" transform="translate(66.999985 0)"/>
     </g>
    </g>
   </g>
   <g id="text_38">
    <g clip-path="url(#pb8d8eeabb3)">
     <!-- C5_2 -->
     <g style="fill: #ffffff" transform="translate(409.265683 295.598929) scale(0.07 -0.07)">
      <use xlink:href="#NotoSerifCJKjp-Regular-43"/>
      <use xlink:href="#NotoSerifCJKjp-Regular-35" transform="translate(69.099991 0)"/>
      <use xlink:href="#NotoSerifCJKjp-Regular-5f" transform="translate(124.899979 0)"/>
      <use xlink:href="#NotoSerifCJKjp-Regular-32" transform="translate(181.199966 0)"/>
     </g>
    </g>
   </g>
   <g id="text_39">
    <g clip-path="url(#pb8d8eeabb3)">
     <!-- C5_3 -->
     <g style="fill: #ffffff" transform="translate(570.835328 295.598929) scale(0.07 -0.07)">
      <use xlink:href="#NotoSerifCJKjp-Regular-43"/>
      <use xlink:href="#NotoSerifCJKjp-Regular-35" transform="translate(69.099991 0)"/>
      <use xlink:href="#NotoSerifCJKjp-Regular-5f" transform="translate(124.899979 0)"/>
      <use xlink:href="#NotoSerifCJKjp-Regular-33" transform="translate(181.199966 0)"/>
     </g>
    </g>
   </g>
   <g id="text_40">
    <g clip-path="url(#pb8d8eeabb3)">
     <!-- D4 -->
     <g style="fill: #ffffff" transform="translate(271.620761 341.313214) scale(0.07 -0.07)">
      <use xlink:href="#NotoSerifCJKjp-Regular-44"/>
      <use xlink:href="#NotoSerifCJKjp-Regular-34" transform="translate(76.999985 0)"/>
     </g>
    </g>
   </g>
   <g id="text_41">
    <g clip-path="url(#pb8d8eeabb3)">
     <!-- D6 -->
     <g style="fill: #ffffff" transform="translate(544.212393 341.313214) scale(0.07 -0.07)">
      <use xlink:href="#NotoSerifCJKjp-Regular-44"/>
      <use xlink:href="#NotoSerifCJKjp-Regular-36" transform="translate(76.999985 0)"/>
     </g>
    </g>
   </g>
   <g id="text_42">
    <g clip-path="url(#pb8d8eeabb3)">
     <!-- A3 -->
     <g style="fill: #ffffff" transform="translate(189.780682 387.0275) scale(0.07 -0.07)">
      <use xlink:href="#NotoSerifCJKjp-Regular-41"/>
      <use xlink:href="#NotoSerifCJKjp-Regular-33" transform="translate(71.799988 0)"/>
     </g>
    </g>
   </g>
   <g id="text_43">
    <g clip-path="url(#pb8d8eeabb3)">
     <!-- E3 -->
     <g style="fill: #ffffff" transform="translate(250.919418 387.0275) scale(0.07 -0.07)">
      <use xlink:href="#NotoSerifCJKjp-Regular-45"/>
      <use xlink:href="#NotoSerifCJKjp-Regular-33" transform="translate(65.199997 0)"/>
     </g>
    </g>
   </g>
   <g id="text_44">
    <g clip-path="url(#pb8d8eeabb3)">
     <!-- D4 -->
     <g style="fill: #ffffff" transform="translate(310.574375 387.0275) scale(0.07 -0.07)">
      <use xlink:href="#NotoSerifCJKjp-Regular-44"/>
      <use xlink:href="#NotoSerifCJKjp-Regular-34" transform="translate(76.999985 0)"/>
     </g>
    </g>
   </g>
   <g id="text_45">
    <g clip-path="url(#pb8d8eeabb3)">
     <!-- D5 -->
     <g style="fill: #ffffff" transform="translate(415.866053 387.0275) scale(0.07 -0.07)">
      <use xlink:href="#NotoSerifCJKjp-Regular-44"/>
      <use xlink:href="#NotoSerifCJKjp-Regular-35" transform="translate(76.999985 0)"/>
     </g>
    </g>
   </g>
   <g id="text_46">
    <g clip-path="url(#pb8d8eeabb3)">
     <!-- A2 -->
     <g style="fill: #ffffff" transform="translate(107.345582 432.741786) scale(0.07 -0.07)">
      <use xlink:href="#NotoSerifCJKjp-Regular-41"/>
      <use xlink:href="#NotoSerifCJKjp-Regular-32" transform="translate(71.799988 0)"/>
     </g>
    </g>
   </g>
   <g id="text_47">
    <g clip-path="url(#pb8d8eeabb3)">
     <!-- C4_1 -->
     <g style="fill: #ffffff" transform="translate(176.573411 432.741786) scale(0.07 -0.07)">
      <use xlink:href="#NotoSerifCJKjp-Regular-43"/>
      <use xlink:href="#NotoSerifCJKjp-Regular-34" transform="translate(69.099991 0)"/>
      <use xlink:href="#NotoSerifCJKjp-Regular-5f" transform="translate(124.599976 0)"/>
      <use xlink:href="#NotoSerifCJKjp-Regular-31" transform="translate(180.899963 0)"/>
     </g>
    </g>
   </g>
   <g id="text_48">
    <g clip-path="url(#pb8d8eeabb3)">
     <!-- B4 -->
     <g style="fill: #ffffff" transform="translate(234.990932 432.741786) scale(0.07 -0.07)">
      <use xlink:href="#NotoSerifCJKjp-Regular-42"/>
      <use xlink:href="#NotoSerifCJKjp-Regular-34" transform="translate(66.999985 0)"/>
     </g>
    </g>
   </g>
   <g id="text_49">
    <g clip-path="url(#pb8d8eeabb3)">
     <!-- C4_2 -->
     <g style="fill: #ffffff" transform="translate(337.835165 432.741786) scale(0.07 -0.07)">
      <use xlink:href="#NotoSerifCJKjp-Regular-43"/>
      <use xlink:href="#NotoSerifCJKjp-Regular-34" transform="translate(69.099991 0)"/>
      <use xlink:href="#NotoSerifCJKjp-Regular-5f" transform="translate(124.599976 0)"/>
      <use xlink:href="#NotoSerifCJKjp-Regular-32" transform="translate(180.899963 0)"/>
     </g>
    </g>
   </g>
   <g id="text_50">
    <g clip-path="url(#pb8d8eeabb3)">
     <!-- C4_3 -->
     <g style="fill: #ffffff" transform="translate(499.40481 432.741786) scale(0.07 -0.07)">
      <use xlink:href="#NotoSerifCJKjp-Regular-43"/>
      <use xlink:href="#NotoSerifCJKjp-Regular-34" transform="translate(69.099991 0)"/>
      <use xlink:href="#NotoSerifCJKjp-Regular-5f" transform="translate(124.599976 0)"/>
      <use xlink:href="#NotoSerifCJKjp-Regular-33" transform="translate(180.899963 0)"/>
     </g>
    </g>
   </g>
   <g id="text_51">
    <!-- $C_{max}$ = 123844 s -->
    <g style="fill: #e76f51" transform="translate(614.572182 281.845714) scale(0.08 -0.08)">
     <use xlink:href="#DejaVuSans-Oblique-43" transform="translate(0 0.703125)"/>
     <use xlink:href="#DejaVuSans-Oblique-6d" transform="translate(69.824219 -15.703125) scale(0.7)"/>
     <use xlink:href="#DejaVuSans-Oblique-61" transform="translate(138.012695 -15.703125) scale(0.7)"/>
     <use xlink:href="#DejaVuSans-Oblique-78" transform="translate(180.908203 -15.703125) scale(0.7)"/>
     <use xlink:href="#NotoSerifCJKjp-Regular-20" transform="translate(225.068359 0.703125)"/>
     <use xlink:href="#NotoSerifCJKjp-Regular-3d" transform="translate(250.66835 0.703125)"/>
     <use xlink:href="#NotoSerifCJKjp-Regular-20" transform="translate(308.668335 0.703125)"/>
     <use xlink:href="#NotoSerifCJKjp-Regular-31" transform="translate(334.268326 0.703125)"/>
     <use xlink:href="#NotoSerifCJKjp-Regular-32" transform="translate(381.368317 0.703125)"/>
     <use xlink:href="#NotoSerifCJKjp-Regular-33" transform="translate(437.168304 0.703125)"/>
     <use xlink:href="#NotoSerifCJKjp-Regular-38" transform="translate(492.868301 0.703125)"/>
     <use xlink:href="#NotoSerifCJKjp-Regular-34" transform="translate(548.668289 0.703125)"/>
     <use xlink:href="#NotoSerifCJKjp-Regular-34" transform="translate(604.168274 0.703125)"/>
     <use xlink:href="#NotoSerifCJKjp-Regular-20" transform="translate(659.668259 0.703125)"/>
     <use xlink:href="#NotoSerifCJKjp-Regular-73" transform="translate(685.26825 0.703125)"/>
    </g>
   </g>
  </g>
 </g>
 <defs>
  <clipPath id="p0341136d23">
   <rect x="44.95" y="9.257143" width="725.4" height="181.028571"/>
  </clipPath>
  <clipPath id="pb8d8eeabb3">
   <rect x="44.95" y="271.748571" width="725.4" height="181.028571"/>
  </clipPath>
 </defs>
</svg>
