<?xml version="1.0" encoding="utf-8" standalone="no"?>
<!DOCTYPE svg PUBLIC "-//W3C//DTD SVG 1.1//EN"
  "http://www.w3.org/Graphics/SVG/1.1/DTD/svg11.dtd">
<svg xmlns:xlink="http://www.w3.org/1999/xlink" width="424.8pt" height="569.501569pt" viewBox="0 0 424.8 569.501569" xmlns="http://www.w3.org/2000/svg" version="1.1">
 <metadata>
  <rdf:RDF xmlns:dc="http://purl.org/dc/elements/1.1/" xmlns:cc="http://creativecommons.org/ns#" xmlns:rdf="http://www.w3.org/1999/02/22-rdf-syntax-ns#">
   <cc:Work>
    <dc:type rdf:resource="http://purl.org/dc/dcmitype/StillImage"/>
    <dc:date>2026-05-02T23:32:15.466075</dc:date>
    <dc:format>image/svg+xml</dc:format>
    <dc:creator>
     <cc:Agent>
      <dc:title>Matplotlib v3.10.8, https://matplotlib.org/</dc:title>
     </cc:Agent>
    </dc:creator>
   </cc:Work>
  </rdf:RDF>
 </metadata>
 <defs>
  <style type="text/css">*{stroke-linejoin: round; stroke-linecap: butt}</style>
 </defs>
 <g id="figure_1">
  <g id="patch_1">
   <path d="M -0 569.501569 
L 424.8 569.501569 
L 424.8 0 
L -0 0 
z
" style="fill: #fafaf7"/>
  </g>
  <g id="axes_1">
   <g id="patch_2">
    <path d="M 46.7 525.88065 
L 417.6 525.88065 
L 417.6 21.35 
L 46.7 21.35 
z
" style="fill: #fafaf7"/>
   </g>
   <g id="patch_3">
    <path d="M 52.2635 21.770442 
L 133.8615 21.770442 
Q 138.49775 21.770442 138.49775 23.872653 
L 138.49775 60.871568 
Q 138.49775 62.973779 133.8615 62.973779 
L 52.2635 62.973779 
Q 47.62725 62.973779 47.62725 60.871568 
L 47.62725 23.872653 
Q 47.62725 21.770442 52.2635 21.770442 
z
" clip-path="url(#p18545d78b0)" style="fill: #8fd3b5; stroke: #ffffff; stroke-width: 1.5; stroke-linejoin: miter"/>
   </g>
   <g id="patch_4">
    <path d="M 144.9885 21.770442 
L 226.5865 21.770442 
Q 231.22275 21.770442 231.22275 23.872653 
L 231.22275 60.871568 
Q 231.22275 62.973779 226.5865 62.973779 
L 144.9885 62.973779 
Q 140.35225 62.973779 140.35225 60.871568 
L 140.35225 23.872653 
Q 140.35225 21.770442 144.9885 21.770442 
z
" clip-path="url(#p18545d78b0)" style="fill: #8fd3b5; stroke: #ffffff; stroke-width: 1.5; stroke-linejoin: miter"/>
   </g>
   <g id="patch_5">
    <path d="M 237.7135 21.770442 
L 319.3115 21.770442 
Q 323.94775 21.770442 323.94775 23.872653 
L 323.94775 60.871568 
Q 323.94775 62.973779 319.3115 62.973779 
L 237.7135 62.973779 
Q 233.07725 62.973779 233.07725 60.871568 
L 233.07725 23.872653 
Q 233.07725 21.770442 237.7135 21.770442 
z
" clip-path="url(#p18545d78b0)" style="fill: #8fd3b5; stroke: #ffffff; stroke-width: 1.5; stroke-linejoin: miter"/>
   </g>
   <g id="patch_6">
    <path d="M 330.4385 21.770442 
L 412.0365 21.770442 
Q 416.67275 21.770442 416.67275 23.872653 
L 416.67275 60.871568 
Q 416.67275 62.973779 412.0365 62.973779 
L 330.4385 62.973779 
Q 325.80225 62.973779 325.80225 60.871568 
L 325.80225 23.872653 
Q 325.80225 21.770442 330.4385 21.770442 
z
" clip-path="url(#p18545d78b0)" style="fill: #8fd3b5; stroke: #ffffff; stroke-width: 1.5; stroke-linejoin: miter"/>
   </g>
   <g id="patch_7">
    <path d="M 52.2635 63.814663 
L 133.8615 63.814663 
Q 138.49775 63.814663 138.49775 65.916874 
L 138.49775 102.915788 
Q 138.49775 105.017999 133.8615 105.017999 
L 52.2635 105.017999 
Q 47.62725 105.017999 47.62725 102.915788 
L 47.62725 65.916874 
Q 47.62725 63.814663 52.2635 63.814663 
z
" clip-path="url(#p18545d78b0)" style="fill: #8fd3b5; stroke: #ffffff; stroke-width: 1.5; stroke-linejoin: miter"/>
   </g>
   <g id="patch_8">
    <path d="M 144.9885 63.814663 
L 226.5865 63.814663 
Q 231.22275 63.814663 231.22275 65.916874 
L 231.22275 102.915788 
Q 231.22275 105.017999 226.5865 105.017999 
L 144.9885 105.017999 
Q 140.35225 105.017999 140.35225 102.915788 
L 140.35225 65.916874 
Q 140.35225 63.814663 144.9885 63.814663 
z
" clip-path="url(#p18545d78b0)" style="fill: #8fd3b5; stroke: #ffffff; stroke-width: 1.5; stroke-linejoin: miter"/>
   </g>
   <g id="patch_9">
    <path d="M 237.7135 63.814663 
L 319.3115 63.814663 
Q 323.94775 63.814663 323.94775 65.916874 
L 323.94775 102.915788 
Q 323.94775 105.017999 319.3115 105.017999 
L 237.7135 105.017999 
Q 233.07725 105.017999 233.07725 102.915788 
L 233.07725 65.916874 
Q 233.07725 63.814663 237.7135 63.814663 
z
" clip-path="url(#p18545d78b0)" style="fill: #8fd3b5; stroke: #ffffff; stroke-width: 1.5; stroke-linejoin: miter"/>
   </g>
   <g id="patch_10">
    <path d="M 330.4385 63.814663 
L 412.0365 63.814663 
Q 416.67275 63.814663 416.67275 65.916874 
L 416.67275 102.915788 
Q 416.67275 105.017999 412.0365 105.017999 
L 330.4385 105.017999 
Q 325.80225 105.017999 325.80225 102.915788 
L 325.80225 65.916874 
Q 325.80225 63.814663 330.4385 63.814663 
z
" clip-path="url(#p18545d78b0)" style="fill: #8fd3b5; stroke: #ffffff; stroke-width: 1.5; stroke-linejoin: miter"/>
   </g>
   <g id="patch_11">
    <path d="M 52.2635 105.858884 
L 133.8615 105.858884 
Q 138.49775 105.858884 138.49775 107.961095 
L 138.49775 144.960009 
Q 138.49775 147.06222 133.8615 147.06222 
L 52.2635 147.06222 
Q 47.62725 147.06222 47.62725 144.960009 
L 47.62725 107.961095 
Q 47.62725 105.858884 52.2635 105.858884 
z
" clip-path="url(#p18545d78b0)" style="fill: #8fd3b5; stroke: #ffffff; stroke-width: 1.5; stroke-linejoin: miter"/>
   </g>
   <g id="patch_12">
    <path d="M 144.9885 105.858884 
L 226.5865 105.858884 
Q 231.22275 105.858884 231.22275 107.961095 
L 231.22275 144.960009 
Q 231.22275 147.06222 226.5865 147.06222 
L 144.9885 147.06222 
Q 140.35225 147.06222 140.35225 144.960009 
L 140.35225 107.961095 
Q 140.35225 105.858884 144.9885 105.858884 
z
" clip-path="url(#p18545d78b0)" style="fill: #8fd3b5; stroke: #ffffff; stroke-width: 1.5; stroke-linejoin: miter"/>
   </g>
   <g id="patch_13">
    <path d="M 237.7135 105.858884 
L 319.3115 105.858884 
Q 323.94775 105.858884 323.94775 107.961095 
L 323.94775 144.960009 
Q 323.94775 147.06222 319.3115 147.06222 
L 237.7135 147.06222 
Q 233.07725 147.06222 233.07725 144.960009 
L 233.07725 107.961095 
Q 233.07725 105.858884 237.7135 105.858884 
z
" clip-path="url(#p18545d78b0)" style="fill: #8fd3b5; stroke: #ffffff; stroke-width: 1.5; stroke-linejoin: miter"/>
   </g>
   <g id="patch_14">
    <path d="M 330.4385 105.858884 
L 412.0365 105.858884 
Q 416.67275 105.858884 416.67275 107.961095 
L 416.67275 144.960009 
Q 416.67275 147.06222 412.0365 147.06222 
L 330.4385 147.06222 
Q 325.80225 147.06222 325.80225 144.960009 
L 325.80225 107.961095 
Q 325.80225 105.858884 330.4385 105.858884 
z
" clip-path="url(#p18545d78b0)" style="fill: #8fd3b5; stroke: #ffffff; stroke-width: 1.5; stroke-linejoin: miter"/>
   </g>
   <g id="patch_15">
    <path d="M 52.2635 147.903105 
L 133.8615 147.903105 
Q 138.49775 147.903105 138.49775 150.005316 
L 138.49775 187.00423 
Q 138.49775 189.106441 133.8615 189.106441 
L 52.2635 189.106441 
Q 47.62725 189.106441 47.62725 187.00423 
L 47.62725 150.005316 
Q 47.62725 147.903105 52.2635 147.903105 
z
" clip-path="url(#p18545d78b0)" style="fill: #8fd3b5; stroke: #ffffff; stroke-width: 1.5; stroke-linejoin: miter"/>
   </g>
   <g id="patch_16">
    <path d="M 144.9885 147.903105 
L 226.5865 147.903105 
Q 231.22275 147.903105 231.22275 150.005316 
L 231.22275 187.00423 
Q 231.22275 189.106441 226.5865 189.106441 
L 144.9885 189.106441 
Q 140.35225 189.106441 140.35225 187.00423 
L 140.35225 150.005316 
Q 140.35225 147.903105 144.9885 147.903105 
z
" clip-path="url(#p18545d78b0)" style="fill: #8fd3b5; stroke: #ffffff; stroke-width: 1.5; stroke-linejoin: miter"/>
   </g>
   <g id="patch_17">
    <path d="M 237.7135 147.903105 
L 319.3115 147.903105 
Q 323.94775 147.903105 323.94775 150.005316 
L 323.94775 187.00423 
Q 323.94775 189.106441 319.3115 189.106441 
L 237.7135 189.106441 
Q 233.07725 189.106441 233.07725 187.00423 
L 233.07725 150.005316 
Q 233.07725 147.903105 237.7135 147.903105 
z
" clip-path="url(#p18545d78b0)" style="fill: #8fd3b5; stroke: #ffffff; stroke-width: 1.5; stroke-linejoin: miter"/>
   </g>
   <g id="patch_18">
    <path d="M 330.4385 147.903105 
L 412.0365 147.903105 
Q 416.67275 147.903105 416.67275 150.005316 
L 416.67275 187.00423 
Q 416.67275 189.106441 412.0365 189.106441 
L 330.4385 189.106441 
Q 325.80225 189.106441 325.80225 187.00423 
L 325.80225 150.005316 
Q 325.80225 147.903105 330.4385 147.903105 
z
" clip-path="url(#p18545d78b0)" style="fill: #8fd3b5; stroke: #ffffff; stroke-width: 1.5; stroke-linejoin: miter"/>
   </g>
   <g id="patch_19">
    <path d="M 52.2635 189.947326 
L 133.8615 189.947326 
Q 138.49775 189.947326 138.49775 192.049537 
L 138.49775 229.048451 
Q 138.49775 231.150662 133.8615 231.150662 
L 52.2635 231.150662 
Q 47.62725 231.150662 47.62725 229.048451 
L 47.62725 192.049537 
Q 47.62725 189.947326 52.2635 189.947326 
z
" clip-path="url(#p18545d78b0)" style="fill: #8fd3b5; stroke: #ffffff; stroke-width: 1.5; stroke-linejoin: miter"/>
   </g>
   <g id="patch_20">
    <path d="M 144.9885 189.947326 
L 226.5865 189.947326 
Q 231.22275 189.947326 231.22275 192.049537 
L 231.22275 229.048451 
Q 231.22275 231.150662 226.5865 231.150662 
L 144.9885 231.150662 
Q 140.35225 231.150662 140.35225 229.048451 
L 140.35225 192.049537 
Q 140.35225 189.947326 144.9885 189.947326 
z
" clip-path="url(#p18545d78b0)" style="fill: #8fd3b5; stroke: #ffffff; stroke-width: 1.5; stroke-linejoin: miter"/>
   </g>
   <g id="patch_21">
    <path d="M 237.7135 189.947326 
L 319.3115 189.947326 
Q 323.94775 189.947326 323.94775 192.049537 
L 323.94775 229.048451 
Q 323.94775 231.150662 319.3115 231.150662 
L 237.7135 231.150662 
Q 233.07725 231.150662 233.07725 229.048451 
L 233.07725 192.049537 
Q 233.07725 189.947326 237.7135 189.947326 
z
" clip-path="url(#p18545d78b0)" style="fill: #8fd3b5; stroke: #ffffff; stroke-width: 1.5; stroke-linejoin: miter"/>
   </g>
   <g id="patch_22">
    <path d="M 330.4385 189.947326 
L 412.0365 189.947326 
Q 416.67275 189.947326 416.67275 192.049537 
L 416.67275 229.048451 
Q 416.67275 231.150662 412.0365 231.150662 
L 330.4385 231.150662 
Q 325.80225 231.150662 325.80225 229.048451 
L 325.80225 192.049537 
Q 325.80225 189.947326 330.4385 189.947326 
z
" clip-path="url(#p18545d78b0)" style="fill: #8fd3b5; stroke: #ffffff; stroke-width: 1.5; stroke-linejoin: miter"/>
   </g>
   <g id="patch_23">
    <path d="M 52.2635 231.991546 
L 133.8615 231.991546 
Q 138.49775 231.991546 138.49775 234.093757 
L 138.49775 271.092672 
Q 138.49775 273.194883 133.8615 273.194883 
L 52.2635 273.194883 
Q 47.62725 273.194883 47.62725 271.092672 
L 47.62725 234.093757 
Q 47.62725 231.991546 52.2635 231.991546 
z
" clip-path="url(#p18545d78b0)" style="fill: #8fd3b5; stroke: #ffffff; stroke-width: 1.5; stroke-linejoin: miter"/>
   </g>
   <g id="patch_24">
    <path d="M 144.9885 231.991546 
L 226.5865 231.991546 
Q 231.22275 231.991546 231.22275 234.093757 
L 231.22275 271.092672 
Q 231.22275 273.194883 226.5865 273.194883 
L 144.9885 273.194883 
Q 140.35225 273.194883 140.35225 271.092672 
L 140.35225 234.093757 
Q 140.35225 231.991546 144.9885 231.991546 
z
" clip-path="url(#p18545d78b0)" style="fill: #8fd3b5; stroke: #ffffff; stroke-width: 1.5; stroke-linejoin: miter"/>
   </g>
   <g id="patch_25">
    <path d="M 237.7135 231.991546 
L 319.3115 231.991546 
Q 323.94775 231.991546 323.94775 234.093757 
L 323.94775 271.092672 
Q 323.94775 273.194883 319.3115 273.194883 
L 237.7135 273.194883 
Q 233.07725 273.194883 233.07725 271.092672 
L 233.07725 234.093757 
Q 233.07725 231.991546 237.7135 231.991546 
z
" clip-path="url(#p18545d78b0)" style="fill: #8fd3b5; stroke: #ffffff; stroke-width: 1.5; stroke-linejoin: miter"/>
   </g>
   <g id="patch_26">
    <path d="M 330.4385 231.991546 
L 412.0365 231.991546 
Q 416.67275 231.991546 416.67275 234.093757 
L 416.67275 271.092672 
Q 416.67275 273.194883 412.0365 273.194883 
L 330.4385 273.194883 
Q 325.80225 273.194883 325.80225 271.092672 
L 325.80225 234.093757 
Q 325.80225 231.991546 330.4385 231.991546 
z
" clip-path="url(#p18545d78b0)" style="fill: #8fd3b5; stroke: #ffffff; stroke-width: 1.5; stroke-linejoin: miter"/>
   </g>
   <g id="patch_27">
    <path d="M 52.2635 274.035767 
L 133.8615 274.035767 
Q 138.49775 274.035767 138.49775 276.137978 
L 138.49775 313.136893 
Q 138.49775 315.239104 133.8615 315.239104 
L 52.2635 315.239104 
Q 47.62725 315.239104 47.62725 313.136893 
L 47.62725 276.137978 
Q 47.62725 274.035767 52.2635 274.035767 
z
" clip-path="url(#p18545d78b0)" style="fill: #b8c2cc; stroke: #ffffff; stroke-width: 1.5; stroke-linejoin: miter"/>
   </g>
   <g id="patch_28">
    <path d="M 144.9885 274.035767 
L 226.5865 274.035767 
Q 231.22275 274.035767 231.22275 276.137978 
L 231.22275 313.136893 
Q 231.22275 315.239104 226.5865 315.239104 
L 144.9885 315.239104 
Q 140.35225 315.239104 140.35225 313.136893 
L 140.35225 276.137978 
Q 140.35225 274.035767 144.9885 274.035767 
z
" clip-path="url(#p18545d78b0)" style="fill: #8fd3b5; stroke: #ffffff; stroke-width: 1.5; stroke-linejoin: miter"/>
   </g>
   <g id="patch_29">
    <path d="M 237.7135 274.035767 
L 319.3115 274.035767 
Q 323.94775 274.035767 323.94775 276.137978 
L 323.94775 313.136893 
Q 323.94775 315.239104 319.3115 315.239104 
L 237.7135 315.239104 
Q 233.07725 315.239104 233.07725 313.136893 
L 233.07725 276.137978 
Q 233.07725 274.035767 237.7135 274.035767 
z
" clip-path="url(#p18545d78b0)" style="fill: #8fd3b5; stroke: #ffffff; stroke-width: 1.5; stroke-linejoin: miter"/>
   </g>
   <g id="patch_30">
    <path d="M 330.4385 274.035767 
L 412.0365 274.035767 
Q 416.67275 274.035767 416.67275 276.137978 
L 416.67275 313.136893 
Q 416.67275 315.239104 412.0365 315.239104 
L 330.4385 315.239104 
Q 325.80225 315.239104 325.80225 313.136893 
L 325.80225 276.137978 
Q 325.80225 274.035767 330.4385 274.035767 
z
" clip-path="url(#p18545d78b0)" style="fill: #8fd3b5; stroke: #ffffff; stroke-width: 1.5; stroke-linejoin: miter"/>
   </g>
   <g id="patch_31">
    <path d="M 52.2635 316.079988 
L 133.8615 316.079988 
Q 138.49775 316.079988 138.49775 318.182199 
L 138.49775 355.181113 
Q 138.49775 357.283324 133.8615 357.283324 
L 52.2635 357.283324 
Q 47.62725 357.283324 47.62725 355.181113 
L 47.62725 318.182199 
Q 47.62725 316.079988 52.2635 316.079988 
z
" clip-path="url(#p18545d78b0)" style="fill: #b8c2cc; stroke: #ffffff; stroke-width: 1.5; stroke-linejoin: miter"/>
   </g>
   <g id="patch_32">
    <path d="M 144.9885 316.079988 
L 226.5865 316.079988 
Q 231.22275 316.079988 231.22275 318.182199 
L 231.22275 355.181113 
Q 231.22275 357.283324 226.5865 357.283324 
L 144.9885 357.283324 
Q 140.35225 357.283324 140.35225 355.181113 
L 140.35225 318.182199 
Q 140.35225 316.079988 144.9885 316.079988 
z
" clip-path="url(#p18545d78b0)" style="fill: #8fd3b5; stroke: #ffffff; stroke-width: 1.5; stroke-linejoin: miter"/>
   </g>
   <g id="patch_33">
    <path d="M 237.7135 316.079988 
L 319.3115 316.079988 
Q 323.94775 316.079988 323.94775 318.182199 
L 323.94775 355.181113 
Q 323.94775 357.283324 319.3115 357.283324 
L 237.7135 357.283324 
Q 233.07725 357.283324 233.07725 355.181113 
L 233.07725 318.182199 
Q 233.07725 316.079988 237.7135 316.079988 
z
" clip-path="url(#p18545d78b0)" style="fill: #8fd3b5; stroke: #ffffff; stroke-width: 1.5; stroke-linejoin: miter"/>
   </g>
   <g id="patch_34">
    <path d="M 330.4385 316.079988 
L 412.0365 316.079988 
Q 416.67275 316.079988 416.67275 318.182199 
L 416.67275 355.181113 
Q 416.67275 357.283324 412.0365 357.283324 
L 330.4385 357.283324 
Q 325.80225 357.283324 325.80225 355.181113 
L 325.80225 318.182199 
Q 325.80225 316.079988 330.4385 316.079988 
z
" clip-path="url(#p18545d78b0)" style="fill: #8fd3b5; stroke: #ffffff; stroke-width: 1.5; stroke-linejoin: miter"/>
   </g>
   <g id="patch_35">
    <path d="M 52.2635 358.124209 
L 133.8615 358.124209 
Q 138.49775 358.124209 138.49775 360.22642 
L 138.49775 397.225334 
Q 138.49775 399.327545 133.8615 399.327545 
L 52.2635 399.327545 
Q 47.62725 399.327545 47.62725 397.225334 
L 47.62725 360.22642 
Q 47.62725 358.124209 52.2635 358.124209 
z
" clip-path="url(#p18545d78b0)" style="fill: #b8c2cc; stroke: #ffffff; stroke-width: 1.5; stroke-linejoin: miter"/>
   </g>
   <g id="patch_36">
    <path d="M 144.9885 358.124209 
L 226.5865 358.124209 
Q 231.22275 358.124209 231.22275 360.22642 
L 231.22275 397.225334 
Q 231.22275 399.327545 226.5865 399.327545 
L 144.9885 399.327545 
Q 140.35225 399.327545 140.35225 397.225334 
L 140.35225 360.22642 
Q 140.35225 358.124209 144.9885 358.124209 
z
" clip-path="url(#p18545d78b0)" style="fill: #8fd3b5; stroke: #ffffff; stroke-width: 1.5; stroke-linejoin: miter"/>
   </g>
   <g id="patch_37">
    <path d="M 237.7135 358.124209 
L 319.3115 358.124209 
Q 323.94775 358.124209 323.94775 360.22642 
L 323.94775 397.225334 
Q 323.94775 399.327545 319.3115 399.327545 
L 237.7135 399.327545 
Q 233.07725 399.327545 233.07725 397.225334 
L 233.07725 360.22642 
Q 233.07725 358.124209 237.7135 358.124209 
z
" clip-path="url(#p18545d78b0)" style="fill: #8fd3b5; stroke: #ffffff; stroke-width: 1.5; stroke-linejoin: miter"/>
   </g>
   <g id="patch_38">
    <path d="M 330.4385 358.124209 
L 412.0365 358.124209 
Q 416.67275 358.124209 416.67275 360.22642 
L 416.67275 397.225334 
Q 416.67275 399.327545 412.0365 399.327545 
L 330.4385 399.327545 
Q 325.80225 399.327545 325.80225 397.225334 
L 325.80225 360.22642 
Q 325.80225 358.124209 330.4385 358.124209 
z
" clip-path="url(#p18545d78b0)" style="fill: #8fd3b5; stroke: #ffffff; stroke-width: 1.5; stroke-linejoin: miter"/>
   </g>
   <g id="patch_39">
    <path d="M 52.2635 400.16843 
L 133.8615 400.16843 
Q 138.49775 400.16843 138.49775 402.270641 
L 138.49775 439.269555 
Q 138.49775 441.371766 133.8615 441.371766 
L 52.2635 441.371766 
Q 47.62725 441.371766 47.62725 439.269555 
L 47.62725 402.270641 
Q 47.62725 400.16843 52.2635 400.16843 
z
" clip-path="url(#p18545d78b0)" style="fill: #b8c2cc; stroke: #ffffff; stroke-width: 1.5; stroke-linejoin: miter"/>
   </g>
   <g id="patch_40">
    <path d="M 144.9885 400.16843 
L 226.5865 400.16843 
Q 231.22275 400.16843 231.22275 402.270641 
L 231.22275 439.269555 
Q 231.22275 441.371766 226.5865 441.371766 
L 144.9885 441.371766 
Q 140.35225 441.371766 140.35225 439.269555 
L 140.35225 402.270641 
Q 140.35225 400.16843 144.9885 400.16843 
z
" clip-path="url(#p18545d78b0)" style="fill: #b8c2cc; stroke: #ffffff; stroke-width: 1.5; stroke-linejoin: miter"/>
   </g>
   <g id="patch_41">
    <path d="M 237.7135 400.16843 
L 319.3115 400.16843 
Q 323.94775 400.16843 323.94775 402.270641 
L 323.94775 439.269555 
Q 323.94775 441.371766 319.3115 441.371766 
L 237.7135 441.371766 
Q 233.07725 441.371766 233.07725 439.269555 
L 233.07725 402.270641 
Q 233.07725 400.16843 237.7135 400.16843 
z
" clip-path="url(#p18545d78b0)" style="fill: #8fd3b5; stroke: #ffffff; stroke-width: 1.5; stroke-linejoin: miter"/>
   </g>
   <g id="patch_42">
    <path d="M 330.4385 400.16843 
L 412.0365 400.16843 
Q 416.67275 400.16843 416.67275 402.270641 
L 416.67275 439.269555 
Q 416.67275 441.371766 412.0365 441.371766 
L 330.4385 441.371766 
Q 325.80225 441.371766 325.80225 439.269555 
L 325.80225 402.270641 
Q 325.80225 400.16843 330.4385 400.16843 
z
" clip-path="url(#p18545d78b0)" style="fill: #8fd3b5; stroke: #ffffff; stroke-width: 1.5; stroke-linejoin: miter"/>
   </g>
   <g id="patch_43">
    <path d="M 52.2635 442.212651 
L 133.8615 442.212651 
Q 138.49775 442.212651 138.49775 444.314862 
L 138.49775 481.313776 
Q 138.49775 483.415987 133.8615 483.415987 
L 52.2635 483.415987 
Q 47.62725 483.415987 47.62725 481.313776 
L 47.62725 444.314862 
Q 47.62725 442.212651 52.2635 442.212651 
z
" clip-path="url(#p18545d78b0)" style="fill: #b8c2cc; stroke: #ffffff; stroke-width: 1.5; stroke-linejoin: miter"/>
   </g>
   <g id="patch_44">
    <path d="M 144.9885 442.212651 
L 226.5865 442.212651 
Q 231.22275 442.212651 231.22275 444.314862 
L 231.22275 481.313776 
Q 231.22275 483.415987 226.5865 483.415987 
L 144.9885 483.415987 
Q 140.35225 483.415987 140.35225 481.313776 
L 140.35225 444.314862 
Q 140.35225 442.212651 144.9885 442.212651 
z
" clip-path="url(#p18545d78b0)" style="fill: #b8c2cc; stroke: #ffffff; stroke-width: 1.5; stroke-linejoin: miter"/>
   </g>
   <g id="patch_45">
    <path d="M 237.7135 442.212651 
L 319.3115 442.212651 
Q 323.94775 442.212651 323.94775 444.314862 
L 323.94775 481.313776 
Q 323.94775 483.415987 319.3115 483.415987 
L 237.7135 483.415987 
Q 233.07725 483.415987 233.07725 481.313776 
L 233.07725 444.314862 
Q 233.07725 442.212651 237.7135 442.212651 
z
" clip-path="url(#p18545d78b0)" style="fill: #b8c2cc; stroke: #ffffff; stroke-width: 1.5; stroke-linejoin: miter"/>
   </g>
   <g id="patch_46">
    <path d="M 330.4385 442.212651 
L 412.0365 442.212651 
Q 416.67275 442.212651 416.67275 444.314862 
L 416.67275 481.313776 
Q 416.67275 483.415987 412.0365 483.415987 
L 330.4385 483.415987 
Q 325.80225 483.415987 325.80225 481.313776 
L 325.80225 444.314862 
Q 325.80225 442.212651 330.4385 442.212651 
z
" clip-path="url(#p18545d78b0)" style="fill: #8fd3b5; stroke: #ffffff; stroke-width: 1.5; stroke-linejoin: miter"/>
   </g>
   <g id="patch_47">
    <path d="M 52.2635 484.256871 
L 133.8615 484.256871 
Q 138.49775 484.256871 138.49775 486.359082 
L 138.49775 523.357997 
Q 138.49775 525.460208 133.8615 525.460208 
L 52.2635 525.460208 
Q 47.62725 525.460208 47.62725 523.357997 
L 47.62725 486.359082 
Q 47.62725 484.256871 52.2635 484.256871 
z
" clip-path="url(#p18545d78b0)" style="fill: #b8c2cc; stroke: #ffffff; stroke-width: 1.5; stroke-linejoin: miter"/>
   </g>
   <g id="patch_48">
    <path d="M 144.9885 484.256871 
L 226.5865 484.256871 
Q 231.22275 484.256871 231.22275 486.359082 
L 231.22275 523.357997 
Q 231.22275 525.460208 226.5865 525.460208 
L 144.9885 525.460208 
Q 140.35225 525.460208 140.35225 523.357997 
L 140.35225 486.359082 
Q 140.35225 484.256871 144.9885 484.256871 
z
" clip-path="url(#p18545d78b0)" style="fill: #b8c2cc; stroke: #ffffff; stroke-width: 1.5; stroke-linejoin: miter"/>
   </g>
   <g id="patch_49">
    <path d="M 237.7135 484.256871 
L 319.3115 484.256871 
Q 323.94775 484.256871 323.94775 486.359082 
L 323.94775 523.357997 
Q 323.94775 525.460208 319.3115 525.460208 
L 237.7135 525.460208 
Q 233.07725 525.460208 233.07725 523.357997 
L 233.07725 486.359082 
Q 233.07725 484.256871 237.7135 484.256871 
z
" clip-path="url(#p18545d78b0)" style="fill: #b8c2cc; stroke: #ffffff; stroke-width: 1.5; stroke-linejoin: miter"/>
   </g>
   <g id="patch_50">
    <path d="M 330.4385 484.256871 
L 412.0365 484.256871 
Q 416.67275 484.256871 416.67275 486.359082 
L 416.67275 523.357997 
Q 416.67275 525.460208 412.0365 525.460208 
L 330.4385 525.460208 
Q 325.80225 525.460208 325.80225 523.357997 
L 325.80225 486.359082 
Q 325.80225 484.256871 330.4385 484.256871 
z
" clip-path="url(#p18545d78b0)" style="fill: #8fd3b5; stroke: #ffffff; stroke-width: 1.5; stroke-linejoin: miter"/>
   </g>
   <g id="matplotlib.axis_1">
    <g id="xtick_1">
     <g id="line2d_1"/>
     <g id="text_1">
      <!-- P1 -->
      <g style="fill: #2f3437" transform="translate(87.503125 15.25) scale(0.1 -0.1)">
       <defs>
        <path id="NotoSerifCJKjp-Regular-50" d="M 339 4467 
L 998 4416 
C 1005 3782 1005 3142 1005 2502 
L 1005 2157 
C 1005 1510 1005 877 998 250 
L 339 192 
L 339 0 
L 2310 0 
L 2310 192 
L 1581 256 
L 1574 1907 
L 1958 1907 
C 3302 1907 3866 2515 3866 3302 
C 3866 4141 3322 4659 2150 4659 
L 339 4659 
L 339 4467 
z
M 1574 2118 
L 1574 2502 
C 1574 3162 1574 3808 1581 4448 
L 2106 4448 
C 2938 4448 3315 4051 3315 3309 
C 3315 2605 2918 2118 1946 2118 
L 1574 2118 
z
" transform="scale(0.015625)"/>
        <path id="NotoSerifCJKjp-Regular-31" d="M 480 0 
L 2733 -6 
L 2733 173 
L 1907 269 
L 1894 1472 
L 1894 3642 
L 1920 4653 
L 1824 4723 
L 448 4371 
L 448 4179 
L 1370 4333 
L 1370 1472 
L 1357 269 
L 480 179 
L 480 0 
z
" transform="scale(0.015625)"/>
       </defs>
       <use xlink:href="#NotoSerifCJKjp-Regular-50"/>
       <use xlink:href="#NotoSerifCJKjp-Regular-31" transform="translate(64.099991 0)"/>
      </g>
     </g>
    </g>
    <g id="xtick_2">
     <g id="line2d_2"/>
     <g id="text_2">
      <!-- P2 -->
      <g style="fill: #2f3437" transform="translate(179.792969 15.25) scale(0.1 -0.1)">
       <defs>
        <path id="NotoSerifCJKjp-Regular-32" d="M 410 0 
L 3270 0 
L 3270 448 
L 762 448 
C 1152 877 1530 1293 1715 1485 
C 2688 2483 3078 2950 3078 3539 
C 3078 4294 2637 4755 1779 4755 
C 1126 4755 512 4422 410 3770 
C 448 3642 550 3571 672 3571 
C 819 3571 922 3654 986 3904 
L 1139 4461 
C 1306 4531 1466 4557 1626 4557 
C 2195 4557 2534 4192 2534 3552 
C 2534 2989 2253 2541 1574 1722 
C 1261 1350 832 845 410 346 
L 410 0 
z
" transform="scale(0.015625)"/>
       </defs>
       <use xlink:href="#NotoSerifCJKjp-Regular-50"/>
       <use xlink:href="#NotoSerifCJKjp-Regular-32" transform="translate(64.099991 0)"/>
      </g>
     </g>
    </g>
    <g id="xtick_3">
     <g id="line2d_3"/>
     <g id="text_3">
      <!-- P3 -->
      <g style="fill: #2f3437" transform="translate(272.522656 15.25) scale(0.1 -0.1)">
       <defs>
        <path id="NotoSerifCJKjp-Regular-33" d="M 1638 -96 
C 2534 -96 3155 416 3155 1203 
C 3155 1875 2778 2342 1952 2458 
C 2662 2618 3021 3085 3021 3629 
C 3021 4301 2547 4755 1728 4755 
C 1120 4755 550 4499 442 3866 
C 480 3757 576 3706 685 3706 
C 845 3706 941 3776 998 3994 
L 1146 4486 
C 1306 4538 1453 4557 1606 4557 
C 2163 4557 2477 4205 2477 3610 
C 2477 2925 2035 2554 1414 2554 
L 1158 2554 
L 1158 2330 
L 1446 2330 
C 2214 2330 2611 1926 2611 1222 
C 2611 544 2202 102 1491 102 
C 1312 102 1158 134 1018 186 
L 864 685 
C 806 922 717 1011 563 1011 
C 442 1011 346 941 301 813 
C 429 218 909 -96 1638 -96 
z
" transform="scale(0.015625)"/>
       </defs>
       <use xlink:href="#NotoSerifCJKjp-Regular-50"/>
       <use xlink:href="#NotoSerifCJKjp-Regular-33" transform="translate(64.099991 0)"/>
      </g>
     </g>
    </g>
    <g id="xtick_4">
     <g id="line2d_4"/>
     <g id="text_4">
      <!-- P4 -->
      <g style="fill: #2f3437" transform="translate(365.257812 15.25) scale(0.1 -0.1)">
       <defs>
        <path id="NotoSerifCJKjp-Regular-34" d="M 2170 -115 
L 2650 -115 
L 2650 1229 
L 3418 1229 
L 3418 1600 
L 2650 1600 
L 2650 4730 
L 2291 4730 
L 218 1530 
L 218 1229 
L 2170 1229 
L 2170 -115 
z
M 493 1600 
L 1389 2989 
L 2170 4211 
L 2170 1600 
L 493 1600 
z
" transform="scale(0.015625)"/>
       </defs>
       <use xlink:href="#NotoSerifCJKjp-Regular-50"/>
       <use xlink:href="#NotoSerifCJKjp-Regular-34" transform="translate(64.099991 0)"/>
      </g>
     </g>
    </g>
   </g>
   <g id="matplotlib.axis_2">
    <g id="ytick_1">
     <g id="line2d_5"/>
     <g id="text_5">
      <!-- 完整性 -->
      <g style="fill: #2f3437" transform="translate(16.2 45.99461) scale(0.09 -0.09)">
       <defs>
        <path id="NotoSerifCJKjp-Regular-5b8c" d="M 1331 3392 
L 1382 3200 
L 4877 3200 
C 4960 3200 5024 3232 5037 3302 
C 4832 3494 4486 3738 4486 3738 
L 4198 3392 
L 1331 3392 
z
M 320 2323 
L 378 2138 
L 2208 2138 
C 2125 1152 1856 269 243 -397 
L 314 -493 
C 2278 83 2554 992 2682 2138 
L 3565 2138 
L 3565 83 
C 3565 -243 3674 -346 4198 -346 
L 4928 -346 
C 5984 -346 6182 -275 6182 -83 
C 6182 6 6150 58 6010 102 
L 5984 954 
L 5901 954 
C 5830 582 5760 237 5702 134 
C 5677 70 5658 51 5574 45 
C 5478 38 5242 38 4941 38 
L 4262 38 
C 4013 38 3981 64 3981 173 
L 3981 2138 
L 5933 2138 
C 6022 2138 6086 2170 6106 2240 
C 5882 2426 5530 2688 5530 2688 
L 5216 2323 
L 320 2323 
z
M 1011 4819 
C 1024 4307 762 3827 486 3654 
C 358 3558 282 3411 352 3283 
C 442 3142 672 3174 832 3309 
C 1018 3456 1197 3782 1197 4250 
L 5363 4250 
C 5274 4013 5139 3712 5043 3526 
L 5120 3482 
C 5376 3654 5722 3955 5907 4173 
C 6035 4179 6106 4186 6163 4230 
L 5645 4723 
L 5363 4442 
L 3405 4442 
L 3405 5133 
C 3565 5158 3629 5222 3642 5312 
L 2982 5376 
L 2982 4442 
L 1190 4442 
C 1178 4557 1158 4685 1120 4819 
L 1011 4819 
z
" transform="scale(0.015625)"/>
        <path id="NotoSerifCJKjp-Regular-6574" d="M 1574 1094 
L 1574 -154 
L 288 -154 
L 346 -339 
L 5939 -339 
C 6029 -339 6093 -307 6112 -237 
C 5894 -45 5555 224 5555 224 
L 5254 -154 
L 3405 -154 
L 3405 640 
L 5184 640 
C 5274 640 5338 666 5350 736 
C 5146 928 4819 1184 4819 1184 
L 4525 826 
L 3405 826 
L 3405 1485 
L 5491 1485 
C 5581 1485 5645 1517 5664 1581 
C 5453 1773 5126 2022 5126 2022 
L 4838 1670 
L 717 1670 
L 774 1485 
L 2995 1485 
L 2995 -154 
L 1978 -154 
L 1978 870 
C 2125 896 2176 954 2189 1037 
L 1574 1094 
z
M 582 4230 
L 582 3078 
L 640 3078 
C 787 3078 954 3155 954 3194 
L 954 3283 
L 1478 3283 
C 1184 2784 736 2317 205 1978 
L 262 1875 
C 794 2118 1254 2438 1606 2822 
L 1606 1875 
L 1683 1875 
C 1830 1875 1990 1958 1990 2010 
L 1990 2989 
C 2304 2822 2675 2528 2822 2285 
C 3258 2093 3398 2931 1997 3085 
L 1990 3078 
L 1990 3283 
L 2662 3283 
L 2662 3104 
L 2720 3104 
C 2842 3104 3034 3194 3040 3238 
L 3040 4013 
C 3130 4026 3213 4070 3238 4109 
L 2810 4442 
L 2611 4230 
L 1990 4230 
L 1990 4634 
L 3238 4634 
C 3328 4634 3386 4666 3405 4736 
C 3213 4915 2906 5152 2906 5152 
L 2630 4819 
L 1990 4819 
L 1990 5158 
C 2150 5178 2208 5235 2221 5325 
L 1606 5389 
L 1606 4819 
L 307 4819 
L 358 4634 
L 1606 4634 
L 1606 4230 
L 986 4230 
L 582 4416 
L 582 4230 
z
M 1606 3469 
L 954 3469 
L 954 4045 
L 1606 4045 
L 1606 3469 
z
M 1990 3469 
L 1990 4045 
L 2662 4045 
L 2662 3469 
L 1990 3469 
z
M 4058 5357 
C 3891 4608 3571 3891 3219 3430 
L 3309 3366 
C 3526 3539 3731 3763 3917 4032 
C 4051 3654 4218 3309 4442 3008 
C 4077 2611 3590 2291 2963 2029 
L 3008 1939 
C 3674 2144 4211 2413 4627 2765 
C 4947 2413 5350 2118 5888 1901 
C 5933 2086 6048 2195 6208 2234 
L 6221 2304 
C 5664 2458 5216 2694 4864 2989 
C 5203 3341 5440 3770 5600 4275 
L 6035 4275 
C 6125 4275 6182 4307 6202 4378 
C 6003 4570 5677 4832 5677 4832 
L 5395 4461 
L 4179 4461 
C 4282 4646 4371 4838 4448 5043 
C 4582 5037 4653 5094 4685 5171 
L 4058 5357 
z
M 4621 3226 
C 4365 3501 4166 3814 4006 4166 
L 4077 4275 
L 5126 4275 
C 5018 3885 4851 3533 4621 3226 
z
" transform="scale(0.015625)"/>
        <path id="NotoSerifCJKjp-Regular-6027" d="M 1210 5363 
L 1210 -499 
L 1293 -499 
C 1446 -499 1619 -403 1619 -346 
L 1619 5114 
C 1779 5139 1830 5210 1850 5299 
L 1210 5363 
z
M 736 4064 
C 742 3603 557 3091 378 2880 
C 269 2771 211 2624 294 2515 
C 397 2394 621 2464 730 2624 
C 896 2854 1018 3379 851 4058 
L 736 4064 
z
M 1811 4269 
L 1722 4230 
C 1882 3981 2042 3571 2048 3258 
C 2387 2931 2790 3674 1811 4269 
z
M 2880 4941 
C 2752 3987 2477 3027 2131 2381 
L 2234 2317 
C 2509 2643 2746 3066 2938 3546 
L 3917 3546 
L 3917 1990 
L 2592 1990 
L 2643 1805 
L 3917 1805 
L 3917 -83 
L 2086 -83 
L 2138 -269 
L 6080 -269 
C 6163 -269 6234 -237 6246 -166 
C 6042 32 5696 301 5696 301 
L 5389 -83 
L 4333 -83 
L 4333 1805 
L 5715 1805 
C 5798 1805 5869 1837 5882 1907 
C 5683 2099 5338 2374 5338 2374 
L 5050 1990 
L 4333 1990 
L 4333 3546 
L 5888 3546 
C 5978 3546 6042 3578 6061 3642 
C 5850 3840 5510 4109 5510 4109 
L 5216 3725 
L 4333 3725 
L 4333 5088 
C 4474 5107 4525 5165 4538 5254 
L 3917 5318 
L 3917 3725 
L 3008 3725 
C 3117 4019 3206 4326 3283 4646 
C 3424 4646 3488 4710 3514 4787 
L 2880 4941 
z
" transform="scale(0.015625)"/>
       </defs>
       <use xlink:href="#NotoSerifCJKjp-Regular-5b8c"/>
       <use xlink:href="#NotoSerifCJKjp-Regular-6574" transform="translate(99.999985 0)"/>
       <use xlink:href="#NotoSerifCJKjp-Regular-6027" transform="translate(199.999969 0)"/>
      </g>
     </g>
    </g>
    <g id="ytick_2">
     <g id="line2d_6"/>
     <g id="text_6">
      <!-- 顺序 -->
      <g style="fill: #2f3437" transform="translate(25.2 88.038831) scale(0.09 -0.09)">
       <defs>
        <path id="NotoSerifCJKjp-Regular-987a" d="M 4909 3238 
L 4294 3302 
C 4288 1440 4378 307 2566 -422 
L 2643 -531 
C 4717 147 4666 1299 4698 3072 
C 4838 3085 4890 3155 4909 3238 
z
M 4787 941 
L 4710 890 
C 5094 557 5606 -6 5779 -416 
C 6272 -698 6509 301 4787 941 
z
M 2944 5146 
L 2355 5210 
L 2355 -262 
L 2426 -262 
C 2566 -262 2720 -166 2720 -109 
L 2720 4973 
C 2874 4998 2925 5056 2944 5146 
z
M 2086 4832 
L 1523 4896 
L 1523 326 
L 1594 326 
C 1728 326 1875 410 1875 461 
L 1875 4666 
C 2022 4691 2080 4749 2086 4832 
z
M 1274 5133 
L 691 5197 
L 691 2394 
C 691 1299 614 346 237 -435 
L 346 -506 
C 915 282 1043 1293 1050 2394 
L 1050 4960 
C 1210 4979 1254 5043 1274 5133 
z
M 5651 5235 
L 5357 4877 
L 2957 4877 
L 3008 4685 
L 4339 4685 
C 4301 4390 4243 4026 4198 3776 
L 3635 3776 
L 3226 3974 
L 3226 794 
L 3290 794 
C 3450 794 3603 890 3603 928 
L 3603 3590 
L 5402 3590 
L 5402 922 
L 5466 922 
C 5594 922 5792 1011 5798 1056 
L 5798 3539 
C 5907 3558 5997 3603 6035 3648 
L 5562 4019 
L 5344 3776 
L 4390 3776 
C 4544 4026 4704 4378 4838 4685 
L 6010 4685 
C 6099 4685 6163 4717 6176 4787 
C 5971 4979 5651 5235 5651 5235 
z
" transform="scale(0.015625)"/>
        <path id="NotoSerifCJKjp-Regular-5e8f" d="M 2554 3187 
L 2502 3104 
C 2944 2931 3546 2566 3782 2253 
C 4070 2157 4179 2464 3834 2758 
C 4294 2931 4909 3226 5242 3469 
C 5382 3475 5459 3482 5510 3526 
L 5037 3981 
L 4755 3712 
L 1818 3712 
L 1875 3526 
L 4640 3526 
C 4390 3296 4019 3021 3731 2835 
C 3501 2989 3123 3130 2554 3187 
z
M 1427 2234 
L 1485 2042 
L 3418 2042 
L 3418 102 
C 3418 13 3386 -26 3258 -26 
C 3117 -26 2413 26 2413 26 
L 2413 -70 
C 2720 -102 2899 -154 3002 -218 
C 3091 -282 3136 -384 3136 -499 
C 3750 -448 3834 -230 3834 90 
L 3834 2042 
L 5331 2042 
C 5152 1773 4890 1427 4704 1216 
L 4781 1158 
C 5120 1363 5619 1722 5875 1971 
C 6003 1978 6080 1990 6138 2035 
L 5658 2496 
L 5376 2234 
L 1427 2234 
z
M 877 4506 
L 877 2918 
C 877 1798 832 576 269 -416 
L 365 -474 
C 1235 493 1286 1882 1286 2925 
L 1286 4320 
L 5965 4320 
C 6054 4320 6118 4352 6131 4422 
C 5914 4621 5562 4902 5562 4902 
L 5248 4506 
L 3558 4506 
L 3558 5120 
C 3712 5146 3782 5210 3789 5299 
L 3142 5363 
L 3142 4506 
L 1363 4506 
L 877 4717 
L 877 4506 
z
" transform="scale(0.015625)"/>
       </defs>
       <use xlink:href="#NotoSerifCJKjp-Regular-987a"/>
       <use xlink:href="#NotoSerifCJKjp-Regular-5e8f" transform="translate(99.999985 0)"/>
      </g>
     </g>
    </g>
    <g id="ytick_3">
     <g id="line2d_7"/>
     <g id="text_7">
      <!-- 类型 -->
      <g style="fill: #2f3437" transform="translate(25.2 130.083052) scale(0.09 -0.09)">
       <defs>
        <path id="NotoSerifCJKjp-Regular-7c7b" d="M 1261 5158 
L 1190 5107 
C 1491 4877 1875 4467 1990 4141 
C 2432 3878 2688 4774 1261 5158 
z
M 3827 2387 
L 3770 2323 
C 4051 2176 4397 1888 4512 1626 
C 4934 1421 5120 2266 3827 2387 
z
M 4698 5248 
C 4461 4877 4083 4358 3776 4000 
L 3392 4000 
L 3392 5094 
C 3546 5114 3597 5171 3610 5261 
L 2970 5318 
L 2970 4000 
L 333 4000 
L 390 3808 
L 2528 3808 
C 2003 3194 1197 2618 314 2227 
L 371 2118 
C 1408 2470 2336 2995 2970 3661 
L 2970 2400 
L 3053 2400 
C 3213 2400 3392 2490 3392 2541 
L 3392 3808 
L 3430 3808 
C 3955 3155 4813 2573 5696 2272 
C 5734 2451 5901 2560 6118 2605 
L 6125 2688 
C 5306 2867 4224 3290 3642 3808 
L 5894 3808 
C 5984 3808 6048 3840 6067 3910 
C 5850 4102 5510 4371 5510 4371 
L 5210 4000 
L 3968 4000 
C 4339 4269 4749 4621 4998 4870 
C 5126 4838 5222 4864 5267 4922 
L 4698 5248 
z
M 2874 2234 
C 2861 1952 2835 1696 2784 1459 
L 314 1459 
L 371 1267 
L 2733 1267 
C 2502 563 1907 64 250 -365 
L 301 -493 
C 2355 -90 2957 474 3174 1267 
L 3283 1267 
C 3731 269 4563 -218 5818 -493 
C 5862 -288 5990 -147 6170 -109 
L 6176 -38 
C 4928 102 3936 474 3437 1267 
L 5920 1267 
C 6016 1267 6080 1299 6093 1370 
C 5875 1568 5530 1843 5530 1843 
L 5222 1459 
L 3219 1459 
C 3258 1626 3277 1805 3296 1997 
C 3443 2010 3507 2080 3520 2163 
L 2874 2234 
z
" transform="scale(0.015625)"/>
        <path id="NotoSerifCJKjp-Regular-578b" d="M 4006 5037 
L 4006 2637 
L 4083 2637 
C 4230 2637 4410 2720 4410 2771 
L 4410 4800 
C 4563 4826 4621 4877 4634 4966 
L 4006 5037 
z
M 5395 5331 
L 5395 2413 
C 5395 2330 5370 2298 5267 2298 
C 5165 2298 4640 2336 4640 2336 
L 4640 2234 
C 4870 2202 5005 2157 5088 2086 
C 5158 2016 5184 1914 5203 1786 
C 5734 1843 5798 2042 5798 2381 
L 5798 5094 
C 5946 5120 6010 5171 6022 5267 
L 5395 5331 
z
M 2374 4755 
L 2374 3674 
L 1568 3674 
L 1581 4006 
L 1581 4755 
L 2374 4755 
z
M 288 3674 
L 339 3494 
L 1158 3494 
C 1094 2931 877 2355 237 1862 
L 314 1779 
C 1203 2234 1472 2886 1549 3494 
L 2374 3494 
L 2374 1869 
L 2432 1869 
C 2643 1869 2778 1958 2778 1990 
L 2778 3494 
L 3616 3494 
C 3699 3494 3763 3526 3782 3597 
C 3584 3782 3258 4051 3258 4051 
L 2970 3674 
L 2778 3674 
L 2778 4755 
L 3514 4755 
C 3603 4755 3661 4787 3680 4858 
C 3482 5037 3155 5286 3155 5286 
L 2880 4934 
L 461 4934 
L 512 4755 
L 1184 4755 
L 1184 4000 
L 1171 3674 
L 288 3674 
z
M 282 -154 
L 339 -333 
L 5946 -333 
C 6042 -333 6106 -301 6125 -230 
C 5894 -32 5536 250 5536 250 
L 5216 -154 
L 3405 -154 
L 3405 1037 
L 5402 1037 
C 5491 1037 5555 1069 5574 1133 
C 5357 1338 5005 1606 5005 1606 
L 4698 1222 
L 3405 1222 
L 3405 1830 
C 3565 1856 3629 1920 3642 2003 
L 2982 2074 
L 2982 1222 
L 902 1222 
L 954 1037 
L 2982 1037 
L 2982 -154 
L 282 -154 
z
" transform="scale(0.015625)"/>
       </defs>
       <use xlink:href="#NotoSerifCJKjp-Regular-7c7b"/>
       <use xlink:href="#NotoSerifCJKjp-Regular-578b" transform="translate(99.999985 0)"/>
      </g>
     </g>
    </g>
    <g id="ytick_4">
     <g id="line2d_8"/>
     <g id="text_8">
      <!-- 协同 -->
      <g style="fill: #2f3437" transform="translate(25.2 172.127273) scale(0.09 -0.09)">
       <defs>
        <path id="NotoSerifCJKjp-Regular-534f" d="M 5338 2906 
L 5254 2867 
C 5491 2496 5754 1914 5779 1472 
C 6182 1082 6592 2035 5338 2906 
z
M 2618 2963 
L 2509 2976 
C 2458 2483 2163 1984 1926 1792 
C 1798 1683 1728 1530 1811 1408 
C 1907 1267 2157 1318 2298 1472 
C 2522 1709 2746 2246 2618 2963 
z
M 1862 3885 
L 1587 3539 
L 1370 3539 
L 1370 5126 
C 1510 5139 1562 5197 1574 5286 
L 966 5350 
L 966 3539 
L 205 3539 
L 256 3347 
L 966 3347 
L 966 -486 
L 1043 -486 
C 1197 -486 1370 -397 1370 -333 
L 1370 3347 
L 2202 3347 
C 2291 3347 2355 3379 2374 3450 
C 2176 3635 1862 3885 1862 3885 
z
M 3994 5286 
L 3334 5363 
C 3334 4877 3341 4410 3328 3955 
L 2189 3955 
L 2246 3763 
L 3328 3763 
C 3277 2093 3027 672 1722 -410 
L 1811 -512 
C 3405 550 3680 2042 3738 3763 
L 4794 3763 
C 4755 1709 4672 390 4461 173 
C 4397 109 4346 96 4218 96 
C 4083 96 3648 134 3373 160 
L 3366 45 
C 3616 6 3878 -64 3974 -134 
C 4064 -205 4090 -320 4090 -454 
C 4371 -461 4627 -365 4794 -160 
C 5075 179 5171 1466 5203 3712 
C 5344 3725 5421 3763 5472 3808 
L 4979 4230 
L 4723 3955 
L 3744 3955 
L 3763 5114 
C 3923 5139 3981 5197 3994 5286 
z
" transform="scale(0.015625)"/>
        <path id="NotoSerifCJKjp-Regular-540c" d="M 1581 3866 
L 1632 3680 
L 4710 3680 
C 4800 3680 4858 3712 4877 3782 
C 4672 3974 4333 4237 4333 4237 
L 4032 3866 
L 1581 3866 
z
M 710 4870 
L 710 -499 
L 787 -499 
C 973 -499 1126 -390 1126 -333 
L 1126 4678 
L 5267 4678 
L 5267 160 
C 5267 38 5222 -6 5082 -6 
C 4909 -6 4064 51 4064 51 
L 4064 -51 
C 4429 -90 4627 -141 4755 -211 
C 4858 -275 4902 -371 4928 -499 
C 5600 -435 5683 -211 5683 115 
L 5683 4595 
C 5818 4621 5914 4678 5958 4723 
L 5427 5139 
L 5210 4870 
L 1165 4870 
L 710 5082 
L 710 4870 
z
M 2022 2880 
L 2022 595 
L 2093 595 
C 2259 595 2432 691 2432 723 
L 2432 1267 
L 3923 1267 
L 3923 723 
L 3981 723 
C 4122 723 4326 826 4333 870 
L 4333 2637 
C 4442 2656 4538 2707 4570 2752 
L 4083 3123 
L 3866 2880 
L 2458 2880 
L 2022 3078 
L 2022 2880 
z
M 2432 1453 
L 2432 2701 
L 3923 2701 
L 3923 1453 
L 2432 1453 
z
" transform="scale(0.015625)"/>
       </defs>
       <use xlink:href="#NotoSerifCJKjp-Regular-534f"/>
       <use xlink:href="#NotoSerifCJKjp-Regular-540c" transform="translate(99.999985 0)"/>
      </g>
     </g>
    </g>
    <g id="ytick_5">
     <g id="line2d_9"/>
     <g id="text_9">
      <!-- 完成时刻 -->
      <g style="fill: #2f3437" transform="translate(7.2 214.171494) scale(0.09 -0.09)">
       <defs>
        <path id="NotoSerifCJKjp-Regular-6210" d="M 4282 5216 
L 4224 5146 
C 4525 4998 4909 4698 5050 4448 
C 5478 4250 5632 5107 4282 5216 
z
M 909 4077 
L 909 2694 
C 909 1626 838 474 205 -454 
L 288 -531 
C 1229 371 1325 1664 1325 2650 
L 2483 2650 
C 2458 1562 2381 998 2259 883 
C 2214 832 2163 819 2067 819 
C 1952 819 1638 845 1459 864 
L 1459 755 
C 1626 730 1811 678 1875 621 
C 1946 557 1965 442 1965 326 
C 2182 326 2394 390 2528 518 
C 2752 723 2848 1325 2886 2605 
C 3014 2618 3091 2650 3136 2701 
L 2662 3078 
L 2426 2829 
L 1325 2829 
L 1325 3891 
L 3424 3891 
C 3514 2854 3712 1926 4096 1178 
C 3642 557 3046 6 2291 -384 
L 2342 -467 
C 3149 -147 3782 320 4269 864 
C 4531 448 4864 96 5274 -166 
C 5587 -384 5971 -550 6118 -352 
C 6170 -288 6150 -192 5952 32 
L 6061 986 
L 5978 1005 
C 5901 742 5779 429 5702 282 
C 5645 147 5600 147 5478 237 
C 5088 467 4781 794 4544 1190 
C 4966 1754 5261 2368 5459 2976 
C 5638 2970 5696 3008 5722 3091 
L 5050 3290 
C 4909 2701 4678 2112 4352 1568 
C 4051 2234 3898 3040 3834 3891 
L 5952 3891 
C 6042 3891 6106 3923 6118 3994 
C 5907 4186 5555 4461 5555 4461 
L 5248 4077 
L 3821 4077 
C 3802 4416 3789 4755 3795 5101 
C 3949 5120 4006 5197 4019 5280 
L 3366 5350 
C 3366 4915 3379 4486 3411 4077 
L 1408 4077 
L 909 4294 
L 909 4077 
z
" transform="scale(0.015625)"/>
        <path id="NotoSerifCJKjp-Regular-65f6" d="M 2880 2861 
L 2803 2816 
C 3149 2426 3526 1805 3546 1286 
C 4006 870 4442 2035 2880 2861 
z
M 1907 1069 
L 922 1069 
L 922 2733 
L 1907 2733 
L 1907 1069 
z
M 525 4992 
L 525 13 
L 582 13 
C 794 13 922 128 922 160 
L 922 877 
L 1907 877 
L 1907 326 
L 1971 326 
C 2112 326 2304 429 2310 474 
L 2310 4518 
C 2438 4544 2547 4589 2592 4640 
L 2080 5043 
L 1843 4781 
L 998 4781 
L 525 4992 
z
M 1907 2925 
L 922 2925 
L 922 4589 
L 1907 4589 
L 1907 2925 
z
M 5664 4211 
L 5363 3802 
L 5069 3802 
L 5069 5043 
C 5229 5062 5293 5120 5306 5216 
L 4646 5286 
L 4646 3802 
L 2464 3802 
L 2515 3610 
L 4646 3610 
L 4646 179 
C 4646 64 4602 26 4461 26 
C 4301 26 3456 83 3456 83 
L 3456 -13 
C 3821 -58 4013 -115 4134 -192 
C 4243 -256 4288 -365 4314 -499 
C 4992 -435 5069 -198 5069 147 
L 5069 3610 
L 6048 3610 
C 6138 3610 6195 3642 6214 3712 
C 6016 3923 5664 4211 5664 4211 
z
" transform="scale(0.015625)"/>
        <path id="NotoSerifCJKjp-Regular-523b" d="M 4237 4806 
L 4237 819 
L 4314 819 
C 4461 819 4634 909 4634 966 
L 4634 4563 
C 4794 4582 4851 4646 4870 4736 
L 4237 4806 
z
M 5421 5254 
L 5421 160 
C 5421 58 5382 13 5254 13 
C 5120 13 4422 70 4422 70 
L 4422 -32 
C 4723 -77 4896 -122 4998 -192 
C 5088 -269 5126 -378 5152 -506 
C 5754 -442 5830 -224 5830 122 
L 5830 5005 
C 5984 5024 6048 5088 6061 5178 
L 5421 5254 
z
M 2835 3872 
C 2368 2874 1395 1709 230 1011 
L 288 928 
C 1600 1536 2637 2611 3168 3526 
C 3322 3501 3386 3520 3424 3590 
L 2835 3872 
z
M 1779 5363 
L 1779 4467 
L 230 4467 
L 275 4275 
L 1638 4275 
C 1491 3917 1318 3558 1158 3283 
C 966 3398 717 3501 390 3584 
L 326 3520 
C 704 3270 1190 2803 1331 2426 
C 1683 2234 1888 2739 1306 3181 
C 1574 3418 1850 3731 2080 4051 
C 2214 4038 2291 4096 2317 4166 
L 2022 4275 
L 3814 4275 
C 3904 4275 3968 4307 3981 4378 
C 3763 4576 3418 4858 3418 4858 
L 3110 4467 
L 2195 4467 
L 2195 5126 
C 2349 5146 2413 5210 2419 5299 
L 1779 5363 
z
M 3213 2611 
C 2682 1510 1555 294 198 -403 
L 250 -499 
C 1120 -147 1875 371 2470 941 
C 2854 595 3270 102 3418 -282 
C 3898 -576 4147 378 2598 1062 
C 2989 1453 3309 1862 3539 2259 
C 3686 2234 3750 2259 3795 2330 
L 3213 2611 
z
" transform="scale(0.015625)"/>
       </defs>
       <use xlink:href="#NotoSerifCJKjp-Regular-5b8c"/>
       <use xlink:href="#NotoSerifCJKjp-Regular-6210" transform="translate(99.999985 0)"/>
       <use xlink:href="#NotoSerifCJKjp-Regular-65f6" transform="translate(199.999969 0)"/>
       <use xlink:href="#NotoSerifCJKjp-Regular-523b" transform="translate(299.999954 0)"/>
      </g>
     </g>
    </g>
    <g id="ytick_6">
     <g id="line2d_10"/>
     <g id="text_10">
      <!-- 不重叠 -->
      <g style="fill: #2f3437" transform="translate(16.2 256.215715) scale(0.09 -0.09)">
       <defs>
        <path id="NotoSerifCJKjp-Regular-4e0d" d="M 3731 3392 
L 3667 3315 
C 4358 2912 5331 2176 5690 1613 
C 6278 1363 6336 2554 3731 3392 
z
M 333 4819 
L 384 4634 
L 3373 4634 
C 2790 3482 1536 2253 224 1472 
L 282 1382 
C 1293 1869 2234 2547 2982 3334 
L 2982 -480 
L 3059 -480 
C 3213 -480 3398 -384 3405 -352 
L 3405 3443 
C 3514 3462 3578 3501 3597 3558 
L 3290 3674 
C 3552 3981 3782 4307 3974 4634 
L 5901 4634 
C 5990 4634 6061 4666 6074 4736 
C 5837 4947 5453 5242 5453 5242 
L 5114 4819 
L 333 4819 
z
" transform="scale(0.015625)"/>
        <path id="NotoSerifCJKjp-Regular-91cd" d="M 1114 3328 
L 1114 1184 
L 1178 1184 
C 1357 1184 1536 1286 1536 1331 
L 1536 1466 
L 2970 1466 
L 2970 806 
L 755 806 
L 813 621 
L 2970 621 
L 2970 -109 
L 256 -109 
L 314 -288 
L 5971 -288 
C 6061 -288 6131 -256 6144 -186 
C 5920 13 5562 294 5562 294 
L 5242 -109 
L 3392 -109 
L 3392 621 
L 5549 621 
C 5638 621 5702 653 5722 717 
C 5510 909 5178 1158 5178 1158 
L 4883 806 
L 3392 806 
L 3392 1466 
L 4832 1466 
L 4832 1242 
L 4896 1242 
C 5030 1242 5248 1331 5254 1363 
L 5254 3066 
C 5382 3091 5485 3142 5530 3187 
L 4998 3590 
L 4774 3328 
L 3392 3328 
L 3392 3936 
L 5882 3936 
C 5971 3936 6042 3968 6054 4032 
C 5837 4230 5491 4493 5491 4493 
L 5190 4122 
L 3392 4122 
L 3392 4749 
C 4006 4806 4576 4883 5050 4960 
C 5203 4890 5325 4890 5376 4941 
L 4947 5370 
C 4000 5114 2227 4832 794 4730 
L 819 4602 
C 1523 4608 2266 4646 2970 4710 
L 2970 4122 
L 365 4122 
L 422 3936 
L 2970 3936 
L 2970 3328 
L 1574 3328 
L 1114 3539 
L 1114 3328 
z
M 2970 1651 
L 1536 1651 
L 1536 2317 
L 2970 2317 
L 2970 1651 
z
M 3392 1651 
L 3392 2317 
L 4832 2317 
L 4832 1651 
L 3392 1651 
z
M 2970 2502 
L 1536 2502 
L 1536 3149 
L 2970 3149 
L 2970 2502 
z
M 3392 2502 
L 3392 3149 
L 4832 3149 
L 4832 2502 
L 3392 2502 
z
" transform="scale(0.015625)"/>
        <path id="NotoSerifCJKjp-Regular-53e0" d="M 1709 4762 
L 1696 4640 
C 2150 4576 2598 4493 3008 4397 
C 2413 4198 1728 4058 1062 3968 
L 1094 3859 
C 1958 3910 2797 4038 3520 4269 
C 4064 4122 4518 3962 4794 3821 
C 5126 3763 5267 4186 4083 4486 
C 4346 4602 4589 4742 4794 4902 
C 4954 4909 5030 4922 5082 4979 
L 4640 5389 
L 4333 5139 
L 1389 5139 
L 1446 4954 
L 4173 4954 
C 3994 4819 3776 4704 3533 4595 
C 3066 4672 2470 4736 1709 4762 
z
M 2918 2931 
L 2918 2323 
L 1165 2323 
C 1158 2387 1146 2464 1126 2534 
C 1446 2624 1741 2739 2003 2874 
C 2246 2752 2438 2624 2560 2522 
C 2835 2445 2963 2790 2362 3078 
C 2573 3213 2752 3366 2906 3539 
C 3059 3539 3130 3552 3187 3603 
L 2752 3994 
L 2483 3750 
L 614 3750 
L 672 3565 
L 2394 3565 
C 2278 3443 2144 3328 1997 3219 
C 1728 3296 1389 3360 954 3398 
L 922 3290 
C 1197 3213 1459 3117 1690 3021 
C 1299 2790 838 2605 365 2477 
L 422 2374 
C 621 2406 819 2451 1005 2502 
C 973 2234 774 2010 576 1926 
C 442 1856 346 1734 397 1594 
C 454 1453 672 1446 826 1523 
C 992 1619 1146 1824 1165 2138 
L 5408 2138 
C 5338 1958 5248 1741 5190 1606 
L 5267 1555 
C 5472 1683 5747 1907 5901 2067 
C 6022 2074 6099 2086 6144 2131 
L 5664 2592 
L 5402 2323 
L 3328 2323 
L 3328 2707 
C 3469 2733 3520 2784 3533 2867 
L 2918 2931 
z
M 3648 3392 
L 3622 3290 
C 3917 3206 4192 3110 4442 3008 
C 4122 2835 3750 2694 3360 2592 
L 3405 2483 
C 3904 2566 4358 2694 4749 2867 
C 5030 2733 5248 2598 5382 2483 
C 5670 2406 5798 2778 5146 3078 
C 5357 3206 5542 3360 5696 3533 
C 5837 3546 5907 3558 5958 3603 
L 5517 3994 
L 5235 3750 
L 3392 3750 
L 3450 3565 
L 5165 3565 
C 5056 3437 4922 3322 4768 3213 
C 4486 3290 4115 3360 3648 3392 
z
M 2054 973 
L 4326 973 
L 4326 538 
L 2054 538 
L 2054 973 
z
M 2054 1152 
L 2054 1587 
L 4326 1587 
L 4326 1152 
L 2054 1152 
z
M 2054 346 
L 4326 346 
L 4326 -109 
L 2054 -109 
L 2054 346 
z
M 358 -109 
L 416 -294 
L 5926 -294 
C 6016 -294 6080 -262 6099 -198 
C 5875 6 5530 282 5530 282 
L 5222 -109 
L 4736 -109 
L 4736 1536 
C 4902 1555 4973 1587 5024 1658 
L 4474 2061 
L 4256 1779 
L 2125 1779 
L 1651 1978 
L 1651 -109 
L 358 -109 
z
" transform="scale(0.015625)"/>
       </defs>
       <use xlink:href="#NotoSerifCJKjp-Regular-4e0d"/>
       <use xlink:href="#NotoSerifCJKjp-Regular-91cd" transform="translate(99.999985 0)"/>
       <use xlink:href="#NotoSerifCJKjp-Regular-53e0" transform="translate(199.999969 0)"/>
      </g>
     </g>
    </g>
    <g id="ytick_7">
     <g id="line2d_11"/>
     <g id="text_11">
      <!-- 提前释放 -->
      <g style="fill: #2f3437" transform="translate(7.2 298.259935) scale(0.09 -0.09)">
       <defs>
        <path id="NotoSerifCJKjp-Regular-63d0" d="M 2931 1952 
C 2842 883 2464 96 1875 -416 
L 1958 -499 
C 2464 -218 2842 218 3098 826 
C 3430 -147 3955 -378 4851 -378 
C 5133 -378 5734 -378 5997 -378 
C 6003 -211 6074 -83 6214 -58 
L 6214 32 
C 5875 26 5184 26 4877 26 
C 4698 26 4538 32 4384 51 
L 4384 1190 
L 5734 1190 
C 5811 1190 5882 1222 5901 1293 
C 5696 1491 5363 1754 5363 1754 
L 5069 1382 
L 4384 1382 
L 4384 2310 
L 5933 2310 
C 6022 2310 6080 2342 6099 2406 
C 5894 2598 5562 2848 5562 2848 
L 5274 2496 
L 2400 2496 
L 2451 2310 
L 3981 2310 
L 3981 141 
C 3622 269 3360 525 3168 1011 
C 3238 1216 3302 1440 3347 1683 
C 3488 1690 3552 1754 3571 1837 
L 2931 1952 
z
M 3270 3968 
L 5171 3968 
L 5171 3341 
L 3270 3341 
L 3270 3968 
z
M 3270 4154 
L 3270 4800 
L 5171 4800 
L 5171 4154 
L 3270 4154 
z
M 2861 4986 
L 2861 2784 
L 2918 2784 
C 3091 2784 3270 2880 3270 2925 
L 3270 3155 
L 5171 3155 
L 5171 2835 
L 5235 2835 
C 5370 2835 5574 2944 5581 2982 
L 5581 4717 
C 5709 4742 5805 4800 5850 4851 
L 5338 5242 
L 5107 4986 
L 3296 4986 
L 2861 5184 
L 2861 4986 
z
M 192 2106 
L 397 1562 
C 454 1581 512 1645 531 1728 
L 1222 2061 
L 1222 154 
C 1222 58 1190 26 1082 26 
C 966 26 410 64 410 64 
L 410 -38 
C 653 -70 800 -115 883 -186 
C 960 -256 992 -371 1011 -499 
C 1562 -435 1626 -230 1626 115 
L 1626 2266 
L 2573 2765 
L 2541 2854 
L 1626 2547 
L 1626 3712 
L 2413 3712 
C 2502 3712 2560 3744 2579 3814 
C 2400 4006 2099 4256 2099 4256 
L 1837 3898 
L 1626 3898 
L 1626 5120 
C 1779 5139 1843 5203 1862 5293 
L 1222 5363 
L 1222 3898 
L 262 3898 
L 314 3712 
L 1222 3712 
L 1222 2419 
C 768 2272 397 2157 192 2106 
z
" transform="scale(0.015625)"/>
        <path id="NotoSerifCJKjp-Regular-524d" d="M 3763 3405 
L 3763 461 
L 3840 461 
C 3994 461 4160 550 4160 602 
L 4160 3168 
C 4326 3187 4384 3245 4397 3334 
L 3763 3405 
z
M 5139 3558 
L 5139 128 
C 5139 32 5107 -6 4986 -6 
C 4845 -6 4186 45 4186 45 
L 4186 -58 
C 4474 -96 4640 -141 4736 -205 
C 4819 -275 4858 -378 4877 -493 
C 5472 -435 5542 -230 5542 102 
L 5542 3315 
C 5696 3334 5754 3392 5766 3488 
L 5139 3558 
z
M 1587 5344 
L 1517 5299 
C 1805 5037 2131 4595 2195 4230 
C 2253 4192 2310 4166 2362 4166 
L 256 4166 
L 314 3981 
L 5978 3981 
C 6067 3981 6131 4013 6150 4077 
C 5920 4282 5562 4563 5562 4563 
L 5242 4166 
L 3853 4166 
C 4166 4448 4493 4787 4698 5050 
C 4838 5043 4922 5094 4947 5165 
L 4275 5363 
C 4128 5005 3885 4531 3661 4166 
L 2387 4166 
C 2726 4179 2803 4966 1587 5344 
z
M 2490 3130 
L 2490 2355 
L 1248 2355 
L 1248 3130 
L 2490 3130 
z
M 845 3315 
L 845 -493 
L 915 -493 
C 1094 -493 1248 -397 1248 -346 
L 1248 1158 
L 2490 1158 
L 2490 115 
C 2490 32 2464 -6 2368 -6 
C 2259 -6 1792 26 1792 26 
L 1792 -70 
C 2010 -102 2138 -147 2208 -205 
C 2278 -275 2298 -371 2310 -493 
C 2829 -442 2893 -250 2893 70 
L 2893 3053 
C 3021 3072 3130 3130 3174 3174 
L 2637 3578 
L 2426 3315 
L 1280 3315 
L 845 3526 
L 845 3315 
z
M 2490 2163 
L 2490 1344 
L 1248 1344 
L 1248 2163 
L 2490 2163 
z
" transform="scale(0.015625)"/>
        <path id="NotoSerifCJKjp-Regular-91ca" d="M 2758 4262 
L 2189 4480 
C 2125 4166 1971 3539 1830 3149 
L 1914 3110 
C 2157 3450 2413 3891 2541 4154 
C 2669 4141 2739 4211 2758 4262 
z
M 557 4288 
L 461 4262 
C 570 3981 678 3552 672 3226 
C 979 2886 1395 3584 557 4288 
z
M 5158 2458 
L 4883 2099 
L 4314 2099 
L 4314 2662 
C 4474 2682 4531 2739 4544 2822 
L 3904 2893 
L 3904 2099 
L 2682 2099 
L 2733 1907 
L 3904 1907 
L 3904 1082 
L 2342 1082 
L 2394 896 
L 3904 896 
L 3904 -486 
L 3987 -486 
C 4141 -486 4314 -397 4314 -346 
L 4314 896 
L 5997 896 
C 6086 896 6144 928 6163 998 
C 5958 1197 5613 1459 5613 1459 
L 5325 1082 
L 4314 1082 
L 4314 1907 
L 5523 1907 
C 5613 1907 5670 1939 5690 2010 
C 5491 2202 5158 2458 5158 2458 
z
M 1690 -378 
L 1690 2368 
C 1901 2112 2144 1760 2234 1491 
C 2630 1216 2950 1984 1690 2509 
L 1690 2739 
L 2669 2739 
C 2752 2739 2816 2771 2835 2842 
C 2650 3021 2362 3251 2362 3251 
L 2106 2931 
L 1690 2931 
L 1690 4755 
C 1952 4806 2195 4870 2394 4928 
C 2496 4890 2592 4877 2650 4909 
L 2694 4768 
L 2989 4768 
C 3206 4211 3520 3770 3936 3424 
C 3507 3078 2989 2790 2387 2579 
L 2438 2477 
C 3130 2656 3706 2918 4173 3245 
C 4621 2931 5171 2707 5805 2554 
C 5850 2733 5984 2854 6150 2886 
L 6163 2957 
C 5530 3059 4966 3232 4480 3475 
C 4902 3827 5222 4250 5459 4723 
C 5613 4723 5683 4742 5734 4794 
L 5280 5210 
L 4998 4954 
L 2675 4954 
L 2240 5338 
C 1818 5107 992 4800 301 4653 
L 333 4550 
C 653 4576 998 4621 1318 4678 
L 1318 2931 
L 262 2931 
L 314 2739 
L 1222 2739 
C 1030 1907 704 1082 230 442 
L 320 352 
C 742 774 1069 1274 1318 1818 
L 1318 -506 
L 1376 -506 
C 1555 -506 1690 -410 1690 -378 
z
M 4186 3648 
C 3731 3930 3373 4301 3136 4768 
L 4986 4768 
C 4800 4352 4531 3974 4186 3648 
z
" transform="scale(0.015625)"/>
        <path id="NotoSerifCJKjp-Regular-653e" d="M 250 4109 
L 301 3923 
L 1152 3923 
C 1158 2291 1011 832 198 -390 
L 269 -461 
C 1120 416 1421 1504 1536 2758 
L 2406 2758 
C 2355 1165 2240 352 2054 186 
C 1997 128 1946 115 1843 115 
C 1722 115 1421 141 1229 154 
L 1222 45 
C 1402 19 1568 -38 1645 -102 
C 1715 -166 1734 -275 1734 -397 
C 1958 -397 2182 -326 2349 -173 
C 2611 102 2758 909 2810 2707 
C 2944 2720 3021 2752 3066 2803 
L 2586 3200 
L 2349 2938 
L 1549 2938 
C 1574 3258 1587 3584 1600 3923 
L 3174 3923 
C 3258 3923 3315 3955 3334 4026 
C 3136 4218 2803 4480 2803 4480 
L 2509 4109 
L 1933 4109 
L 1933 5120 
C 2086 5146 2150 5210 2163 5299 
L 1517 5363 
L 1517 4109 
L 250 4109 
z
M 3898 5363 
C 3738 4211 3373 3110 2912 2368 
L 3008 2310 
C 3277 2586 3514 2925 3718 3315 
C 3834 2560 4013 1856 4294 1242 
C 3878 589 3283 38 2451 -410 
L 2509 -499 
C 3373 -141 4006 320 4474 890 
C 4787 333 5216 -141 5786 -506 
C 5850 -307 5990 -211 6182 -179 
L 6202 -122 
C 5555 192 5069 640 4704 1184 
C 5190 1894 5459 2752 5600 3744 
L 6016 3744 
C 6106 3744 6170 3776 6176 3846 
C 5971 4045 5632 4314 5632 4314 
L 5331 3930 
L 4006 3930 
C 4147 4282 4262 4666 4358 5062 
C 4499 5069 4570 5133 4589 5210 
L 3898 5363 
z
M 4480 1555 
C 4166 2131 3962 2797 3827 3520 
L 3923 3744 
L 5114 3744 
C 5018 2925 4826 2195 4480 1555 
z
" transform="scale(0.015625)"/>
       </defs>
       <use xlink:href="#NotoSerifCJKjp-Regular-63d0"/>
       <use xlink:href="#NotoSerifCJKjp-Regular-524d" transform="translate(99.999985 0)"/>
       <use xlink:href="#NotoSerifCJKjp-Regular-91ca" transform="translate(199.999969 0)"/>
       <use xlink:href="#NotoSerifCJKjp-Regular-653e" transform="translate(299.999954 0)"/>
      </g>
     </g>
    </g>
    <g id="ytick_8">
     <g id="line2d_12"/>
     <g id="text_12">
      <!-- 转运 -->
      <g style="fill: #2f3437" transform="translate(25.2 340.304156) scale(0.09 -0.09)">
       <defs>
        <path id="NotoSerifCJKjp-Regular-8f6c" d="M 1997 5152 
L 1402 5338 
C 1338 5062 1235 4666 1107 4243 
L 294 4243 
L 346 4058 
L 1056 4058 
C 896 3533 723 2995 582 2618 
C 480 2586 371 2541 301 2502 
L 749 2131 
L 960 2349 
L 1530 2349 
L 1530 1280 
C 1018 1165 589 1075 346 1037 
L 640 486 
C 698 506 755 563 781 640 
L 1530 915 
L 1530 -506 
L 1594 -506 
C 1805 -506 1933 -410 1939 -378 
L 1939 1075 
C 2381 1248 2739 1395 3034 1517 
L 3008 1619 
L 1939 1370 
L 1939 2349 
L 2752 2349 
C 2835 2349 2899 2381 2912 2451 
C 2733 2624 2438 2854 2438 2854 
L 2182 2534 
L 1939 2534 
L 1939 3398 
C 2093 3418 2144 3475 2163 3565 
L 1562 3635 
L 1562 2534 
L 966 2534 
C 1114 2963 1306 3533 1466 4058 
L 2720 4058 
C 2810 4058 2867 4090 2886 4160 
C 2682 4339 2368 4582 2368 4582 
L 2093 4243 
L 1523 4243 
C 1613 4544 1690 4819 1747 5037 
C 1894 5018 1965 5082 1997 5152 
z
M 5466 4563 
L 5210 4250 
L 4339 4250 
C 4410 4563 4467 4851 4506 5082 
C 4653 5069 4723 5133 4755 5203 
L 4147 5395 
C 4102 5101 4026 4691 3936 4250 
L 2976 4250 
L 3027 4064 
L 3898 4064 
L 3674 3098 
L 2682 3098 
L 2733 2912 
L 3629 2912 
C 3552 2598 3475 2310 3405 2080 
C 3309 2042 3206 1997 3136 1952 
L 3597 1594 
L 3802 1811 
L 5082 1811 
C 4928 1440 4666 922 4461 563 
C 4154 710 3757 851 3251 966 
L 3194 883 
C 3853 595 4768 6 5101 -493 
C 5504 -640 5574 -38 4589 493 
C 4934 858 5350 1382 5568 1741 
C 5709 1747 5779 1754 5830 1805 
L 5357 2259 
L 5082 1997 
L 3795 1997 
L 4032 2912 
L 6016 2912 
C 6106 2912 6163 2944 6176 3014 
C 5997 3194 5696 3430 5696 3430 
L 5427 3098 
L 4077 3098 
L 4301 4064 
L 5773 4064 
C 5850 4064 5907 4096 5926 4166 
C 5754 4339 5466 4563 5466 4563 
z
" transform="scale(0.015625)"/>
        <path id="NotoSerifCJKjp-Regular-8fd0" d="M 659 5216 
L 595 5152 
C 883 4941 1267 4563 1382 4256 
C 1837 4019 2061 4928 659 5216 
z
M 390 3898 
L 333 3840 
C 640 3642 1030 3290 1165 2995 
C 1626 2778 1811 3699 390 3898 
z
M 2413 4826 
L 2464 4634 
L 5568 4634 
C 5658 4634 5715 4666 5734 4736 
C 5517 4934 5171 5210 5171 5210 
L 4858 4826 
L 2413 4826 
z
M 1536 1914 
C 1709 1933 1805 1990 1850 2029 
L 1299 2490 
L 1050 2163 
L 243 2163 
L 282 1971 
L 1139 1971 
L 1139 531 
C 813 333 467 141 243 38 
L 544 -480 
C 602 -448 627 -410 614 -326 
C 845 -122 1216 250 1453 525 
C 1914 -186 2432 -333 3610 -333 
C 4326 -333 5210 -333 5850 -333 
C 5875 -141 5984 -19 6176 13 
L 6176 102 
C 5389 77 4358 77 3597 77 
C 2483 77 1997 154 1536 653 
L 1536 1914 
z
M 1965 1216 
L 2246 627 
C 2310 640 2374 691 2413 768 
C 3693 1011 4640 1197 5344 1357 
C 5485 1107 5600 858 5651 640 
C 6163 243 6470 1440 4531 2624 
L 4454 2573 
C 4710 2278 5018 1882 5261 1485 
C 4454 1408 3680 1338 3053 1286 
C 3379 1811 3802 2611 4109 3232 
L 5958 3232 
C 6048 3232 6106 3264 6125 3334 
C 5907 3539 5555 3814 5555 3814 
L 5248 3424 
L 2016 3424 
L 2067 3232 
L 3475 3232 
C 3322 2656 3040 1805 2842 1274 
C 2477 1242 2176 1222 1965 1216 
z
" transform="scale(0.015625)"/>
       </defs>
       <use xlink:href="#NotoSerifCJKjp-Regular-8f6c"/>
       <use xlink:href="#NotoSerifCJKjp-Regular-8fd0" transform="translate(99.999985 0)"/>
      </g>
     </g>
    </g>
    <g id="ytick_9">
     <g id="line2d_13"/>
     <g id="text_13">
      <!-- 初始转运 -->
      <g style="fill: #2f3437" transform="translate(7.2 382.348377) scale(0.09 -0.09)">
       <defs>
        <path id="NotoSerifCJKjp-Regular-521d" d="M 2726 4525 
L 2778 4339 
L 3898 4339 
C 3853 2509 3706 870 2042 -422 
L 2118 -512 
C 4115 602 4262 2317 4339 4339 
L 5517 4339 
C 5466 2048 5350 480 5088 224 
C 5011 147 4960 128 4826 128 
C 4678 128 4211 179 3917 211 
L 3910 90 
C 4173 45 4448 -26 4557 -102 
C 4646 -166 4672 -282 4672 -422 
C 4979 -422 5242 -326 5421 -96 
C 5741 288 5875 1818 5926 4282 
C 6067 4301 6157 4333 6195 4390 
L 5702 4806 
L 5453 4525 
L 2726 4525 
z
M 2605 3123 
C 2413 2835 2208 2534 2048 2336 
C 1952 2374 1843 2406 1728 2438 
L 1728 2618 
C 2106 3046 2413 3507 2637 3942 
C 2790 3949 2854 3968 2906 4019 
L 2458 4429 
L 2182 4173 
L 1728 4173 
L 1728 5101 
C 1888 5126 1952 5190 1965 5280 
L 1318 5344 
L 1318 4173 
L 320 4173 
L 378 3987 
L 2170 3987 
C 1766 3091 966 2074 179 1414 
L 256 1325 
C 640 1568 998 1862 1318 2176 
L 1318 -493 
L 1389 -493 
C 1581 -493 1722 -397 1728 -358 
L 1728 2310 
C 2054 2067 2413 1702 2534 1395 
C 2912 1171 3117 1818 2202 2266 
C 2400 2406 2618 2592 2816 2765 
C 2938 2733 3021 2778 3059 2829 
L 2605 3123 
z
" transform="scale(0.015625)"/>
        <path id="NotoSerifCJKjp-Regular-59cb" d="M 3155 2080 
L 3155 -486 
L 3219 -486 
C 3424 -486 3552 -397 3552 -358 
L 3552 45 
L 5370 45 
L 5370 -461 
L 5440 -461 
C 5632 -461 5786 -358 5786 -333 
L 5786 1869 
C 5920 1888 5984 1920 6029 1971 
L 5562 2336 
L 5350 2080 
L 3629 2080 
L 3155 2285 
L 3155 2080 
z
M 3552 230 
L 3552 1901 
L 5370 1901 
L 5370 230 
L 3552 230 
z
M 2694 3174 
L 2867 2624 
C 2931 2637 2995 2682 3040 2752 
C 4115 2918 4934 3059 5568 3181 
C 5658 2989 5728 2797 5760 2624 
C 6246 2240 6586 3379 4909 4307 
L 4838 4262 
C 5062 4006 5318 3654 5504 3302 
C 4813 3264 4154 3226 3622 3200 
C 3981 3808 4307 4518 4506 5043 
C 4646 5037 4723 5101 4749 5178 
L 4045 5363 
C 3917 4723 3680 3866 3443 3194 
C 3130 3181 2874 3174 2694 3174 
z
M 1389 5338 
C 1331 4966 1210 4410 1062 3814 
L 237 3814 
L 294 3629 
L 1011 3629 
C 787 2739 518 1798 320 1261 
C 493 1210 659 1216 742 1274 
L 877 1715 
C 1114 1562 1357 1370 1581 1152 
C 1280 563 845 58 198 -339 
L 262 -429 
C 979 -83 1472 378 1818 909 
C 2067 621 2272 320 2349 32 
C 2778 -224 2976 531 2016 1254 
C 2362 1952 2509 2739 2605 3571 
C 2746 3584 2803 3603 2848 3654 
L 2381 4077 
L 2138 3814 
L 1459 3814 
C 1587 4307 1690 4755 1754 5062 
C 1914 5062 1978 5120 1997 5203 
L 1389 5338 
z
M 1408 3629 
L 2189 3629 
C 2118 2848 1990 2112 1715 1459 
C 1498 1594 1229 1722 915 1837 
C 1082 2387 1254 3034 1408 3629 
z
" transform="scale(0.015625)"/>
       </defs>
       <use xlink:href="#NotoSerifCJKjp-Regular-521d"/>
       <use xlink:href="#NotoSerifCJKjp-Regular-59cb" transform="translate(99.999985 0)"/>
       <use xlink:href="#NotoSerifCJKjp-Regular-8f6c" transform="translate(199.999969 0)"/>
       <use xlink:href="#NotoSerifCJKjp-Regular-8fd0" transform="translate(299.999954 0)"/>
      </g>
     </g>
    </g>
    <g id="ytick_10">
     <g id="line2d_14"/>
     <g id="text_14">
      <!-- 双班组 -->
      <g style="fill: #2f3437" transform="translate(16.2 424.392598) scale(0.09 -0.09)">
       <defs>
        <path id="NotoSerifCJKjp-Regular-53cc" d="M 762 3808 
L 672 3744 
C 1139 3341 1549 2810 1875 2266 
C 1530 1235 998 282 218 -435 
L 314 -512 
C 1178 115 1747 928 2131 1811 
C 2355 1376 2515 960 2592 627 
C 2835 64 3245 416 2874 1299 
C 2739 1587 2554 1914 2304 2259 
C 2566 3002 2720 3782 2822 4544 
C 2957 4563 3021 4570 3066 4634 
L 2592 5075 
L 2336 4806 
L 333 4806 
L 390 4614 
L 2381 4614 
C 2304 3955 2182 3290 1997 2650 
C 1664 3040 1254 3437 762 3808 
z
M 4294 1466 
C 3834 710 3206 58 2387 -442 
L 2464 -525 
C 3341 -102 3994 448 4480 1088 
C 4832 442 5280 -96 5824 -506 
C 5875 -333 6035 -218 6227 -205 
L 6246 -141 
C 5626 250 5120 774 4717 1421 
C 5325 2349 5638 3430 5830 4538 
C 5978 4550 6042 4570 6093 4627 
L 5606 5082 
L 5331 4806 
L 3104 4806 
L 3162 4614 
L 3539 4614 
C 3648 3405 3898 2349 4294 1466 
z
M 4493 1818 
C 4090 2605 3821 3546 3699 4614 
L 5376 4614 
C 5222 3622 4947 2662 4493 1818 
z
" transform="scale(0.015625)"/>
        <path id="NotoSerifCJKjp-Regular-73ed" d="M 3194 5299 
L 3194 2669 
C 3194 1395 2931 339 1888 -410 
L 1971 -493 
C 3258 218 3584 1350 3590 2669 
L 3590 5056 
C 3750 5082 3802 5146 3814 5235 
L 3194 5299 
z
M 3162 -38 
L 3213 -224 
L 6048 -224 
C 6138 -224 6189 -192 6208 -122 
C 6022 83 5690 384 5690 384 
L 5395 -38 
L 4902 -38 
L 4902 2330 
L 5773 2330 
C 5856 2330 5914 2355 5933 2426 
C 5766 2618 5472 2880 5472 2880 
L 5216 2509 
L 4902 2509 
L 4902 4544 
L 5875 4544 
C 5965 4544 6022 4576 6042 4646 
C 5830 4845 5498 5114 5498 5114 
L 5197 4730 
L 3654 4730 
L 3706 4544 
L 4493 4544 
L 4493 2509 
L 3731 2509 
L 3782 2330 
L 4493 2330 
L 4493 -38 
L 3162 -38 
z
M 205 582 
L 480 58 
C 538 83 582 154 602 224 
C 1299 653 1830 1024 2214 1274 
L 2176 1363 
L 1408 1043 
L 1408 2714 
L 2029 2714 
C 2112 2714 2176 2746 2189 2816 
C 2029 2989 1760 3226 1760 3226 
L 1523 2899 
L 1408 2899 
L 1408 4518 
L 2112 4518 
C 2189 4518 2253 4544 2266 4614 
L 2266 1389 
L 2336 1389 
C 2477 1389 2637 1472 2637 1523 
L 2637 4397 
C 2797 4416 2842 4474 2861 4557 
L 2266 4627 
C 2074 4819 1760 5075 1760 5075 
L 1478 4704 
L 262 4704 
L 314 4518 
L 998 4518 
L 998 2899 
L 326 2899 
L 378 2714 
L 998 2714 
L 998 877 
C 659 742 371 634 205 582 
z
" transform="scale(0.015625)"/>
        <path id="NotoSerifCJKjp-Regular-7ec4" d="M 282 442 
L 563 -128 
C 627 -102 678 -51 698 32 
C 1536 403 2163 723 2611 973 
L 2586 1062 
C 1658 787 710 531 282 442 
z
M 2074 5043 
L 1459 5325 
C 1280 4845 787 3942 397 3571 
C 352 3539 230 3514 230 3514 
L 461 2938 
C 499 2950 538 2982 576 3027 
C 934 3123 1286 3226 1562 3309 
C 1210 2784 781 2240 416 1933 
C 365 1894 230 1862 230 1862 
L 461 1286 
C 512 1306 557 1338 595 1402 
C 1389 1638 2099 1901 2490 2035 
L 2470 2138 
C 1798 2029 1133 1933 685 1875 
C 1344 2438 2067 3258 2445 3821 
C 2566 3789 2656 3834 2688 3885 
L 2112 4250 
C 2016 4045 1869 3789 1696 3520 
C 1286 3494 890 3482 602 3475 
C 1050 3891 1562 4499 1837 4947 
C 1965 4928 2042 4979 2074 5043 
z
M 2848 5101 
L 2848 -19 
L 1997 -19 
L 2048 -211 
L 6067 -211 
C 6157 -211 6214 -179 6234 -109 
C 6061 83 5773 333 5773 333 
L 5530 -19 
L 5427 -19 
L 5427 4634 
C 5587 4653 5670 4678 5715 4749 
L 5152 5184 
L 4915 4883 
L 3347 4883 
L 2848 5101 
z
M 3270 -19 
L 3270 1459 
L 4992 1459 
L 4992 -19 
L 3270 -19 
z
M 3270 1645 
L 3270 3130 
L 4992 3130 
L 4992 1645 
L 3270 1645 
z
M 3270 3322 
L 3270 4698 
L 4992 4698 
L 4992 3322 
L 3270 3322 
z
" transform="scale(0.015625)"/>
       </defs>
       <use xlink:href="#NotoSerifCJKjp-Regular-53cc"/>
       <use xlink:href="#NotoSerifCJKjp-Regular-73ed" transform="translate(99.999985 0)"/>
       <use xlink:href="#NotoSerifCJKjp-Regular-7ec4" transform="translate(199.999969 0)"/>
      </g>
     </g>
    </g>
    <g id="ytick_11">
     <g id="line2d_15"/>
     <g id="text_15">
      <!-- 预算 -->
      <g style="fill: #2f3437" transform="translate(25.2 466.436819) scale(0.09 -0.09)">
       <defs>
        <path id="NotoSerifCJKjp-Regular-9884" d="M 4755 3040 
L 4122 3110 
C 4115 1344 4192 269 2291 -435 
L 2362 -550 
C 4557 109 4518 1197 4550 2880 
C 4691 2893 4742 2963 4755 3040 
z
M 4467 749 
L 4403 685 
C 4845 397 5453 -115 5696 -480 
C 6214 -698 6349 288 4467 749 
z
M 5606 5286 
L 5325 4928 
L 2758 4928 
L 2810 4742 
L 4102 4742 
C 4064 4416 4006 3994 3949 3731 
L 3418 3731 
L 2989 3930 
L 2989 762 
L 3059 762 
C 3226 762 3379 864 3379 909 
L 3379 3539 
L 5312 3539 
L 5312 896 
L 5370 896 
C 5504 896 5696 986 5702 1030 
L 5702 3494 
C 5811 3507 5901 3552 5939 3597 
L 5472 3968 
L 5254 3731 
L 4134 3731 
C 4294 3994 4467 4397 4602 4742 
L 5971 4742 
C 6061 4742 6118 4774 6138 4845 
C 5939 5037 5606 5286 5606 5286 
z
M 787 4243 
L 717 4186 
C 1030 3974 1395 3571 1466 3226 
C 1747 3053 1952 3386 1683 3738 
C 1990 4019 2342 4410 2534 4685 
C 2662 4691 2739 4698 2790 4749 
L 2323 5197 
L 2054 4941 
L 320 4941 
L 378 4749 
L 2048 4749 
C 1920 4480 1734 4134 1568 3866 
C 1408 4006 1158 4147 787 4243 
z
M 1632 179 
L 1632 2912 
L 2259 2912 
C 2170 2662 2035 2342 1946 2150 
L 2035 2106 
C 2246 2298 2560 2630 2720 2854 
C 2842 2861 2918 2867 2963 2912 
L 2502 3354 
L 2253 3104 
L 282 3104 
L 339 2912 
L 1229 2912 
L 1229 192 
C 1229 109 1203 77 1094 77 
C 986 77 416 115 416 115 
L 416 19 
C 672 -13 819 -64 902 -134 
C 986 -198 1011 -314 1018 -442 
C 1562 -384 1632 -141 1632 179 
z
" transform="scale(0.015625)"/>
        <path id="NotoSerifCJKjp-Regular-7b97" d="M 1786 2899 
L 4666 2899 
L 4666 2419 
L 1786 2419 
L 1786 2899 
z
M 1786 3085 
L 1786 3565 
L 4666 3565 
L 4666 3085 
L 1786 3085 
z
M 1786 2240 
L 4666 2240 
L 4666 1741 
L 1786 1741 
L 1786 2240 
z
M 1376 3750 
L 1376 1254 
L 1446 1254 
C 1613 1254 1786 1350 1786 1395 
L 1786 1555 
L 4666 1555 
L 4666 1312 
L 4730 1312 
C 4858 1312 5069 1408 5075 1446 
L 5075 3488 
C 5203 3514 5299 3565 5338 3610 
L 4832 4000 
L 4602 3750 
L 1818 3750 
L 1376 3955 
L 1376 3750 
z
M 3891 1466 
L 3891 915 
L 2541 915 
L 2586 1248 
C 2726 1261 2778 1331 2803 1408 
L 2195 1485 
C 2189 1274 2176 1082 2144 915 
L 294 915 
L 352 723 
L 2099 723 
C 1946 211 1517 -102 282 -371 
L 333 -506 
C 1933 -256 2349 128 2502 723 
L 3891 723 
L 3891 -518 
L 3968 -518 
C 4115 -518 4294 -435 4294 -384 
L 4294 723 
L 5958 723 
C 6048 723 6112 755 6125 826 
C 5914 1024 5581 1280 5581 1280 
L 5286 915 
L 4294 915 
L 4294 1222 
C 4454 1248 4512 1306 4525 1402 
L 3891 1466 
z
M 1376 5370 
C 1126 4653 710 4013 301 3616 
L 390 3546 
C 755 3770 1101 4096 1395 4506 
L 1850 4506 
C 1958 4333 2067 4096 2080 3904 
C 2368 3642 2707 4134 2131 4506 
L 3270 4506 
C 3354 4506 3418 4538 3430 4608 
C 3251 4787 2950 5024 2950 5024 
L 2694 4691 
L 1517 4691 
C 1587 4800 1651 4915 1715 5037 
C 1850 5018 1939 5069 1965 5146 
L 1376 5370 
z
M 3814 5370 
C 3597 4794 3258 4243 2944 3910 
L 3027 3834 
C 3290 4000 3546 4230 3776 4506 
L 4096 4506 
C 4230 4333 4358 4090 4384 3898 
C 4698 3648 5018 4160 4435 4506 
L 5830 4506 
C 5920 4506 5978 4538 5997 4608 
C 5792 4800 5459 5050 5459 5050 
L 5178 4691 
L 3923 4691 
C 4006 4806 4083 4922 4154 5050 
C 4288 5030 4365 5088 4390 5152 
L 3814 5370 
z
" transform="scale(0.015625)"/>
       </defs>
       <use xlink:href="#NotoSerifCJKjp-Regular-9884"/>
       <use xlink:href="#NotoSerifCJKjp-Regular-7b97" transform="translate(99.999985 0)"/>
      </g>
     </g>
    </g>
    <g id="ytick_12">
     <g id="line2d_16"/>
     <g id="text_16">
      <!-- 购置评价 -->
      <g style="fill: #2f3437" transform="translate(7.2 508.48104) scale(0.09 -0.09)">
       <defs>
        <path id="NotoSerifCJKjp-Regular-8d2d" d="M 1990 3962 
L 1402 4109 
C 1402 1651 1421 461 205 -390 
L 294 -499 
C 1766 301 1715 1574 1754 3821 
C 1901 3821 1965 3885 1990 3962 
z
M 1690 1338 
L 1613 1293 
C 1907 941 2253 352 2291 -96 
C 2720 -461 3085 563 1690 1338 
z
M 493 5018 
L 493 1421 
L 550 1421 
C 742 1421 858 1517 858 1549 
L 858 4634 
L 2227 4634 
L 2227 1504 
L 2285 1504 
C 2458 1504 2605 1600 2605 1632 
L 2605 4602 
C 2739 4621 2810 4659 2854 4704 
L 2400 5062 
L 2195 4819 
L 934 4819 
L 493 5018 
z
M 4358 2451 
L 4269 2413 
C 4410 2150 4563 1792 4659 1434 
C 4122 1370 3590 1318 3232 1299 
C 3622 1837 4051 2630 4282 3194 
C 4403 3181 4480 3232 4512 3296 
L 3904 3558 
C 3763 2963 3360 1856 3027 1357 
C 2989 1318 2880 1293 2880 1293 
L 3123 762 
C 3181 787 3232 845 3270 928 
C 3814 1043 4333 1190 4691 1299 
C 4730 1133 4749 973 4749 826 
C 5114 461 5485 1402 4358 2451 
z
M 4122 5216 
L 3462 5370 
C 3315 4403 3027 3386 2707 2701 
L 2816 2650 
C 3098 3021 3354 3514 3558 4051 
L 5523 4051 
C 5478 1824 5370 371 5133 134 
C 5062 58 5011 45 4883 45 
C 4742 45 4294 83 4013 115 
L 4006 -6 
C 4256 -45 4518 -115 4621 -186 
C 4704 -250 4730 -365 4730 -493 
C 5018 -499 5280 -397 5453 -186 
C 5754 179 5869 1613 5920 4000 
C 6061 4013 6144 4045 6189 4102 
L 5702 4512 
L 5459 4237 
L 3629 4237 
C 3731 4506 3814 4787 3891 5069 
C 4026 5075 4096 5133 4122 5216 
z
" transform="scale(0.015625)"/>
        <path id="NotoSerifCJKjp-Regular-7f6e" d="M 979 5024 
L 979 3597 
L 1037 3597 
C 1197 3597 1382 3693 1382 3725 
L 1382 3930 
L 5114 3930 
L 5114 3648 
L 5178 3648 
C 5306 3648 5517 3738 5523 3776 
L 5523 4762 
C 5651 4787 5760 4838 5798 4883 
L 5280 5280 
L 5050 5024 
L 1427 5024 
L 979 5235 
L 979 5024 
z
M 1382 4115 
L 1382 4838 
L 2336 4838 
L 2336 4115 
L 1382 4115 
z
M 5114 4115 
L 4109 4115 
L 4109 4838 
L 5114 4838 
L 5114 4115 
z
M 2733 4115 
L 2733 4838 
L 3718 4838 
L 3718 4115 
L 2733 4115 
z
M 2419 1920 
L 4710 1920 
L 4710 1446 
L 2419 1446 
L 2419 1920 
z
M 2419 2099 
L 2419 2566 
L 4710 2566 
L 4710 2099 
L 2419 2099 
z
M 2419 1254 
L 4710 1254 
L 4710 774 
L 2419 774 
L 2419 1254 
z
M 3034 3923 
L 3014 3418 
L 390 3418 
L 448 3226 
L 3008 3226 
L 2982 2758 
L 2451 2758 
L 2003 2957 
L 2003 314 
L 2074 314 
C 2246 314 2419 410 2419 448 
L 2419 589 
L 4710 589 
L 4710 358 
L 4774 358 
C 4909 358 5114 467 5120 506 
L 5120 2490 
C 5248 2515 5350 2566 5395 2618 
L 4877 3008 
L 4646 2758 
L 3315 2758 
L 3392 3226 
L 5882 3226 
C 5971 3226 6042 3258 6054 3328 
C 5843 3514 5517 3750 5517 3750 
L 5216 3418 
L 3424 3418 
L 3462 3693 
C 3590 3706 3667 3776 3680 3866 
L 3034 3923 
z
M 870 2720 
L 870 -499 
L 954 -499 
C 1101 -499 1274 -410 1274 -352 
L 1274 -154 
L 5958 -154 
C 6048 -154 6112 -122 6131 -51 
C 5914 154 5574 416 5574 416 
L 5267 38 
L 1274 38 
L 1274 2483 
C 1427 2502 1485 2560 1498 2650 
L 870 2720 
z
" transform="scale(0.015625)"/>
        <path id="NotoSerifCJKjp-Regular-8bc4" d="M 5869 3923 
L 5222 4173 
C 5120 3706 4877 2982 4595 2490 
L 4666 2419 
C 5082 2822 5434 3418 5626 3827 
C 5786 3814 5837 3853 5869 3923 
z
M 2438 4128 
L 2349 4096 
C 2554 3693 2778 3085 2790 2618 
C 3200 2214 3622 3187 2438 4128 
z
M 826 5344 
L 749 5293 
C 986 5043 1267 4627 1350 4301 
C 1766 4006 2093 4851 826 5344 
z
M 1485 3386 
C 1626 3411 1709 3462 1741 3507 
L 1306 3872 
L 1094 3642 
L 211 3642 
L 269 3450 
L 1088 3450 
L 1088 634 
C 1088 518 1056 480 858 378 
L 1139 -134 
C 1197 -109 1267 -38 1306 64 
C 1830 544 2298 1018 2547 1261 
L 2496 1344 
L 1485 678 
L 1485 3386 
z
M 5651 2496 
L 5350 2118 
L 4179 2118 
L 4179 4576 
L 5754 4576 
C 5837 4576 5901 4608 5914 4678 
C 5702 4877 5363 5146 5363 5146 
L 5056 4768 
L 2202 4768 
L 2253 4576 
L 3763 4576 
L 3763 2118 
L 1933 2118 
L 1984 1926 
L 3763 1926 
L 3763 -506 
L 3834 -506 
C 4045 -506 4179 -397 4179 -365 
L 4179 1926 
L 6029 1926 
C 6118 1926 6189 1958 6208 2029 
C 5990 2227 5651 2496 5651 2496 
z
" transform="scale(0.015625)"/>
        <path id="NotoSerifCJKjp-Regular-4ef7" d="M 4550 3194 
L 4550 -486 
L 4634 -486 
C 4794 -486 4966 -397 4966 -339 
L 4966 2957 
C 5126 2976 5184 3040 5197 3123 
L 4550 3194 
z
M 2874 3181 
L 2874 2099 
C 2874 1203 2688 230 1619 -410 
L 1690 -499 
C 3059 96 3296 1158 3302 2086 
L 3302 2944 
C 3456 2963 3507 3027 3520 3110 
L 2874 3181 
z
M 4038 4998 
C 4365 4090 5075 3296 5882 2790 
C 5920 2950 6061 3085 6234 3117 
L 6246 3206 
C 5376 3622 4557 4282 4147 5082 
C 4294 5088 4365 5126 4378 5190 
L 3674 5357 
C 3437 4480 2490 3296 1632 2720 
L 1683 2630 
C 2662 3149 3603 4077 4038 4998 
z
M 1651 5363 
C 1325 4134 762 2893 218 2112 
L 307 2042 
C 589 2323 851 2669 1101 3053 
L 1101 -493 
L 1178 -493 
C 1344 -493 1517 -390 1523 -352 
L 1523 3450 
C 1632 3462 1696 3507 1715 3565 
L 1453 3661 
C 1683 4090 1894 4557 2067 5030 
C 2214 5024 2291 5082 2317 5152 
L 1651 5363 
z
" transform="scale(0.015625)"/>
       </defs>
       <use xlink:href="#NotoSerifCJKjp-Regular-8d2d"/>
       <use xlink:href="#NotoSerifCJKjp-Regular-7f6e" transform="translate(99.999985 0)"/>
       <use xlink:href="#NotoSerifCJKjp-Regular-8bc4" transform="translate(199.999969 0)"/>
       <use xlink:href="#NotoSerifCJKjp-Regular-4ef7" transform="translate(299.999954 0)"/>
      </g>
     </g>
    </g>
   </g>
   <g id="text_17">
    <!-- 通过 -->
    <g style="fill: #2f3437" transform="translate(84.5625 44.68836) scale(0.085 -0.085)">
     <defs>
      <path id="NotoSerifCJKjp-Regular-901a" d="M 595 5171 
L 525 5120 
C 845 4838 1222 4346 1306 3949 
C 1779 3597 2125 4653 595 5171 
z
M 2656 2630 
L 3757 2630 
L 3757 1850 
L 2656 1850 
L 2656 2630 
z
M 2656 2816 
L 2656 3565 
L 3757 3565 
L 3757 2816 
L 2656 2816 
z
M 2918 4602 
L 2886 4493 
C 3494 4282 3923 4013 4154 3763 
L 4173 3750 
L 2694 3750 
L 2253 3955 
L 2253 365 
L 2323 365 
C 2496 365 2656 467 2656 512 
L 2656 1664 
L 3757 1664 
L 3757 416 
L 3814 416 
C 4026 416 4154 512 4154 538 
L 4154 1664 
L 5280 1664 
L 5280 973 
C 5280 883 5261 851 5158 851 
C 5043 851 4582 890 4582 890 
L 4582 787 
C 4806 762 4928 710 5005 653 
C 5069 589 5094 486 5107 365 
C 5632 422 5696 608 5696 934 
L 5696 3488 
C 5818 3507 5926 3565 5965 3603 
L 5427 4013 
L 5216 3750 
L 4486 3750 
C 4589 3840 4576 4032 4269 4218 
C 4691 4371 5222 4595 5510 4794 
C 5651 4800 5728 4806 5779 4851 
L 5306 5306 
L 5030 5043 
L 2182 5043 
L 2240 4858 
L 4909 4858 
C 4685 4666 4378 4454 4122 4294 
C 3872 4416 3488 4525 2918 4602 
z
M 4154 3565 
L 5280 3565 
L 5280 2816 
L 4154 2816 
L 4154 3565 
z
M 4154 2630 
L 5280 2630 
L 5280 1850 
L 4154 1850 
L 4154 2630 
z
M 1530 2381 
C 1702 2406 1798 2458 1837 2502 
L 1293 2963 
L 1043 2630 
L 262 2630 
L 301 2445 
L 1126 2445 
L 1126 525 
C 800 326 461 134 237 32 
L 544 -480 
C 602 -454 627 -410 614 -333 
C 845 -128 1210 256 1446 538 
C 1901 -192 2426 -339 3603 -339 
C 4320 -339 5210 -339 5850 -339 
C 5875 -147 5984 -32 6170 6 
L 6170 96 
C 5389 70 4358 70 3597 70 
C 2483 70 1990 147 1530 672 
L 1530 2381 
z
" transform="scale(0.015625)"/>
      <path id="NotoSerifCJKjp-Regular-8fc7" d="M 2630 3206 
L 2560 3149 
C 2950 2758 3149 2163 3251 1798 
C 3648 1434 4006 2502 2630 3206 
z
M 666 5254 
L 589 5210 
C 883 4864 1280 4294 1395 3891 
C 1837 3571 2150 4499 666 5254 
z
M 5638 4378 
L 5350 3949 
L 4922 3949 
L 4922 5075 
C 5075 5094 5139 5152 5158 5242 
L 4512 5312 
L 4512 3949 
L 2093 3949 
L 2144 3763 
L 4512 3763 
L 4512 1030 
C 4512 928 4474 883 4339 883 
C 4186 883 3386 941 3386 941 
L 3386 845 
C 3718 800 3917 742 4026 672 
C 4128 602 4173 499 4198 371 
C 4851 429 4922 653 4922 998 
L 4922 3763 
L 5978 3763 
C 6067 3763 6125 3795 6144 3866 
C 5958 4070 5638 4378 5638 4378 
z
M 1242 845 
C 960 653 499 262 186 45 
L 557 -448 
C 614 -410 627 -352 602 -294 
C 832 19 1229 493 1376 691 
C 1453 768 1510 781 1594 691 
C 2182 -83 2803 -314 4000 -314 
C 4678 -314 5248 -314 5837 -314 
C 5862 -128 5965 6 6157 45 
L 6157 128 
C 5427 96 4838 96 4128 96 
C 2957 96 2266 224 1683 864 
C 1664 883 1645 902 1632 909 
L 1632 2970 
C 1811 2995 1894 3046 1946 3091 
L 1395 3552 
L 1146 3219 
L 224 3219 
L 262 3034 
L 1242 3034 
L 1242 845 
z
" transform="scale(0.015625)"/>
     </defs>
     <use xlink:href="#NotoSerifCJKjp-Regular-901a"/>
     <use xlink:href="#NotoSerifCJKjp-Regular-8fc7" transform="translate(99.999985 0)"/>
    </g>
   </g>
   <g id="text_18">
    <!-- 通过 -->
    <g style="fill: #2f3437" transform="translate(177.2875 44.68836) scale(0.085 -0.085)">
     <use xlink:href="#NotoSerifCJKjp-Regular-901a"/>
     <use xlink:href="#NotoSerifCJKjp-Regular-8fc7" transform="translate(99.999985 0)"/>
    </g>
   </g>
   <g id="text_19">
    <!-- 通过 -->
    <g style="fill: #2f3437" transform="translate(270.0125 44.68836) scale(0.085 -0.085)">
     <use xlink:href="#NotoSerifCJKjp-Regular-901a"/>
     <use xlink:href="#NotoSerifCJKjp-Regular-8fc7" transform="translate(99.999985 0)"/>
    </g>
   </g>
   <g id="text_20">
    <!-- 通过 -->
    <g style="fill: #2f3437" transform="translate(362.7375 44.68836) scale(0.085 -0.085)">
     <use xlink:href="#NotoSerifCJKjp-Regular-901a"/>
     <use xlink:href="#NotoSerifCJKjp-Regular-8fc7" transform="translate(99.999985 0)"/>
    </g>
   </g>
   <g id="text_21">
    <!-- 通过 -->
    <g style="fill: #2f3437" transform="translate(84.5625 86.732581) scale(0.085 -0.085)">
     <use xlink:href="#NotoSerifCJKjp-Regular-901a"/>
     <use xlink:href="#NotoSerifCJKjp-Regular-8fc7" transform="translate(99.999985 0)"/>
    </g>
   </g>
   <g id="text_22">
    <!-- 通过 -->
    <g style="fill: #2f3437" transform="translate(177.2875 86.732581) scale(0.085 -0.085)">
     <use xlink:href="#NotoSerifCJKjp-Regular-901a"/>
     <use xlink:href="#NotoSerifCJKjp-Regular-8fc7" transform="translate(99.999985 0)"/>
    </g>
   </g>
   <g id="text_23">
    <!-- 通过 -->
    <g style="fill: #2f3437" transform="translate(270.0125 86.732581) scale(0.085 -0.085)">
     <use xlink:href="#NotoSerifCJKjp-Regular-901a"/>
     <use xlink:href="#NotoSerifCJKjp-Regular-8fc7" transform="translate(99.999985 0)"/>
    </g>
   </g>
   <g id="text_24">
    <!-- 通过 -->
    <g style="fill: #2f3437" transform="translate(362.7375 86.732581) scale(0.085 -0.085)">
     <use xlink:href="#NotoSerifCJKjp-Regular-901a"/>
     <use xlink:href="#NotoSerifCJKjp-Regular-8fc7" transform="translate(99.999985 0)"/>
    </g>
   </g>
   <g id="text_25">
    <!-- 通过 -->
    <g style="fill: #2f3437" transform="translate(84.5625 128.776802) scale(0.085 -0.085)">
     <use xlink:href="#NotoSerifCJKjp-Regular-901a"/>
     <use xlink:href="#NotoSerifCJKjp-Regular-8fc7" transform="translate(99.999985 0)"/>
    </g>
   </g>
   <g id="text_26">
    <!-- 通过 -->
    <g style="fill: #2f3437" transform="translate(177.2875 128.776802) scale(0.085 -0.085)">
     <use xlink:href="#NotoSerifCJKjp-Regular-901a"/>
     <use xlink:href="#NotoSerifCJKjp-Regular-8fc7" transform="translate(99.999985 0)"/>
    </g>
   </g>
   <g id="text_27">
    <!-- 通过 -->
    <g style="fill: #2f3437" transform="translate(270.0125 128.776802) scale(0.085 -0.085)">
     <use xlink:href="#NotoSerifCJKjp-Regular-901a"/>
     <use xlink:href="#NotoSerifCJKjp-Regular-8fc7" transform="translate(99.999985 0)"/>
    </g>
   </g>
   <g id="text_28">
    <!-- 通过 -->
    <g style="fill: #2f3437" transform="translate(362.7375 128.776802) scale(0.085 -0.085)">
     <use xlink:href="#NotoSerifCJKjp-Regular-901a"/>
     <use xlink:href="#NotoSerifCJKjp-Regular-8fc7" transform="translate(99.999985 0)"/>
    </g>
   </g>
   <g id="text_29">
    <!-- 通过 -->
    <g style="fill: #2f3437" transform="translate(84.5625 170.821023) scale(0.085 -0.085)">
     <use xlink:href="#NotoSerifCJKjp-Regular-901a"/>
     <use xlink:href="#NotoSerifCJKjp-Regular-8fc7" transform="translate(99.999985 0)"/>
    </g>
   </g>
   <g id="text_30">
    <!-- 通过 -->
    <g style="fill: #2f3437" transform="translate(177.2875 170.821023) scale(0.085 -0.085)">
     <use xlink:href="#NotoSerifCJKjp-Regular-901a"/>
     <use xlink:href="#NotoSerifCJKjp-Regular-8fc7" transform="translate(99.999985 0)"/>
    </g>
   </g>
   <g id="text_31">
    <!-- 通过 -->
    <g style="fill: #2f3437" transform="translate(270.0125 170.821023) scale(0.085 -0.085)">
     <use xlink:href="#NotoSerifCJKjp-Regular-901a"/>
     <use xlink:href="#NotoSerifCJKjp-Regular-8fc7" transform="translate(99.999985 0)"/>
    </g>
   </g>
   <g id="text_32">
    <!-- 通过 -->
    <g style="fill: #2f3437" transform="translate(362.7375 170.821023) scale(0.085 -0.085)">
     <use xlink:href="#NotoSerifCJKjp-Regular-901a"/>
     <use xlink:href="#NotoSerifCJKjp-Regular-8fc7" transform="translate(99.999985 0)"/>
    </g>
   </g>
   <g id="text_33">
    <!-- 通过 -->
    <g style="fill: #2f3437" transform="translate(84.5625 212.865244) scale(0.085 -0.085)">
     <use xlink:href="#NotoSerifCJKjp-Regular-901a"/>
     <use xlink:href="#NotoSerifCJKjp-Regular-8fc7" transform="translate(99.999985 0)"/>
    </g>
   </g>
   <g id="text_34">
    <!-- 通过 -->
    <g style="fill: #2f3437" transform="translate(177.2875 212.865244) scale(0.085 -0.085)">
     <use xlink:href="#NotoSerifCJKjp-Regular-901a"/>
     <use xlink:href="#NotoSerifCJKjp-Regular-8fc7" transform="translate(99.999985 0)"/>
    </g>
   </g>
   <g id="text_35">
    <!-- 通过 -->
    <g style="fill: #2f3437" transform="translate(270.0125 212.865244) scale(0.085 -0.085)">
     <use xlink:href="#NotoSerifCJKjp-Regular-901a"/>
     <use xlink:href="#NotoSerifCJKjp-Regular-8fc7" transform="translate(99.999985 0)"/>
    </g>
   </g>
   <g id="text_36">
    <!-- 通过 -->
    <g style="fill: #2f3437" transform="translate(362.7375 212.865244) scale(0.085 -0.085)">
     <use xlink:href="#NotoSerifCJKjp-Regular-901a"/>
     <use xlink:href="#NotoSerifCJKjp-Regular-8fc7" transform="translate(99.999985 0)"/>
    </g>
   </g>
   <g id="text_37">
    <!-- 通过 -->
    <g style="fill: #2f3437" transform="translate(84.5625 254.909465) scale(0.085 -0.085)">
     <use xlink:href="#NotoSerifCJKjp-Regular-901a"/>
     <use xlink:href="#NotoSerifCJKjp-Regular-8fc7" transform="translate(99.999985 0)"/>
    </g>
   </g>
   <g id="text_38">
    <!-- 通过 -->
    <g style="fill: #2f3437" transform="translate(177.2875 254.909465) scale(0.085 -0.085)">
     <use xlink:href="#NotoSerifCJKjp-Regular-901a"/>
     <use xlink:href="#NotoSerifCJKjp-Regular-8fc7" transform="translate(99.999985 0)"/>
    </g>
   </g>
   <g id="text_39">
    <!-- 通过 -->
    <g style="fill: #2f3437" transform="translate(270.0125 254.909465) scale(0.085 -0.085)">
     <use xlink:href="#NotoSerifCJKjp-Regular-901a"/>
     <use xlink:href="#NotoSerifCJKjp-Regular-8fc7" transform="translate(99.999985 0)"/>
    </g>
   </g>
   <g id="text_40">
    <!-- 通过 -->
    <g style="fill: #2f3437" transform="translate(362.7375 254.909465) scale(0.085 -0.085)">
     <use xlink:href="#NotoSerifCJKjp-Regular-901a"/>
     <use xlink:href="#NotoSerifCJKjp-Regular-8fc7" transform="translate(99.999985 0)"/>
    </g>
   </g>
   <g id="text_41">
    <!-- 不适用 -->
    <g style="fill: #2f3437" transform="translate(80.3125 296.953685) scale(0.085 -0.085)">
     <defs>
      <path id="NotoSerifCJKjp-Regular-9002" d="M 659 5216 
L 595 5152 
C 883 4941 1267 4563 1382 4256 
C 1837 4019 2061 4928 659 5216 
z
M 390 3898 
L 333 3840 
C 640 3642 1030 3290 1165 2995 
C 1626 2778 1811 3699 390 3898 
z
M 2560 2464 
L 2560 397 
L 2624 397 
C 2803 397 2970 493 2970 531 
L 2970 813 
L 5126 813 
L 5126 442 
L 5190 442 
C 5325 442 5536 538 5542 582 
L 5542 2202 
C 5670 2227 5773 2278 5811 2330 
L 5293 2726 
L 5062 2464 
L 4250 2464 
L 4250 3494 
L 6022 3494 
C 6112 3494 6176 3526 6195 3597 
C 5978 3802 5626 4083 5626 4083 
L 5312 3680 
L 4250 3680 
L 4250 4678 
C 4685 4749 5088 4826 5414 4902 
C 5574 4838 5690 4838 5754 4890 
L 5254 5357 
C 4595 5082 3322 4736 2285 4576 
L 2310 4461 
C 2803 4486 3328 4544 3827 4614 
L 3827 3680 
L 2016 3680 
L 2067 3494 
L 3827 3494 
L 3827 2464 
L 3002 2464 
L 2560 2669 
L 2560 2464 
z
M 5126 998 
L 2970 998 
L 2970 2285 
L 5126 2285 
L 5126 998 
z
M 1536 1914 
C 1709 1933 1805 1990 1850 2029 
L 1299 2490 
L 1050 2163 
L 243 2163 
L 282 1971 
L 1139 1971 
L 1139 531 
C 813 333 467 141 243 38 
L 544 -480 
C 602 -448 627 -410 614 -326 
C 845 -122 1216 250 1453 525 
C 1914 -186 2432 -333 3610 -333 
C 4326 -333 5210 -333 5850 -333 
C 5875 -141 5984 -19 6176 13 
L 6176 102 
C 5389 77 4358 77 3597 77 
C 2483 77 1997 154 1536 653 
L 1536 1914 
z
" transform="scale(0.015625)"/>
      <path id="NotoSerifCJKjp-Regular-7528" d="M 1498 3219 
L 3021 3219 
L 3021 1875 
L 1446 1875 
C 1491 2246 1498 2611 1498 2957 
L 1498 3219 
z
M 1498 3405 
L 1498 4717 
L 3021 4717 
L 3021 3405 
L 1498 3405 
z
M 1075 4902 
L 1075 2950 
C 1075 1728 986 525 243 -429 
L 339 -493 
C 1024 109 1312 890 1421 1683 
L 3021 1683 
L 3021 -442 
L 3085 -442 
C 3296 -442 3437 -339 3437 -307 
L 3437 1683 
L 5088 1683 
L 5088 186 
C 5088 83 5050 38 4922 38 
C 4787 38 4102 96 4102 96 
L 4102 -6 
C 4403 -51 4570 -102 4672 -166 
C 4762 -237 4800 -352 4813 -480 
C 5434 -416 5504 -198 5504 134 
L 5504 4614 
C 5645 4646 5760 4704 5805 4762 
L 5242 5190 
L 5018 4902 
L 1574 4902 
L 1075 5120 
L 1075 4902 
z
M 5088 3219 
L 5088 1875 
L 3437 1875 
L 3437 3219 
L 5088 3219 
z
M 5088 3405 
L 3437 3405 
L 3437 4717 
L 5088 4717 
L 5088 3405 
z
" transform="scale(0.015625)"/>
     </defs>
     <use xlink:href="#NotoSerifCJKjp-Regular-4e0d"/>
     <use xlink:href="#NotoSerifCJKjp-Regular-9002" transform="translate(99.999985 0)"/>
     <use xlink:href="#NotoSerifCJKjp-Regular-7528" transform="translate(199.999969 0)"/>
    </g>
   </g>
   <g id="text_42">
    <!-- 通过 -->
    <g style="fill: #2f3437" transform="translate(177.2875 296.953685) scale(0.085 -0.085)">
     <use xlink:href="#NotoSerifCJKjp-Regular-901a"/>
     <use xlink:href="#NotoSerifCJKjp-Regular-8fc7" transform="translate(99.999985 0)"/>
    </g>
   </g>
   <g id="text_43">
    <!-- 通过 -->
    <g style="fill: #2f3437" transform="translate(270.0125 296.953685) scale(0.085 -0.085)">
     <use xlink:href="#NotoSerifCJKjp-Regular-901a"/>
     <use xlink:href="#NotoSerifCJKjp-Regular-8fc7" transform="translate(99.999985 0)"/>
    </g>
   </g>
   <g id="text_44">
    <!-- 通过 -->
    <g style="fill: #2f3437" transform="translate(362.7375 296.953685) scale(0.085 -0.085)">
     <use xlink:href="#NotoSerifCJKjp-Regular-901a"/>
     <use xlink:href="#NotoSerifCJKjp-Regular-8fc7" transform="translate(99.999985 0)"/>
    </g>
   </g>
   <g id="text_45">
    <!-- 不适用 -->
    <g style="fill: #2f3437" transform="translate(80.3125 338.997906) scale(0.085 -0.085)">
     <use xlink:href="#NotoSerifCJKjp-Regular-4e0d"/>
     <use xlink:href="#NotoSerifCJKjp-Regular-9002" transform="translate(99.999985 0)"/>
     <use xlink:href="#NotoSerifCJKjp-Regular-7528" transform="translate(199.999969 0)"/>
    </g>
   </g>
   <g id="text_46">
    <!-- 通过 -->
    <g style="fill: #2f3437" transform="translate(177.2875 338.997906) scale(0.085 -0.085)">
     <use xlink:href="#NotoSerifCJKjp-Regular-901a"/>
     <use xlink:href="#NotoSerifCJKjp-Regular-8fc7" transform="translate(99.999985 0)"/>
    </g>
   </g>
   <g id="text_47">
    <!-- 通过 -->
    <g style="fill: #2f3437" transform="translate(270.0125 338.997906) scale(0.085 -0.085)">
     <use xlink:href="#NotoSerifCJKjp-Regular-901a"/>
     <use xlink:href="#NotoSerifCJKjp-Regular-8fc7" transform="translate(99.999985 0)"/>
    </g>
   </g>
   <g id="text_48">
    <!-- 通过 -->
    <g style="fill: #2f3437" transform="translate(362.7375 338.997906) scale(0.085 -0.085)">
     <use xlink:href="#NotoSerifCJKjp-Regular-901a"/>
     <use xlink:href="#NotoSerifCJKjp-Regular-8fc7" transform="translate(99.999985 0)"/>
    </g>
   </g>
   <g id="text_49">
    <!-- 不适用 -->
    <g style="fill: #2f3437" transform="translate(80.3125 381.042127) scale(0.085 -0.085)">
     <use xlink:href="#NotoSerifCJKjp-Regular-4e0d"/>
     <use xlink:href="#NotoSerifCJKjp-Regular-9002" transform="translate(99.999985 0)"/>
     <use xlink:href="#NotoSerifCJKjp-Regular-7528" transform="translate(199.999969 0)"/>
    </g>
   </g>
   <g id="text_50">
    <!-- 通过 -->
    <g style="fill: #2f3437" transform="translate(177.2875 381.042127) scale(0.085 -0.085)">
     <use xlink:href="#NotoSerifCJKjp-Regular-901a"/>
     <use xlink:href="#NotoSerifCJKjp-Regular-8fc7" transform="translate(99.999985 0)"/>
    </g>
   </g>
   <g id="text_51">
    <!-- 通过 -->
    <g style="fill: #2f3437" transform="translate(270.0125 381.042127) scale(0.085 -0.085)">
     <use xlink:href="#NotoSerifCJKjp-Regular-901a"/>
     <use xlink:href="#NotoSerifCJKjp-Regular-8fc7" transform="translate(99.999985 0)"/>
    </g>
   </g>
   <g id="text_52">
    <!-- 通过 -->
    <g style="fill: #2f3437" transform="translate(362.7375 381.042127) scale(0.085 -0.085)">
     <use xlink:href="#NotoSerifCJKjp-Regular-901a"/>
     <use xlink:href="#NotoSerifCJKjp-Regular-8fc7" transform="translate(99.999985 0)"/>
    </g>
   </g>
   <g id="text_53">
    <!-- 不适用 -->
    <g style="fill: #2f3437" transform="translate(80.3125 423.086348) scale(0.085 -0.085)">
     <use xlink:href="#NotoSerifCJKjp-Regular-4e0d"/>
     <use xlink:href="#NotoSerifCJKjp-Regular-9002" transform="translate(99.999985 0)"/>
     <use xlink:href="#NotoSerifCJKjp-Regular-7528" transform="translate(199.999969 0)"/>
    </g>
   </g>
   <g id="text_54">
    <!-- 不适用 -->
    <g style="fill: #2f3437" transform="translate(173.0375 423.086348) scale(0.085 -0.085)">
     <use xlink:href="#NotoSerifCJKjp-Regular-4e0d"/>
     <use xlink:href="#NotoSerifCJKjp-Regular-9002" transform="translate(99.999985 0)"/>
     <use xlink:href="#NotoSerifCJKjp-Regular-7528" transform="translate(199.999969 0)"/>
    </g>
   </g>
   <g id="text_55">
    <!-- 通过 -->
    <g style="fill: #2f3437" transform="translate(270.0125 423.086348) scale(0.085 -0.085)">
     <use xlink:href="#NotoSerifCJKjp-Regular-901a"/>
     <use xlink:href="#NotoSerifCJKjp-Regular-8fc7" transform="translate(99.999985 0)"/>
    </g>
   </g>
   <g id="text_56">
    <!-- 通过 -->
    <g style="fill: #2f3437" transform="translate(362.7375 423.086348) scale(0.085 -0.085)">
     <use xlink:href="#NotoSerifCJKjp-Regular-901a"/>
     <use xlink:href="#NotoSerifCJKjp-Regular-8fc7" transform="translate(99.999985 0)"/>
    </g>
   </g>
   <g id="text_57">
    <!-- 不适用 -->
    <g style="fill: #2f3437" transform="translate(80.3125 465.130569) scale(0.085 -0.085)">
     <use xlink:href="#NotoSerifCJKjp-Regular-4e0d"/>
     <use xlink:href="#NotoSerifCJKjp-Regular-9002" transform="translate(99.999985 0)"/>
     <use xlink:href="#NotoSerifCJKjp-Regular-7528" transform="translate(199.999969 0)"/>
    </g>
   </g>
   <g id="text_58">
    <!-- 不适用 -->
    <g style="fill: #2f3437" transform="translate(173.0375 465.130569) scale(0.085 -0.085)">
     <use xlink:href="#NotoSerifCJKjp-Regular-4e0d"/>
     <use xlink:href="#NotoSerifCJKjp-Regular-9002" transform="translate(99.999985 0)"/>
     <use xlink:href="#NotoSerifCJKjp-Regular-7528" transform="translate(199.999969 0)"/>
    </g>
   </g>
   <g id="text_59">
    <!-- 不适用 -->
    <g style="fill: #2f3437" transform="translate(265.7625 465.130569) scale(0.085 -0.085)">
     <use xlink:href="#NotoSerifCJKjp-Regular-4e0d"/>
     <use xlink:href="#NotoSerifCJKjp-Regular-9002" transform="translate(99.999985 0)"/>
     <use xlink:href="#NotoSerifCJKjp-Regular-7528" transform="translate(199.999969 0)"/>
    </g>
   </g>
   <g id="text_60">
    <!-- 通过 -->
    <g style="fill: #2f3437" transform="translate(362.7375 465.130569) scale(0.085 -0.085)">
     <use xlink:href="#NotoSerifCJKjp-Regular-901a"/>
     <use xlink:href="#NotoSerifCJKjp-Regular-8fc7" transform="translate(99.999985 0)"/>
    </g>
   </g>
   <g id="text_61">
    <!-- 不适用 -->
    <g style="fill: #2f3437" transform="translate(80.3125 507.17479) scale(0.085 -0.085)">
     <use xlink:href="#NotoSerifCJKjp-Regular-4e0d"/>
     <use xlink:href="#NotoSerifCJKjp-Regular-9002" transform="translate(99.999985 0)"/>
     <use xlink:href="#NotoSerifCJKjp-Regular-7528" transform="translate(199.999969 0)"/>
    </g>
   </g>
   <g id="text_62">
    <!-- 不适用 -->
    <g style="fill: #2f3437" transform="translate(173.0375 507.17479) scale(0.085 -0.085)">
     <use xlink:href="#NotoSerifCJKjp-Regular-4e0d"/>
     <use xlink:href="#NotoSerifCJKjp-Regular-9002" transform="translate(99.999985 0)"/>
     <use xlink:href="#NotoSerifCJKjp-Regular-7528" transform="translate(199.999969 0)"/>
    </g>
   </g>
   <g id="text_63">
    <!-- 不适用 -->
    <g style="fill: #2f3437" transform="translate(265.7625 507.17479) scale(0.085 -0.085)">
     <use xlink:href="#NotoSerifCJKjp-Regular-4e0d"/>
     <use xlink:href="#NotoSerifCJKjp-Regular-9002" transform="translate(99.999985 0)"/>
     <use xlink:href="#NotoSerifCJKjp-Regular-7528" transform="translate(199.999969 0)"/>
    </g>
   </g>
   <g id="text_64">
    <!-- 通过 -->
    <g style="fill: #2f3437" transform="translate(362.7375 507.17479) scale(0.085 -0.085)">
     <use xlink:href="#NotoSerifCJKjp-Regular-901a"/>
     <use xlink:href="#NotoSerifCJKjp-Regular-8fc7" transform="translate(99.999985 0)"/>
    </g>
   </g>
   <g id="legend_1">
    <g id="patch_51">
     <path d="M 173.65 562.301569 
L 290.65 562.301569 
Q 292.45 562.301569 292.45 560.501569 
L 292.45 547.316569 
Q 292.45 545.516569 290.65 545.516569 
L 173.65 545.516569 
Q 171.85 545.516569 171.85 547.316569 
L 171.85 560.501569 
Q 171.85 562.301569 173.65 562.301569 
z
" style="fill: #fafaf7; opacity: 0.8; stroke: #b8c2cc; stroke-linejoin: miter"/>
    </g>
    <g id="patch_52">
     <path d="M 175.45 556.361569 
L 193.45 556.361569 
L 193.45 550.06157 
L 175.45 550.06157 
z
" style="fill: #8fd3b5; stroke: #8fd3b5; stroke-linejoin: miter"/>
    </g>
    <g id="text_65">
     <!-- 通过 -->
     <g transform="translate(200.65 556.361569) scale(0.09 -0.09)">
      <use xlink:href="#NotoSerifCJKjp-Regular-901a"/>
      <use xlink:href="#NotoSerifCJKjp-Regular-8fc7" transform="translate(99.999985 0)"/>
     </g>
    </g>
    <g id="patch_53">
     <path d="M 236.65 556.361569 
L 254.65 556.361569 
L 254.65 550.06157 
L 236.65 550.06157 
z
" style="fill: #b8c2cc; stroke: #b8c2cc; stroke-linejoin: miter"/>
    </g>
    <g id="text_66">
     <!-- 不适用 -->
     <g transform="translate(261.85 556.361569) scale(0.09 -0.09)">
      <use xlink:href="#NotoSerifCJKjp-Regular-4e0d"/>
      <use xlink:href="#NotoSerifCJKjp-Regular-9002" transform="translate(99.999985 0)"/>
      <use xlink:href="#NotoSerifCJKjp-Regular-7528" transform="translate(199.999969 0)"/>
     </g>
    </g>
   </g>
  </g>
 </g>
 <defs>
  <clipPath id="p18545d78b0">
   <rect x="46.7" y="21.35" width="370.9" height="504.53065"/>
  </clipPath>
 </defs>
</svg>
